<svg version="1.0" xmlns="http://www.w3.org/2000/svg" width="128" height="128" viewBox="0 0 96 96"><path d="M0 48v48h96V0H0v48zm69.2-26.4c11.1 3.7 14.2 5.1 16.3 7.6l2.6 3.1-.3 17.8c-.3 15-.6 18.1-2 19.5-.9.9-7.8 3.4-15.4 5.5l-13.7 3.8-7.1-1.6c-5.8-1.3-8.2-1.4-13.1-.4-5.3.9-7 .8-13.5-1-4.1-1.2-8.7-2.7-10.1-3.5-3-1.5-4.9-5.9-4.9-11V58h7.9c7 0 7.9.2 8.4 2 .4 1.5 1.4 2 3.6 2 2.7 0 3.1-.3 3.1-2.9 0-4-1.6-4.9-9-5.3l-6.5-.3v-10l6.1-.6c7.3-.7 8.4-1.3 8.4-4.5s-3.2-3.2-5.4.1c-1.3 2-2.4 2.5-5.4 2.3-3.6-.1-3.6-.1-.5-.5 3-.4 3.1-.6 2.1-2.9-1.5-3.2-4.6-3.1-5.8.2-1.5 3.8-5.4 3-5.8-1.2-.5-5.6 2.2-10.2 7.2-12.3 11.9-5.2 14-5.6 20.8-4.3 5.7 1.2 6.9 1.1 11.8-.7 3-1.1 5.7-2 6-2 .3-.1 6.7 2 14.2 4.5z"/><path d="M38.3 33.5c0 3.8.2 5.3.4 3.2.2-2 .2-5.2 0-7-.2-1.7-.4-.1-.4 3.8zm15-1.8c-1.9.4-2.3 1.1-2.3 4.5 0 2.2-.7 5.5-1.6 7.4-1.6 3.3-1.8 3.4-7.6 3.4-3.7 0-5.7.4-5.3 1 .3.5 3.3 1 6.6 1 5.9 0 6 .1 7.5 3.5.9 2.3 2.1 3.5 3.4 3.5 1.8 0 2-.7 2-8.1v-8.2l4.1.6c2.3.3 4.6 1.1 5 1.9.5.7.9 5.4.9 10.5 0 8.9 0 9.1 2.3 8.6 4.2-1.1 4.7-2.2 4.7-10.4V43h5c4.2 0 5-.3 5-1.9 0-1-.6-2.3-1.2-2.9-1.5-1.2-13.6-4.7-19.3-5.7-2.2-.3-4.7-.7-5.5-.9-.8-.2-2.5-.1-3.7.1zm29.7 25c0 2.8.3 3.4 1 2.3 1.3-2 1.3-6 0-6-.5 0-1 1.7-1 3.7zM69 63l-3.5.7 4 .1c2.2 0 5.4-.4 7-.8l3-.8H76c-1.9.1-5.1.4-7 .8zm-43.2.7c.6.2 1.8.2 2.5 0 .6-.3.1-.5-1.3-.5-1.4 0-1.9.2-1.2.5z"/></svg>