<svg width="25" height="25" viewBox="0 0 25 25" fill="none" xmlns="http://www.w3.org/2000/svg">
<g clip-path="url(#clip0_3497_65648)">
<path fill-rule="evenodd" clip-rule="evenodd" d="M22.1954 8.7281L22.8153 11.3695C23.7627 11.5231 24.4909 12.3968 24.4909 13.4482V17.7071C24.4909 17.9276 24.323 18.1064 24.1161 18.1064H22.8911C22.8912 18.1153 22.8917 18.124 22.8917 18.133C22.8917 19.5273 21.8269 20.6617 20.5181 20.6617C19.2093 20.6617 18.1445 19.5273 18.1445 18.133C18.1445 18.1282 18.1447 18.1234 18.1448 18.1186L18.1448 18.1184L18.1451 18.1064H9.69874L9.69906 18.1184C9.69923 18.1232 9.6994 18.1281 9.6994 18.133C9.6994 19.5273 8.63456 20.6617 7.32579 20.6617C6.01701 20.6617 4.95217 19.5273 4.95217 18.133C4.95217 18.1281 4.95234 18.1233 4.95251 18.1185L4.95251 18.1184L4.95283 18.1064H2.92835C2.50124 18.1064 2.15379 17.7362 2.15379 17.2812V16.4028H0.929486C0.722475 16.4028 0.554688 16.2241 0.554688 16.0035C0.554688 15.783 0.722522 15.6042 0.929486 15.6042H4.5274C4.73441 15.6042 4.9022 15.783 4.9022 16.0035C4.9022 16.2241 4.73436 16.4028 4.5274 16.4028H2.90334V17.2812C2.90334 17.2959 2.91451 17.3078 2.9283 17.3078H5.08261C5.40448 16.3176 6.28816 15.6042 7.32579 15.6042C8.36341 15.6042 9.24704 16.3176 9.56896 17.3078H17.3449V14.3001C17.3449 14.0795 17.5127 13.9008 17.7197 13.9008C17.9267 13.9008 18.0945 14.0796 18.0945 14.3001V17.3079H18.2749C18.5968 16.3177 19.4805 15.6043 20.5181 15.6043C21.5557 15.6043 22.4394 16.3177 22.7613 17.3079H23.7413V15.5512H23.3165C22.6689 15.5512 22.1422 14.99 22.1422 14.3001V13.4483C22.1422 13.2278 22.31 13.0491 22.517 13.0491H23.6824C23.5237 12.5249 23.0617 12.1445 22.5177 12.1441L22.5167 12.1441L22.5157 12.144H18.0946V12.5966C18.0946 12.8172 17.9267 12.9959 17.7198 12.9959C17.5128 12.9959 17.345 12.8171 17.345 12.5966V5.35642C17.345 5.34172 17.3338 5.32982 17.32 5.32982H2.9283C2.91451 5.32982 2.90334 5.34172 2.90334 5.35642V12.5965C2.90334 12.8171 2.7355 12.9958 2.52854 12.9958C2.32153 12.9958 2.15374 12.817 2.15374 12.5965V5.35642C2.15374 4.9014 2.50119 4.53125 2.9283 4.53125H17.32C17.7472 4.53125 18.0946 4.9014 18.0946 5.35642V6.23487H20.918C21.7859 6.23487 22.492 6.98712 22.492 7.9118V8.33768C22.492 8.52958 22.3649 8.68975 22.1954 8.7281ZM20.918 7.03339H18.0946V7.9384H21.7425V7.9118C21.7425 7.42745 21.3726 7.03339 20.918 7.03339ZM18.0946 8.73692V11.3455H22.037L21.4249 8.73692H18.0946ZM5.70172 18.1331C5.70172 19.0871 6.43028 19.8633 7.32579 19.8633C8.22129 19.8633 8.94985 19.0871 8.94985 18.1331C8.94985 17.179 8.22129 16.4029 7.32579 16.4029C6.43028 16.4029 5.70172 17.179 5.70172 18.1331ZM18.8941 18.1331C18.8941 19.0871 19.6227 19.8633 20.5182 19.8633C21.4137 19.8633 22.1423 19.0871 22.1423 18.1331C22.1423 17.179 21.4137 16.4029 20.5182 16.4029C19.6227 16.4029 18.8941 17.179 18.8941 18.1331ZM23.3166 14.7526H23.7413V13.8475H22.8918V14.3001C22.8918 14.5496 23.0824 14.7526 23.3166 14.7526ZM6.55127 18.1331C6.55127 17.6781 6.89872 17.3079 7.32583 17.3079C7.75294 17.3079 8.10039 17.6781 8.10039 18.1331C8.10039 18.5881 7.75294 18.9582 7.32583 18.9582C6.89872 18.9582 6.55127 18.5881 6.55127 18.1331ZM20.5182 17.3079C20.0911 17.3079 19.7437 17.6781 19.7437 18.1331C19.7437 18.5881 20.0911 18.9582 20.5182 18.9582C20.9453 18.9582 21.2928 18.5881 21.2928 18.1331C21.2928 17.6781 20.9453 17.3079 20.5182 17.3079ZM10.5237 15.6045H16.1205C16.3275 15.6045 16.4953 15.7832 16.4953 16.0038C16.4953 16.2243 16.3275 16.4031 16.1205 16.4031H10.5237C10.3167 16.4031 10.1489 16.2243 10.1489 16.0038C10.1489 15.7832 10.3168 15.6045 10.5237 15.6045ZM6.52654 13.9008H1.72929C1.52233 13.9008 1.35449 14.0796 1.35449 14.3001C1.35449 14.5206 1.52228 14.6994 1.72929 14.6994H6.52654C6.7335 14.6994 6.90134 14.5206 6.90134 14.3001C6.90134 14.0796 6.7335 13.9008 6.52654 13.9008ZM13.0571 8.48116C13.2035 8.32522 13.4408 8.32522 13.5871 8.48111C13.7335 8.63705 13.7335 8.88981 13.5871 9.0458L9.98919 12.8788C9.91607 12.9568 9.8201 12.9957 9.72421 12.9957C9.62832 12.9957 9.53239 12.9568 9.45923 12.8788L7.46037 10.7493C7.31399 10.5934 7.31399 10.3406 7.46037 10.1847C7.6067 10.0287 7.844 10.0287 7.99038 10.1847L9.72421 12.0318L13.0571 8.48116Z" fill="#5DAC0D"/>
<path d="M22.8153 11.3695L22.6206 11.4152L22.6511 11.5455L22.7833 11.5669L22.8153 11.3695ZM22.1954 8.7281L22.1513 8.53303L21.9546 8.57753L22.0007 8.77379L22.1954 8.7281ZM24.4909 13.4482L24.2909 13.4482V13.4482H24.4909ZM22.8911 18.1064V17.9064H22.6889L22.6911 18.1085L22.8911 18.1064ZM18.1448 18.1186L17.945 18.1108L17.9449 18.1117L18.1448 18.1186ZM18.1448 18.1184L18.3447 18.1263L18.3448 18.1238L18.1448 18.1184ZM18.1451 18.1064L18.3451 18.1117L18.3505 17.9064H18.1451V18.1064ZM9.69874 18.1064V17.9064H9.49334L9.49881 18.1117L9.69874 18.1064ZM9.69906 18.1184L9.49913 18.1237L9.49918 18.1253L9.69906 18.1184ZM4.95251 18.1185L4.75282 18.106L4.75262 18.1116L4.95251 18.1185ZM4.95251 18.1184L5.15225 18.1309L5.15244 18.1238L4.95251 18.1184ZM4.95283 18.1064L5.15276 18.1117L5.15821 17.9064H4.95283V18.1064ZM2.15379 16.4028H2.35379V16.2028H2.15379V16.4028ZM2.90334 16.4028V16.2028H2.70334V16.4028H2.90334ZM5.08261 17.3078V17.5078H5.2279L5.27281 17.3696L5.08261 17.3078ZM9.56896 17.3078L9.37876 17.3697L9.42368 17.5078H9.56896V17.3078ZM17.3449 17.3078V17.5078H17.5449V17.3078H17.3449ZM18.0945 17.3079H17.8945V17.5079H18.0945V17.3079ZM18.2749 17.3079V17.5079H18.4202L18.4651 17.3697L18.2749 17.3079ZM22.7613 17.3079L22.5711 17.3698L22.616 17.5079H22.7613V17.3079ZM23.7413 17.3079V17.5079H23.9413V17.3079H23.7413ZM23.7413 15.5512H23.9413V15.3512H23.7413V15.5512ZM23.6824 13.0491V13.2491H23.9519L23.8738 12.9911L23.6824 13.0491ZM22.5177 12.1441L22.5179 11.9438L22.508 11.9443L22.5177 12.1441ZM22.5167 12.1441L22.4965 12.3431L22.5114 12.3446L22.5264 12.3439L22.5167 12.1441ZM22.5157 12.144L22.5359 11.945L22.5258 11.944H22.5157V12.144ZM18.0946 12.144V11.944H17.8946V12.144H18.0946ZM18.0946 6.23487H17.8946V6.43487H18.0946V6.23487ZM18.0946 7.03339V6.83339H17.8946V7.03339H18.0946ZM18.0946 7.9384H17.8946V8.1384H18.0946V7.9384ZM21.7425 7.9384V8.1384H21.9425V7.9384H21.7425ZM18.0946 11.3455H17.8946V11.5455H18.0946V11.3455ZM18.0946 8.73692V8.53692H17.8946V8.73692H18.0946ZM22.037 11.3455V11.5455H22.2894L22.2317 11.2998L22.037 11.3455ZM21.4249 8.73692L21.6196 8.69122L21.5834 8.53692H21.4249V8.73692ZM23.7413 14.7526V14.9526H23.9413V14.7526H23.7413ZM23.7413 13.8475H23.9413V13.6475H23.7413V13.8475ZM22.8918 13.8475V13.6475H22.6918V13.8475H22.8918ZM13.5871 8.48111L13.733 8.34425L13.733 8.34423L13.5871 8.48111ZM13.0571 8.48116L13.203 8.61804L13.203 8.61802L13.0571 8.48116ZM13.5871 9.0458L13.7329 9.18267L13.7329 9.18265L13.5871 9.0458ZM9.98919 12.8788L9.84337 12.7419L9.84328 12.742L9.98919 12.8788ZM9.45923 12.8788L9.60509 12.7419L9.60505 12.7419L9.45923 12.8788ZM7.46037 10.7493L7.31455 10.8862L7.46037 10.7493ZM7.46037 10.1847L7.60619 10.3216L7.60621 10.3215L7.46037 10.1847ZM7.99038 10.1847L7.84455 10.3216L7.99038 10.1847ZM9.72421 12.0318L9.57839 12.1687L9.72421 12.324L9.87003 12.1687L9.72421 12.0318ZM23.01 11.3238L22.3901 8.68241L22.0007 8.77379L22.6206 11.4152L23.01 11.3238ZM24.6909 13.4483C24.6909 12.3064 23.8989 11.3426 22.8473 11.1721L22.7833 11.5669C23.6264 11.7037 24.2909 12.4872 24.2909 13.4482L24.6909 13.4483ZM24.6909 17.7071V13.4482H24.2909V17.7071H24.6909ZM24.1161 18.3064C24.4452 18.3064 24.6909 18.026 24.6909 17.7071H24.2909C24.2909 17.8293 24.2008 17.9064 24.1161 17.9064V18.3064ZM22.8911 18.3064H24.1161V17.9064H22.8911V18.3064ZM23.0917 18.133C23.0917 18.1247 23.0915 18.1172 23.0913 18.1128C23.0911 18.1074 23.0911 18.1058 23.091 18.1043L22.6911 18.1085C22.6911 18.1159 22.6914 18.1231 22.6915 18.1265C22.6917 18.131 22.6917 18.1323 22.6917 18.133H23.0917ZM20.5181 20.8617C21.9491 20.8617 23.0917 19.6257 23.0917 18.133H22.6917C22.6917 19.429 21.7047 20.4617 20.5181 20.4617V20.8617ZM17.9445 18.133C17.9445 19.6257 19.0871 20.8617 20.5181 20.8617V20.4617C19.3315 20.4617 18.3445 19.429 18.3445 18.133H17.9445ZM17.9449 18.1117C17.9448 18.116 17.9445 18.1242 17.9445 18.133H18.3445C18.3445 18.1322 18.3445 18.1308 18.3447 18.1254L17.9449 18.1117ZM17.945 18.1106L17.945 18.1108L18.3447 18.1264L18.3447 18.1263L17.945 18.1106ZM17.9452 18.1011L17.9449 18.1131L18.3448 18.1238L18.3451 18.1117L17.9452 18.1011ZM9.69874 18.3064H18.1451V17.9064H9.69874V18.3064ZM9.89899 18.1131L9.89867 18.1011L9.49881 18.1117L9.49914 18.1237L9.89899 18.1131ZM9.8994 18.133C9.8994 18.1241 9.89909 18.1158 9.89894 18.1115L9.49918 18.1253C9.49937 18.1307 9.4994 18.1321 9.4994 18.133H9.8994ZM7.32579 20.8617C8.75675 20.8617 9.8994 19.6257 9.8994 18.133H9.4994C9.4994 19.429 8.51237 20.4617 7.32579 20.4617V20.8617ZM4.75217 18.133C4.75217 19.6257 5.89482 20.8617 7.32579 20.8617V20.4617C6.1392 20.4617 5.15217 19.429 5.15217 18.133H4.75217ZM4.75262 18.1116C4.75248 18.1159 4.75217 18.1241 4.75217 18.133H5.15217C5.15217 18.1321 5.1522 18.1307 5.15239 18.1254L4.75262 18.1116ZM4.7529 18.106L4.7529 18.106L5.15212 18.1309L5.15212 18.1309L4.7529 18.106ZM4.7529 18.1011L4.75258 18.1131L5.15244 18.1238L5.15276 18.1117L4.7529 18.1011ZM2.92835 18.3064H4.95283V17.9064H2.92835V18.3064ZM1.95379 17.2812C1.95379 17.8346 2.37904 18.3064 2.92835 18.3064V17.9064C2.62343 17.9064 2.35379 17.6379 2.35379 17.2812H1.95379ZM1.95379 16.4028V17.2812H2.35379V16.4028H1.95379ZM0.929486 16.6028H2.15379V16.2028H0.929486V16.6028ZM0.354688 16.0035C0.354688 16.3224 0.600283 16.6028 0.929486 16.6028V16.2028C0.844667 16.2028 0.754687 16.1257 0.754687 16.0035H0.354688ZM0.929486 15.4042C0.600345 15.4042 0.354688 15.6846 0.354688 16.0035H0.754687C0.754687 15.8814 0.844698 15.8042 0.929486 15.8042V15.4042ZM4.5274 15.4042H0.929486V15.8042H4.5274V15.4042ZM5.1022 16.0035C5.1022 15.6847 4.8566 15.4042 4.5274 15.4042V15.8042C4.61222 15.8042 4.7022 15.8813 4.7022 16.0035H5.1022ZM4.5274 16.6028C4.85654 16.6028 5.1022 16.3224 5.1022 16.0035H4.7022C4.7022 16.1257 4.61219 16.2028 4.5274 16.2028V16.6028ZM2.90334 16.6028H4.5274V16.2028H2.90334V16.6028ZM3.10334 17.2812V16.4028H2.70334V17.2812H3.10334ZM2.9283 17.1078C3.0367 17.1078 3.10334 17.1976 3.10334 17.2812H2.70334C2.70334 17.3943 2.79231 17.5078 2.9283 17.5078V17.1078ZM5.08261 17.1078H2.9283V17.5078H5.08261V17.1078ZM7.32579 15.4042C6.19192 15.4042 5.23797 16.1829 4.8924 17.246L5.27281 17.3696C5.571 16.4523 6.3844 15.8042 7.32579 15.8042V15.4042ZM9.75917 17.246C9.41356 16.1829 8.45966 15.4042 7.32579 15.4042V15.8042C8.26716 15.8042 9.08053 16.4522 9.37876 17.3697L9.75917 17.246ZM17.3449 17.1078H9.56896V17.5078H17.3449V17.1078ZM17.1449 14.3001V17.3078H17.5449V14.3001H17.1449ZM17.7197 13.7008C17.3905 13.7008 17.1449 13.9812 17.1449 14.3001H17.5449C17.5449 14.1779 17.6349 14.1008 17.7197 14.1008V13.7008ZM18.2945 14.3001C18.2945 13.9812 18.0489 13.7008 17.7197 13.7008V14.1008C17.8045 14.1008 17.8945 14.1779 17.8945 14.3001H18.2945ZM18.2945 17.3079V14.3001H17.8945V17.3079H18.2945ZM18.2749 17.1079H18.0945V17.5079H18.2749V17.1079ZM20.5181 15.4043C19.3842 15.4043 18.4303 16.183 18.0847 17.2461L18.4651 17.3697C18.7633 16.4524 19.5767 15.8043 20.5181 15.8043V15.4043ZM22.9515 17.2461C22.6059 16.183 21.652 15.4043 20.5181 15.4043V15.8043C21.4595 15.8043 22.2728 16.4523 22.5711 17.3698L22.9515 17.2461ZM23.7413 17.1079H22.7613V17.5079H23.7413V17.1079ZM23.5413 15.5512V17.3079H23.9413V15.5512H23.5413ZM23.3165 15.7512H23.7413V15.3512H23.3165V15.7512ZM21.9422 14.3001C21.9422 15.0883 22.5468 15.7512 23.3165 15.7512V15.3512C22.7911 15.3512 22.3422 14.8916 22.3422 14.3001H21.9422ZM21.9422 13.4483V14.3001H22.3422V13.4483H21.9422ZM22.517 12.8491C22.1878 12.8491 21.9422 13.1295 21.9422 13.4483H22.3422C22.3422 13.3262 22.4322 13.2491 22.517 13.2491V12.8491ZM23.6824 12.8491H22.517V13.2491H23.6824V12.8491ZM22.5176 12.3441C22.9638 12.3444 23.3548 12.6574 23.4909 13.107L23.8738 12.9911C23.6925 12.3923 23.1597 11.9445 22.5179 11.9441L22.5176 12.3441ZM22.5264 12.3439L22.5274 12.3438L22.508 11.9443L22.507 11.9443L22.5264 12.3439ZM22.4955 12.343L22.4965 12.3431L22.5369 11.9451L22.5359 11.945L22.4955 12.343ZM18.0946 12.344H22.5157V11.944H18.0946V12.344ZM18.2946 12.5966V12.144H17.8946V12.5966H18.2946ZM17.7198 13.1959C18.0489 13.1959 18.2946 12.9155 18.2946 12.5966H17.8946C17.8946 12.7188 17.8045 12.7959 17.7198 12.7959V13.1959ZM17.145 12.5966C17.145 12.9155 17.3905 13.1959 17.7198 13.1959V12.7959C17.635 12.7959 17.545 12.7188 17.545 12.5966H17.145ZM17.145 5.35642V12.5966H17.545V5.35642H17.145ZM17.32 5.52982C17.2116 5.52982 17.145 5.44007 17.145 5.35642H17.545C17.545 5.24337 17.456 5.12982 17.32 5.12982V5.52982ZM2.9283 5.52982H17.32V5.12982H2.9283V5.52982ZM3.10334 5.35642C3.10334 5.44007 3.0367 5.52982 2.9283 5.52982V5.12982C2.79232 5.12982 2.70334 5.24338 2.70334 5.35642H3.10334ZM3.10334 12.5965V5.35642H2.70334V12.5965H3.10334ZM2.52854 13.1958C2.85768 13.1958 3.10334 12.9154 3.10334 12.5965H2.70334C2.70334 12.7187 2.61333 12.7958 2.52854 12.7958V13.1958ZM1.95374 12.5965C1.95374 12.9154 2.19932 13.1958 2.52854 13.1958V12.7958C2.44373 12.7958 2.35374 12.7187 2.35374 12.5965H1.95374ZM1.95374 5.35642V12.5965H2.35374V5.35642H1.95374ZM2.9283 4.33125C2.379 4.33125 1.95374 4.80305 1.95374 5.35642H2.35374C2.35374 4.99974 2.62338 4.73125 2.9283 4.73125V4.33125ZM17.32 4.33125H2.9283V4.73125H17.32V4.33125ZM18.2946 5.35642C18.2946 4.80305 17.8694 4.33125 17.32 4.33125V4.73125C17.625 4.73125 17.8946 4.99974 17.8946 5.35642H18.2946ZM18.2946 6.23487V5.35642H17.8946V6.23487H18.2946ZM20.918 6.03487H18.0946V6.43487H20.918V6.03487ZM22.692 7.9118C22.692 6.88878 21.9081 6.03487 20.918 6.03487V6.43487C21.6637 6.43487 22.292 7.08547 22.292 7.9118H22.692ZM22.692 8.33768V7.9118H22.292V8.33768H22.692ZM22.2396 8.92317C22.5061 8.86284 22.692 8.61677 22.692 8.33768H22.292C22.292 8.44239 22.2236 8.51666 22.1513 8.53303L22.2396 8.92317ZM18.0946 7.23339H20.918V6.83339H18.0946V7.23339ZM18.2946 7.9384V7.03339H17.8946V7.9384H18.2946ZM21.7425 7.7384H18.0946V8.1384H21.7425V7.7384ZM21.5425 7.9118V7.9384H21.9425V7.9118H21.5425ZM20.918 7.23339C21.2504 7.23339 21.5425 7.52579 21.5425 7.9118H21.9425C21.9425 7.3291 21.4948 6.83339 20.918 6.83339V7.23339ZM18.2946 11.3455V8.73692H17.8946V11.3455H18.2946ZM22.037 11.1455H18.0946V11.5455H22.037V11.1455ZM21.2302 8.78261L21.8423 11.3912L22.2317 11.2998L21.6196 8.69122L21.2302 8.78261ZM18.0946 8.93692H21.4249V8.53692H18.0946V8.93692ZM7.32579 19.6633C6.55247 19.6633 5.90172 18.9888 5.90172 18.1331H5.50172C5.50172 19.1855 6.30809 20.0633 7.32579 20.0633V19.6633ZM8.74985 18.1331C8.74985 18.9888 8.0991 19.6633 7.32579 19.6633V20.0633C8.34348 20.0633 9.14985 19.1855 9.14985 18.1331H8.74985ZM7.32579 16.6029C8.0991 16.6029 8.74985 17.2774 8.74985 18.1331H9.14985C9.14985 17.0807 8.34348 16.2029 7.32579 16.2029V16.6029ZM5.90172 18.1331C5.90172 17.2774 6.55247 16.6029 7.32579 16.6029V16.2029C6.30809 16.2029 5.50172 17.0807 5.50172 18.1331H5.90172ZM20.5182 19.6633C19.7449 19.6633 19.0941 18.9888 19.0941 18.1331H18.6941C18.6941 19.1855 19.5005 20.0633 20.5182 20.0633V19.6633ZM21.9423 18.1331C21.9423 18.9888 21.2915 19.6633 20.5182 19.6633V20.0633C21.5359 20.0633 22.3423 19.1855 22.3423 18.1331H21.9423ZM20.5182 16.6029C21.2915 16.6029 21.9423 17.2774 21.9423 18.1331H22.3423C22.3423 17.0807 21.5359 16.2029 20.5182 16.2029V16.6029ZM19.0941 18.1331C19.0941 17.2774 19.7449 16.6029 20.5182 16.6029V16.2029C19.5005 16.2029 18.6941 17.0807 18.6941 18.1331H19.0941ZM23.7413 14.5526H23.3166V14.9526H23.7413V14.5526ZM23.5413 13.8475V14.7526H23.9413V13.8475H23.5413ZM22.8918 14.0475H23.7413V13.6475H22.8918V14.0475ZM23.0918 14.3001V13.8475H22.6918V14.3001H23.0918ZM23.3166 14.5526C23.2046 14.5526 23.0918 14.4512 23.0918 14.3001H22.6918C22.6918 14.6479 22.9602 14.9526 23.3166 14.9526V14.5526ZM7.32583 17.1079C6.77653 17.1079 6.35127 17.5797 6.35127 18.1331H6.75127C6.75127 17.7764 7.02091 17.5079 7.32583 17.5079V17.1079ZM8.30039 18.1331C8.30039 17.5797 7.87513 17.1079 7.32583 17.1079V17.5079C7.63075 17.5079 7.90039 17.7764 7.90039 18.1331H8.30039ZM7.32583 19.1582C7.87513 19.1582 8.30039 18.6864 8.30039 18.1331H7.90039C7.90039 18.4897 7.63075 18.7582 7.32583 18.7582V19.1582ZM6.35127 18.1331C6.35127 18.6864 6.77653 19.1582 7.32583 19.1582V18.7582C7.02091 18.7582 6.75127 18.4897 6.75127 18.1331H6.35127ZM19.9437 18.1331C19.9437 17.7764 20.2133 17.5079 20.5182 17.5079V17.1079C19.9689 17.1079 19.5437 17.5797 19.5437 18.1331H19.9437ZM20.5182 18.7582C20.2133 18.7582 19.9437 18.4897 19.9437 18.1331H19.5437C19.5437 18.6864 19.9689 19.1582 20.5182 19.1582V18.7582ZM21.0928 18.1331C21.0928 18.4897 20.8231 18.7582 20.5182 18.7582V19.1582C21.0675 19.1582 21.4928 18.6864 21.4928 18.1331H21.0928ZM20.5182 17.5079C20.8231 17.5079 21.0928 17.7764 21.0928 18.1331H21.4928C21.4928 17.5797 21.0675 17.1079 20.5182 17.1079V17.5079ZM16.1205 15.4045H10.5237V15.8045H16.1205V15.4045ZM16.6953 16.0038C16.6953 15.6849 16.4497 15.4045 16.1205 15.4045V15.8045C16.2053 15.8045 16.2953 15.8816 16.2953 16.0038H16.6953ZM16.1205 16.6031C16.4496 16.6031 16.6953 16.3227 16.6953 16.0038H16.2953C16.2953 16.126 16.2053 16.2031 16.1205 16.2031V16.6031ZM10.5237 16.6031H16.1205V16.2031H10.5237V16.6031ZM9.94893 16.0038C9.94893 16.3227 10.1945 16.6031 10.5237 16.6031V16.2031C10.4389 16.2031 10.3489 16.126 10.3489 16.0038H9.94893ZM10.5237 15.4045C10.1946 15.4045 9.94893 15.6849 9.94893 16.0038H10.3489C10.3489 15.8816 10.4389 15.8045 10.5237 15.8045V15.4045ZM1.72929 14.1008H6.52654V13.7008H1.72929V14.1008ZM1.55449 14.3001C1.55449 14.1779 1.6445 14.1008 1.72929 14.1008V13.7008C1.40015 13.7008 1.15449 13.9812 1.15449 14.3001H1.55449ZM1.72929 14.4994C1.64447 14.4994 1.55449 14.4223 1.55449 14.3001H1.15449C1.15449 14.619 1.40009 14.8994 1.72929 14.8994V14.4994ZM6.52654 14.4994H1.72929V14.8994H6.52654V14.4994ZM6.70134 14.3001C6.70134 14.4223 6.61133 14.4994 6.52654 14.4994V14.8994C6.85568 14.8994 7.10134 14.619 7.10134 14.3001H6.70134ZM6.52654 14.1008C6.61133 14.1008 6.70134 14.1779 6.70134 14.3001H7.10134C7.10134 13.9812 6.85568 13.7008 6.52654 13.7008V14.1008ZM13.733 8.34423C13.5076 8.10417 13.1366 8.10418 12.9113 8.3443L13.203 8.61802C13.2703 8.54626 13.374 8.54627 13.4413 8.61799L13.733 8.34423ZM13.7329 9.18265C13.9515 8.94973 13.9515 8.57716 13.733 8.34425L13.4413 8.61797C13.5154 8.69694 13.5154 8.82989 13.4413 8.90894L13.7329 9.18265ZM10.135 13.0157L13.7329 9.18267L13.4413 8.90892L9.84337 12.7419L10.135 13.0157ZM9.72421 13.1957C9.87504 13.1957 10.0239 13.1341 10.1351 13.0156L9.84328 12.742C9.8082 12.7794 9.76515 12.7957 9.72421 12.7957V13.1957ZM9.31336 13.0156C9.42452 13.1341 9.57334 13.1957 9.72421 13.1957V12.7957C9.68331 12.7957 9.64026 12.7794 9.60509 12.7419L9.31336 13.0156ZM7.31455 10.8862L9.31341 13.0157L9.60505 12.7419L7.60619 10.6124L7.31455 10.8862ZM7.31455 10.0478C7.09593 10.2807 7.09593 10.6533 7.31455 10.8862L7.60619 10.6124C7.53205 10.5335 7.53205 10.4005 7.60619 10.3216L7.31455 10.0478ZM8.1362 10.0478C7.91084 9.80772 7.53987 9.80768 7.31452 10.0478L7.60621 10.3215C7.67352 10.2498 7.77717 10.2498 7.84455 10.3216L8.1362 10.0478ZM9.87003 11.8949L8.1362 10.0478L7.84455 10.3216L9.57839 12.1687L9.87003 11.8949ZM12.9113 8.34428L9.57839 11.8949L9.87003 12.1687L13.203 8.61804L12.9113 8.34428Z" fill="#5DAC0D"/>
</g>
<defs>
<clipPath id="clip0_3497_65648">
<rect width="25" height="17" fill="white" transform="translate(0 4)"/>
</clipPath>
</defs>
</svg>
