<svg width="25" height="25" viewBox="0 0 25 25" fill="none" xmlns="http://www.w3.org/2000/svg">
<path d="M16.7273 13.5H18.0909V15.897L20.3091 17.0955L19.6273 18.2005L16.7273 16.6365V13.5ZM24 16.05C24 17.628 23.3295 19.1414 22.1361 20.2573C20.9427 21.3731 19.3241 22 17.6364 22C15.1 22 12.9091 20.606 11.8818 18.6H5.81818C5.33597 18.6 4.87351 18.4209 4.53253 18.1021C4.19156 17.7833 4 17.3509 4 16.9V6.7C4 5.7565 4.80909 5 5.81818 5H20.3636C20.8458 5 21.3083 5.17911 21.6493 5.49792C21.9903 5.81673 22.1818 6.24913 22.1818 6.7V11.885C23.3091 12.956 24 14.4265 24 16.05ZM11.2727 16.05C11.2727 14.384 12.0091 12.8795 13.1818 11.8H5.81818V16.9H11.3364C11.2727 16.6195 11.2727 16.339 11.2727 16.05ZM17.6364 11.8C16.4308 11.8 15.2747 12.2478 14.4222 13.0448C13.5698 13.8418 13.0909 14.9228 13.0909 16.05C13.0909 17.1772 13.5698 18.2582 14.4222 19.0552C15.2747 19.8522 16.4308 20.3 17.6364 20.3C18.8419 20.3 19.998 19.8522 20.8505 19.0552C21.7029 18.2582 22.1818 17.1772 22.1818 16.05C22.1818 14.9228 21.7029 13.8418 20.8505 13.0448C19.998 12.2478 18.8419 11.8 17.6364 11.8ZM20.3636 8.4V6.7H5.81818V8.4H20.3636Z" fill="#5DAC0D"/>
</svg>
