<svg width="25" height="25" viewBox="0 0 25 25" fill="none" xmlns="http://www.w3.org/2000/svg">
<g clip-path="url(#clip0_3497_65709)">
<path d="M15.2126 13.1786C18.5855 13.1786 21.3198 11.9633 21.3198 10.4643C21.3198 8.96523 18.5855 7.75 15.2126 7.75C11.8397 7.75 9.10547 8.96523 9.10547 10.4643C9.10547 11.9633 11.8397 13.1786 15.2126 13.1786Z" stroke="#5DAC0D" stroke-width="1.42857" stroke-linecap="round" stroke-linejoin="round"/>
<path d="M9.10547 10.4644V18.6072C9.10547 20.1001 11.8198 21.3215 15.2126 21.3215C18.6055 21.3215 21.3198 20.1001 21.3198 18.6072V10.4644" stroke="#5DAC0D" stroke-width="1.42857" stroke-linecap="round" stroke-linejoin="round"/>
<path d="M21.3206 14.5356C21.3206 16.0284 18.6063 17.2498 15.2134 17.2498C11.8206 17.2498 9.10631 16.0284 9.10631 14.5356M15.0777 5.03556C13.4919 4.05689 11.646 3.58357 9.78488 3.67841C6.40559 3.67841 3.67773 4.89984 3.67773 6.3927C3.67773 7.19341 4.46488 7.9127 5.71345 8.42842" stroke="#5DAC0D" stroke-width="1.42857" stroke-linecap="round" stroke-linejoin="round"/>
<path d="M5.71345 16.5712C4.46488 16.0554 3.67773 15.3361 3.67773 14.5354V6.39258" stroke="#5DAC0D" stroke-width="1.42857" stroke-linecap="round" stroke-linejoin="round"/>
<path d="M5.71345 12.5001C4.46488 11.9844 3.67773 11.2651 3.67773 10.4644" stroke="#5DAC0D" stroke-width="1.42857" stroke-linecap="round" stroke-linejoin="round"/>
</g>
<defs>
<clipPath id="clip0_3497_65709">
<rect width="19" height="19" fill="white" transform="translate(3 3)"/>
</clipPath>
</defs>
</svg>
