<svg width="160" height="63" viewBox="0 0 160 63" fill="none" xmlns="http://www.w3.org/2000/svg">
<mask id="mask0_2225_9715" style="mask-type:luminance" maskUnits="userSpaceOnUse" x="0" y="0" width="160" height="62">
<path d="M160 0H0V61.6149H160V0Z" fill="white"/>
</mask>
<g mask="url(#mask0_2225_9715)">
<path d="M10.689 12.0058C15.7962 12.0058 18.8413 13.796 20.4238 15.2554C22.1501 16.8509 23.9149 19.7211 23.9149 24.3765C23.9149 29.6691 21.6419 33.8819 17.489 35.8229C16.1654 36.4552 14.2569 37.0147 10.689 37.0147H0.690544C0.507789 37.0134 0.332875 36.9392 0.203643 36.8082C0.074413 36.677 0.0012561 36.4995 0 36.3142V35.8861C0.00477621 35.6962 0.0774557 35.5144 0.204498 35.3749C0.331541 35.2352 0.504283 35.1472 0.690544 35.1272L1.52016 35.059C1.87437 35.0338 2.2147 34.9091 2.50322 34.6992C2.69648 34.413 2.79704 34.073 2.79094 33.7262V15.3186C2.80147 14.9622 2.70078 14.6114 2.50322 14.3165C2.22051 14.1141 1.88912 13.9931 1.54413 13.9662L0.714522 13.8933C0.52396 13.8789 0.345424 13.7934 0.213442 13.6532C0.0814586 13.513 0.00540854 13.3282 0 13.1344V12.7063C0.0012561 12.5209 0.074413 12.3435 0.203643 12.2124C0.332875 12.0813 0.507789 12.0071 0.690544 12.0058H10.689ZM7.63914 34.1883C7.6404 34.3738 7.71355 34.5512 7.84278 34.6822C7.97202 34.8133 8.14693 34.8875 8.32968 34.8888H9.11134C9.48539 34.8888 10.1088 34.8888 10.4876 34.8402C10.4876 34.8402 14.4966 34.5531 16.3717 32.2426C18.2467 29.9318 18.405 26.2688 18.405 24.4203C18.405 22.1437 18.1123 18.865 16.3093 16.739C14.2568 14.3068 11.2789 14.1316 9.77312 14.1316H8.33448C8.15173 14.1329 7.97682 14.2071 7.84758 14.3382C7.71835 14.4693 7.6452 14.6468 7.64394 14.8321L7.63914 34.1883Z" fill="white"/>
<path d="M34.6131 18.4514C34.7958 18.4526 34.9709 18.5269 35.1 18.6579C35.2293 18.7891 35.3024 18.9664 35.3037 19.1518V19.5459C35.3024 19.7309 35.2291 19.9078 35.0997 20.0381C34.9704 20.1685 34.7955 20.2416 34.6131 20.2416H33.7499C33.4578 20.2232 33.1653 20.2749 32.8963 20.3923C32.7662 20.6539 32.7082 20.9464 32.7285 21.2387V34.2272C32.7163 34.5426 32.7738 34.8566 32.8963 35.1467C33.1477 35.3173 33.4486 35.3962 33.7499 35.3704H34.6131C34.7955 35.3704 34.9704 35.4435 35.0997 35.5739C35.2291 35.7042 35.3024 35.8811 35.3037 36.0661V36.3141C35.3024 36.4995 35.2293 36.677 35.1 36.808C34.9709 36.9392 34.7958 37.0134 34.6131 37.0147H26.0725C25.8901 37.0134 25.7157 36.939 25.5872 36.8078C25.4589 36.6765 25.3867 36.499 25.3867 36.3141V35.9202C25.3867 35.8288 25.4045 35.7382 25.4389 35.6539C25.4734 35.5694 25.5238 35.4928 25.5875 35.4282C25.6512 35.3637 25.7269 35.3123 25.8101 35.2774C25.8933 35.2424 25.9824 35.2245 26.0725 35.2245H26.9405C27.2392 35.2482 27.539 35.1963 27.8133 35.0736C27.9472 34.8134 28.0054 34.5198 27.9811 34.2272V21.2387C27.9981 20.9232 27.9405 20.6078 27.8133 20.3194C27.5643 20.1472 27.2643 20.0682 26.9645 20.0955H26.0725C25.891 20.0944 25.7173 20.0206 25.589 19.8904C25.4606 19.7603 25.388 19.584 25.3867 19.4V19.1518C25.3867 18.9669 25.4589 18.7894 25.5872 18.6582C25.7157 18.527 25.8901 18.4526 26.0725 18.4514H34.6131Z" fill="white"/>
<path d="M45.7054 18.4514C45.8873 18.4539 46.061 18.5286 46.1892 18.6597C46.3174 18.7906 46.3898 18.9674 46.3911 19.1518V19.4C46.3871 19.5878 46.315 19.7677 46.1884 19.905C46.062 20.0424 45.89 20.1275 45.7054 20.1443L45.1634 20.188C44.887 20.1874 44.6148 20.2576 44.3722 20.3923C44.3396 20.6664 44.3934 20.944 44.5257 21.1853L48.8033 31.4885C48.9519 31.8435 49.1868 31.8387 49.3308 31.4885L53.4788 21.195C53.6017 20.9486 53.6532 20.672 53.6274 20.3973C53.3831 20.2627 53.1094 20.1925 52.8314 20.193L52.1841 20.1491C51.9994 20.1323 51.8274 20.0472 51.7009 19.9099C51.5745 19.7726 51.5023 19.5928 51.4983 19.4048V19.1568C51.4983 18.9718 51.5703 18.7944 51.6988 18.663C51.8273 18.5318 52.0017 18.4574 52.1841 18.4562H58.2646C58.447 18.4574 58.6214 18.5318 58.7498 18.663C58.8783 18.7944 58.9503 18.9718 58.9503 19.1568V19.4048C58.9458 19.5963 58.8753 19.7802 58.7508 19.9242C58.6263 20.0682 58.4559 20.1634 58.2694 20.193L57.579 20.2998C57.373 20.3397 57.1791 20.4278 57.0126 20.557C56.846 20.6862 56.7116 20.853 56.6198 21.0442L50.2514 36.4845C50.1639 36.6696 50.0284 36.827 49.8594 36.9402C49.6906 37.0533 49.4946 37.1176 49.2924 37.1266H47.0433C46.8415 37.1162 46.6462 37.051 46.4774 36.9381C46.3087 36.8253 46.173 36.6685 46.0842 36.4845L39.5719 21.0344C39.4788 20.8448 39.3438 20.6795 39.1774 20.5514C39.0111 20.4232 38.818 20.3354 38.6129 20.295L37.8839 20.188C37.6978 20.1576 37.5279 20.0622 37.4038 19.9184C37.2794 19.7744 37.2084 19.5912 37.2031 19.4V19.1518C37.203 18.9677 37.2745 18.791 37.4018 18.66C37.5294 18.5288 37.7025 18.4539 37.8839 18.4514H45.7054Z" fill="white"/>
<path d="M67.5488 18.4514C67.7312 18.4526 67.9056 18.527 68.0341 18.6582C68.1625 18.7894 68.2345 18.9669 68.2345 19.1518V34.2322C68.2214 34.547 68.2771 34.861 68.3976 35.1515C68.6508 35.3218 68.9532 35.4006 69.256 35.3752H70.1912C70.3726 35.3765 70.5464 35.4502 70.6747 35.5805C70.803 35.7106 70.8756 35.8869 70.8769 36.0709V36.319C70.8769 36.504 70.8048 36.6814 70.6763 36.8126C70.5478 36.9438 70.3734 37.0182 70.1912 37.0195H61.5593C61.3813 37.0107 61.2134 36.9323 61.0908 36.801C60.9684 36.6694 60.9009 36.495 60.9024 36.3141V35.9202C60.9024 35.7365 60.9739 35.5603 61.1016 35.4299C61.2291 35.2997 61.4022 35.2258 61.5833 35.2245H62.4513C62.7419 35.2427 63.0328 35.191 63.3001 35.0736C63.4318 34.8126 63.4899 34.5197 63.468 34.2272V21.2387C63.4825 20.9232 63.4251 20.6086 63.3001 20.3194C63.0491 20.148 62.7478 20.0691 62.4465 20.0955H61.5785C61.3984 20.0931 61.2264 20.0186 61.0998 19.8885C60.9732 19.7582 60.9024 19.5827 60.9024 19.4V19.1518C60.9024 18.9677 60.9737 18.791 61.1012 18.66C61.2286 18.5288 61.4019 18.4539 61.5833 18.4514H67.5488Z" fill="white"/>
<path d="M80.6685 18.4514C80.8797 18.4642 81.0861 18.5213 81.2742 18.6192C81.4625 18.7173 81.6285 18.8539 81.7619 19.0205L90.1539 30.7442C90.3697 31.0555 90.552 30.9971 90.552 30.6128V21.3166C90.5734 21.007 90.5016 20.6982 90.3457 20.4312C90.0745 20.281 89.7723 20.1976 89.4633 20.188L88.6481 20.1443C88.4637 20.1275 88.2917 20.0424 88.1651 19.905C88.0385 19.7677 87.9664 19.5878 87.9624 19.4V19.1518C87.9624 18.9669 88.0345 18.7894 88.163 18.6582C88.2913 18.527 88.4659 18.4526 88.6481 18.4514H95.3185C95.5014 18.4526 95.6763 18.5269 95.8054 18.6579C95.9347 18.7891 96.0078 18.9664 96.0091 19.1518V19.4C96.0061 19.589 95.9336 19.7701 95.8059 19.9077C95.6782 20.0454 95.5045 20.1298 95.3185 20.1443L94.6185 20.188C94.3022 20.1992 93.9925 20.2822 93.7121 20.4312C93.5472 20.6949 93.4697 21.0051 93.4915 21.3166V36.3141C93.4915 36.499 93.4195 36.6765 93.291 36.8078C93.1625 36.939 92.9881 37.0134 92.8057 37.0147H90.1539C89.9417 37.0021 89.7345 36.9456 89.5448 36.8485C89.355 36.7514 89.187 36.6158 89.051 36.4504L79.743 23.7099C79.5176 23.3987 79.3353 23.4619 79.3353 23.8462V34.1202C79.3262 34.4541 79.3885 34.7859 79.5176 35.0931C79.7617 35.2941 80.072 35.3931 80.3856 35.3704H81.2344C81.3245 35.3698 81.4137 35.3872 81.4973 35.4214C81.5806 35.4558 81.6566 35.5066 81.7208 35.5707C81.7848 35.6349 81.8358 35.7112 81.8709 35.7954C81.9059 35.8795 81.9243 35.9698 81.9249 36.0611V36.3093C81.9237 36.4947 81.8505 36.6722 81.7213 36.8032C81.5921 36.9342 81.4171 37.0085 81.2344 37.0098H74.4488C74.2665 37.0085 74.0921 36.9341 73.9637 36.8029C73.8352 36.6717 73.763 36.4942 73.7632 36.3093V36.0611C73.7643 35.8771 73.8369 35.701 73.9653 35.5707C74.0937 35.4405 74.2673 35.3669 74.4488 35.3656H75.288C75.607 35.3848 75.9222 35.2862 76.1752 35.0883C76.3166 34.7845 76.3857 34.4512 76.3766 34.1154V19.1518C76.3779 18.9674 76.4504 18.7906 76.5785 18.6597C76.7067 18.5286 76.8805 18.4539 77.0624 18.4514H80.6685Z" fill="white"/>
<path d="M107.701 18.1936C107.903 18.2045 108.098 18.2698 108.267 18.3826C108.435 18.4955 108.571 18.6518 108.66 18.8357L115.283 34.4704C115.378 34.659 115.513 34.8234 115.679 34.9514C115.845 35.0795 116.038 35.1678 116.242 35.2099L116.755 35.2779C116.941 35.3085 117.111 35.4038 117.235 35.5477C117.36 35.6915 117.431 35.8749 117.436 36.0661V36.3141C117.436 36.499 117.364 36.6765 117.235 36.8078C117.107 36.939 116.933 37.0134 116.75 37.0147H109.078C108.986 37.016 108.895 36.9987 108.81 36.9642C108.726 36.9296 108.648 36.8781 108.583 36.813C108.518 36.7478 108.466 36.6701 108.431 36.5845C108.396 36.4989 108.378 36.407 108.378 36.3141V36.0661C108.381 35.8781 108.454 35.6982 108.58 35.561C108.707 35.4237 108.879 35.3386 109.063 35.3218L109.744 35.2731C110.012 35.284 110.277 35.2146 110.507 35.0738C110.503 34.7989 110.436 34.529 110.31 34.2856L109.006 31.1723C108.919 30.9866 108.784 30.8285 108.615 30.7152C108.446 30.6019 108.249 30.5379 108.047 30.5301H103.232C103.03 30.5379 102.833 30.6019 102.664 30.7152C102.495 30.8285 102.36 30.9866 102.273 31.1723L101.002 34.2758C100.869 34.5187 100.814 34.7976 100.844 35.0738C101.089 35.2094 101.365 35.2782 101.645 35.2731L102.326 35.3218C102.51 35.3386 102.682 35.4237 102.809 35.561C102.935 35.6982 103.007 35.8781 103.011 36.0661V36.3141C103.011 36.499 102.939 36.6765 102.811 36.8078C102.682 36.939 102.508 37.0134 102.326 37.0147H96.3601C96.1777 37.0134 96.0033 36.939 95.8748 36.8078C95.7463 36.6765 95.6743 36.499 95.6743 36.3141V36.0661C95.6786 35.8758 95.7503 35.6934 95.8762 35.5523C96.0022 35.4112 96.1738 35.3208 96.3601 35.2974L96.9402 35.2245C97.1458 35.193 97.3407 35.1107 97.5079 34.9853C97.6751 34.8598 97.8095 34.6947 97.8994 34.5045L104.383 18.8357C104.472 18.6518 104.608 18.4955 104.777 18.3826C104.945 18.2698 105.14 18.2045 105.342 18.1936H107.701ZM103.534 28.0152C103.495 28.0859 103.477 28.1662 103.48 28.247C103.484 28.3278 103.509 28.4062 103.554 28.4731C103.599 28.5402 103.661 28.5934 103.733 28.6267C103.806 28.66 103.886 28.6723 103.966 28.6621H107.701C107.777 28.6744 107.855 28.6635 107.925 28.6307C107.995 28.5979 108.054 28.5448 108.094 28.4781C108.134 28.4114 108.154 28.3339 108.15 28.2558C108.147 28.1778 108.121 28.1024 108.075 28.0395L105.865 23.5106C105.692 23.1701 105.443 23.1798 105.299 23.5349L103.534 28.0152Z" fill="white"/>
<path d="M129.553 18.4514C132.349 18.4514 133.817 19.0107 134.349 19.2346C136.483 20.1686 137.106 21.696 137.106 23.2235C137.106 26.4634 134.459 27.6016 132.181 27.9568C134.867 28.3314 135.634 30.2675 136.406 32.4274C137.327 34.9618 138.171 35.3461 139.931 35.3461H140.559C140.741 35.3461 140.89 35.6574 140.89 36.0466V36.2461C140.885 36.4371 140.813 36.62 140.686 36.7613C140.559 36.9024 140.386 36.9925 140.199 37.0147C140.199 37.0147 138.209 37.2093 137.73 37.2093C133.615 37.2093 132.512 35.3802 131.519 32.5149C130.747 30.2771 129.831 28.9734 127.113 28.9734C126.93 28.9734 126.782 29.2848 126.782 29.6739V34.237C126.756 34.532 126.821 34.8278 126.969 35.0834C127.241 35.2102 127.537 35.2781 127.837 35.2829L128.45 35.3315C128.634 35.3493 128.805 35.435 128.93 35.5722C129.056 35.7094 129.127 35.8886 129.131 36.0758V36.3238C129.131 36.5088 129.059 36.6862 128.931 36.8174C128.802 36.9486 128.628 37.023 128.446 37.0243H120.365C120.182 37.0243 120.006 36.9506 119.877 36.8192C119.747 36.6878 119.675 36.5096 119.675 36.3238V36.0758C119.677 35.8854 119.748 35.7026 119.876 35.563C120.004 35.4235 120.178 35.3376 120.365 35.3218L121.013 35.2731C121.308 35.2704 121.599 35.2022 121.866 35.0736C121.998 34.8126 122.056 34.5197 122.034 34.2272V21.2387C122.057 20.9462 121.999 20.6531 121.866 20.3923C121.599 20.264 121.308 20.1942 121.013 20.188L120.365 20.1443C120.181 20.1275 120.009 20.0424 119.882 19.905C119.756 19.7677 119.684 19.5878 119.68 19.4V19.1518C119.681 18.9674 119.753 18.7906 119.882 18.6597C120.01 18.5286 120.183 18.4539 120.365 18.4514H129.553ZM126.801 27.1347C127.081 27.168 127.363 27.181 127.645 27.1736C130.589 27.1736 132.162 26.0158 132.162 23.7683C132.162 20.9712 129.592 20.3632 127.904 20.3632H127.491C127.309 20.3632 127.134 20.4363 127.005 20.5666C126.875 20.697 126.802 20.8739 126.801 21.0587V27.1347Z" fill="white"/>
<path d="M158.321 18.4514C158.503 18.4539 158.677 18.5286 158.805 18.6597C158.933 18.7906 159.006 18.9674 159.007 19.1518V22.3382C159.007 22.523 158.935 22.7006 158.807 22.8318C158.678 22.963 158.504 23.0374 158.321 23.0387H156.883C156.691 23.0317 156.508 22.9605 156.36 22.8365C156.213 22.7125 156.11 22.5424 156.068 22.3528L155.852 21.2291C155.817 20.9486 155.729 20.6778 155.593 20.4312C155.331 20.3386 155.054 20.3005 154.778 20.3194H150.577C150.486 20.3187 150.397 20.3363 150.313 20.3709C150.229 20.4056 150.153 20.4568 150.089 20.5214C150.025 20.5861 149.974 20.6629 149.939 20.7477C149.904 20.8323 149.886 20.9232 149.886 21.015V25.7822C149.89 25.9651 149.965 26.139 150.094 26.2666C150.223 26.3939 150.397 26.4646 150.577 26.4634H152.653C152.936 26.4811 153.219 26.443 153.488 26.3515C153.63 26.1072 153.712 25.832 153.727 25.5488L153.833 24.7704C153.865 24.5808 153.961 24.4083 154.104 24.2824C154.248 24.1565 154.43 24.0848 154.619 24.0797H155.698C155.881 24.0797 156.056 24.1528 156.185 24.2832C156.314 24.4134 156.388 24.5904 156.389 24.7754V30.0146C156.388 30.1998 156.314 30.3773 156.185 30.5085C156.056 30.6395 155.881 30.7138 155.698 30.715H154.619C154.429 30.7098 154.246 30.6374 154.103 30.5104C153.96 30.3835 153.864 30.2099 153.833 30.0194L153.727 29.2459C153.711 28.9629 153.629 28.6878 153.488 28.4432C153.219 28.3517 152.936 28.3136 152.653 28.3314H150.577C150.486 28.3307 150.397 28.3482 150.313 28.3829C150.229 28.4176 150.153 28.4686 150.089 28.5334C150.025 28.5981 149.974 28.6749 149.939 28.7597C149.904 28.8443 149.886 28.9352 149.886 29.027V34.451C149.886 34.5427 149.904 34.6336 149.939 34.7184C149.974 34.803 150.025 34.88 150.089 34.9446C150.153 35.0093 150.229 35.0605 150.313 35.095C150.397 35.1298 150.486 35.1474 150.577 35.1467H155.775C156.056 35.1701 156.339 35.1198 156.595 35.0006C156.725 34.7374 156.812 34.455 156.854 34.164L157.175 32.5149C157.218 32.3237 157.322 32.1525 157.472 32.0283C157.621 31.904 157.807 31.8339 158 31.829H159.3C159.483 31.829 159.658 31.9027 159.788 32.0342C159.917 32.1656 159.99 32.3437 159.99 32.5294V36.3141C159.99 36.5 159.917 36.6781 159.788 36.8094C159.658 36.9408 159.483 37.0147 159.3 37.0147H143.475C143.292 37.0134 143.117 36.9392 142.988 36.808C142.859 36.677 142.785 36.4995 142.784 36.3141V36.0661C142.789 35.8778 142.863 35.6978 142.99 35.5606C143.117 35.4234 143.29 35.3384 143.475 35.3218L144.084 35.2731C144.385 35.2675 144.682 35.1997 144.957 35.0736C145.095 34.8149 145.157 34.5208 145.134 34.2272V21.2387C145.157 20.9467 145.101 20.6539 144.971 20.3923C144.704 20.2632 144.413 20.1936 144.117 20.188L143.475 20.1443C143.29 20.1277 143.117 20.0426 142.99 19.9054C142.863 19.7682 142.789 19.5883 142.784 19.4V19.1518C142.785 18.9664 142.859 18.7891 142.988 18.6579C143.117 18.5269 143.292 18.4526 143.475 18.4514H158.321Z" fill="white"/>
<path d="M72.3825 15.6688C76.2476 15.2991 77.9596 16.8218 75.6769 17.5854C75.3473 17.6989 75.0063 17.7755 74.6603 17.8141C74.3726 17.8384 74.2143 18.1304 74.411 18.4659C74.6076 18.8016 74.8905 19.5654 74.5452 19.8816C74.4868 19.9323 74.418 19.969 74.3438 19.989C74.2695 20.0091 74.1918 20.012 74.1163 19.9976C74.0409 19.983 73.9695 19.9515 73.9076 19.9054C73.8457 19.8592 73.7948 19.7995 73.7588 19.7307C73.6407 19.4726 73.6039 19.1838 73.6532 18.9038C73.7204 18.4611 73.6964 17.96 73.1161 17.7995C72.7055 17.6843 72.2676 17.724 71.8838 17.9114C70.8815 18.4902 71.3467 19.3075 71.6343 19.9157C71.922 20.5237 72.2673 22.348 70.7711 22.348C69.5052 22.348 69.51 20.7718 69.8601 19.8864C70.143 19.1957 70.2724 18.6363 70.0519 18.2618C69.8313 17.887 69.1551 17.8288 68.7475 17.7168C67.9563 17.4882 67.539 16.8315 68.9777 16.2574C68.3543 17.9211 71.5625 17.5418 72.5599 17.3325C72.9819 17.245 73.9985 16.9531 73.8259 16.4277C73.682 16.0142 72.8044 15.6932 72.3825 15.6688Z" fill="white"/>
<path d="M59.9143 35.3899C60.317 36.2266 60.0821 37.1557 59.2189 38.1725C58.5213 38.9405 57.7128 39.5965 56.8212 40.1182C55.3122 40.9994 53.6858 41.6547 51.9922 42.0642C51.7476 43.3581 51.5127 44.6472 51.2536 45.9558C51.0023 47.2376 50.6031 48.4851 50.0644 49.6723C49.5173 50.861 48.6946 51.8974 47.6668 52.6933C47.5109 52.8222 47.3362 52.9258 47.1488 52.9997C47.5804 52.9997 48.1559 52.9413 48.8703 52.883C49.528 52.8574 50.1671 52.6542 50.7213 52.2944C51.1272 51.8987 51.5084 51.4781 51.8628 51.0344H51.9106L51.9442 51.0637C51.9453 51.1314 51.9252 51.1978 51.8866 51.2533C51.5781 51.8656 51.1151 52.3838 50.5448 52.7555C49.9746 53.1274 49.3173 53.339 48.6402 53.3694C48.3344 53.3891 48.0277 53.3776 47.7242 53.3354C47.4266 53.3008 47.1268 53.2894 46.8276 53.3013C46.6184 53.3325 46.4119 53.3779 46.2088 53.4376C45.9549 53.5058 45.6972 53.5578 45.4368 53.5931C44.8661 53.6418 44.5256 53.5494 44.4106 53.3013C44.3434 53.1603 44.54 53.0678 45.0004 53.029C45.1874 53.029 45.48 52.9997 45.8684 52.9997C46.2568 52.9997 46.5445 52.9997 46.7268 52.9608C47.801 52.3544 48.6402 51.1058 49.2444 49.215C49.4266 48.6362 49.7527 47.133 50.2034 44.6958C50.3346 44.0635 50.52 43.2738 50.7597 42.3269C49.8415 42.5304 48.913 42.683 47.9784 42.784C47.1871 44.1899 46.3767 45.5813 45.5807 46.9579C47.6764 47.2157 48.9375 47.6195 49.3356 48.1691C48.7888 47.8448 47.4845 47.5498 45.4224 47.2838C43.792 50.008 41.9568 52.0592 39.9173 53.4376C37.5548 55.059 34.5895 56.032 31.0216 56.3563C30.2389 56.4288 29.4522 56.4451 28.6671 56.405C29.6263 58.3507 31.4725 59.7405 34.2058 60.5739C36.4421 61.2632 38.7885 61.5077 41.116 61.2938C43.6098 61.0701 45.5823 60.4653 47.0336 59.4794C48.5202 58.4675 49.0047 57.4216 48.5012 56.3514C48.2927 55.9 47.9594 55.5198 47.542 55.2568C47.4474 55.2115 47.3588 55.1542 47.2783 55.0866C47.2855 55.0824 47.2938 55.0802 47.3023 55.0802C47.3106 55.0802 47.3189 55.0824 47.3263 55.0866C47.6948 55.1211 48.037 55.2947 48.2853 55.5731C48.5964 55.8166 48.8597 56.1168 49.0621 56.4584C49.5832 57.5675 49.0365 58.6394 47.4221 59.6739C45.8077 60.7085 43.7456 61.3262 41.236 61.5274C38.821 61.7909 36.3783 61.5693 34.0476 60.8755C31.3143 60.0339 29.444 58.555 28.4322 56.4584C26.557 56.3837 24.7157 55.927 23.0181 55.1158C21.3314 54.3544 19.9581 53.0216 19.1338 51.3458C18.61 50.3038 18.4738 49.1053 18.7501 47.9698C19.0268 46.9242 19.6064 45.987 20.4141 45.2797C22.2684 43.5738 24.8084 42.5733 28.0341 42.2781C29.9596 42.0896 31.9021 42.2144 33.7887 42.6478C36.2152 43.2251 37.7864 44.2694 38.5026 45.7806C38.676 46.168 38.7909 46.5795 38.8431 47.0016C38.9103 47.0016 39.0349 47.0016 39.2172 46.9677L39.6151 46.9384C41.2364 46.7787 42.8684 46.764 44.492 46.8947C44.8565 46.3498 45.6557 45.0363 46.8898 42.9544C44.8775 43.1126 42.8532 42.9717 40.8812 42.536C38.3012 41.9587 36.6404 40.8869 35.8986 39.3205C35.3967 38.2568 35.5199 37.3584 36.2679 36.6254C37.0709 35.9237 38.0858 35.5205 39.1452 35.4824C40.3965 35.331 41.6645 35.5402 42.804 36.0856C43.2996 36.2866 43.7229 36.6362 44.0173 37.0877C44.0797 37.2141 44.0893 37.2773 44.0173 37.287C43.4912 36.5662 42.7178 36.0715 41.8498 35.9006C41.0285 35.676 40.1741 35.6035 39.3274 35.6866C38.3341 35.7112 37.382 36.0941 36.642 36.7666C35.9802 37.4525 35.8844 38.3038 36.3687 39.3157C37.0879 40.8237 38.6848 41.8501 41.164 42.4094C43.0794 42.8214 45.0428 42.9558 46.9954 42.8083C50.0037 37.3893 53.3301 34.5158 56.9746 34.1883C58.4756 34.0229 59.4634 34.4365 59.9143 35.3899ZM38.2724 45.8147C37.633 44.4461 36.1016 43.5576 33.6784 43.149C31.9112 42.8686 30.1164 42.8163 28.3362 42.9933C25.7807 43.153 23.3116 43.9918 21.1767 45.4256C18.8557 47.0763 18.2386 49.0416 19.3256 51.3214C20.1268 52.9304 21.4565 54.2053 23.0853 54.9261C24.7348 55.6846 26.5124 56.1157 28.3218 56.1957C28.0178 55.5662 27.865 54.8726 27.8757 54.1718C27.8866 53.4709 28.0608 52.7826 28.3842 52.163C26.3477 51.7478 25.077 51.0166 24.5719 49.9691C24.5053 49.8114 24.4509 49.6488 24.4088 49.4826C24.3464 49.2296 24.3464 49.0982 24.4088 49.0982C24.4421 49.0933 24.476 49.0933 24.5095 49.0982C24.5095 49.1469 24.5527 49.2832 24.6053 49.5069C24.6348 49.6419 24.6765 49.7739 24.7301 49.901C25.1093 50.5445 25.7056 51.0266 26.4085 51.2582C27.1013 51.5435 27.826 51.7411 28.5664 51.8469C29.3368 50.5496 30.7292 49.4648 32.7432 48.5923C34.605 47.8072 36.5664 47.2915 38.5698 47.06C38.5628 46.6277 38.4612 46.2024 38.2724 45.8147ZM44.3386 47.2741C42.6914 47.1358 41.0352 47.1456 39.3898 47.3032C39.222 47.3032 39.0445 47.3373 38.8623 47.3714C38.8623 48.7432 38.0631 49.8962 36.4645 50.8301C34.994 51.6747 33.3551 52.1734 31.6692 52.2894C30.6725 52.3867 29.6677 52.3475 28.6815 52.1728C28.3178 52.7645 28.112 53.4419 28.0844 54.1387C28.0565 54.8354 28.2079 55.5275 28.5232 56.147C29.3221 56.2019 30.124 56.1904 30.921 56.1131C33.8903 55.9096 36.7471 54.8813 39.1788 53.1408C41.2517 51.5349 43.0031 49.5419 44.3386 47.2693V47.2741ZM38.541 47.3811C36.6224 47.6106 34.7434 48.1014 32.9543 48.8405C30.9882 49.6578 29.6167 50.6728 28.8397 51.8858C31.2397 52.1026 33.6527 51.6554 35.822 50.5917C37.5148 49.6869 38.4162 48.6459 38.541 47.3763V47.3811ZM59.6408 35.419C59.5271 35.1955 59.3692 34.9981 59.177 34.839C58.9848 34.68 58.7623 34.5629 58.5236 34.4949C58.0602 34.3403 57.57 34.2872 57.085 34.3392C54.8399 34.5723 52.7743 35.6882 51.3304 37.4477C50.0327 39.0576 48.9194 40.812 48.012 42.6771C48.9349 42.5698 49.8509 42.4074 50.7549 42.1906C51.1492 40.6557 51.7308 39.1768 52.4861 37.7882C53.5268 35.9493 54.7208 34.9765 56.0684 34.8694C56.6485 34.8208 56.9362 34.8694 56.922 35.0154L56.8692 35.0688L56.2266 35.0202C55.7055 35.0779 55.206 35.263 54.7708 35.5595C54.3356 35.856 53.9778 36.2552 53.7282 36.7227C53.246 37.593 52.8736 38.5213 52.6204 39.4859C52.3199 40.5366 52.1104 41.3474 51.9922 41.9182C53.5824 41.4597 55.1037 40.7838 56.5143 39.9091C59.1837 38.1125 60.2324 36.6141 59.66 35.4142L59.6408 35.419Z" fill="#E7A43F" stroke="#E7A43F" stroke-width="0.3"/>
<path d="M56.5381 50.5917C56.5381 50.6453 56.4517 50.8496 56.1976 51.1949C55.8715 51.6736 55.4437 52.072 54.9458 52.3606C54.4478 52.6494 53.8923 52.8213 53.3203 52.8635C52.5147 52.9413 51.9776 52.6933 51.7042 52.1242C51.587 51.8872 51.5646 51.6136 51.6419 51.3603C51.6774 51.2421 51.7491 51.1384 51.8464 51.064C51.9438 50.9898 52.0619 50.9486 52.1838 50.9469C52.4715 50.9469 52.6634 50.9955 52.74 51.1706C52.8168 51.3458 52.74 51.5355 52.5435 51.7544C52.4504 51.8227 52.3821 51.9203 52.3491 52.032C52.3161 52.1437 52.3205 52.2632 52.3613 52.3722C52.4355 52.503 52.5491 52.6062 52.6856 52.6667C52.8219 52.727 52.9738 52.7414 53.1189 52.7078C53.3021 52.6987 53.4776 52.6298 53.6192 52.5115C53.7609 52.3933 53.8613 52.2318 53.9053 52.0512C54.0134 51.659 54.0541 51.2509 54.0253 50.8446C53.9958 50.4854 54.0152 50.1237 54.0827 49.7696C53.3873 50.621 52.9462 51.0587 52.7592 51.0733C52.7453 51.0786 52.7301 51.0786 52.716 51.0733C52.716 51.0003 52.9126 50.7426 53.3299 50.2901C53.6136 50.0166 53.8736 49.7189 54.1067 49.4C54.1542 49.253 54.2405 49.1221 54.3565 49.0218C54.4723 48.9213 54.6133 48.8552 54.7637 48.8307C54.9363 48.8307 55.0371 48.8307 55.0563 48.8746C55.0754 48.9184 54.8981 49.1566 54.4904 49.5118C54.4376 49.5605 54.5862 49.9642 54.9363 50.7134C55.0608 50.9678 55.1123 51.2528 55.0849 51.5355C55.0749 51.7926 54.9686 52.0362 54.7877 52.2165C55.2418 51.9318 55.6467 51.5736 55.9865 51.156C56.2886 50.7669 56.4661 50.5674 56.5189 50.5626C56.5717 50.5578 56.5285 50.5626 56.5381 50.5917Z" fill="#E7A43F" stroke="#E7A43F" stroke-width="0.3"/>
<path d="M61.0555 50.1685C61.0794 50.2269 60.9691 50.4312 60.7198 50.7717C60.3882 51.2523 59.9555 51.6523 59.4529 51.9426C58.9502 52.2328 58.3904 52.4061 57.8138 52.4501C57.0082 52.523 56.4758 52.2749 56.1976 51.7008C56.1376 51.5842 56.1016 51.4563 56.0917 51.325C56.0817 51.1938 56.0982 51.0618 56.1401 50.9371C56.1755 50.8202 56.2467 50.7176 56.3432 50.6442C56.4397 50.5709 56.5566 50.5302 56.6773 50.5285C56.965 50.4994 57.1568 50.5771 57.2334 50.7523C57.3102 50.9274 57.2334 51.1219 57.0368 51.336C56.8403 51.5501 56.7635 51.7592 56.8595 51.9538C56.9553 52.1485 57.2286 52.3235 57.6171 52.2846C57.7989 52.2747 57.9728 52.2061 58.1134 52.0888C58.2541 51.9715 58.3541 51.8118 58.3987 51.6328C58.5089 51.241 58.5496 50.8325 58.5187 50.4264C58.4918 50.0686 58.5112 49.7088 58.5761 49.3562C57.8808 50.2074 57.4397 50.6453 57.2526 50.6598C57.2526 50.6598 57.2286 50.6598 57.2094 50.6598C57.1904 50.6598 57.4109 50.3291 57.8234 49.8766C58.109 49.6034 58.3691 49.3037 58.6001 48.9816C58.6497 48.835 58.7374 48.705 58.8539 48.6048C58.9704 48.5046 59.1113 48.4381 59.2619 48.4125C59.4297 48.4125 59.5306 48.4125 59.5498 48.4562C59.5688 48.5 59.3962 48.7432 58.9838 49.0934C58.931 49.1518 59.0797 49.5459 59.4297 50.295C59.551 50.5523 59.6024 50.8378 59.5784 51.1219C59.5673 51.3789 59.4613 51.6221 59.2811 51.803C59.7355 51.5166 60.1405 51.1568 60.48 50.7376C60.7821 50.3485 60.9595 50.1539 61.0123 50.1491C61.0278 50.1523 61.0426 50.1589 61.0555 50.1685Z" fill="#E7A43F" stroke="#E7A43F" stroke-width="0.3"/>
<path d="M65.9469 50.9371C65.7873 51.1672 65.5836 51.3621 65.348 51.5101C65.1121 51.6581 64.8494 51.756 64.5753 51.7981C64.4232 51.8341 64.2635 51.8166 64.1224 51.7485C63.9812 51.6805 63.867 51.5659 63.7984 51.4235C63.7489 51.3293 63.723 51.224 63.723 51.1171C63.723 51.0102 63.7489 50.905 63.7984 50.8107C63.6166 51.1347 63.3638 51.4122 63.0595 51.6213C62.7552 51.8306 62.4075 51.9659 62.0433 52.0171C61.8433 52.0635 61.6336 52.041 61.4477 51.9528C61.2617 51.8648 61.1102 51.7162 61.0171 51.5306C60.936 51.3517 60.8972 51.156 60.904 50.9592C60.9107 50.7626 60.9625 50.5701 61.0555 50.3971C60.9499 50.6064 60.8636 50.7085 60.8156 50.7133C60.7923 50.7214 60.767 50.7214 60.7437 50.7133V50.6794V50.6064C61.0168 50.107 61.4092 49.6856 61.8851 49.3805C62.3464 49.0062 62.8945 48.7584 63.4771 48.6605C63.9566 48.6166 64.2444 48.748 64.3883 49.0546C64.4241 49.1259 64.4468 49.2035 64.4553 49.2832C64.523 49.0819 64.6422 48.9024 64.8006 48.7632C64.959 48.6238 65.151 48.5296 65.3569 48.4902C65.5296 48.4902 65.6256 48.4902 65.6446 48.5243C65.5158 48.9446 65.3555 49.3546 65.1651 49.7502C64.8342 50.5333 64.724 51.0392 64.8342 51.2728L64.9206 51.3603C64.9699 51.3678 65.02 51.3678 65.0693 51.3603C65.3473 51.3312 65.6878 51.0539 66.1003 50.509C66.3083 50.212 66.5376 49.9307 66.786 49.6675H66.8101C66.8243 49.7842 66.5462 50.2123 65.9469 50.9371ZM64.1677 49.1323C64.1241 49.0318 64.0481 48.9493 63.9524 48.8979C63.8566 48.8467 63.7465 48.8299 63.6401 48.8502C63.2997 48.8843 62.8873 49.2734 62.4126 50.0226C61.9377 50.7717 61.7603 51.2874 61.8947 51.5646C61.9254 51.6318 61.9777 51.6867 62.0428 51.7202C62.1081 51.7538 62.1825 51.764 62.2544 51.7494C62.6331 51.7155 63.084 51.3458 63.6019 50.6403C64.1197 49.935 64.3163 49.4242 64.1677 49.1323Z" fill="#E7A43F" stroke="#E7A43F" stroke-width="0.3"/>
<path d="M72.4108 49.1714C72.4971 49.3464 72.1519 49.8085 71.375 50.5626C70.9183 51.0254 70.4382 51.464 69.9364 51.876C69.0892 55.119 67.7847 57.3422 66.0233 58.5453C65.67 58.8032 65.2603 58.9702 64.8292 59.0318C64.1915 59.0902 63.779 58.915 63.5871 58.5016C63.3315 57.9664 63.5791 57.2302 64.3305 56.2931C65.0726 55.3928 65.8998 54.5685 66.8001 53.8315L68.9294 52.0901C69.0636 51.6912 69.2315 51.1171 69.4089 50.3875C69.2196 50.6901 68.9692 50.9486 68.674 51.1458C68.3788 51.3427 68.0459 51.4739 67.6969 51.5306C67.4929 51.5742 67.2804 51.5472 67.0935 51.4536C66.9065 51.3602 66.7559 51.2056 66.6659 51.015C66.5774 50.8448 66.5364 50.6534 66.5475 50.4613C66.5585 50.2693 66.6209 50.084 66.7283 49.9253C66.5748 50.1248 66.4884 50.2269 66.4644 50.2269C66.4475 50.2338 66.4287 50.2338 66.4118 50.2269V50.1928V50.115C66.7228 49.6149 67.1311 49.1843 67.6119 48.8498C68.0926 48.5152 68.6355 48.2837 69.2075 48.1691C69.4009 48.1264 69.6033 48.1592 69.774 48.2611C69.9446 48.363 70.0711 48.5266 70.1283 48.7189H70.1521C70.3487 48.2762 70.5694 48.0427 70.8092 48.0232C71.0489 48.0038 71.1879 48.0232 71.2215 48.1109C71.2551 48.1984 71.2215 48.2811 71.0969 48.5146C70.9723 48.748 70.6414 49.7891 70.0227 51.6328L70.6844 51.0296C71.0745 50.6798 71.4414 50.3045 71.7827 49.9059C71.9532 49.6181 72.1649 49.3574 72.4108 49.1323C72.4108 49.1323 72.4108 49.1616 72.4108 49.1714ZM68.8862 52.411C66.9935 54.0747 65.9673 54.9861 65.8075 55.145C64.4199 56.585 63.9054 57.6778 64.2633 58.4237C64.3291 58.5659 64.4399 58.6816 64.5782 58.7522C64.7166 58.8227 64.8742 58.8442 65.0259 58.813C66.311 58.6816 67.6155 56.5509 68.8958 52.411H68.8862ZM69.8452 48.5682C69.8033 48.4704 69.7308 48.3893 69.639 48.3374C69.5471 48.2856 69.4409 48.2658 69.3369 48.2811C68.9916 48.3152 68.5841 48.7043 68.0998 49.4582C67.6153 50.2123 67.4475 50.7378 67.5915 51.0296C67.6227 51.1 67.6771 51.1574 67.7451 51.192C67.8132 51.2266 67.8911 51.2362 67.9654 51.2194C68.3491 51.1853 68.7951 50.8107 69.3033 50.1005C69.8116 49.3902 70.0131 48.8794 69.8596 48.5682H69.8452Z" fill="#E7A43F" stroke="#E7A43F" stroke-width="0.3"/>
<path d="M78.065 48.6459C78.1513 48.8162 77.806 49.2782 77.0292 50.0275C76.5774 50.4955 76.0969 50.9342 75.5905 51.341C74.7433 54.584 73.4374 56.8086 71.6727 58.015C71.3241 58.2782 70.9145 58.4458 70.4834 58.5016C69.8455 58.56 69.4332 58.3848 69.2366 57.9762C68.9809 57.4411 69.2286 56.7034 69.9799 55.7627C70.7271 54.8674 71.5538 54.0434 72.4495 53.3013C73.1545 52.7322 73.8642 52.1485 74.5738 51.5646C74.7178 51.161 74.8809 50.5917 75.0535 49.8621C74.8654 50.1653 74.6151 50.424 74.3198 50.6205C74.0242 50.8168 73.6906 50.9464 73.3415 51.0003C73.1415 51.0469 72.9318 51.0243 72.7458 50.9362C72.5599 50.848 72.4084 50.6994 72.3153 50.5139C72.2271 50.343 72.186 50.1512 72.1962 49.9587C72.2063 49.7661 72.2673 49.5798 72.3727 49.4194C72.2241 49.6189 72.1282 49.7112 72.0994 49.7162C72.0854 49.7203 72.0703 49.7203 72.0562 49.7162V49.6821V49.6139C72.3658 49.1125 72.7738 48.681 73.2548 48.3462C73.7358 48.0115 74.2794 47.7806 74.8521 47.6682C75.0374 47.6256 75.2316 47.6518 75.3996 47.7419C75.5676 47.832 75.6983 47.9802 75.7679 48.1595C75.9742 47.7118 76.1948 47.4784 76.4345 47.4589C76.6743 47.4395 76.8086 47.4589 76.847 47.5466C76.8854 47.6341 76.847 47.7168 76.7223 47.9502C76.5975 48.1838 76.2666 49.2248 75.6481 51.0637L76.3098 50.4555C76.6985 50.1061 77.0654 49.7325 77.4081 49.3366C77.5809 49.0634 77.7906 48.8162 78.0314 48.6021L78.065 48.6459ZM74.5452 51.8808C72.6494 53.5478 71.6215 54.4606 71.4617 54.6197C70.0838 56.0627 69.5706 57.1557 69.9223 57.8984C69.9887 58.04 70.0998 58.155 70.2378 58.2256C70.3759 58.296 70.5332 58.3179 70.6847 58.2875C71.9604 58.1707 73.2471 56.0418 74.5452 51.9003V51.8808ZM75.5042 48.0378C75.4622 47.9402 75.3897 47.859 75.2978 47.8072C75.206 47.7554 75.0999 47.7355 74.9959 47.7509C74.6554 47.7848 74.2382 48.1741 73.7538 48.928C73.2695 49.6821 73.1065 50.2026 73.2407 50.4994C73.2751 50.5694 73.3314 50.6261 73.4007 50.6603C73.4702 50.6947 73.5487 50.7048 73.6244 50.689C74.0033 50.655 74.4492 50.2755 74.9575 49.5653C75.4658 48.855 75.6529 48.3686 75.509 48.0573L75.5042 48.0378Z" fill="#E7A43F" stroke="#E7A43F" stroke-width="0.3"/>
<path d="M81.2587 48.3686C81.3211 48.5 81.0476 48.9086 80.4435 49.6091C80.1097 50.0686 79.6158 50.3818 79.0624 50.4846C78.9115 50.5232 78.7524 50.5098 78.6099 50.4462C78.4675 50.3829 78.35 50.2731 78.276 50.1344C78.1582 49.7165 78.2046 49.2683 78.4054 48.8843C78.5403 48.4771 78.7412 48.0957 79 47.7557C78.7724 47.9829 78.5564 48.2216 78.3526 48.4707C78.2568 48.6118 78.0985 48.8114 77.8731 49.0739C77.8294 49.1229 77.7697 49.1539 77.7052 49.1616L77.686 49.1323C77.686 48.8502 77.9641 48.4707 78.4916 47.9891C78.8494 47.5882 79.3198 47.3082 79.8392 47.1866C79.9214 47.1693 80.0064 47.1693 80.0886 47.1866V47.2206C79.9491 47.6291 79.7891 48.0302 79.6091 48.4221C79.2734 49.2005 79.1534 49.6821 79.2446 49.8814C79.2771 49.9173 79.3142 49.9483 79.3548 49.9739C79.374 49.9917 79.3969 50.005 79.4219 50.0125C79.4468 50.0202 79.4731 50.0219 79.4987 50.0178C79.7241 50.0178 80.0358 49.7258 80.4291 49.1955C80.8222 48.6653 81.1004 48.3784 81.2539 48.3298L81.2587 48.3686ZM80.8032 44.8613C80.8846 45.017 80.8318 45.192 80.6544 45.3818C80.5078 45.5515 80.3046 45.6606 80.0838 45.6882C79.9816 45.6086 79.902 45.5029 79.8536 45.3818C79.6617 44.9731 79.8536 44.7397 80.4339 44.691C80.6257 44.6715 80.7504 44.7542 80.8032 44.8613Z" fill="#E7A43F" stroke="#E7A43F" stroke-width="0.3"/>
<path d="M86.1361 49.1323C85.9772 49.3631 85.7737 49.5582 85.5378 49.7064C85.302 49.8544 85.0389 49.952 84.7645 49.9934C84.6124 50.0275 84.4535 50.0093 84.3127 49.9414C84.1721 49.8736 84.0577 49.76 83.9877 49.6189C83.9381 49.5245 83.9122 49.4192 83.9122 49.3123C83.9122 49.2054 83.9381 49.1002 83.9877 49.0059C83.8069 49.3318 83.5546 49.611 83.2503 49.8221C82.9458 50.033 82.5975 50.1698 82.2325 50.2221C82.0325 50.2677 81.8233 50.2446 81.6375 50.1566C81.4517 50.0686 81.3001 49.9205 81.2063 49.7355C81.1253 49.5566 81.0866 49.361 81.0932 49.1642C81.0999 48.9675 81.1517 48.7751 81.2447 48.6021C81.1345 48.8064 81.0529 48.9134 81.0001 48.9134C80.9889 48.9187 80.9765 48.9214 80.9642 48.9214C80.9517 48.9214 80.9394 48.9187 80.9282 48.9134V48.8794V48.8064C81.1725 48.2939 81.5425 47.8534 82.0023 47.527C82.4613 47.149 83.0105 46.9006 83.5945 46.807C84.074 46.7682 84.3617 46.8946 84.5009 47.1963C84.5348 47.2702 84.5573 47.349 84.5679 47.4298C84.6348 47.228 84.7535 47.048 84.9121 46.9085C85.0706 46.7691 85.2631 46.6752 85.4695 46.6368C85.6421 46.6368 85.738 46.6466 85.7572 46.6661C85.6325 47.0894 85.4722 47.5013 85.2777 47.8968C84.9468 48.68 84.8365 49.1859 84.9516 49.4194L85.033 49.5069C85.0825 49.5118 85.1324 49.5118 85.1818 49.5069C85.4599 49.5069 85.8052 49.2005 86.2127 48.6605C86.4181 48.36 86.6492 48.0784 86.9033 47.8189H86.9273C87.0137 47.9552 86.7402 48.3784 86.1361 49.1323ZM84.3569 47.313C84.3135 47.2134 84.2385 47.1315 84.1436 47.0803C84.0489 47.0291 83.9399 47.0117 83.8343 47.0309C83.4938 47.065 83.0765 47.4541 82.6018 48.2032C82.1271 48.9523 81.9497 49.468 82.0887 49.7453C82.1193 49.8117 82.1708 49.8658 82.2349 49.8992C82.2993 49.9326 82.3725 49.9435 82.4436 49.9301C82.8241 49.8944 83.2748 49.5248 83.7959 48.821C84.3186 48.0962 84.5057 47.5952 84.3569 47.2887V47.313Z" fill="#E7A43F" stroke="#E7A43F" stroke-width="0.3"/>
<path d="M93.1895 47.2886C93.2471 47.42 92.9785 47.8334 92.3743 48.5291C92.0365 48.989 91.5396 49.3018 90.9836 49.4048C90.834 49.4408 90.6769 49.4267 90.5359 49.3645C90.3949 49.3021 90.2778 49.195 90.202 49.0594C90.082 48.6398 90.1284 48.1894 90.3314 47.8043C90.4671 47.395 90.6697 47.0118 90.9308 46.6709C90.7821 46.8216 90.5617 47.06 90.2786 47.3859C90.178 47.5318 90.0293 47.7314 89.7991 47.9941C89.7557 48.0406 89.6985 48.0714 89.6361 48.0816L89.5977 48.0475C89.5977 47.7702 89.8711 47.3859 90.3986 46.9093C90.7589 46.5184 91.2295 46.2499 91.7461 46.1406C91.8319 46.1282 91.9191 46.1282 92.005 46.1406V46.1795C91.8676 46.5874 91.7074 46.9869 91.5255 47.3762C91.1946 48.1594 91.07 48.641 91.161 48.8357C91.1951 48.873 91.2338 48.9056 91.2761 48.933C91.2951 48.9494 91.3172 48.9619 91.3412 48.9694C91.365 48.977 91.3903 48.9795 91.4153 48.9766C91.6453 48.9766 91.9522 48.6848 92.3503 48.1546C92.561 47.8096 92.8402 47.5131 93.1703 47.2838L93.1895 47.2886ZM92.71 43.7765C92.7866 43.937 92.7388 44.1122 92.5565 44.3018C92.4093 44.4701 92.2061 44.5774 91.9858 44.6034C91.8837 44.5269 91.8055 44.4222 91.7604 44.3018C91.5639 43.8883 91.7604 43.6597 92.3407 43.611C92.4154 43.5866 92.4964 43.5904 92.5687 43.6216C92.6409 43.653 92.6996 43.7096 92.734 43.7813L92.71 43.7765Z" fill="#E7A43F" stroke="#E7A43F" stroke-width="0.3"/>
<path d="M99.6441 38.6102C99.8454 39.0384 99.6728 39.6707 99.1262 40.5074C98.5795 41.3442 97.1536 43.1894 94.8486 46.0434C94.652 46.417 94.5251 46.8243 94.4745 47.245C94.3529 47.6498 94.3267 48.0781 94.3979 48.495L94.4793 48.573C94.5348 48.6139 94.6025 48.6346 94.6712 48.6314C95.1172 48.5923 95.6304 48.0816 96.2393 47.1038L96.4456 46.9773V47.0114C96.503 47.1282 96.2297 47.5416 95.6256 48.2518C95.2726 48.7163 94.7579 49.0261 94.1868 49.1178C93.7745 49.1469 93.5011 49.035 93.3764 48.7627C93.2038 48.4075 93.2804 47.7898 93.5875 46.8168C93.2326 47.347 93.012 47.6146 92.9353 47.6243H92.9065C92.8777 47.527 92.9976 47.3032 93.271 46.953C93.4436 46.7293 93.6115 46.5054 93.7841 46.2866C93.8848 46.0141 94.043 45.5909 94.2636 45.0315C96.0667 40.595 97.5836 38.3248 98.8145 38.2211C98.9756 38.1862 99.1436 38.2054 99.2931 38.2755C99.4427 38.3458 99.5657 38.4632 99.6441 38.6102ZM99.1644 38.7221C99.1262 38.6269 99.0593 38.5464 98.9731 38.4922C98.887 38.4381 98.786 38.413 98.6849 38.4205C98.1958 38.4627 97.467 39.5539 96.4982 41.6944C95.8974 42.956 95.3785 44.256 94.9446 45.5861C95.822 44.4381 96.6948 43.2899 97.5628 42.1274C98.8576 40.308 99.3947 39.1794 99.1788 38.7221H99.1644Z" fill="#E7A43F" stroke="#E7A43F" stroke-width="0.3"/>
<path d="M106.137 38.0168C106.358 38.4691 106.185 39.1064 105.658 39.9139C105.13 40.7214 104.023 42.1226 102.416 44.1024C102.157 44.3942 101.798 44.8418 101.332 45.4402C100.933 46.3934 100.584 47.3678 100.287 48.3589C101.244 47.9826 102.075 47.3381 102.685 46.5006C102.747 46.4131 102.795 46.3645 102.824 46.3645C102.853 46.3645 102.886 46.3645 102.896 46.3645C102.906 46.4064 102.907 46.4501 102.898 46.4923C102.889 46.5346 102.87 46.5741 102.843 46.6077C102.61 46.9806 102.314 47.3098 101.97 47.5806C101.411 47.9378 100.871 48.3259 100.354 48.7432C100.31 48.9614 100.31 49.1866 100.354 49.4048C100.354 49.6432 100.392 49.8912 100.416 50.1101C100.456 51.2334 100.359 52.3574 100.129 53.457C99.793 55.0379 99.2751 55.8893 98.575 55.9282C98.4434 55.9525 98.3076 55.9299 98.1905 55.8643C98.0734 55.7987 97.9822 55.6942 97.9324 55.5682C97.3474 54.3456 98.0746 51.1803 100.114 46.0725H100.09C99.8526 46.4112 99.5791 46.7227 99.2751 47.0016C99.2511 46.9336 99.4046 46.6854 99.721 46.2525L100.306 45.5229C100.584 44.832 100.944 43.937 101.39 42.8571C101.843 41.8003 102.387 40.7861 103.016 39.8264C103.936 38.367 104.723 37.6277 105.365 37.5643C105.525 37.5442 105.687 37.5774 105.826 37.659C105.966 37.7406 106.075 37.8664 106.137 38.0168ZM100.076 48.9086H100.052C99.7162 49.8814 99.3759 51.015 99.0354 52.2506C98.5494 54.0635 98.3719 55.132 98.5031 55.4563C98.523 55.5091 98.5598 55.5536 98.6076 55.5827C98.6554 55.6118 98.7114 55.6238 98.7668 55.6168C99.2847 55.5682 99.7258 54.5954 100.042 52.6981C100.229 51.4429 100.241 50.167 100.076 48.9086ZM105.667 38.1141C105.634 38.0168 105.567 37.935 105.479 37.8832C105.391 37.8315 105.288 37.8133 105.188 37.832C104.708 37.8757 103.984 38.9264 103.044 40.9891C102.444 42.2819 101.909 43.6051 101.443 44.9538L103.994 41.5485C105.317 39.6934 105.875 38.5486 105.667 38.1141Z" fill="#E7A43F" stroke="#E7A43F" stroke-width="0.3"/>
<path d="M109.235 45.839C109.297 45.9752 109.033 46.3936 108.424 47.0893C108.089 47.5358 107.602 47.8408 107.058 47.9454C106.901 47.9854 106.736 47.9714 106.588 47.9053C106.441 47.8392 106.319 47.7248 106.243 47.5806C106.07 47.2254 106.199 46.6952 106.617 45.9802L106.564 45.9509C105.408 47.4102 104.545 48.1789 103.965 48.2275C103.528 48.2664 103.245 48.1448 103.111 47.8627C102.891 47.4054 103.14 46.6174 103.85 45.5034C103.617 45.728 103.396 45.9651 103.188 46.2136C103.087 46.3595 102.938 46.5638 102.708 46.8218C102.665 46.8682 102.607 46.899 102.545 46.9093L102.507 46.8752C102.652 46.4142 102.923 46.0043 103.288 45.6931C103.631 45.2915 104.098 45.0189 104.612 44.9197C104.701 44.8989 104.794 44.9091 104.876 44.9488C104.876 44.9781 104.713 45.4354 104.396 46.3206C104.128 47.06 104.032 47.5075 104.113 47.673C104.141 47.6992 104.171 47.7221 104.204 47.7411C104.228 47.76 104.255 47.7734 104.284 47.7802C104.313 47.7869 104.343 47.7869 104.372 47.78C104.684 47.78 105.6 46.807 107.106 44.8954C107.164 44.8219 107.237 44.7619 107.319 44.7192C107.402 44.6763 107.493 44.6518 107.585 44.6472C107.859 44.6472 108.007 44.6472 108.065 44.7008C107.954 45.132 107.793 45.5485 107.585 45.9411C107.254 46.7147 107.135 47.1816 107.216 47.3568C107.236 47.4034 107.269 47.4424 107.312 47.4686C107.352 47.4973 107.402 47.5094 107.451 47.5027C107.897 47.4589 108.41 46.953 108.986 45.9656L109.201 45.8342L109.235 45.839Z" fill="#E7A43F" stroke="#E7A43F" stroke-width="0.3"/>
<path d="M112.213 41.7576C111.703 42.5928 111.281 43.4797 110.952 44.404C111.053 44.3819 111.156 44.3672 111.259 44.3602L112.074 44.2824C112.271 44.2824 112.381 44.2824 112.415 44.3408C112.448 44.399 112.252 44.4867 111.815 44.5256L110.885 44.6131C110.405 45.8682 110.271 46.6659 110.429 47.0016C110.451 47.0626 110.492 47.1146 110.546 47.1498C110.599 47.1848 110.663 47.2011 110.727 47.1962C110.976 47.1962 111.561 46.6125 112.467 45.5034C112.479 45.5029 112.491 45.5059 112.501 45.512C112.511 45.5179 112.52 45.5267 112.525 45.5374C112.587 45.6638 112.309 46.0774 111.71 46.7779C111.35 47.2605 110.818 47.5816 110.228 47.673C110.074 47.7091 109.913 47.6931 109.769 47.6272C109.625 47.5613 109.507 47.4491 109.432 47.3082C109.259 46.953 109.331 46.3352 109.643 45.4109C109.416 45.7507 109.167 46.0757 108.9 46.3838C108.881 46.3798 108.863 46.3723 108.848 46.3614C108.832 46.3506 108.819 46.3368 108.809 46.3206C108.915 46.0645 109.063 45.8278 109.245 45.6202C109.629 45.1045 109.84 44.8077 109.883 44.7445L109.48 44.7786L109.111 44.8126H108.981C108.965 44.8067 108.951 44.7978 108.938 44.7861C108.926 44.7744 108.916 44.7602 108.909 44.7445C108.876 44.6861 109.043 44.6424 109.389 44.6083C109.573 44.6018 109.756 44.579 109.935 44.5402C110.65 42.711 111.288 41.7722 111.854 41.7235C111.974 41.6978 112.1 41.7096 112.213 41.7576Z" fill="#E7A43F" stroke="#E7A43F" stroke-width="0.3"/>
<path d="M118.883 44.9634C118.951 45.1045 118.682 45.5179 118.078 46.2136C117.738 46.6613 117.248 46.9675 116.701 47.0746C116.544 47.1109 116.38 47.0946 116.233 47.0278C116.086 46.9611 115.964 46.8478 115.886 46.705C115.723 46.3498 115.848 45.8195 116.27 45.1045L116.208 45.0754C115.061 46.5347 114.193 47.3032 113.613 47.3568C113.177 47.3909 112.894 47.2693 112.76 46.987C112.539 46.5298 112.788 45.7418 113.493 44.6277C113.264 44.8547 113.046 45.0933 112.841 45.3429C112.745 45.4838 112.592 45.6882 112.362 45.9461C112.32 45.9954 112.262 46.0266 112.199 46.0336L112.16 46.0045C112.3 45.5395 112.572 45.1267 112.942 44.8174C113.286 44.4146 113.754 44.1419 114.27 44.044C114.357 44.0224 114.449 44.0326 114.529 44.0731C114.529 44.0974 114.366 44.5597 114.05 45.445C113.776 46.1893 113.68 46.632 113.757 46.8022C113.757 46.8022 113.81 46.8314 113.853 46.8654C113.876 46.8837 113.902 46.8971 113.93 46.9046C113.958 46.9122 113.987 46.9138 114.016 46.9093C114.336 46.88 115.248 45.9186 116.754 44.0245C116.811 43.9494 116.883 43.8882 116.966 43.8453C117.049 43.8024 117.141 43.7789 117.234 43.7765C117.512 43.7472 117.665 43.7765 117.713 43.8251C117.606 44.2576 117.445 44.6744 117.234 45.0656C116.908 45.8342 116.783 46.3061 116.869 46.4811C116.889 46.529 116.922 46.5696 116.965 46.5979C117.006 46.6248 117.056 46.6352 117.104 46.627C117.55 46.5834 118.063 46.0774 118.648 45.085L118.855 44.9586L118.883 44.9634Z" fill="#E7A43F" stroke="#E7A43F" stroke-width="0.3"/>
<path d="M122.965 44.5888C123.046 44.7542 122.768 45.1677 122.135 45.8488C121.773 46.3032 121.263 46.6106 120.696 46.7147C120.54 46.7506 120.376 46.7346 120.229 46.6688C120.082 46.603 119.96 46.4914 119.881 46.3498C119.718 45.9995 119.881 45.5034 120.337 44.8467C120.792 44.1899 121.037 43.8738 121.032 43.8738C121.027 43.8738 120.907 43.7667 120.754 43.7715C120.609 43.7704 120.465 43.7835 120.322 43.8106H119.987C119.886 43.8232 119.785 43.8232 119.684 43.8106C119.523 44.1254 119.338 44.4278 119.133 44.7154C118.982 44.9922 118.79 45.2434 118.562 45.4597C118.545 45.4622 118.527 45.4589 118.511 45.4501C118.495 45.4413 118.483 45.4275 118.476 45.411C118.476 45.411 118.476 45.3331 118.562 45.2406C118.711 45.0558 119.042 44.5547 119.521 43.7472C119.465 43.7291 119.413 43.6989 119.369 43.6586C119.325 43.6182 119.291 43.569 119.267 43.5138C119.217 43.4374 119.198 43.3445 119.213 43.2541C119.228 43.1637 119.277 43.0826 119.349 43.0274C119.496 42.8917 119.687 42.8141 119.886 42.8085C119.964 42.7931 120.046 42.7981 120.122 42.8227C120.198 42.8474 120.267 42.8909 120.322 42.9494L120.126 43.1878C120.086 43.2243 120.058 43.2726 120.047 43.3259C120.036 43.3792 120.042 43.4347 120.063 43.4846C120.102 43.5722 120.351 43.6013 120.811 43.5867C121.272 43.5722 121.555 43.6646 121.651 43.8738C121.708 43.9856 121.583 44.3602 121.281 44.9147C120.979 45.4693 120.878 45.8877 120.984 46.1211C121.008 46.1642 121.045 46.1982 121.09 46.2186H121.195C121.454 46.2186 121.804 45.9218 122.25 45.372C122.696 44.8224 122.912 44.5451 122.902 44.5451C122.915 44.5467 122.928 44.5515 122.939 44.5592C122.95 44.5667 122.958 44.577 122.965 44.5888Z" fill="#E7A43F" stroke="#E7A43F" stroke-width="0.3"/>
<path d="M127.866 44.1656C127.937 44.3018 127.784 44.5354 127.415 44.8613C127.182 45.1086 126.886 45.2869 126.561 45.377C126.434 45.4016 126.304 45.4016 126.178 45.377C125.7 45.937 125.046 46.3117 124.327 46.4374C123.684 46.4957 123.257 46.3109 123.051 45.8779C122.953 45.6837 122.902 45.4686 122.902 45.2504C122.902 45.0322 122.953 44.8171 123.051 44.6229C122.85 44.9586 122.71 45.1093 122.634 45.1386C122.623 45.1426 122.611 45.1426 122.6 45.1386V45.0997V45.0315C122.89 44.5403 123.283 44.1202 123.751 43.8008C124.244 43.4218 124.823 43.1742 125.434 43.0808L125.597 43.1587C125.544 43.2035 125.488 43.2442 125.429 43.2803C124.992 43.6088 124.634 44.0347 124.384 44.5256C124 45.1872 123.904 45.7077 124.067 46.0629C124.096 46.1402 124.151 46.2048 124.222 46.2458C124.293 46.2866 124.376 46.301 124.456 46.2866C124.979 46.2379 125.415 45.8002 125.784 45.0363C125.701 44.8046 125.698 44.5514 125.774 44.3174C125.851 44.0834 126.003 43.8826 126.206 43.7472C126.185 43.5899 126.135 43.4379 126.058 43.2997C126.034 43.2669 126.009 43.236 125.981 43.2074C125.952 43.1766 125.924 43.1442 125.899 43.1099C125.899 43.0662 125.899 43.037 125.991 43.0274C126.148 43.0352 126.296 43.105 126.403 43.2219C126.529 43.3323 126.636 43.464 126.719 43.611C126.916 44.0245 126.786 44.584 126.336 45.2747C126.379 45.2818 126.422 45.2818 126.465 45.2747C126.63 45.2506 126.788 45.1923 126.93 45.1037C127.072 45.015 127.195 44.8978 127.29 44.759C127.45 44.5291 127.652 44.3325 127.885 44.1802C127.885 44.1802 127.866 44.151 127.866 44.1656Z" fill="#E7A43F" stroke="#E7A43F" stroke-width="0.3"/>
<path d="M71.5243 0C72.8239 4.13003 72.1669 4.64082 69.1986 9.24272C66.9351 12.7306 69.7789 15.3332 71.3037 16.1406C70.3447 14.7738 69.7453 12.6917 70.3159 11.3929C71.5627 8.57627 74.1523 7.5012 73.3035 10.634C73.0725 11.4654 72.9341 12.3204 72.8911 13.183C73.3551 11.7292 73.9075 10.306 74.5455 8.92166C76.152 5.42888 71.5243 0 71.5243 0Z" fill="#E7A43F" stroke="#E7A43F" stroke-width="0.3"/>
</g>
</svg>
