<svg width="25" height="25" viewBox="0 0 25 25" fill="none" xmlns="http://www.w3.org/2000/svg">
<path d="M7.8125 12.7375C7.8125 12.5485 7.88658 12.3673 8.01844 12.2337C8.1503 12.1001 8.32914 12.025 8.51562 12.025C8.70211 12.025 8.88095 12.1001 9.01281 12.2337C9.14467 12.3673 9.21875 12.5485 9.21875 12.7375C9.21875 12.9265 9.14467 13.1077 9.01281 13.2413C8.88095 13.3749 8.70211 13.45 8.51562 13.45C8.32914 13.45 8.1503 13.3749 8.01844 13.2413C7.88658 13.1077 7.8125 12.9265 7.8125 12.7375ZM8.51562 14.875C8.32914 14.875 8.1503 14.9501 8.01844 15.0837C7.88658 15.2173 7.8125 15.3985 7.8125 15.5875C7.8125 15.7765 7.88658 15.9577 8.01844 16.0913C8.1503 16.2249 8.32914 16.3 8.51562 16.3C8.70211 16.3 8.88095 16.2249 9.01281 16.0913C9.14467 15.9577 9.21875 15.7765 9.21875 15.5875C9.21875 15.3985 9.14467 15.2173 9.01281 15.0837C8.88095 14.9501 8.70211 14.875 8.51562 14.875ZM7.8125 18.4375C7.8125 18.2485 7.88658 18.0673 8.01844 17.9337C8.1503 17.8001 8.32914 17.725 8.51562 17.725C8.70211 17.725 8.88095 17.8001 9.01281 17.9337C9.14467 18.0673 9.21875 18.2485 9.21875 18.4375C9.21875 18.6265 9.14467 18.8077 9.01281 18.9413C8.88095 19.0749 8.70211 19.15 8.51562 19.15C8.32914 19.15 8.1503 19.0749 8.01844 18.9413C7.88658 18.8077 7.8125 18.6265 7.8125 18.4375ZM11.3281 12.025C11.1416 12.025 10.9628 12.1001 10.8309 12.2337C10.6991 12.3673 10.625 12.5485 10.625 12.7375C10.625 12.9265 10.6991 13.1077 10.8309 13.2413C10.9628 13.3749 11.1416 13.45 11.3281 13.45H16.4844C16.6709 13.45 16.8497 13.3749 16.9816 13.2413C17.1134 13.1077 17.1875 12.9265 17.1875 12.7375C17.1875 12.5485 17.1134 12.3673 16.9816 12.2337C16.8497 12.1001 16.6709 12.025 16.4844 12.025H11.3281ZM10.625 15.5875C10.625 15.3985 10.6991 15.2173 10.8309 15.0837C10.9628 14.9501 11.1416 14.875 11.3281 14.875H16.4844C16.6709 14.875 16.8497 14.9501 16.9816 15.0837C17.1134 15.2173 17.1875 15.3985 17.1875 15.5875C17.1875 15.7765 17.1134 15.9577 16.9816 16.0913C16.8497 16.2249 16.6709 16.3 16.4844 16.3H11.3281C11.1416 16.3 10.9628 16.2249 10.8309 16.0913C10.6991 15.9577 10.625 15.7765 10.625 15.5875ZM11.3281 17.725C11.1416 17.725 10.9628 17.8001 10.8309 17.9337C10.6991 18.0673 10.625 18.2485 10.625 18.4375C10.625 18.6265 10.6991 18.8077 10.8309 18.9413C10.9628 19.0749 11.1416 19.15 11.3281 19.15H16.4844C16.6709 19.15 16.8497 19.0749 16.9816 18.9413C17.1134 18.8077 17.1875 18.6265 17.1875 18.4375C17.1875 18.2485 17.1134 18.0673 16.9816 17.9337C16.8497 17.8001 16.6709 17.725 16.4844 17.725H11.3281ZM19.4506 9.0933L13.9859 3.5567C13.9714 3.54305 13.9561 3.53036 13.94 3.5187C13.9284 3.50963 13.9171 3.50012 13.9062 3.4902C13.8417 3.42852 13.7731 3.37138 13.7009 3.3192C13.6769 3.30351 13.6519 3.28954 13.6259 3.2774L13.5809 3.2546L13.5341 3.22705C13.4834 3.1976 13.4319 3.1672 13.3784 3.1444C13.1917 3.06884 12.9942 3.02456 12.7934 3.0133C12.7749 3.01208 12.7564 3.00986 12.7381 3.00665C12.7127 3.00267 12.687 3.00045 12.6613 3H6.875C6.37772 3 5.90081 3.20018 5.54917 3.5565C5.19754 3.91282 5 4.39609 5 4.9V20.1C5 20.6039 5.19754 21.0872 5.54917 21.4435C5.90081 21.7998 6.37772 22 6.875 22H18.125C18.6223 22 19.0992 21.7998 19.4508 21.4435C19.8025 21.0872 20 20.6039 20 20.1V10.4366C19.9999 9.93273 19.8023 9.44954 19.4506 9.0933ZM18.5938 20.1C18.5938 20.226 18.5444 20.3468 18.4565 20.4359C18.3685 20.525 18.2493 20.575 18.125 20.575H6.875C6.75068 20.575 6.63145 20.525 6.54354 20.4359C6.45564 20.3468 6.40625 20.226 6.40625 20.1V4.9C6.40625 4.77402 6.45564 4.6532 6.54354 4.56412C6.63145 4.47504 6.75068 4.425 6.875 4.425H12.5V8.7C12.5 9.20391 12.6975 9.68718 13.0492 10.0435C13.4008 10.3998 13.8777 10.6 14.375 10.6H18.5938V20.1ZM13.9062 5.48995L17.5419 9.175H14.375C14.2507 9.175 14.1315 9.12496 14.0435 9.03588C13.9556 8.9468 13.9062 8.82598 13.9062 8.7V5.48995Z" fill="#5DAC0D"/>
</svg>
