<svg width="25" height="24" viewBox="0 0 25 24" fill="none" xmlns="http://www.w3.org/2000/svg">
<path d="M0.220703 24L1.9077 17.837C0.866703 16.033 0.319703 13.988 0.320703 11.891C0.323703 5.335 5.6587 0 12.2137 0C15.3947 0.001 18.3807 1.24 20.6267 3.488C22.8717 5.736 24.1077 8.724 24.1067 11.902C24.1037 18.459 18.7687 23.794 12.2137 23.794C10.2237 23.793 8.2627 23.294 6.5257 22.346L0.220703 24ZM6.8177 20.193C8.4937 21.188 10.0937 21.784 12.2097 21.785C17.6577 21.785 22.0957 17.351 22.0987 11.9C22.1007 6.438 17.6837 2.01 12.2177 2.008C6.7657 2.008 2.3307 6.442 2.3287 11.892C2.3277 14.117 2.9797 15.783 4.0747 17.526L3.0757 21.174L6.8177 20.193ZM18.2047 14.729C18.1307 14.605 17.9327 14.531 17.6347 14.382C17.3377 14.233 15.8767 13.514 15.6037 13.415C15.3317 13.316 15.1337 13.266 14.9347 13.564C14.7367 13.861 14.1667 14.531 13.9937 14.729C13.8207 14.927 13.6467 14.952 13.3497 14.803C13.0527 14.654 12.0947 14.341 10.9597 13.328C10.0767 12.54 9.4797 11.567 9.3067 11.269C9.1337 10.972 9.2887 10.811 9.4367 10.663C9.5707 10.53 9.7337 10.316 9.8827 10.142C10.0337 9.97 10.0827 9.846 10.1827 9.647C10.2817 9.449 10.2327 9.275 10.1577 9.126C10.0827 8.978 9.4887 7.515 9.2417 6.92C8.9997 6.341 8.7547 6.419 8.5727 6.41L8.0027 6.4C7.8047 6.4 7.4827 6.474 7.2107 6.772C6.9387 7.07 6.1707 7.788 6.1707 9.251C6.1707 10.714 7.2357 12.127 7.3837 12.325C7.5327 12.523 9.4787 15.525 12.4597 16.812C13.1687 17.118 13.7227 17.301 14.1537 17.438C14.8657 17.664 15.5137 17.632 16.0257 17.556C16.5967 17.471 17.7837 16.837 18.0317 16.143C18.2797 15.448 18.2797 14.853 18.2047 14.729Z" fill="#562FFF"/>
</svg>
