<svg width="123" height="48" viewBox="0 0 123 48" fill="none" xmlns="http://www.w3.org/2000/svg">
<path d="M8.21249 10.1675C12.1313 10.1675 14.4793 11.5079 15.6974 12.6148C17.0313 13.8384 18.3927 16.0243 18.4092 19.5839C18.4092 23.6275 16.6896 26.8535 13.5038 28.3441C12.4896 28.8335 11.0235 29.2674 8.28415 29.2785H0.60078C0.459251 29.2787 0.323078 29.2239 0.22047 29.1255C0.117861 29.0272 0.056682 28.8927 0.0496057 28.7501V28.4164C0.0496057 28.2689 0.107676 28.1274 0.211041 28.0231C0.314406 27.9188 0.454599 27.8602 0.60078 27.8602L1.23463 27.8101C1.50506 27.7929 1.76506 27.6984 1.98423 27.5376C2.13771 27.3145 2.2151 27.047 2.2047 26.7756L2.14958 12.7149C2.15324 12.4444 2.07223 12.1797 1.91809 11.9584C1.69895 11.7967 1.43923 11.7004 1.16849 11.6803L0.551174 11.6358C0.407977 11.6267 0.273009 11.5651 0.171549 11.4627C0.0700891 11.3603 0.00909818 11.2241 0 11.0796L0 10.7459C0.00707632 10.6033 0.0682556 10.4689 0.170864 10.3705C0.273472 10.2721 0.409645 10.2174 0.551174 10.2175L8.26761 10.1842L8.21249 10.1675ZM5.93614 27.1316C5.94322 27.2742 6.0044 27.4086 6.10701 27.507C6.20962 27.6054 6.34579 27.6601 6.48732 27.6599H7.03849C7.33062 27.6599 7.81014 27.6599 8.09675 27.6154C8.09675 27.6154 11.1833 27.3874 12.6164 25.6187C14.0494 23.85 14.1762 21.0523 14.1707 19.6284C14.1707 17.8931 13.9282 15.3846 12.5172 13.7661C10.9298 11.8917 8.65894 11.786 7.48494 11.7916H6.3826C6.23641 11.7916 6.09622 11.8502 5.99286 11.9545C5.88949 12.0588 5.83142 12.2003 5.83142 12.3478L5.89205 27.1427L5.93614 27.1316Z" fill="white"/>
<path d="M26.6101 15.0171C26.7517 15.0169 26.8878 15.0717 26.9905 15.17C27.0931 15.2684 27.1542 15.4028 27.1613 15.5455V15.8458C27.1613 15.9933 27.1033 16.1348 26.9999 16.2391C26.8965 16.3434 26.7563 16.402 26.6101 16.402H25.9487C25.7243 16.3925 25.5005 16.4324 25.2928 16.5188C25.198 16.7197 25.1562 16.942 25.1716 17.164L25.2102 27.0922C25.207 27.3389 25.2559 27.5835 25.3535 27.8097C25.5494 27.9333 25.7788 27.9916 26.0094 27.9765H26.6763C26.8225 27.9765 26.9627 28.0351 27.066 28.1394C27.1694 28.2437 27.2275 28.3852 27.2275 28.5327V28.7218C27.2275 28.8694 27.1694 29.0108 27.066 29.1151C26.9627 29.2194 26.8225 29.278 26.6763 29.278H20.1173C19.9758 29.2782 19.8396 29.2234 19.737 29.1251C19.6344 29.0267 19.5732 28.8923 19.5661 28.7496V28.4493C19.5661 28.3018 19.6242 28.1603 19.7276 28.056C19.8309 27.9517 19.9711 27.8931 20.1173 27.8931H20.7787C21.0035 27.9091 21.2288 27.869 21.4346 27.7763C21.5355 27.5773 21.5794 27.3539 21.5614 27.1311L21.4953 17.1696C21.5071 16.9274 21.4637 16.6858 21.3685 16.4632C21.1737 16.3375 20.9429 16.2807 20.7126 16.3019H20.0512C19.905 16.3019 19.7648 16.2433 19.6614 16.139C19.5581 16.0347 19.5 15.8932 19.5 15.7457V15.5733C19.4998 15.4305 19.5541 15.2931 19.6516 15.1895C19.749 15.086 19.8823 15.0242 20.0236 15.0171H26.5881H26.6101Z" fill="white"/>
<path d="M35.1307 15.0173C35.2722 15.0172 35.4084 15.0719 35.511 15.1703C35.6136 15.2687 35.6748 15.4031 35.6818 15.5457V15.7348C35.6727 15.8793 35.6118 16.0155 35.5103 16.1179C35.4088 16.2203 35.2739 16.2819 35.1307 16.291L34.7173 16.3244C34.5034 16.3217 34.2925 16.3754 34.1055 16.4801C34.0559 16.5413 34.1055 16.8139 34.2267 17.0864L37.5338 24.9455C37.6495 25.2125 37.8314 25.2125 37.9417 24.9455L41.0944 17.0642C41.1991 16.7972 41.2542 16.508 41.2046 16.4579C41.02 16.3528 40.8102 16.3008 40.5983 16.3077L40.0967 16.2688C39.9506 16.2688 39.8104 16.2102 39.707 16.1059C39.6036 16.0016 39.5456 15.8601 39.5456 15.7126V15.5235C39.5456 15.376 39.6036 15.2345 39.707 15.1302C39.8104 15.0259 39.9506 14.9673 40.0967 14.9673H44.7707C44.9122 14.9671 45.0484 15.0219 45.151 15.1202C45.2536 15.2186 45.3148 15.353 45.3219 15.4957V15.6848C45.318 15.8312 45.2644 15.9719 45.1701 16.0832C45.0758 16.1946 44.9465 16.2699 44.8038 16.2966L44.2526 16.3745C44.098 16.4069 43.9525 16.4736 43.8267 16.5698C43.7009 16.666 43.5978 16.7893 43.525 16.9307L38.6747 28.7555C38.6091 28.8967 38.5069 29.0173 38.3787 29.1044C38.2506 29.1916 38.1015 29.2421 37.9472 29.2505H36.2165C36.0612 29.2432 35.9106 29.1945 35.7799 29.1096C35.6492 29.0246 35.5432 28.9063 35.4724 28.7666L30.4236 16.9807C30.3518 16.8386 30.2491 16.7148 30.1231 16.6184C29.9971 16.5221 29.8511 16.4558 29.6961 16.4245L29.1449 16.3522C28.9966 16.3338 28.8597 16.2627 28.7587 16.1516C28.6577 16.0404 28.5992 15.8966 28.5938 15.746V15.5735C28.5938 15.426 28.6518 15.2846 28.7552 15.1803C28.8585 15.0759 28.9987 15.0173 29.1449 15.0173H35.1472H35.1307Z" fill="white"/>
<path d="M51.9146 14.9225C52.0608 14.9225 52.201 14.9811 52.3044 15.0854C52.4077 15.1897 52.4658 15.3312 52.4658 15.4787L52.5099 27.0032C52.4986 27.244 52.544 27.4842 52.6422 27.704C52.8332 27.8344 53.0627 27.8953 53.2926 27.8764H54.0146C54.1608 27.8764 54.301 27.935 54.4043 28.0393C54.5077 28.1436 54.5658 28.2851 54.5658 28.4326V28.6162C54.5658 28.7637 54.5077 28.9051 54.4043 29.0095C54.301 29.1138 54.1608 29.1724 54.0146 29.1724H47.4005C47.2543 29.1724 47.1141 29.1138 47.0108 29.0095C46.9074 28.9051 46.8493 28.7637 46.8493 28.6162V28.3102C46.8492 28.1674 46.9034 28.03 47.0009 27.9265C47.0984 27.8229 47.2316 27.7612 47.373 27.754H48.0399C48.2644 27.7643 48.4883 27.7244 48.6958 27.6372C48.7911 27.4345 48.8329 27.2103 48.817 26.9865L48.7785 17.0639C48.7875 16.8219 48.7442 16.5809 48.6517 16.3575C48.4577 16.2294 48.2268 16.1707 47.9958 16.1907H47.3344C47.1882 16.1907 47.048 16.1321 46.9446 16.0278C46.8413 15.9235 46.7832 15.782 46.7832 15.6345V15.4454C46.7832 15.2978 46.8413 15.1564 46.9446 15.0521C47.048 14.9478 47.1882 14.8892 47.3344 14.8892H51.9201L51.9146 14.9225Z" fill="white"/>
<path d="M61.9973 14.8837C62.1591 14.8907 62.3176 14.9325 62.4621 15.0064C62.6066 15.0802 62.7337 15.1845 62.835 15.312L69.3113 24.2446C69.4767 24.4837 69.62 24.4337 69.62 24.1445L69.5869 17.0362C69.6049 16.8013 69.5511 16.5663 69.4326 16.3632C69.2227 16.2475 68.9883 16.1846 68.7491 16.1797L68.1153 16.1296C67.9749 16.1211 67.8431 16.0588 67.7467 15.9554C67.6504 15.852 67.5969 15.7153 67.5972 15.5734V15.3843C67.5927 15.3129 67.6027 15.2413 67.6267 15.174C67.6507 15.1066 67.6882 15.045 67.7367 14.9929C67.7853 14.9407 67.8439 14.8992 67.9091 14.8709C67.9742 14.8425 68.0444 14.828 68.1153 14.8281H73.2412C73.3827 14.8279 73.5189 14.8827 73.6215 14.9811C73.7241 15.0794 73.7853 15.2139 73.7924 15.3565V15.5734C73.7836 15.7162 73.7241 15.8509 73.625 15.9531C73.5258 16.0552 73.3934 16.1179 73.2522 16.1296L72.701 16.163C72.4589 16.171 72.2215 16.2337 72.0066 16.3466C71.8842 16.5484 71.8265 16.7834 71.8412 17.0196L71.8853 28.4884C71.8853 28.6359 71.8272 28.7774 71.7239 28.8817C71.6205 28.986 71.4803 29.0446 71.3341 29.0446H69.3113C69.1497 29.0357 68.9915 28.9936 68.8465 28.9209C68.7015 28.8483 68.5727 28.7465 68.468 28.6219L61.3028 18.9106C61.1264 18.677 60.9941 18.7271 60.9941 19.0163V26.8643C60.9925 27.1216 61.0412 27.3768 61.1374 27.6152C61.3269 27.7691 61.5673 27.8447 61.8099 27.8265H62.4602C62.6064 27.8265 62.7466 27.8851 62.85 27.9894C62.9533 28.0937 63.0114 28.2352 63.0114 28.3827V28.5663C63.0114 28.7138 62.9533 28.8552 62.85 28.9595C62.7466 29.0639 62.6064 29.1224 62.4602 29.1224H57.2406C57.0991 29.1226 56.9629 29.0679 56.8603 28.9695C56.7577 28.8711 56.6965 28.7367 56.6895 28.5941V28.366C56.6895 28.2185 56.7475 28.077 56.8509 27.9727C56.9543 27.8684 57.0944 27.8098 57.2406 27.8098H57.8965C58.1442 27.8272 58.389 27.7475 58.58 27.5873C58.6913 27.3555 58.7443 27.0995 58.7343 26.842L58.6902 15.4066C58.6902 15.2591 58.7483 15.1176 58.8517 15.0133C58.955 14.909 59.0952 14.8504 59.2414 14.8504H61.9973V14.8837Z" fill="white"/>
<path d="M82.7646 14.6005C82.9188 14.6094 83.068 14.6587 83.1976 14.7435C83.3271 14.8284 83.4324 14.9459 83.5032 15.0844L88.6401 27.0205C88.7106 27.1636 88.8129 27.2883 88.9392 27.3848C89.0654 27.4813 89.2121 27.547 89.3677 27.5767L89.7645 27.6267C89.9077 27.6502 90.0381 27.7239 90.1329 27.8348C90.2276 27.9456 90.2806 28.0866 90.2826 28.233V28.4221C90.2829 28.564 90.2294 28.7006 90.133 28.804C90.0367 28.9074 89.9049 28.9698 89.7645 28.9783H83.878C83.7318 28.9783 83.5916 28.9197 83.4882 28.8154C83.3849 28.7111 83.3268 28.5696 83.3268 28.4221V28.2386C83.3265 28.0966 83.3801 27.96 83.4764 27.8566C83.5727 27.7532 83.7045 27.6909 83.8449 27.6824L84.3961 27.6434C84.6014 27.6474 84.8037 27.5935 84.9803 27.4877C84.9695 27.2772 84.917 27.0711 84.826 26.8814L83.8229 24.5065C83.7524 24.3672 83.6473 24.2489 83.5178 24.1631C83.3883 24.0773 83.2389 24.0269 83.0843 24.017H79.3694C79.2148 24.0242 79.0651 24.0742 78.9368 24.1615C78.8084 24.2488 78.7064 24.3701 78.6418 24.512L77.6717 26.8925C77.5748 27.0786 77.5364 27.2901 77.5615 27.4988C77.7462 27.604 77.9559 27.6559 78.1678 27.649L78.719 27.6879C78.8652 27.6879 79.0053 27.7465 79.1087 27.8508C79.2121 27.9551 79.2702 28.0966 79.2702 28.2441V28.4277C79.2702 28.5752 79.2121 28.7166 79.1087 28.821C79.0053 28.9253 78.8652 28.9839 78.719 28.9839H74.1332C73.987 28.9839 73.8468 28.9253 73.7435 28.821C73.6401 28.7166 73.582 28.5752 73.582 28.4277V28.2386C73.5823 28.092 73.6357 27.9505 73.7322 27.8409C73.8286 27.7313 73.9614 27.6611 74.1056 27.6434L74.5466 27.5934C74.7022 27.5637 74.8489 27.498 74.9751 27.4015C75.1013 27.305 75.2037 27.1803 75.2741 27.0372L80.2347 15.0399C80.3012 14.8995 80.4038 14.7795 80.5317 14.6925C80.6596 14.6054 80.8083 14.5545 80.9623 14.5449L82.7646 14.6005ZM79.5898 22.1204C79.5613 22.175 79.5482 22.2365 79.5517 22.2981C79.5553 22.3597 79.5755 22.4192 79.61 22.4702C79.6446 22.5211 79.6924 22.5615 79.748 22.5871C79.8037 22.6127 79.8653 22.6225 79.926 22.6154H82.7977C82.8567 22.6237 82.9169 22.6144 82.9707 22.5884C83.0245 22.5624 83.0695 22.521 83.1001 22.4694C83.1307 22.4177 83.1455 22.3581 83.1427 22.298C83.1399 22.2379 83.1196 22.18 83.0843 22.1315L81.3701 18.683C81.2378 18.4272 81.0505 18.4328 80.9402 18.683L79.5898 22.1148V22.1204Z" fill="white"/>
<path d="M99.5632 14.7337C100.82 14.6733 102.077 14.8622 103.262 15.2899C103.895 15.5036 104.444 15.9166 104.828 16.4681C105.212 17.0196 105.41 17.6807 105.395 18.3545C105.395 20.8296 103.361 21.6917 101.614 21.9865C103.681 22.2646 104.276 23.7441 104.871 25.3905C105.593 27.326 106.243 27.6153 107.594 27.6153H108.079C108.211 27.6153 108.332 27.8544 108.332 28.1715V28.3272C108.331 28.472 108.278 28.6114 108.183 28.7197C108.087 28.828 107.957 28.898 107.814 28.9168C107.814 28.9168 106.277 29.0725 105.902 29.0725C102.755 29.0725 101.889 27.6931 101.129 25.5017C100.522 23.7942 99.8168 22.8041 97.7278 22.8097C97.5845 22.8097 97.4743 23.0489 97.4743 23.3659V26.8533C97.455 27.0799 97.505 27.307 97.6176 27.504C97.8303 27.5964 98.0585 27.6474 98.29 27.6542L98.764 27.6876C98.9054 27.6947 99.0386 27.7564 99.1361 27.86C99.2336 27.9635 99.2878 28.1009 99.2877 28.2438V28.3661C99.2878 28.5089 99.2336 28.6464 99.1361 28.7499C99.0386 28.8534 98.9054 28.9152 98.764 28.9223H92.5358C92.3896 28.9223 92.2494 28.8637 92.146 28.7594C92.0427 28.6551 91.9846 28.5136 91.9846 28.3661V28.1826C91.9937 28.0381 92.0547 27.9019 92.1562 27.7995C92.2576 27.6971 92.3926 27.6356 92.5358 27.6264L93.0318 27.593C93.2587 27.5871 93.482 27.5341 93.6877 27.4373C93.7831 27.2345 93.8248 27.0104 93.809 26.7865L93.7759 16.8639C93.7916 16.6382 93.7439 16.4127 93.6381 16.2132C93.4337 16.119 93.2124 16.0679 92.9877 16.063L92.4917 16.0296C92.3455 16.0296 92.2053 15.971 92.1019 15.8667C91.9986 15.7624 91.9405 15.6209 91.9405 15.4734V15.2954C91.936 15.224 91.946 15.1524 91.97 15.0851C91.994 15.0178 92.0315 14.9561 92.0801 14.904C92.1286 14.8518 92.1873 14.8103 92.2524 14.782C92.3175 14.7536 92.3877 14.7391 92.4586 14.7392L99.5302 14.7114L99.5632 14.7337ZM97.4633 21.3747C97.6796 21.3946 97.8973 21.3946 98.1136 21.3747C100.379 21.3747 101.581 20.4792 101.57 18.7439C101.57 16.6025 99.5963 16.1297 98.29 16.1353H97.9703C97.83 16.1438 97.6981 16.2061 97.6018 16.3095C97.5055 16.4129 97.452 16.5496 97.4522 16.6915V21.3691L97.4633 21.3747Z" fill="white"/>
<path d="M121.667 14.6445C121.808 14.653 121.939 14.7154 122.036 14.8188C122.132 14.9222 122.186 15.0588 122.185 15.2007V17.6369C122.186 17.7788 122.132 17.9154 122.036 18.0188C121.939 18.1222 121.808 18.1846 121.667 18.1931H120.565C120.418 18.1882 120.276 18.1343 120.162 18.0397C120.049 17.9451 119.969 17.8152 119.937 17.6703L119.771 16.8081C119.743 16.5955 119.675 16.39 119.573 16.2019C119.371 16.1335 119.157 16.1051 118.944 16.1185H115.704C115.557 16.1185 115.417 16.1771 115.314 16.2814C115.21 16.3857 115.152 16.5271 115.152 16.6747V20.3066C115.152 20.4542 115.21 20.5956 115.314 20.6999C115.417 20.8042 115.557 20.8628 115.704 20.8628H117.296C117.513 20.8778 117.731 20.8475 117.936 20.7738C118.045 20.5876 118.109 20.378 118.123 20.162L118.2 19.5669C118.218 19.4168 118.288 19.278 118.398 19.1758C118.508 19.0737 118.651 19.015 118.801 19.0107H119.628C119.774 19.0107 119.914 19.0693 120.018 19.1736C120.121 19.2779 120.179 19.4194 120.179 19.5669V23.5715C120.179 23.719 120.121 23.8605 120.018 23.9648C119.914 24.0691 119.774 24.1277 119.628 24.1277H118.796C118.646 24.1213 118.503 24.0622 118.393 23.9605C118.282 23.8589 118.21 23.7212 118.189 23.5715L118.112 22.9764C118.097 22.7606 118.033 22.5513 117.925 22.3646C117.719 22.2958 117.502 22.2675 117.285 22.2811H115.748C115.601 22.2811 115.461 22.3397 115.358 22.4441C115.255 22.5484 115.196 22.6898 115.196 22.8373V26.981C115.196 27.1285 115.255 27.27 115.358 27.3743C115.461 27.4786 115.601 27.5372 115.748 27.5372H119.749C119.966 27.5518 120.182 27.5097 120.377 27.4149C120.473 27.2148 120.536 27.0008 120.565 26.7808L120.807 25.5182C120.841 25.3731 120.92 25.243 121.034 25.1476C121.147 25.0523 121.288 24.9969 121.436 24.9898H122.444C122.586 24.9897 122.722 25.0444 122.825 25.1428C122.927 25.2412 122.988 25.3756 122.996 25.5182V28.4105C122.996 28.558 122.937 28.6994 122.834 28.8038C122.731 28.9081 122.591 28.9667 122.444 28.9667L110.269 29.0167C110.127 29.0169 109.991 28.9621 109.889 28.8638C109.786 28.7654 109.725 28.631 109.718 28.4883V28.2992C109.718 28.1573 109.771 28.0207 109.867 27.9173C109.964 27.8139 110.096 27.7515 110.236 27.743L110.715 27.7041C110.944 27.6989 111.169 27.6459 111.377 27.5484C111.487 27.3506 111.537 27.1241 111.52 26.8976L111.476 16.975C111.498 16.7514 111.451 16.5265 111.344 16.3298C111.142 16.2284 110.919 16.1752 110.693 16.1741L110.192 16.1407C110.046 16.1407 109.905 16.0821 109.802 15.9778C109.699 15.8735 109.641 15.732 109.641 15.5845V15.3954C109.641 15.2479 109.699 15.1064 109.802 15.0021C109.905 14.8978 110.046 14.8392 110.192 14.8392L121.618 14.7947L121.667 14.6445Z" fill="white"/>
<path d="M46.1015 27.8877C46.4101 28.5328 46.2338 29.2392 45.5503 30.0179C45.0151 30.6145 44.3924 31.1247 43.7039 31.5308C42.5456 32.2131 41.2965 32.7244 39.9945 33.0492C39.8107 34.0318 39.627 35.0218 39.4433 36.0193C39.2674 36.9972 38.9788 37.9511 38.5835 38.8615C38.1586 39.7649 37.5254 40.5526 36.737 41.1586C36.615 41.256 36.4794 41.3347 36.3347 41.3922C36.6654 41.3922 37.1118 41.3477 37.6575 41.2976C38.1627 41.2823 38.6534 41.1243 39.074 40.8415C39.39 40.5458 39.683 40.226 39.9504 39.8849H39.9834H40.0165C40.0173 39.9348 40.0018 39.9837 39.9724 40.0239C39.7439 40.504 39.3925 40.9138 38.9545 41.211C38.5165 41.5083 38.0079 41.6822 37.4811 41.7148C37.2462 41.7315 37.0105 41.7315 36.7756 41.7148C36.5464 41.6946 36.3159 41.6946 36.0866 41.7148C35.9285 41.7406 35.7721 41.7759 35.6181 41.8204C35.4231 41.8751 35.224 41.9141 35.0229 41.9372C34.5819 41.9762 34.3229 41.9039 34.2292 41.7203C34.1355 41.5368 34.3339 41.5423 34.6867 41.509C34.8245 41.509 35.0504 41.509 35.3481 41.509C35.6457 41.509 35.8662 41.509 36.015 41.4812C36.8362 41.014 37.4811 40.0573 37.9386 38.6112C38.0709 38.1718 38.3134 37.0149 38.6661 35.1516C38.7654 34.6677 38.8976 34.067 39.085 33.344C38.3789 33.5007 37.6651 33.6195 36.9465 33.6999C36.3402 34.779 35.7284 35.8413 35.1056 36.8981C36.715 37.0872 37.674 37.3931 37.9937 37.8102C37.5693 37.5544 36.5717 37.3319 34.9843 37.1484C33.941 39.0151 32.5033 40.6273 30.7733 41.8705C28.7209 43.1803 26.3737 43.9456 23.9498 44.0953C23.3486 44.1475 22.7448 44.1605 22.1419 44.1342C22.9081 45.6082 24.3356 46.6371 26.4246 47.2768C28.1469 47.7791 29.9487 47.9434 31.7324 47.7607C33.3391 47.6767 34.9006 47.1954 36.2796 46.359C37.415 45.5766 37.7824 44.7757 37.3819 43.9562C37.2164 43.6128 36.9561 43.325 36.6323 43.1275C36.5567 43.0931 36.4862 43.0481 36.4229 42.994C36.4229 42.994 36.4229 42.994 36.4614 42.994C36.7454 43.0155 37.01 43.1471 37.2 43.3611C37.4374 43.5491 37.6391 43.779 37.7953 44.0397C38.2032 44.8851 37.7861 45.7046 36.5441 46.4981C35.0992 47.3497 33.4747 47.8434 31.804 47.9386C29.9538 48.1422 28.0819 47.9816 26.2923 47.4659C24.1905 46.8244 22.7482 45.712 21.9656 44.1287C20.5137 44.0782 19.087 43.732 17.7711 43.1108C16.476 42.5329 15.4187 41.5209 14.7783 40.2464C14.374 39.4526 14.2664 38.5385 14.4751 37.6712C14.6842 36.8626 15.1344 36.1384 15.7649 35.5966C17.1869 34.2802 19.1362 33.5053 21.6128 33.2717C23.0873 33.1227 24.5759 33.2129 26.0222 33.5386C27.8852 33.9725 29.0978 34.7734 29.6489 35.9192C29.7932 36.2141 29.8935 36.529 29.9466 36.8536C30.042 36.8485 30.1377 36.8485 30.2332 36.8536L30.5363 36.8202C31.7804 36.6784 33.0341 36.6412 34.2843 36.709C34.5672 36.2974 35.1809 35.2925 36.1252 33.6944C34.5791 33.8228 33.0226 33.7197 31.5064 33.3885C29.5277 32.9546 28.2434 32.1426 27.6482 30.9468C27.4679 30.6239 27.3994 30.2496 27.4533 29.883C27.5071 29.5164 27.6804 29.1784 27.9458 28.9222C28.5609 28.3865 29.3386 28.0785 30.1505 28.049C31.1104 27.9235 32.0858 28.0779 32.9615 28.4939C33.345 28.6454 33.6738 28.9112 33.904 29.2559C33.9481 29.3505 33.9536 29.4061 33.904 29.4061C33.5014 28.8605 32.912 28.4857 32.2505 28.3549C31.6208 28.1821 30.9661 28.1219 30.3159 28.1769C29.5519 28.2019 28.8215 28.4995 28.2545 29.0167C28.0068 29.2698 27.8517 29.6003 27.8146 29.954C27.7776 30.3078 27.8607 30.6637 28.0505 30.9634C28.609 32.1092 29.8455 32.8916 31.7599 33.3106C33.2101 33.6078 34.6944 33.6976 36.1693 33.5776C38.4622 29.4283 41.0086 27.2221 43.8086 26.9588C44.9771 26.8531 45.7377 27.159 46.0849 27.8877H46.1015ZM29.5056 35.9247C29.0041 34.8846 27.8245 34.2061 25.9671 33.9002C24.6085 33.6869 23.2284 33.6514 21.8608 33.7945C19.8927 33.9219 17.9922 34.5683 16.3491 35.6689C14.5743 36.9333 14.1077 38.4369 14.9491 40.1797C15.5691 41.4035 16.5923 42.3711 17.8428 42.9162C19.112 43.4955 20.48 43.8222 21.8719 43.8784C21.6372 43.3971 21.5184 42.8666 21.5251 42.3303C21.5318 41.7939 21.6638 41.2667 21.9104 40.7915C20.3378 40.4874 19.3604 39.9312 18.9782 39.1229C18.9239 39.007 18.8814 38.8859 18.8514 38.7613C18.7963 38.5667 18.8018 38.4721 18.8514 38.4666C18.8787 38.461 18.9068 38.461 18.9341 38.4666C18.9341 38.5055 18.9341 38.6056 19.0058 38.7836C19.0288 38.8843 19.0601 38.9829 19.0995 39.0784C19.3913 39.5751 19.8514 39.9485 20.3947 40.1296C20.9287 40.3354 21.4831 40.4827 22.0482 40.569C22.8286 39.4182 23.9465 38.5429 25.2451 38.0661C26.6876 37.4538 28.2096 37.053 29.7647 36.8758C29.7568 36.545 29.6758 36.22 29.5277 35.9247H29.5056ZM34.1906 37.0371C32.9261 36.9368 31.6553 36.9498 30.393 37.0761L29.9851 37.1261C29.9851 38.1755 29.377 39.0598 28.1608 39.7792C27.036 40.4345 25.7795 40.8261 24.4844 40.925C23.7202 41.0036 22.9489 40.9774 22.1915 40.8471C21.9115 41.2993 21.754 41.8178 21.7346 42.3507C21.7153 42.8836 21.8348 43.4123 22.0813 43.8839C22.6894 43.9198 23.2993 43.9086 23.9057 43.8506C26.1871 43.6847 28.3795 42.8902 30.2442 41.5535C31.8291 40.3074 33.163 38.7669 34.1741 37.0149L34.1906 37.0371ZM29.7206 37.115C28.2481 37.2893 26.8057 37.6635 25.4325 38.2274C24.1651 38.677 23.0635 39.5054 22.2742 40.6024C22.8245 40.6461 23.3774 40.6461 23.9277 40.6024C25.2102 40.4998 26.4607 40.1466 27.6096 39.5623C28.9104 38.8837 29.6048 38.0717 29.693 37.115H29.7206ZM45.9031 27.9043C45.8174 27.7341 45.697 27.5842 45.5497 27.4644C45.4025 27.3445 45.2317 27.2575 45.0487 27.2091C44.6942 27.089 44.3183 27.0473 43.9464 27.0867C42.222 27.2716 40.6385 28.1325 39.537 29.4839C38.545 30.7181 37.6945 32.0616 37.0016 33.4886C37.7107 33.4 38.4138 33.2681 39.1071 33.0937C39.4063 31.9203 39.8468 30.7884 40.4189 29.7231C41.2126 28.3215 42.133 27.5706 43.1747 27.4983C43.6267 27.4538 43.8417 27.4983 43.8306 27.604L43.7921 27.6485L43.296 27.6151C42.8881 27.6526 42.4959 27.7916 42.1544 28.0198C41.8129 28.2479 41.5328 28.558 41.3393 28.9222C40.9688 29.5889 40.6854 30.3012 40.496 31.0413C40.2701 31.8367 40.1102 32.454 40.022 32.8823C41.2423 32.5194 42.4098 31.9958 43.4944 31.325C45.5338 29.979 46.3311 28.848 45.8865 27.9322" fill="white"/>
<path d="M43.5434 39.49C43.5434 39.5345 43.4828 39.6902 43.2899 39.9572C43.0378 40.3214 42.7098 40.6256 42.329 40.8485C41.9482 41.0714 41.5236 41.2076 41.0852 41.2476C40.8466 41.3077 40.5949 41.2857 40.3702 41.1849C40.1455 41.0841 39.9606 40.9104 39.845 40.6914C39.7577 40.5195 39.7399 40.32 39.7954 40.1352C39.8219 40.0459 39.8756 39.9672 39.9487 39.9103C40.0219 39.8535 40.111 39.8212 40.2033 39.8181C40.4293 39.8181 40.5726 39.8515 40.6387 39.985C40.7049 40.1185 40.6387 40.2687 40.4844 40.4355C40.4117 40.4869 40.3585 40.5616 40.3334 40.6475C40.3084 40.7335 40.313 40.8254 40.3466 40.9083C40.4065 41.0057 40.4948 41.082 40.5994 41.1268C40.704 41.1716 40.8198 41.1827 40.9308 41.1586C41.0709 41.1509 41.2047 41.0981 41.3129 41.0081C41.421 40.918 41.4977 40.7953 41.5316 40.658C41.6155 40.3561 41.6454 40.0416 41.6198 39.7291C41.5921 39.4578 41.6069 39.1837 41.6639 38.9171C41.1127 39.5734 40.793 39.9071 40.6553 39.9182C40.6501 39.9207 40.6444 39.922 40.6387 39.922C40.633 39.922 40.6273 39.9207 40.6222 39.9182C40.6222 39.8626 40.771 39.6568 41.0907 39.312C41.3086 39.1036 41.5061 38.8745 41.6804 38.6279C41.7171 38.5149 41.7838 38.4142 41.8732 38.3367C41.9626 38.2592 42.0713 38.208 42.1875 38.1885C42.3198 38.1885 42.3915 38.1885 42.408 38.2218C42.4245 38.2552 42.2922 38.4443 41.9781 38.7113C41.934 38.7558 42.0497 39.0561 42.3253 39.629C42.4119 39.8128 42.4516 40.0154 42.4411 40.2186C42.4331 40.4136 42.3524 40.5984 42.2151 40.7359C42.5645 40.5188 42.8756 40.2443 43.1355 39.9238C43.367 39.6235 43.5048 39.4733 43.5434 39.4733C43.5442 39.4788 43.5442 39.4844 43.5434 39.49Z" fill="white"/>
<path d="M47.02 39.184C47.02 39.223 46.9539 39.3787 46.7665 39.6457C46.516 40.011 46.1884 40.3158 45.8071 40.538C45.4259 40.7601 45.0005 40.8942 44.5618 40.9305C44.3224 40.992 44.0695 40.9706 43.8436 40.8698C43.6177 40.7689 43.432 40.5944 43.3161 40.3743C43.2309 40.2017 43.2132 40.0032 43.2665 39.8181C43.294 39.7283 43.3487 39.6495 43.4228 39.5927C43.4969 39.5358 43.5868 39.5038 43.6799 39.5011C43.9003 39.5011 44.0492 39.54 44.1098 39.6735C44.1704 39.807 44.1098 39.9516 43.961 40.1129C43.8122 40.2742 43.746 40.441 43.8232 40.5912C43.8824 40.6896 43.9703 40.7671 44.075 40.8129C44.1796 40.8587 44.2958 40.8707 44.4074 40.8471C44.5476 40.8373 44.6812 40.7832 44.7891 40.6923C44.897 40.6014 44.9737 40.4784 45.0082 40.3409C45.0895 40.0405 45.1193 39.7282 45.0964 39.4176C45.0709 39.1446 45.0838 38.8693 45.135 38.6C44.5838 39.2508 44.2641 39.59 44.1263 39.6012H44.0877C44.0877 39.54 44.2366 39.3398 44.5562 39.0005C44.7733 38.7896 44.9724 38.5608 45.1515 38.3164C45.1865 38.2024 45.2527 38.1007 45.3424 38.023C45.4321 37.9452 45.5417 37.8946 45.6586 37.877C45.7854 37.877 45.8625 37.877 45.8791 37.9103C45.8956 37.9437 45.7633 38.1217 45.4436 38.3942C45.405 38.4332 45.5208 38.7446 45.7909 39.3119C45.8896 39.5055 45.9298 39.724 45.9066 39.9405C45.9001 40.1374 45.8192 40.3244 45.6806 40.4633C46.0272 40.2444 46.3363 39.9702 46.5956 39.6512C46.8326 39.3509 46.9649 39.1951 47.0035 39.1951C47.0141 39.1908 47.0259 39.1908 47.0365 39.1951" fill="white"/>
<path d="M50.7784 39.7573C50.5296 40.1089 50.1532 40.3468 49.7311 40.4192C49.6141 40.4441 49.4921 40.4299 49.3837 40.3788C49.2754 40.3276 49.1864 40.2422 49.1304 40.1355C49.0923 40.0637 49.0723 39.9834 49.0723 39.9019C49.0723 39.8204 49.0923 39.7402 49.1304 39.6683C48.9874 39.9183 48.7901 40.1322 48.5533 40.2941C48.3166 40.4559 48.0465 40.5615 47.7635 40.6027C47.6072 40.6357 47.4445 40.6147 47.3016 40.5431C47.1586 40.4715 47.0437 40.3534 46.9753 40.2078C46.9089 40.075 46.8743 39.9283 46.8743 39.7796C46.8743 39.6308 46.9089 39.4841 46.9753 39.3513C46.8926 39.507 46.832 39.5849 46.7934 39.5905C46.7755 39.5964 46.7562 39.5964 46.7383 39.5905V39.5348C46.9416 39.1497 47.242 38.8254 47.6091 38.5949C47.9599 38.3017 48.3827 38.1095 48.8327 38.0387C48.9653 38.0022 49.1061 38.0114 49.2329 38.0648C49.3597 38.1182 49.4652 38.2127 49.5327 38.3334C49.5576 38.3886 49.5761 38.4464 49.5878 38.5059C49.7697 38.1277 49.9957 37.9219 50.2823 37.894C50.4146 37.894 50.4807 37.894 50.4973 37.894C50.4106 38.215 50.2963 38.5277 50.1556 38.8285C49.902 39.4292 49.8138 39.8185 49.902 39.9965L49.9682 40.0577C50.0044 40.0662 50.0421 40.0662 50.0784 40.0577C50.2933 40.0577 50.5579 39.8185 50.8666 39.4069C51.0294 39.1762 51.214 38.962 51.4177 38.7673C51.4673 38.8563 51.2579 39.1789 50.7949 39.7406L50.7784 39.7573ZM49.4115 38.3779C49.3789 38.3013 49.321 38.2383 49.2477 38.1998C49.1743 38.1613 49.09 38.1496 49.0091 38.1666C48.739 38.1666 48.4249 38.4836 48.0611 39.0621C47.6973 39.6405 47.565 40.0243 47.6698 40.2412C47.6933 40.2927 47.7332 40.3349 47.783 40.3611C47.8329 40.3873 47.89 40.396 47.9453 40.3858C48.2375 40.3524 48.5847 40.0688 48.9816 39.5293C49.3784 38.9898 49.5327 38.606 49.4115 38.3779Z" fill="white"/>
<path d="M55.7512 38.3777C55.8173 38.5112 55.5528 38.8616 54.9575 39.4401C54.609 39.7962 54.241 40.1323 53.8552 40.4468C53.2268 42.9237 52.231 44.6313 50.8678 45.5694C50.5984 45.7697 50.2841 45.8996 49.9529 45.9476C49.4623 45.9921 49.1426 45.8586 48.9993 45.5472C48.7954 45.1411 48.9993 44.5738 49.5505 43.8786C50.1164 43.1878 50.7477 42.5545 51.4355 41.9875L53.089 40.6526C53.1882 40.3411 53.315 39.9129 53.4583 39.3511C53.3099 39.5813 53.1156 39.7777 52.8879 39.9281C52.6602 40.0784 52.4039 40.1793 52.1355 40.2243C51.9799 40.2578 51.8177 40.2376 51.6748 40.167C51.5319 40.0964 51.4166 39.9795 51.3473 39.835C51.2797 39.7048 51.248 39.5585 51.2558 39.4117C51.2636 39.2649 51.3104 39.1229 51.3914 39.0007C51.333 39.0866 51.2624 39.1634 51.182 39.2287C51.1695 39.233 51.1559 39.233 51.1434 39.2287V39.1787C51.3785 38.7935 51.6898 38.4614 52.0577 38.2031C52.4256 37.9447 52.8424 37.7656 53.2819 37.6769C53.4321 37.6449 53.5886 37.6705 53.7211 37.7486C53.8536 37.8268 53.9525 37.9519 53.9985 38.0996C54.1583 37.7604 54.3237 37.5824 54.5056 37.5434C54.6874 37.5045 54.7977 37.5434 54.8252 37.6046C54.8528 37.6658 54.8252 37.7381 54.7315 37.9161C54.6378 38.0941 54.3788 38.8894 53.9158 40.2966L54.4229 39.8294C54.7171 39.5507 54.9915 39.2515 55.2441 38.9339C55.3779 38.7272 55.5393 38.5401 55.7236 38.3777H55.7512ZM53.0505 40.8584C51.6064 42.1377 50.8458 42.8385 50.6969 42.9608C49.6332 44.0732 49.2474 44.902 49.5229 45.4693C49.5765 45.5749 49.662 45.6604 49.7671 45.7134C49.8722 45.7665 49.9914 45.7842 50.1072 45.7641C51.0883 45.6751 52.0712 44.0436 53.056 40.8695L53.0505 40.8584ZM53.789 37.9328C53.756 37.8574 53.6991 37.7953 53.6273 37.756C53.5555 37.7168 53.4728 37.7027 53.3922 37.7159C53.1331 37.7159 52.841 38.0385 52.4442 38.6169C52.0473 39.1954 51.9481 39.5958 52.0583 39.8183C52.0841 39.8718 52.1268 39.9151 52.1798 39.9413C52.2327 39.9675 52.2928 39.9751 52.3505 39.9629C52.6426 39.9629 52.9898 39.6459 53.3756 39.1008C53.7615 38.5557 53.9268 38.1719 53.789 37.9328Z" fill="white"/>
<path d="M60.077 37.9776C60.1487 38.1055 59.8786 38.4615 59.2943 39.04C58.9085 39.4293 58.5337 39.763 58.192 40.0522C57.5416 42.5218 56.5385 44.2237 55.1936 45.1582C54.9262 45.363 54.6111 45.4951 54.2786 45.5419C53.7936 45.5864 53.4739 45.4529 53.3251 45.1415C53.1267 44.7299 53.3251 44.1681 53.8763 43.4729C54.4461 42.7856 55.0791 42.1543 55.7668 41.5873L57.4203 40.2469C57.5306 39.941 57.6518 39.5072 57.7951 38.9454C57.6484 39.1764 57.4554 39.374 57.2285 39.5253C57.0017 39.6766 56.746 39.7784 56.4778 39.8242C56.3209 39.8566 56.1577 39.8353 56.014 39.7638C55.8703 39.6923 55.7543 39.5746 55.6841 39.4293C55.6165 39.2991 55.5848 39.1529 55.5926 39.006C55.6004 38.8592 55.6472 38.7172 55.7282 38.595C55.6708 38.6833 55.6001 38.7621 55.5188 38.8286C55.5063 38.8333 55.4926 38.8333 55.4802 38.8286V38.773C55.6913 38.3869 55.9944 38.06 56.3621 37.8219C56.7254 37.5249 57.1615 37.3328 57.6243 37.2657C57.773 37.2341 57.928 37.26 58.0586 37.3383C58.1893 37.4166 58.2861 37.5415 58.3298 37.6884C58.4841 37.3491 58.6495 37.1711 58.8369 37.1322C59.0243 37.0933 59.1235 37.1322 59.1565 37.1989C59.1384 37.307 59.105 37.4119 59.0573 37.5104C58.9691 37.6884 58.7046 38.4838 58.2416 39.8909L58.7487 39.4237C59.0502 39.1592 59.3303 38.871 59.5865 38.5616C59.7228 38.3552 59.8859 38.1682 60.0715 38.0054L60.077 37.9776ZM57.3762 40.4916C55.9267 41.7765 55.1385 42.4717 55.0227 42.5996C53.959 43.712 53.5731 44.5408 53.8432 45.1081C53.897 45.2147 53.9835 45.301 54.0897 45.3541C54.196 45.4072 54.3163 45.4243 54.433 45.4029C55.4141 45.3065 56.397 43.675 57.3818 40.5083L57.3762 40.4916ZM58.1148 37.566C58.0816 37.4911 58.0245 37.4296 57.9525 37.3913C57.8806 37.3529 57.798 37.3401 57.718 37.3547C57.4644 37.3547 57.1668 37.6828 56.77 38.2502C56.3731 38.8175 56.2739 39.2291 56.3841 39.4571C56.409 39.5098 56.451 39.5523 56.5031 39.5776C56.5553 39.6029 56.6144 39.6095 56.6707 39.5962C56.9739 39.5962 57.3101 39.2847 57.6959 38.7396C58.0817 38.1945 58.2471 37.7996 58.1148 37.566Z" fill="white"/>
<path d="M62.5363 37.7489C62.5804 37.8434 62.371 38.1605 61.919 38.7C61.6612 39.0479 61.2837 39.286 60.8608 39.3674C60.5521 39.3674 60.3537 39.3118 60.2545 39.106C60.163 38.7873 60.1945 38.4455 60.3427 38.1493C60.4462 37.8353 60.6028 37.5417 60.8057 37.2817C60.6954 37.3966 60.5301 37.582 60.3096 37.8379C60.2324 37.9491 60.1167 38.1048 59.9513 38.3051C59.9368 38.3241 59.9186 38.3399 59.8977 38.3514C59.8768 38.3629 59.8538 38.3698 59.8301 38.3718C59.8301 38.1549 60.0285 37.8657 60.4419 37.493C60.7205 37.1956 61.0817 36.9901 61.4781 36.9035C61.5401 36.8927 61.6035 36.8927 61.6655 36.9035C61.5583 37.2183 61.4332 37.5266 61.2907 37.8267C61.0371 38.4219 60.949 38.789 61.0151 38.9391C61.042 38.9678 61.0716 38.9939 61.1033 39.017C61.1388 39.0307 61.178 39.0307 61.2135 39.017C61.3899 39.017 61.6214 38.7945 61.919 38.3885C62.2167 37.9825 62.4371 37.76 62.5584 37.7211L62.5363 37.7489ZM62.1836 35.0402C62.2101 35.1119 62.2126 35.1905 62.1907 35.2638C62.1688 35.3371 62.1237 35.4012 62.0623 35.4462C61.9515 35.5736 61.7989 35.6565 61.6324 35.6798C61.5472 35.6265 61.4844 35.5433 61.456 35.4462C61.3017 35.1403 61.456 34.9623 61.897 34.9178C61.9514 34.9059 62.0082 34.9113 62.0595 34.9332C62.1108 34.9551 62.1542 34.9925 62.1836 35.0402Z" fill="white"/>
<path d="M66.2958 38.2941C66.1689 38.4661 66.0096 38.6112 65.827 38.7209C65.6445 38.8307 65.4423 38.903 65.232 38.9338C65.1157 38.9574 64.995 38.9425 64.8878 38.8914C64.7805 38.8403 64.6925 38.7557 64.6367 38.6501C64.5986 38.5782 64.5787 38.498 64.5787 38.4165C64.5787 38.335 64.5986 38.2547 64.6367 38.1829C64.4969 38.4315 64.3034 38.645 64.0706 38.8078C63.8378 38.9705 63.5716 39.0782 63.2919 39.1229C63.1341 39.1556 62.9701 39.1345 62.8254 39.0631C62.6808 38.9916 62.5638 38.8738 62.4926 38.728C62.4304 38.5918 62.401 38.4427 62.4067 38.2929C62.4125 38.1431 62.4533 37.9967 62.5257 37.8658C62.4486 38.0216 62.3824 38.105 62.3383 38.1106C62.3296 38.1142 62.3202 38.1161 62.3108 38.1161C62.3013 38.1161 62.2919 38.1142 62.2832 38.1106V38.055C62.4957 37.6726 62.8011 37.3511 63.1706 37.1205C63.5182 36.8289 63.9369 36.6369 64.3832 36.5643C64.5166 36.5304 64.6572 36.5407 64.7843 36.5938C64.9114 36.6469 65.0182 36.7399 65.0887 36.8591C65.0887 36.9147 65.1218 36.9704 65.1438 37.0371C65.193 36.8818 65.2831 36.7428 65.4044 36.635C65.5258 36.5273 65.6738 36.4548 65.8328 36.4253C65.9651 36.4253 66.0422 36.4253 66.0532 36.4253C65.9567 36.747 65.8369 37.0612 65.695 37.3653C65.4414 37.9604 65.3532 38.3497 65.4414 38.5333L65.5076 38.5945H65.6178C65.8328 38.5945 66.0973 38.3553 66.417 37.9382C66.5712 37.7104 66.7446 37.4964 66.9351 37.2985C66.9792 37.3875 66.7698 37.7157 66.3178 38.2719L66.2958 38.2941ZM64.9344 36.8869C64.9037 36.81 64.847 36.7466 64.7743 36.7079C64.7016 36.6692 64.6177 36.6577 64.5375 36.6756C64.2729 36.6756 63.9533 36.9982 63.5895 37.5711C63.2257 38.144 63.1045 38.5388 63.2037 38.7502C63.2272 38.8017 63.2671 38.8439 63.3169 38.8701C63.3668 38.8963 63.4239 38.905 63.4793 38.8948C63.7659 38.8614 64.1186 38.5833 64.5155 38.0438C64.9123 37.5043 65.0666 37.1205 64.9344 36.8869Z" fill="white"/>
<path d="M71.7083 36.8813C71.7524 36.9815 71.5429 37.2985 71.0744 37.8324C70.8163 38.189 70.4309 38.4303 69.9997 38.5054C69.8842 38.5336 69.7628 38.5234 69.6535 38.4763C69.5443 38.4292 69.453 38.3477 69.3934 38.244C69.3013 37.9243 69.3369 37.5809 69.4926 37.2874C69.5927 36.9741 69.7456 36.6806 69.9445 36.4197C69.8233 36.5346 69.6579 36.72 69.4485 36.9759C69.3713 37.0871 69.2501 37.2429 69.0957 37.4431C69.0619 37.4758 69.02 37.4988 68.9745 37.5098H68.9414C68.9414 37.2929 69.1508 37.0037 69.5587 36.631C69.8317 36.3322 70.1899 36.1262 70.5839 36.0415C70.6498 36.033 70.7165 36.033 70.7823 36.0415V36.0748C70.681 36.3884 70.5595 36.695 70.4186 36.9926C70.165 37.5822 70.0768 37.9548 70.143 38.105C70.1658 38.1337 70.1917 38.1598 70.2201 38.1828C70.2525 38.205 70.2915 38.2148 70.3304 38.2107C70.5067 38.2107 70.7493 37.9826 71.0469 37.5822C71.3445 37.1817 71.5595 36.9536 71.6807 36.9147L71.7083 36.8813ZM71.3445 34.1949C71.3707 34.2662 71.3736 34.344 71.3528 34.4171C71.332 34.4902 71.2885 34.5546 71.2288 34.6009C71.1127 34.7286 70.9573 34.8129 70.7878 34.8401C70.7102 34.7764 70.6496 34.6942 70.6115 34.6009C70.4682 34.2894 70.6115 34.1115 71.0524 34.0447C71.1082 34.0321 71.1666 34.0376 71.2191 34.0606C71.2716 34.0836 71.3155 34.1228 71.3445 34.1726" fill="white"/>
<path d="M76.6126 30.2298C76.7779 30.558 76.6457 31.0419 76.2268 31.676C75.8079 32.31 74.7166 33.7339 72.9583 35.9309C72.8037 36.2147 72.7063 36.5266 72.6717 36.8486C72.5809 37.1571 72.562 37.4826 72.6166 37.7997L72.6827 37.8609C72.7252 37.8894 72.775 37.9048 72.826 37.9054C73.1678 37.8776 73.5756 37.4827 74.0276 36.7318L74.1874 36.6317C74.2205 36.7263 74.0055 37.0377 73.5536 37.5772C73.287 37.9369 72.8912 38.1766 72.4512 38.2447C72.3336 38.275 72.2092 38.2653 72.0976 38.217C71.986 38.1688 71.8933 38.0846 71.8339 37.9777C71.7174 37.4793 71.7718 36.9558 71.9882 36.4927C71.7127 36.8968 71.5473 37.1026 71.4922 37.11C71.4922 37.0377 71.5583 36.8653 71.7678 36.5983C71.9001 36.4315 72.0213 36.2535 72.1536 36.0866C72.2859 35.9198 72.352 35.5582 72.5174 35.13C73.8843 31.7334 75.0436 29.9888 75.9953 29.8961C76.1218 29.8641 76.2555 29.8784 76.3725 29.9364C76.4896 29.9945 76.5825 30.0925 76.6346 30.2132L76.6126 30.2298ZM76.2819 30.2966C76.253 30.2226 76.2004 30.1605 76.1325 30.1201C76.0646 30.0798 75.9852 30.0636 75.9071 30.0741C75.5213 30.1075 74.9701 30.9418 74.2536 32.577C73.7938 33.5362 73.4015 34.5268 73.0796 35.5416C73.752 34.6628 74.4189 33.7803 75.0803 32.894C76.0614 31.5035 76.4693 30.634 76.3039 30.2855" fill="white"/>
<path d="M81.6224 29.7566C81.7878 30.107 81.6665 30.5854 81.2366 31.2083C80.8067 31.8312 80.002 32.8769 78.7618 34.4176C78.5634 34.6401 78.2878 34.9738 77.9461 35.4465C77.6314 36.1702 77.3626 36.9133 77.1414 37.6713C77.8763 37.3795 78.5144 36.884 78.9823 36.2419C79.0374 36.1752 79.0705 36.1362 79.0925 36.1362C79.1146 36.1362 79.1366 36.1362 79.1366 36.1362C79.1463 36.1672 79.1483 36.2001 79.1426 36.2321C79.1368 36.2641 79.1234 36.2942 79.1035 36.3198C78.9258 36.6085 78.7023 36.8659 78.4421 37.0818C78.0143 37.3567 77.6021 37.6557 77.2075 37.9772C77.1664 38.1434 77.1664 38.3172 77.2075 38.4834C77.2075 38.6669 77.2406 38.8449 77.2516 39.0396C77.2894 39.8979 77.219 40.7576 77.0421 41.5981C76.7831 42.8106 76.3863 43.4447 75.8571 43.4947C75.7555 43.5115 75.6512 43.4932 75.5612 43.4427C75.4712 43.3922 75.4007 43.3126 75.3611 43.2166C74.9091 42.2878 75.4493 39.8794 77.0146 35.9527C76.8327 36.2134 76.624 36.4539 76.3918 36.6702C76.3918 36.6146 76.491 36.4199 76.7335 36.114C76.8768 35.9249 77.0366 35.7358 77.1799 35.5578C77.3894 35.0016 77.665 34.3453 78.0067 33.511C78.3405 32.6913 78.7405 31.9006 79.2028 31.1471C79.9138 30.0347 80.509 29.4785 81.0051 29.4173C81.1284 29.391 81.2569 29.4081 81.3693 29.4658C81.4816 29.5235 81.5709 29.6183 81.6224 29.7344V29.7566ZM76.9981 38.0774C76.739 38.8338 76.4855 39.6903 76.2319 40.6303C75.8571 42.0264 75.7138 42.8551 75.8351 43.0665C75.8497 43.1064 75.8772 43.1403 75.9132 43.1625C75.9492 43.1847 75.9916 43.194 76.0335 43.1888C76.4303 43.1499 76.75 42.4046 77.0091 40.964C77.1427 40.0103 77.1427 39.0423 77.0091 38.0885L76.9981 38.0774ZM81.2697 29.8234C81.2458 29.7509 81.1972 29.6894 81.1327 29.6497C81.0681 29.61 80.9916 29.5947 80.9169 29.6064C80.5421 29.6398 80.002 30.4463 79.2634 32.0259C78.8021 33.0135 78.3936 34.0254 78.0398 35.0572C78.6902 34.184 79.3295 33.3052 79.9854 32.4264C80.9886 31.0062 81.4074 30.133 81.2421 29.8067" fill="white"/>
<path d="M84.0207 35.7192C84.0758 35.8304 83.8664 36.1475 83.4034 36.6814C83.1519 37.0336 82.7742 37.2731 82.3506 37.3489C82.2311 37.3778 82.1054 37.3656 81.9936 37.3142C81.8817 37.2628 81.7901 37.1752 81.7333 37.0652C81.601 36.7927 81.7002 36.3866 82.0089 35.8416H81.9648C81.0939 36.954 80.4325 37.5435 79.9806 37.5936C79.6443 37.5936 79.4294 37.5268 79.3247 37.3155C79.1593 36.9651 79.3247 36.3644 79.8758 35.5078C79.7656 35.6246 79.5837 35.8082 79.3743 36.064C79.2971 36.1753 79.1869 36.331 79.0215 36.5312C78.9906 36.5678 78.9475 36.5916 78.9003 36.598H78.8672C78.9776 36.2443 79.1884 35.931 79.4735 35.6969C79.7281 35.3634 80.0911 35.131 80.4987 35.0406C80.5631 35.0194 80.6326 35.0194 80.6971 35.0406C80.6971 35.0406 80.5648 35.4133 80.3223 36.0863C80.1239 36.6425 80.0467 37.004 80.1128 37.1319L80.179 37.1764C80.1976 37.1909 80.2189 37.2013 80.2417 37.207C80.2644 37.2128 80.2881 37.2137 80.3113 37.2098C80.5538 37.2098 81.2483 36.4478 82.4057 34.985C82.4509 34.9293 82.507 34.8837 82.5706 34.8511C82.6342 34.8186 82.7038 34.7998 82.775 34.7959C82.9845 34.7959 83.1057 34.7959 83.1278 34.8348C83.059 35.1648 82.9439 35.4832 82.786 35.7804C82.5325 36.3755 82.4388 36.737 82.4939 36.8928C82.5171 36.9263 82.545 36.9562 82.5766 36.9818C82.6125 36.9933 82.651 36.9933 82.6868 36.9818C83.0286 36.9484 83.4254 36.5535 83.8553 35.7971L84.0207 35.6969V35.7192Z" fill="white"/>
<path d="M86.3077 32.5936C85.912 33.2311 85.5902 33.9122 85.3486 34.6238L85.5801 34.5848L86.2084 34.5292C86.3518 34.5292 86.4399 34.5292 86.462 34.5737C86.484 34.6182 86.3407 34.6794 86.01 34.7128L85.288 34.7795C84.9352 35.7417 84.825 36.3535 84.9463 36.615C84.9634 36.6613 84.9956 36.7003 85.0377 36.7256C85.0798 36.7509 85.1292 36.7609 85.1777 36.754C85.3707 36.754 85.8116 36.309 86.5061 35.4636H86.5502C86.5502 35.4636 86.3848 35.8808 85.9329 36.4147C85.6555 36.7832 85.2457 37.0269 84.7919 37.0933C84.674 37.1195 84.5509 37.106 84.4413 37.0548C84.3318 37.0035 84.242 36.9174 84.1856 36.8096C84.0573 36.325 84.1123 35.8095 84.34 35.3635C84.175 35.6238 83.9908 35.8711 83.7888 36.1033C83.7742 36.1021 83.7602 36.0968 83.7485 36.0879C83.7368 36.0791 83.7278 36.067 83.7227 36.0532C83.8063 35.8529 83.9176 35.6657 84.0534 35.497C84.351 35.0965 84.5053 34.8741 84.5384 34.824L84.2297 34.8574H83.9431H83.8549C83.8411 34.854 83.8281 34.8478 83.8168 34.8392C83.8054 34.8306 83.7959 34.8197 83.7888 34.8073C83.7888 34.7573 83.899 34.7239 84.1746 34.7016C84.3155 34.6912 84.4555 34.6708 84.5935 34.6404C85.1447 33.2444 85.6242 32.5269 86.0431 32.488C86.1385 32.4757 86.2353 32.4952 86.3187 32.5436" fill="white"/>
<path d="M91.4331 35.0402C91.4882 35.1515 91.2788 35.4685 90.8213 36.0025C90.5617 36.3422 90.1903 36.5769 89.7741 36.6643C89.6515 36.6928 89.523 36.6806 89.4078 36.6295C89.2926 36.5784 89.1968 36.4911 89.1347 36.3807C89.0135 36.1137 89.1017 35.7077 89.4213 35.1626H89.3772C88.5064 36.275 87.8395 36.8701 87.3875 36.9146C87.0568 36.948 86.8363 36.8534 86.7371 36.6365C86.5718 36.2917 86.7371 35.6854 87.2883 34.8344C87.1781 34.9494 87.0127 35.1348 86.7922 35.3906L86.4395 35.8523C86.4092 35.8905 86.366 35.9163 86.3182 35.9246H86.2852C86.3945 35.5716 86.6009 35.2572 86.8804 35.018C87.143 34.7096 87.4998 34.4983 87.8946 34.4173C87.9642 34.3927 88.04 34.3927 88.1095 34.4173C88.1095 34.4173 87.9828 34.7844 87.7292 35.4629C87.5308 36.0191 87.4536 36.3751 87.5198 36.503L87.5969 36.5531C87.6131 36.5678 87.6327 36.5782 87.654 36.583C87.6752 36.5879 87.6973 36.5872 87.7182 36.5809C87.9607 36.5809 88.6607 35.8245 89.8182 34.3561C89.861 34.2992 89.9159 34.2526 89.9788 34.2199C90.0418 34.1872 90.1112 34.1691 90.182 34.167C90.3914 34.167 90.5127 34.167 90.5347 34.2004C90.461 34.5307 90.3462 34.8503 90.193 35.1515C89.9394 35.741 89.8512 36.1026 89.9064 36.2639C89.9261 36.2968 89.9524 36.3252 89.9835 36.3473C90.0194 36.3588 90.0579 36.3588 90.0938 36.3473C90.4355 36.3473 90.8323 35.9246 91.2788 35.1626L91.4331 35.068V35.0402Z" fill="white"/>
<path d="M94.5696 34.7292C94.6358 34.8571 94.4263 35.1741 93.9413 35.6858C93.6701 36.0403 93.2765 36.2787 92.8389 36.3533C92.7191 36.3859 92.5918 36.3767 92.4778 36.3272C92.3638 36.2778 92.2696 36.1909 92.2106 36.0807C92.0893 35.8193 92.2106 35.4355 92.5523 34.935C92.75 34.6915 92.934 34.4371 93.1035 34.173C93.1035 34.1173 93.0153 34.0951 92.894 34.0951C92.7833 34.0954 92.6727 34.1047 92.5633 34.1229H92.3098C92.2329 34.132 92.1552 34.132 92.0783 34.1229C91.9532 34.3633 91.8133 34.5955 91.6594 34.8181C91.5418 35.0254 91.393 35.213 91.2185 35.3744C91.2047 35.3765 91.1906 35.3738 91.1786 35.3668C91.1665 35.3597 91.1572 35.3486 91.1523 35.3354C91.1611 35.2854 91.184 35.239 91.2185 35.2019C91.3287 35.0629 91.5712 34.6847 91.946 34.0895C91.9032 34.0756 91.8636 34.0532 91.8295 34.0236C91.7954 33.994 91.7676 33.9578 91.7476 33.9171C91.7145 33.8605 91.7019 33.7941 91.712 33.7292C91.722 33.6642 91.7541 33.6048 91.8027 33.5611C91.9098 33.4561 92.0505 33.393 92.1996 33.3832C92.2612 33.3742 92.324 33.3795 92.3832 33.3988C92.4424 33.4181 92.4965 33.4508 92.5413 33.4944L92.387 33.6724C92.3577 33.7015 92.3378 33.7388 92.33 33.7795C92.3221 33.8202 92.3266 33.8623 92.3429 33.9004C92.3429 33.9616 92.5633 33.9838 92.894 33.9727C93.2248 33.9616 93.4452 34.0283 93.5334 34.1896C93.6216 34.3509 93.4893 34.5456 93.2578 34.9906C93.0263 35.4355 92.9492 35.7414 93.0374 35.9083C93.0524 35.9432 93.08 35.971 93.1145 35.9862H93.1917C93.3901 35.9862 93.6657 35.7693 94.0019 35.341C94.3381 34.9127 94.509 34.7069 94.509 34.7125C94.5148 34.7108 94.5209 34.7104 94.5268 34.7112C94.5328 34.712 94.5385 34.714 94.5437 34.7171C94.5489 34.7203 94.5533 34.7244 94.5569 34.7294C94.5604 34.7343 94.5628 34.7399 94.5641 34.7458" fill="white"/>
<path d="M98.335 34.3899C98.3901 34.4956 98.2799 34.6735 97.9933 34.9461C97.8143 35.1326 97.5901 35.2688 97.3429 35.341C97.2443 35.3565 97.1439 35.3565 97.0453 35.341C96.6803 35.7688 96.1798 36.0557 95.6288 36.153C95.4403 36.2002 95.2418 36.1845 95.063 36.1083C94.8841 36.0321 94.7346 35.8995 94.6366 35.7303C94.5633 35.5817 94.5252 35.418 94.5252 35.252C94.5252 35.086 94.5633 34.9223 94.6366 34.7737C94.4933 35.0295 94.3831 35.1574 94.328 35.1686C94.2729 35.1797 94.328 35.1686 94.2949 35.1686V35.1129C94.5197 34.7386 94.8202 34.4164 95.1768 34.1674C95.5544 33.8771 95.9976 33.6859 96.4665 33.6112L96.5933 33.6668C96.5933 33.6668 96.5492 33.7113 96.4665 33.7669C96.127 34.0147 95.8511 34.3408 95.6618 34.718C95.3752 35.2297 95.287 35.6246 95.4193 35.8972C95.4445 35.9561 95.4887 36.0047 95.5448 36.035C95.6008 36.0653 95.6654 36.0756 95.728 36.064C96.1248 36.0307 96.4555 35.7081 96.7476 35.1074C96.6818 34.9302 96.6776 34.7358 96.7356 34.5559C96.7937 34.376 96.9107 34.2213 97.0673 34.1173C97.0476 33.9978 97.0065 33.8828 96.9461 33.7781C96.9461 33.7781 96.9461 33.7336 96.8909 33.7058C96.8358 33.6779 96.8358 33.6501 96.8358 33.6334C96.8358 33.6168 96.8358 33.5778 96.8909 33.5723C96.9513 33.5727 97.0108 33.5858 97.0658 33.6107C97.1209 33.6356 97.1702 33.6717 97.2106 33.7169C97.3096 33.8015 97.3951 33.9009 97.4642 34.0117C97.6185 34.3287 97.5083 34.7514 97.1665 35.2909H97.2657C97.3934 35.2727 97.516 35.2283 97.626 35.1604C97.736 35.0925 97.831 35.0025 97.9051 34.896C98.1256 34.629 98.2689 34.4789 98.3571 34.4511" fill="white"/>
<path d="M54.6709 0C55.6796 3.14809 55.178 3.53743 52.9072 7.05261C51.182 9.72793 53.3756 11.708 54.5607 12.3198C53.8331 11.2797 53.3536 9.68899 53.789 8.69896C54.737 6.5409 56.7213 5.70104 56.0819 8.10939C55.9069 8.7485 55.8015 9.405 55.7677 10.0672C56.1233 8.95621 56.5448 7.8678 57.0299 6.80788C58.2425 4.13256 54.6709 0 54.6709 0Z" fill="white"/>
<path d="M55.6192 12.7926C58.5845 12.4978 59.9073 13.6491 58.1656 14.2442C57.9095 14.3315 57.6455 14.3929 57.3774 14.4278C57.1569 14.4278 57.0357 14.6614 57.1845 14.9172C57.3333 15.1731 57.5483 15.7571 57.2947 16.0018C57.25 16.0404 57.1973 16.0682 57.1405 16.0834C57.0837 16.0986 57.0242 16.1006 56.9665 16.0894C56.9088 16.0782 56.8543 16.054 56.8071 16.0186C56.7599 15.9832 56.7212 15.9376 56.6939 15.885C56.5997 15.6921 56.5688 15.4739 56.6058 15.2621C56.6609 14.9117 56.6388 14.5335 56.1924 14.4167C55.8762 14.3282 55.5389 14.3598 55.2444 14.5057C54.4782 14.9506 54.8365 15.5736 55.0625 16.0352C55.2884 16.4969 55.553 17.904 54.4011 17.8985C53.431 17.8985 53.431 16.7026 53.7011 16.0241C53.9105 15.4679 54.0097 15.073 53.8389 14.7782C53.668 14.4834 53.1444 14.4556 52.8357 14.3666C52.2239 14.1998 51.9097 13.6936 53.0066 13.2542C52.5381 14.5335 54.9963 14.2276 55.7625 14.0663C56.0876 13.9995 56.8648 13.7715 56.7325 13.371C56.6223 13.0707 55.9443 12.8148 55.6302 12.8148" fill="white"/>
</svg>
