<svg width="246" height="16" viewBox="0 0 246 16" fill="none" xmlns="http://www.w3.org/2000/svg">
<g clip-path="url(#clip0_1654:947)">
<path d="M0 14.9427V1.07896C0 0.539509 0.174229 0.32373 0.740472 0.32373H1.9873C2.55354 0.32373 2.72232 0.539509 2.72232 1.07896V14.9427C2.72232 15.4822 2.54809 15.6764 1.98185 15.6764H0.740472C0.174229 15.6764 0 15.4822 0 14.9427Z" fill="white"/>
<path d="M9.40329 14.9427V2.85374H5.59203C5.04757 2.85374 4.85156 2.65954 4.85156 2.12009V1.07896C4.8679 0.539509 5.0639 0.32373 5.60837 0.32373H15.9532C16.4977 0.32373 16.6937 0.517931 16.6937 1.05738V2.13627C16.6937 2.67572 16.5194 2.86992 15.9532 2.86992H12.1419V14.9427C12.1419 15.4822 11.9623 15.6764 11.396 15.6764H10.1492C9.59929 15.6764 9.40329 15.4822 9.40329 14.9427Z" fill="white"/>
<path d="M15.1739 14.964L20.6185 0.906017C20.6631 0.710141 20.7814 0.538512 20.9494 0.426213C21.1174 0.313914 21.3223 0.269424 21.5223 0.301837H22.682C23.1829 0.301837 23.4443 0.409726 23.5967 0.88444L29.0414 14.964C29.2156 15.4387 29.1067 15.6761 28.5623 15.6761H27.4352C26.4987 15.6761 26.2374 15.5466 26.0849 15.0287L25.045 12.2398H19.0559L18.0105 15.0287C17.8363 15.5682 17.5967 15.6761 16.6548 15.6761H15.653C15.1085 15.6761 14.9779 15.4387 15.1739 14.964ZM24.2937 10.0119L22.6603 5.44816C22.3733 4.59523 22.203 3.70803 22.1539 2.81027H21.9797C21.9593 3.70004 21.8052 4.58184 21.5223 5.42658L19.8454 10.0119H24.2937Z" fill="white"/>
<path d="M31.1484 14.9427V1.07886C31.1484 0.539416 31.3227 0.345215 31.8889 0.345215H33.1303C33.6748 0.345215 33.8708 0.539416 33.8708 1.07886V13.1463H40.1375C40.682 13.1463 40.878 13.3405 40.878 13.8799V14.9588C40.878 15.4983 40.7038 15.6925 40.1375 15.6925H31.8889C31.3227 15.6763 31.1484 15.4821 31.1484 14.9427Z" fill="white"/>
<path d="M43.0117 14.9427V1.07896C43.0117 0.539509 43.1696 0.32373 43.7359 0.32373H44.9827C45.5489 0.32373 45.734 0.539509 45.734 1.07896V14.9427C45.734 15.4822 45.5598 15.6764 44.9936 15.6764H43.7359C43.1696 15.6764 43.0117 15.4822 43.0117 14.9427Z" fill="white"/>
<path d="M47.7929 14.9644L53.2375 0.906398C53.2821 0.709432 53.4012 0.536931 53.5704 0.424502C53.7396 0.312073 53.946 0.268299 54.1468 0.302217H55.3011C55.8074 0.302217 56.0687 0.410106 56.2212 0.88482L61.6658 14.9644C61.8401 15.4391 61.7312 15.6765 61.1867 15.6765H60.0488C59.1123 15.6765 58.851 15.547 58.6985 15.0291L57.6695 12.2402H51.6804L50.635 15.0291C50.4553 15.5686 50.2158 15.6765 49.2793 15.6765H48.2775C47.7275 15.6765 47.5969 15.4391 47.7929 14.9644ZM56.9181 10.0123L55.2575 5.44854C54.9737 4.59501 54.8053 3.708 54.7566 2.81065H54.5824C54.562 3.70042 54.4078 4.58222 54.125 5.42696L52.4426 10.0123H56.9181Z" fill="white"/>
<path d="M63.7676 14.9428V1.07904C63.7676 0.539594 63.9418 0.345393 64.508 0.345393H65.7549C65.8952 0.330818 66.0369 0.355424 66.1639 0.416432C66.2909 0.47744 66.3982 0.572419 66.4736 0.690639L71.7766 8.47486C72.5187 9.63298 73.1338 10.8663 73.6115 12.1539H73.7422C73.4752 10.7114 73.3223 9.25045 73.2848 7.78437V1.07904C73.2848 0.539594 73.459 0.345393 74.0253 0.345393H75.185C75.7295 0.345393 75.9255 0.539594 75.9255 1.07904V14.9428C75.9255 15.4823 75.7295 15.6765 75.185 15.6765H73.9382C73.7916 15.6993 73.6414 15.6762 73.5087 15.6104C73.376 15.5447 73.2673 15.4395 73.1977 15.3097L67.8511 7.48228C67.1484 6.32422 66.549 5.10765 66.0598 3.84641H65.9291C66.2044 5.27002 66.3646 6.71312 66.4082 8.16198V14.9428C66.4082 15.4823 66.2122 15.6765 65.6678 15.6765H64.508C63.9418 15.6765 63.7676 15.4823 63.7676 14.9428Z" fill="white"/>
<path d="M82.4258 14.9427V1.07886C82.4258 0.539416 82.6 0.345215 83.1663 0.345215H84.3913C84.9358 0.345215 85.1318 0.539416 85.1318 1.07886V14.9427C85.1318 15.4821 84.9575 15.6763 84.3913 15.6763H83.1445C82.6 15.6763 82.4258 15.4821 82.4258 14.9427Z" fill="#DBE19E"/>
<path d="M88.5137 14.9428V1.07904C88.5137 0.539594 88.6879 0.345393 89.2596 0.345393H90.501C90.6413 0.330818 90.783 0.355424 90.91 0.416432C91.037 0.47744 91.1443 0.572419 91.2197 0.690639L96.5282 8.47486C97.2672 9.63389 97.8804 10.8671 98.3576 12.1539H98.4883C98.2213 10.7114 98.0684 9.25045 98.0309 7.78437V1.07904C98.0309 0.539594 98.2051 0.345393 98.7714 0.345393H99.9311C100.476 0.345393 100.672 0.539594 100.672 1.07904V14.9428C100.672 15.4823 100.476 15.6765 99.9311 15.6765H98.6843C98.5377 15.6993 98.3876 15.6762 98.2548 15.6104C98.1221 15.5447 98.0134 15.4395 97.9438 15.3097L92.5972 7.48228C91.8969 6.32293 91.2976 5.10657 90.8059 3.84641H90.6752C90.9505 5.27002 91.1107 6.71312 91.1543 8.16198V14.9428C91.1543 15.4823 90.9583 15.6765 90.4138 15.6765H89.2596C88.6879 15.6765 88.5137 15.4823 88.5137 14.9428Z" fill="#DBE19E"/>
<path d="M107.325 14.9427V2.85364H103.514C102.969 2.85364 102.773 2.65944 102.773 2.12V1.07886C102.773 0.539416 102.969 0.345215 103.514 0.345215H113.859C114.403 0.345215 114.599 0.539416 114.599 1.07886V2.15776C114.599 2.6972 114.425 2.89141 113.859 2.89141H110.047V14.9427C110.047 15.4821 109.873 15.6763 109.307 15.6763H108.066C107.521 15.6763 107.325 15.4821 107.325 14.9427Z" fill="#DBE19E"/>
<path d="M116.732 14.9427V1.07886C116.732 0.539416 116.907 0.345215 117.473 0.345215H126.184C126.729 0.345215 126.925 0.539416 126.925 1.07886V2.15776C126.925 2.6972 126.729 2.89141 126.184 2.89141H119.487V6.66753H125.139C125.683 6.66753 125.879 6.86174 125.879 7.40118V8.48008C125.879 9.01952 125.705 9.21912 125.139 9.21912H119.46V13.1948H126.397C126.941 13.1948 127.143 13.389 127.143 13.9285V15.0074C127.143 15.5468 126.947 15.741 126.397 15.741H117.473C116.907 15.6763 116.732 15.4821 116.732 14.9427Z" fill="#DBE19E"/>
<path d="M129.691 14.9427V1.07886C129.691 0.539416 129.866 0.345215 130.432 0.345215H136.481C139.492 0.345215 141.381 2.12 141.381 5.10314C141.381 7.35263 140.292 8.87927 138.523 9.47266C138.804 9.73797 139.033 10.0526 139.198 10.4005L141.599 14.9642C141.838 15.3742 141.773 15.6979 141.229 15.6979H139.927C139.013 15.6979 138.708 15.59 138.446 15.0505L136.661 11.3284C136.073 10.1416 135.544 9.81791 134.042 9.81791H132.408V14.9427C132.408 15.4821 132.234 15.6763 131.668 15.6763H130.421C129.866 15.6763 129.691 15.4821 129.691 14.9427ZM136.225 7.30948C137.684 7.30948 138.517 6.53267 138.517 5.08156C138.517 3.63045 137.684 2.85364 136.225 2.85364H132.414V7.30948H136.225Z" fill="#DBE19E"/>
<path d="M144.223 14.9427V1.07886C144.223 0.539416 144.397 0.345215 144.969 0.345215H146.21C146.754 0.345215 146.95 0.539416 146.95 1.07886V14.9427C146.95 15.4821 146.776 15.6763 146.21 15.6763H144.969C144.397 15.6763 144.223 15.4821 144.223 14.9427Z" fill="#DBE19E"/>
<path d="M149.854 10.3574V5.64262C149.854 2.15779 152.08 0 156.099 0C160.117 0 162.338 2.15779 162.338 5.64262V10.3574C162.338 13.8368 160.111 16 156.099 16C152.086 16 149.854 13.8368 149.854 10.3574ZM159.589 10.3574V5.62104C159.589 3.6089 158.347 2.53001 156.099 2.53001C153.85 2.53001 152.609 3.6089 152.609 5.62104V10.379C152.609 12.3911 153.85 13.47 156.099 13.47C158.347 13.47 159.589 12.4073 159.589 10.379V10.3574Z" fill="#DBE19E"/>
<path d="M165.24 14.9427V1.07886C165.24 0.539416 165.414 0.345215 165.981 0.345215H172.051C175.062 0.345215 176.952 2.12 176.952 5.10314C176.952 7.35263 175.863 8.87927 174.088 9.47266C174.372 9.73622 174.603 10.0511 174.768 10.4005L177.169 14.9642C177.409 15.3742 177.344 15.6979 176.794 15.6979H175.531C174.616 15.6979 174.306 15.59 174.044 15.0505L172.204 11.3284C171.61 10.1416 171.115 9.81791 169.585 9.81791H167.952V14.9427C167.952 15.4821 167.777 15.6763 167.211 15.6763H165.964C165.414 15.6763 165.24 15.4821 165.24 14.9427ZM171.774 7.30948C173.233 7.30948 174.061 6.53267 174.061 5.08156C174.061 3.63045 173.233 2.85364 171.774 2.85364H167.963V7.30948H171.774Z" fill="#DBE19E"/>
<path d="M184.096 10.3574V5.62104C184.096 2.15779 186.323 0 190.335 0C193.542 0 195.464 1.27849 196.27 3.6089C196.466 4.14835 196.335 4.36952 195.813 4.56372L194.637 4.9737C194.092 5.1679 193.874 5.06001 193.673 4.52057C193.194 3.19892 192.17 2.53001 190.335 2.53001C188.087 2.53001 186.845 3.6089 186.845 5.59946V10.379C186.845 12.3911 188.087 13.47 190.335 13.47C192.584 13.47 193.874 12.3911 193.874 10.9184V9.79636H190.564C190.019 9.79636 189.823 9.60216 189.823 9.04113V8C189.823 7.46055 190.019 7.26635 190.564 7.26635H195.802C196.346 7.26635 196.564 7.43897 196.564 8V10.8968C196.564 13.8368 194.343 16 190.324 16C186.306 16 184.096 13.8368 184.096 10.3574Z" fill="#DBE19E"/>
<path d="M199.213 10.4005V1.07886C199.213 0.539416 199.387 0.345215 199.953 0.345215H201.2C201.745 0.345215 201.941 0.539416 201.941 1.07886V10.4221C201.941 12.3479 203.057 13.47 205.3 13.47C207.543 13.47 208.665 12.3479 208.665 10.4221V1.07886C208.665 0.539416 208.861 0.345215 209.405 0.345215H210.674C211.218 0.345215 211.414 0.539416 211.414 1.07886V10.4005C211.414 13.7936 209.318 16 205.3 16C201.282 16 199.213 13.7936 199.213 10.4005Z" fill="#DBE19E"/>
<path d="M214.645 14.9427V1.07886C214.645 0.539416 214.819 0.345215 215.385 0.345215H216.632C217.176 0.345215 217.372 0.539416 217.372 1.07886V14.9427C217.372 15.4821 217.198 15.6763 216.632 15.6763H215.385C214.819 15.6763 214.645 15.4821 214.645 14.9427Z" fill="#DBE19E"/>
<path d="M220.73 14.9427V1.07886C220.73 0.539416 220.905 0.345215 221.471 0.345215H226.371C230.433 0.345215 232.703 2.52998 232.703 6.05256V9.99053C232.703 13.5131 230.433 15.6979 226.371 15.6979H221.471C220.905 15.6763 220.73 15.4821 220.73 14.9427ZM226.382 13.1463C228.674 13.1463 229.959 12.0674 229.959 9.99053V6.00941C229.959 3.95951 228.696 2.85364 226.382 2.85364H223.458V13.1463H226.382Z" fill="#DBE19E"/>
<path d="M235.59 14.9427V1.07886C235.59 0.539416 235.764 0.345215 236.33 0.345215H245.042C245.586 0.345215 245.782 0.539416 245.782 1.07886V2.15776C245.782 2.6972 245.586 2.89141 245.042 2.89141H238.318V6.66753H243.969C244.541 6.66753 244.715 6.86174 244.715 7.40118V8.48008C244.715 9.01952 244.541 9.21912 243.969 9.21912H238.318V13.1948H245.26C245.804 13.1948 246 13.389 246 13.9285V15.0074C246 15.5468 245.804 15.741 245.26 15.741H236.33C235.753 15.6763 235.59 15.4821 235.59 14.9427Z" fill="#DBE19E"/>
</g>
<defs>
<clipPath id="clip0_1654:947">
<rect width="246" height="16" fill="white"/>
</clipPath>
</defs>
</svg>
