<svg width="58" height="58" viewBox="0 0 58 58" fill="none" xmlns="http://www.w3.org/2000/svg">
<path d="M0 0V58H58V0H0Z" fill="#DBE19E"/>
<path d="M5.77344 23.6062V22.0683C5.77344 19.2879 7.82043 18.3465 9.80175 17.5474C11.7831 16.7483 13.5454 16.1791 13.5454 14.1485C13.5472 13.8406 13.4864 13.5355 13.3669 13.2517C13.2474 12.968 13.0715 12.7114 12.85 12.4975C12.6284 12.2837 12.3658 12.1169 12.078 12.0075C11.7902 11.898 11.4832 11.8481 11.1755 11.8607C10.5673 11.8124 9.95991 11.9644 9.44606 12.2935C8.93222 12.6225 8.54008 13.1106 8.32944 13.6833C8.10504 14.1923 7.91895 14.2963 7.43183 14.1321L6.33718 13.7216C5.84459 13.5355 5.70229 13.3111 5.9048 12.8404C6.72578 10.7934 8.34039 9.46338 11.2686 9.46338C14.3993 9.46338 16.2383 11.6144 16.2383 14.0281C16.2383 17.0986 14.6456 18.2644 10.5516 19.9009C9.69228 20.2293 8.48269 20.596 8.48269 21.5428V21.8931H15.2859C15.8333 21.8931 15.981 22.0792 15.981 22.5882V23.5953C15.981 24.1043 15.8168 24.2904 15.2859 24.2904H6.49043C5.95405 24.3014 5.77344 24.1153 5.77344 23.6062Z" fill="#511B09"/>
<path d="M18.4785 19.6545V14.3947C18.4785 11.3899 20.4434 9.46875 23.9025 9.46875C27.3616 9.46875 29.3265 11.3953 29.3265 14.3947V19.6545C29.3265 22.6812 27.3671 24.6296 23.9025 24.6296C20.4379 24.6296 18.4785 22.6812 18.4785 19.6545ZM26.765 19.6545V14.3947C26.765 12.7801 25.7251 11.8606 23.9025 11.8606C22.0799 11.8606 21.0345 12.7801 21.0345 14.3947V19.6545C21.0345 21.2964 22.0799 22.2105 23.9025 22.2105C25.7251 22.2105 26.765 21.2691 26.765 19.6545Z" fill="#511B09"/>
<path d="M31.6133 23.6062V22.0683C31.6133 19.2879 33.6603 18.3465 35.6471 17.5474C37.5463 16.8085 39.4072 16.1791 39.4072 14.1485C39.4082 13.8403 39.3468 13.5351 39.2266 13.2513C39.1065 12.9675 38.9301 12.711 38.7081 12.4972C38.4862 12.2834 38.2232 12.1168 37.9351 12.0074C37.647 11.898 37.3397 11.8481 37.0318 11.8607C36.4209 11.8087 35.8097 11.9589 35.2925 12.2882C34.7753 12.6175 34.3807 13.1077 34.1693 13.6833C33.9449 14.1923 33.7643 14.2963 33.2717 14.1321L32.177 13.7216C31.6844 13.5355 31.5421 13.3111 31.7501 12.8404C32.5656 10.7934 34.1802 9.46338 37.1084 9.46338C40.2391 9.46338 42.0836 11.6144 42.0836 14.0281C42.0836 17.0986 40.4854 18.2644 36.3914 19.9009C35.5321 20.2293 34.328 20.596 34.328 21.5428V21.8931H41.1313C41.6786 21.8931 41.8264 22.0792 41.8264 22.5882V23.5953C41.8264 24.1043 41.6622 24.2904 41.1313 24.2904H32.3303C31.7994 24.3014 31.6133 24.1153 31.6133 23.6062Z" fill="#511B09"/>
<path d="M48.105 23.6061V12.884L45.2644 14.4767C44.7171 14.7832 44.4434 14.6628 44.1697 14.214L43.6607 13.2945C43.4144 12.8402 43.5348 12.6158 43.9836 12.3531L47.9736 10.0598C48.2676 9.85341 48.6221 9.7513 48.9807 9.76969H49.9385C50.4859 9.76969 50.6336 9.95578 50.6336 10.4703V23.6061C50.6336 24.1151 50.4749 24.3012 49.9385 24.3012H48.8001C48.2911 24.3012 48.105 24.1151 48.105 23.6061Z" fill="#511B09"/>
<path d="M4.1543 48.1647V46.6322C4.1543 43.8518 6.20129 42.9104 8.18261 42.1113C10.1639 41.3122 11.9263 40.7375 11.9263 38.7124C11.928 38.4045 11.8673 38.0995 11.7478 37.8157C11.6282 37.5319 11.4524 37.2753 11.2308 37.0615C11.0093 36.8476 10.7467 36.6809 10.4589 36.5715C10.1711 36.462 9.86406 36.412 9.55639 36.4246C8.94879 36.376 8.34194 36.5272 7.82818 36.8552C7.31442 37.1832 6.92188 37.6701 6.7103 38.2417C6.4859 38.7562 6.29981 38.8547 5.81269 38.696L4.71804 38.2855C4.22545 38.0994 4.08314 37.875 4.28565 37.4043C5.10664 35.3573 6.72125 34.0273 9.64944 34.0273C12.7801 34.0273 14.6191 36.1783 14.6191 38.592C14.6191 41.6625 13.0264 42.8283 8.93244 44.4648C8.07314 44.7932 6.86355 45.1599 6.86355 46.1068V46.4735H13.6832C14.2305 46.4735 14.3783 46.6596 14.3783 47.1686V48.1647C14.3783 48.6792 14.2141 48.8653 13.6832 48.8653H4.87129C4.33491 48.8434 4.1543 48.6573 4.1543 48.1647Z" fill="#511B09"/>
<path d="M16.8574 44.1965V38.9367C16.8574 35.9319 18.8223 34.0107 22.2814 34.0107C25.7405 34.0107 27.7054 35.9373 27.7054 38.9367V44.1965C27.7054 47.2232 25.7405 49.1224 22.2814 49.1224C18.8223 49.1224 16.8574 47.2232 16.8574 44.1965ZM25.1439 44.1965V38.9367C25.1439 37.2947 24.104 36.4026 22.2814 36.4026C20.4588 36.4026 19.4189 37.3221 19.4189 38.9367V44.1965C19.4189 45.8384 20.4588 46.7525 22.2814 46.7525C24.104 46.7525 25.1439 45.8111 25.1439 44.1965Z" fill="#511B09"/>
<path d="M29.9922 48.1647V46.6321C29.9922 43.8517 32.0392 42.9103 34.026 42.1112C35.9252 41.3505 37.7642 40.7156 37.7642 38.6905C37.7652 38.3823 37.7038 38.0771 37.5836 37.7933C37.4635 37.5095 37.2871 37.253 37.0651 37.0392C36.8432 36.8254 36.5802 36.6588 36.2921 36.5494C36.004 36.44 35.6967 36.3901 35.3888 36.4027C34.782 36.3543 34.1759 36.5057 33.6631 36.8338C33.1503 37.1618 32.7588 37.6486 32.5482 38.2198C32.3183 38.7343 32.1377 38.8328 31.6451 38.6741L30.5505 38.2636C30.0579 38.0775 29.9156 37.8531 30.1235 37.3824C30.9391 35.3354 32.5591 34.0054 35.4819 34.0054C38.6126 34.0054 40.457 36.1564 40.457 38.5701C40.457 41.6406 38.8588 42.8063 34.7649 44.4429C33.9056 44.7712 32.7014 45.138 32.7014 46.0848V46.4515H39.5102C40.0575 46.4515 40.2053 46.6376 40.2053 47.1466V48.1647C40.2053 48.6791 40.0411 48.8652 39.5102 48.8652H30.7092C30.1783 48.8433 29.9922 48.6573 29.9922 48.1647Z" fill="#511B09"/>
<path d="M42.5371 48.1647V46.6322C42.5371 43.8518 44.5841 42.9104 46.5654 42.1113C48.5467 41.3122 50.3091 40.7375 50.3091 38.7124C50.3109 38.4045 50.2501 38.0995 50.1306 37.8157C50.011 37.5319 49.8352 37.2753 49.6137 37.0615C49.3921 36.8476 49.1295 36.6809 48.8417 36.5715C48.5539 36.462 48.2469 36.412 47.9392 36.4246C47.3316 36.376 46.7247 36.5272 46.211 36.8552C45.6972 37.1832 45.3047 37.6701 45.0931 38.2417C44.8687 38.7562 44.6826 38.8547 44.1955 38.696L43.1009 38.2855C42.6083 38.0994 42.466 37.875 42.6685 37.4043C43.4895 35.3573 45.1041 34.0273 48.0323 34.0273C51.1629 34.0273 53.002 36.1783 53.002 38.592C53.002 41.6625 51.4092 42.8283 47.3153 44.4648C46.456 44.7932 45.2464 45.1599 45.2464 46.1068V46.4735H52.0496C52.5969 46.4735 52.7447 46.6596 52.7447 47.1686V48.1647C52.7447 48.6792 52.5805 48.8653 52.0496 48.8653H43.2377C42.7177 48.8434 42.5371 48.6573 42.5371 48.1647Z" fill="#511B09"/>
</svg>
