<svg width="30" height="31" viewBox="0 0 30 31" fill="none" xmlns="http://www.w3.org/2000/svg">
<path d="M0 0.5H30V30.5H0V0.5Z" fill="#E7A43F"/>
<path d="M14.9998 4.70001C11.0298 4.70001 7.7998 7.88104 7.7998 11.791C7.7998 16.7053 15.0069 25.1 15.0069 25.1C15.0069 25.1 22.1998 16.4636 22.1998 11.791C22.1998 7.88104 18.97 4.70001 14.9998 4.70001ZM17.1722 13.8672C16.5732 14.457 15.7866 14.752 14.9998 14.752C14.2132 14.752 13.4263 14.457 12.8275 13.8672C11.6296 12.6876 11.6296 10.7681 12.8275 9.58834C13.4076 9.01683 14.1792 8.70207 14.9998 8.70207C15.8204 8.70207 16.5919 9.01696 17.1722 9.58834C18.3701 10.7681 18.3701 12.6876 17.1722 13.8672Z" fill="white"/>
<path d="M0 0.5V-0.5H-1V0.5H0ZM30 0.5H31V-0.5H30V0.5ZM30 30.5V31.5H31V30.5H30ZM0 30.5H-1V31.5H0V30.5ZM0 1.5H30V-0.5H0V1.5ZM29 0.5V30.5H31V0.5H29ZM30 29.5H0V31.5H30V29.5ZM1 30.5V0.5H-1V30.5H1Z" fill="#E7A43F"/>
</svg>
