<svg width="40" height="40" viewBox="0 0 40 40" fill="none" xmlns="http://www.w3.org/2000/svg">
<circle cx="20" cy="20" r="18" fill="white"/>
<path d="M20.0754 2C10.0927 2 2 10.0927 2 20.0754C2 29.0286 8.51652 36.4434 17.0608 37.8793V23.8464H12.7004V18.7965H17.0608V15.0729C17.0608 10.7525 19.6995 8.39815 23.5542 8.39815C25.4004 8.39815 26.9869 8.53571 27.4475 8.5963V13.1123L24.774 13.1136C22.6781 13.1136 22.2741 14.1093 22.2741 15.571V18.7939H27.275L26.6227 23.8438H22.2741V38C31.2172 36.9115 38.1505 29.3079 38.1505 20.0702C38.1505 10.0927 30.0578 2 20.0754 2Z" fill="#E7A43F"/>
</svg>
