<svg width="40" height="40" viewBox="0 0 40 40" fill="none" xmlns="http://www.w3.org/2000/svg">
<path d="M0 0H40V40H0V0Z" fill="#E7A43F"/>
<path fill-rule="evenodd" clip-rule="evenodd" d="M28.5117 20.507C28.8215 20.8167 29 21.2367 29 21.6875C29 22.3377 28.628 22.9085 28.0738 23.1875C28.1892 23.4177 28.25 23.672 28.25 23.9375C28.25 24.5885 27.8772 25.1592 27.323 25.4382C27.4947 25.7802 27.545 26.174 27.4587 26.5647C27.2908 27.3245 26.576 27.875 25.7592 27.875H18.875C18.383 27.875 17.6105 27.7197 17 27.4317V19.3932L17.09 19.3475L19.25 14.6682V12.125C19.25 12.011 19.3018 11.903 19.3902 11.8317C19.3908 11.8313 19.3916 11.8307 19.3927 11.8299C19.4393 11.7943 19.9882 11.375 20.75 11.375C21.6177 11.375 23 12.7482 23 14.375C23 15.401 22.6325 16.6782 22.403 17.375H27.0357C28.0452 17.375 28.904 18.122 28.9917 19.0752C29.0405 19.61 28.862 20.1237 28.5117 20.507ZM11 20.75C11 19.7165 11.8415 18.875 12.875 18.875H16.25V28.2455C15.9357 28.4825 15.5472 28.625 15.125 28.625H12.875C11.8415 28.625 11 27.7835 11 26.75V20.75Z" fill="white"/>
<path d="M0 0V-1H-1V0H0ZM40 0H41V-1H40V0ZM40 40V41H41V40H40ZM0 40H-1V41H0V40ZM0 1H40V-1H0V1ZM39 0V40H41V0H39ZM40 39H0V41H40V39ZM1 40V0H-1V40H1Z" fill="#E7A43F"/>
</svg>
