<svg width="17" height="20" viewBox="0 0 17 20" fill="none" xmlns="http://www.w3.org/2000/svg">
<path d="M16.7766 15.7898L16.7092 15.8706C14.4902 18.533 11.5345 19.9999 8.3883 19.9999C5.24158 19.9999 2.28636 18.5335 0.0669316 15.8706L0 15.7898L0.0158033 15.6861C0.444351 12.8908 1.90476 10.6453 4.12791 9.362L4.28595 9.2709L4.41191 9.4029C5.4619 10.5045 6.87397 11.1106 8.38783 11.1106C9.90169 11.1106 11.3138 10.504 12.3638 9.4029L12.4897 9.2709L12.6477 9.362C14.8709 10.6453 16.3313 12.8908 16.7603 15.6861L16.7766 15.7898ZM8.3883 9.98809C11.1418 9.98809 13.3821 7.74774 13.3821 4.99425C13.3821 2.24075 11.1418 -6.10352e-05 8.3883 -6.10352e-05C5.6348 -6.10352e-05 3.39445 2.24075 3.39445 4.99378C3.39445 7.74681 5.6348 9.98809 8.3883 9.98809Z" fill="white"/>
</svg>
