<svg width="40" height="40" viewBox="0 0 40 40" fill="none" xmlns="http://www.w3.org/2000/svg">
<path d="M0 -0.909363H40V39.9094H0V-0.909363Z" fill="#E7A43F"/>
<path d="M11.1099 26.9203L16.3387 21.6914C15.347 20.467 14.75 18.9104 14.75 17.2157C14.75 13.2869 17.9463 10.0906 21.875 10.0906C25.8037 10.0906 29 13.2869 29 17.2157C29 21.1444 25.8037 24.3407 21.875 24.3407C20.1802 24.3407 18.6236 23.7437 17.3993 22.7519L12.1704 27.9808C12.0239 28.1272 11.7865 28.1272 11.64 27.9808L11.1098 27.4506C10.9634 27.3041 10.9634 27.0667 11.1099 26.9203ZM21.875 22.8407C24.9768 22.8407 27.5 20.3175 27.5 17.2157C27.5 14.1139 24.9768 11.5907 21.875 11.5907C18.7732 11.5907 16.25 14.1139 16.25 17.2157C16.25 20.3175 18.7732 22.8407 21.875 22.8407Z" fill="white"/>
<circle cx="22" cy="17.0906" r="6" fill="white"/>
<path d="M0 -0.909363V-1.90936H-1V-0.909363H0ZM40 -0.909363H41V-1.90936H40V-0.909363ZM40 39.9094V40.9094H41V39.9094H40ZM0 39.9094H-1V40.9094H0V39.9094ZM0 0.0906372H40V-1.90936H0V0.0906372ZM39 -0.909363V39.9094H41V-0.909363H39ZM40 38.9094H0V40.9094H40V38.9094ZM1 39.9094V-0.909363H-1V39.9094H1Z" fill="#E7A43F"/>
</svg>
