<svg width="40" height="40" viewBox="0 0 40 40" fill="none" xmlns="http://www.w3.org/2000/svg">
<path d="M26.6983 18.5908L26.484 18.5347L26.0695 18.468H23.0133L23.0098 25.1525H24.0636C24.0636 24.5944 24.2857 24.0592 24.681 23.6645C25.0762 23.2699 25.6124 23.0482 26.1714 23.0482C26.7304 23.0482 27.2665 23.2699 27.6618 23.6645C28.057 24.0592 28.2791 24.5944 28.2791 25.1525H29.333V22.1013C29.333 20.439 28.2159 19.0467 26.6983 18.5908Z" fill="black"/>
<path d="M11.333 25.1524H12.9279C12.9273 24.8368 12.9981 24.5251 13.1351 24.2406C13.1799 24.1498 13.2304 24.062 13.2862 23.9776C13.3619 23.8659 13.4478 23.7614 13.5426 23.6654C13.6621 23.546 13.7953 23.4413 13.9396 23.3533C13.9677 23.3358 13.9993 23.3182 14.0274 23.3042C14.0865 23.2715 14.1475 23.2422 14.2101 23.2165C14.4692 23.1077 14.7475 23.0517 15.0286 23.0517C15.3097 23.0517 15.5879 23.1077 15.8471 23.2165C15.9103 23.2446 15.97 23.2726 16.0297 23.3042C16.0613 23.3217 16.0894 23.3358 16.1176 23.3533C16.2908 23.4591 16.4482 23.589 16.5848 23.7391C16.6526 23.8139 16.7148 23.8936 16.7709 23.9776C16.828 24.0612 16.8785 24.1491 16.922 24.2406C17.059 24.5251 17.1299 24.8368 17.1293 25.1524H21.9419L21.956 14H11.3471L11.333 25.1524Z" fill="black"/>
<path d="M15.0564 26.1274C15.6307 26.1274 16.0962 25.6627 16.0962 25.0894C16.0962 24.516 15.6307 24.0513 15.0564 24.0513C14.4821 24.0513 14.0166 24.516 14.0166 25.0894C14.0166 25.6627 14.4821 26.1274 15.0564 26.1274Z" fill="black"/>
<path d="M26.2976 26.1765C26.8719 26.1765 27.3374 25.7117 27.3374 25.1384C27.3374 24.5651 26.8719 24.1003 26.2976 24.1003C25.7234 24.1003 25.2578 24.5651 25.2578 25.1384C25.2578 25.7117 25.7234 26.1765 26.2976 26.1765Z" fill="black"/>
<path d="M0 0V-1H-1V0H0ZM40 0H41V-1H40V0ZM40 40V41H41V40H40ZM0 40H-1V41H0V40ZM0 1H40V-1H0V1ZM39 0V40H41V0H39ZM40 39H0V41H40V39ZM1 40V0H-1V40H1Z" fill="black"/>
</svg>
