<svg width="29" height="30" viewBox="0 0 29 30" fill="none" xmlns="http://www.w3.org/2000/svg">
<path fill-rule="evenodd" clip-rule="evenodd" d="M25.3212 11.0326C25.2719 9.91522 25.0912 9.14705 24.8324 8.48142C24.5654 7.77487 24.1546 7.1423 23.6163 6.61643C23.0905 6.08239 22.4537 5.66741 21.7554 5.40456C21.0859 5.14572 20.3217 4.96503 19.2044 4.91577C18.0787 4.86233 17.7213 4.84998 14.8662 4.84998C12.0111 4.84998 11.6537 4.86233 10.5322 4.9116C9.41486 4.96086 8.64669 5.14171 7.98122 5.40039C7.2745 5.66741 6.64193 6.07822 6.11607 6.61643C5.58202 7.1423 5.16721 7.77904 4.9042 8.47741C4.64536 9.14705 4.46467 9.91105 4.4154 11.0284C4.36197 12.1541 4.34961 12.5115 4.34961 15.3666C4.34961 18.2217 4.36197 18.579 4.41123 19.7005C4.46049 20.8179 4.64134 21.5861 4.90018 22.2517C5.16721 22.9583 5.58202 23.5908 6.11607 24.1167C6.64193 24.6507 7.27868 25.0657 7.97704 25.3286C8.64669 25.5874 9.41069 25.7681 10.5282 25.8174C11.6496 25.8668 12.0071 25.879 14.8622 25.879C17.7173 25.879 18.0746 25.8668 19.1962 25.8174C20.3135 25.7681 21.0817 25.5874 21.7472 25.3286C23.1604 24.7822 24.2778 23.6648 24.8242 22.2517C25.0829 21.5821 25.2637 20.8179 25.313 19.7005C25.3623 18.579 25.3746 18.2217 25.3746 15.3666C25.3746 12.5115 25.3704 12.1541 25.3212 11.0326ZM23.4275 19.6184C23.3822 20.6454 23.2097 21.2 23.0659 21.5697C22.7126 22.4858 21.9855 23.2129 21.0693 23.5663C20.6996 23.7101 20.141 23.8826 19.118 23.9277C18.0089 23.9771 17.6762 23.9893 14.8704 23.9893C12.0645 23.9893 11.7277 23.9771 10.6226 23.9277C9.59555 23.8826 9.04096 23.7101 8.67124 23.5663C8.21534 23.3978 7.80037 23.1308 7.46354 22.7816C7.11435 22.4406 6.84733 22.0298 6.67884 21.5739C6.53506 21.2042 6.36255 20.6454 6.31746 19.6226C6.26803 18.5134 6.25584 18.1806 6.25584 15.3747C6.25584 12.5689 6.26803 12.2321 6.31746 11.1271C6.36255 10.1001 6.53506 9.5455 6.67884 9.17578C6.84733 8.71972 7.11435 8.3049 7.46771 7.96792C7.80855 7.61873 8.21935 7.35171 8.67541 7.18338C9.04514 7.03959 9.60389 6.86709 10.6267 6.82184C11.7359 6.77257 12.0687 6.76022 14.8744 6.76022C17.6844 6.76022 18.017 6.77257 19.1222 6.82184C20.1492 6.86709 20.7038 7.03959 21.0735 7.18338C21.5294 7.35171 21.9444 7.61873 22.2812 7.96792C22.6304 8.30892 22.8974 8.71972 23.0659 9.17578C23.2097 9.5455 23.3822 10.1041 23.4275 11.1271C23.4767 12.2363 23.4891 12.5689 23.4891 15.3747C23.4891 18.1806 23.4767 18.5092 23.4275 19.6184ZM14.8661 9.9645C11.8837 9.9645 9.46397 12.3841 9.46397 15.3666C9.46397 18.3491 11.8837 20.7687 14.8661 20.7687C17.8486 20.7687 20.2681 18.3491 20.2681 15.3666C20.2681 12.3841 17.8486 9.9645 14.8661 9.9645ZM14.8661 18.8708C12.9313 18.8708 11.3619 17.3015 11.3619 15.3666C11.3619 13.4316 12.9313 11.8624 14.8661 11.8624C16.801 11.8624 18.3702 13.4316 18.3702 15.3666C18.3702 17.3015 16.801 18.8708 14.8661 18.8708ZM20.4812 11.012C21.1778 11.012 21.7425 10.4473 21.7425 9.75088C21.7425 9.05428 21.1778 8.48974 20.4812 8.48974C19.7848 8.48974 19.2201 9.05428 19.2201 9.75088C19.2201 10.4473 19.7848 11.012 20.4812 11.012Z" fill="black"/>
</svg>
