<svg width="153" height="29" viewBox="0 0 153 29" fill="none" xmlns="http://www.w3.org/2000/svg">
<rect width="153" height="28.05" fill="black"/>
<path d="M20.6514 22V6.25195H23.7881L27.5156 17.4023C27.8594 18.4408 28.11 19.2178 28.2676 19.7334C28.4466 19.1605 28.7259 18.319 29.1055 17.209L32.876 6.25195H35.6797V22H33.6709V8.81934L29.0947 22H27.2148L22.6602 8.59375V22H20.6514ZM38.4082 14.3301C38.4082 11.7161 39.11 9.67155 40.5137 8.19629C41.9173 6.71387 43.7292 5.97266 45.9492 5.97266C47.403 5.97266 48.7135 6.31999 49.8809 7.01465C51.0482 7.70931 51.9362 8.67969 52.5449 9.92578C53.1608 11.1647 53.4688 12.5719 53.4688 14.1475C53.4688 15.7445 53.1465 17.1732 52.502 18.4336C51.8574 19.694 50.9443 20.6501 49.7627 21.3018C48.5811 21.9463 47.3063 22.2686 45.9385 22.2686C44.4561 22.2686 43.1312 21.9105 41.9639 21.1943C40.7965 20.4782 39.9121 19.5007 39.3105 18.2617C38.709 17.0228 38.4082 15.7122 38.4082 14.3301ZM40.5566 14.3623C40.5566 16.2601 41.0651 17.7568 42.082 18.8525C43.1061 19.9411 44.388 20.4854 45.9277 20.4854C47.4961 20.4854 48.7852 19.9339 49.7949 18.8311C50.8118 17.7282 51.3203 16.1634 51.3203 14.1367C51.3203 12.8548 51.1019 11.7376 50.665 10.7852C50.2354 9.82552 49.6016 9.08431 48.7637 8.56152C47.9329 8.03158 46.9984 7.7666 45.96 7.7666C44.4847 7.7666 43.2135 8.27507 42.1465 9.29199C41.0866 10.3018 40.5566 11.9919 40.5566 14.3623ZM55.4561 16.9404L57.4219 16.7686C57.515 17.5563 57.7298 18.2044 58.0664 18.7129C58.4102 19.2142 58.9401 19.6224 59.6562 19.9375C60.3724 20.2454 61.1781 20.3994 62.0732 20.3994C62.8682 20.3994 63.57 20.2812 64.1787 20.0449C64.7874 19.8086 65.2386 19.4863 65.5322 19.0781C65.833 18.6628 65.9834 18.2116 65.9834 17.7246C65.9834 17.2305 65.8402 16.8008 65.5537 16.4355C65.2673 16.0632 64.7946 15.7516 64.1357 15.501C63.7132 15.3363 62.7786 15.082 61.332 14.7383C59.8854 14.3874 58.8721 14.0579 58.292 13.75C57.54 13.3561 56.9779 12.8691 56.6055 12.2891C56.2402 11.7018 56.0576 11.0465 56.0576 10.3232C56.0576 9.52832 56.2832 8.78711 56.7344 8.09961C57.1855 7.40495 57.8444 6.87858 58.7109 6.52051C59.5775 6.16243 60.5407 5.9834 61.6006 5.9834C62.7679 5.9834 63.7956 6.17318 64.6836 6.55273C65.5788 6.92513 66.2663 7.47656 66.7461 8.20703C67.2259 8.9375 67.4837 9.76465 67.5195 10.6885L65.5215 10.8389C65.4141 9.84342 65.0488 9.09147 64.4258 8.58301C63.8099 8.07454 62.8968 7.82031 61.6865 7.82031C60.4261 7.82031 59.5059 8.05306 58.9258 8.51855C58.3529 8.97689 58.0664 9.5319 58.0664 10.1836C58.0664 10.7493 58.2705 11.2148 58.6787 11.5801C59.0798 11.9453 60.1253 12.3213 61.8154 12.708C63.5127 13.0876 64.6764 13.4206 65.3066 13.707C66.2233 14.1296 66.9001 14.6667 67.3369 15.3184C67.7738 15.9629 67.9922 16.7077 67.9922 17.5527C67.9922 18.3906 67.7523 19.182 67.2725 19.9268C66.7926 20.6644 66.1016 21.2409 65.1992 21.6562C64.304 22.0645 63.2943 22.2686 62.1699 22.2686C60.7448 22.2686 59.5488 22.0609 58.582 21.6455C57.6224 21.2301 56.8669 20.6071 56.3154 19.7764C55.7712 18.9385 55.4847 17.9932 55.4561 16.9404ZM70.7529 22V6.25195H76.6611C77.8643 6.25195 78.8275 6.41309 79.5508 6.73535C80.2812 7.05046 80.8506 7.54102 81.2588 8.20703C81.6742 8.86589 81.8818 9.55697 81.8818 10.2803C81.8818 10.9535 81.6992 11.5872 81.334 12.1816C80.9688 12.776 80.4173 13.2559 79.6797 13.6211C80.6322 13.9004 81.3626 14.3766 81.8711 15.0498C82.3867 15.723 82.6445 16.5179 82.6445 17.4346C82.6445 18.1722 82.487 18.8597 82.1719 19.4971C81.8639 20.1273 81.4808 20.6143 81.0225 20.958C80.5641 21.3018 79.9876 21.5632 79.293 21.7422C78.6055 21.9141 77.7604 22 76.7578 22H70.7529ZM72.8369 12.8691H76.2422C77.166 12.8691 77.8285 12.8083 78.2295 12.6865C78.7594 12.529 79.1569 12.2676 79.4219 11.9023C79.694 11.5371 79.8301 11.0788 79.8301 10.5273C79.8301 10.0046 79.7048 9.54622 79.4541 9.15234C79.2035 8.7513 78.8454 8.47917 78.3799 8.33594C77.9144 8.18555 77.1159 8.11035 75.9844 8.11035H72.8369V12.8691ZM72.8369 20.1416H76.7578C77.431 20.1416 77.9036 20.1165 78.1758 20.0664C78.6556 19.9805 79.0566 19.8372 79.3789 19.6367C79.7012 19.4362 79.9661 19.1462 80.1738 18.7666C80.3815 18.3799 80.4854 17.9359 80.4854 17.4346C80.4854 16.8473 80.335 16.3389 80.0342 15.9092C79.7334 15.4723 79.3145 15.168 78.7773 14.9961C78.2474 14.8171 77.4811 14.7275 76.4785 14.7275H72.8369V20.1416ZM95.8467 6.25195H97.9307V15.3506C97.9307 16.9333 97.7516 18.1901 97.3936 19.1211C97.0355 20.0521 96.3874 20.8112 95.4492 21.3984C94.5182 21.9785 93.2936 22.2686 91.7754 22.2686C90.3001 22.2686 89.0934 22.0143 88.1553 21.5059C87.2171 20.9974 86.5475 20.2633 86.1465 19.3037C85.7454 18.3369 85.5449 17.0192 85.5449 15.3506V6.25195H87.6289V15.3398C87.6289 16.7077 87.7542 17.7174 88.0049 18.3691C88.2627 19.0137 88.6995 19.5114 89.3154 19.8623C89.9385 20.2132 90.6976 20.3887 91.5928 20.3887C93.1253 20.3887 94.2174 20.0413 94.8691 19.3467C95.5208 18.652 95.8467 17.3164 95.8467 15.3398V6.25195ZM101.766 22V6.25195H103.85V22H101.766ZM107.448 22V6.25195H109.532V20.1416H117.288V22H107.448ZM119.78 22V6.25195H125.205C126.43 6.25195 127.364 6.32715 128.009 6.47754C128.911 6.68522 129.681 7.0612 130.318 7.60547C131.149 8.30729 131.769 9.20605 132.177 10.3018C132.592 11.3903 132.8 12.6364 132.8 14.04C132.8 15.236 132.66 16.2959 132.381 17.2197C132.102 18.1436 131.743 18.9098 131.307 19.5186C130.87 20.1201 130.39 20.5964 129.867 20.9473C129.352 21.291 128.725 21.5524 127.987 21.7314C127.257 21.9105 126.415 22 125.463 22H119.78ZM121.864 20.1416H125.227C126.265 20.1416 127.078 20.0449 127.665 19.8516C128.259 19.6582 128.732 19.3861 129.083 19.0352C129.577 18.541 129.96 17.8786 130.232 17.0479C130.512 16.21 130.651 15.1966 130.651 14.0078C130.651 12.3607 130.379 11.0967 129.835 10.2158C129.298 9.3278 128.643 8.7334 127.869 8.43262C127.311 8.21777 126.412 8.11035 125.173 8.11035H121.864V20.1416Z" fill="white"/>
</svg>
