<svg width="20" height="20" viewBox="0 0 20 20" fill="none" xmlns="http://www.w3.org/2000/svg">
<g clip-path="url(#clip0)">
<path d="M9.79525 11.9825L16.2581 18.7124C16.436 18.8976 16.6733 18.9997 16.9264 19C17.1796 19 17.4173 18.8979 17.5949 18.7124L18.1611 18.1227C18.3394 17.9373 18.4371 17.6901 18.4371 17.4262C18.4371 17.1628 18.3394 16.9157 18.1611 16.7302L11.6987 10.0003L18.1611 3.27005C18.3394 3.08493 18.4371 2.83761 18.4371 2.5739C18.4371 2.31049 18.3394 2.06317 18.1611 1.87805L17.5949 1.288C17.2262 0.904 16.6264 0.904 16.2581 1.288L9.79525 8.0181L3.33272 1.288C3.15453 1.10273 2.91718 1.00073 2.66409 1.00073C2.41101 1.00073 2.17366 1.10273 1.99561 1.288L1.42943 1.8779C1.25124 2.06302 1.15343 2.31049 1.15343 2.57376C1.15343 2.83746 1.25124 3.08478 1.42943 3.2699L7.89196 10.0001L1.42943 16.7301C1.25124 16.9155 1.15343 17.1627 1.15343 17.4261L1.15343 17.4264C1.15343 17.69 1.25124 17.9371 1.42943 18.1225L1.99561 18.7123C2.17351 18.8974 2.411 18.9996 2.66409 18.9996C2.91718 18.9996 3.15453 18.8974 3.33258 18.7123L9.79525 11.9825Z" fill="white"/>
</g>
<defs>
<clipPath id="clip0">
<rect width="20" height="19.2053" fill="white" transform="translate(19.3973) rotate(90)"/>
</clipPath>
</defs>
</svg>
