<svg width="50" height="51" viewBox="0 0 50 51" fill="none" xmlns="http://www.w3.org/2000/svg">
<path fill-rule="evenodd" clip-rule="evenodd" d="M46.338 13.9856L38.9135 10.1524L25 3L11.1016 10.1671L3.66197 13.9856L11.1016 17.8189L24.7133 24.8244C24.9095 24.751 25.1207 24.751 25.3169 24.8244L38.9286 17.8189L46.338 13.9856ZM31.4738 13.9856L25 10.6518L18.5262 13.9856L25 17.3195L31.4738 13.9856ZM20.7445 46.3404L23.9738 48V44.4311V26.7043L5.72938 17.3048L2.5 15.6452V19.2141V36.9409L20.7445 46.3404ZM20.7445 42.7715V28.5989L5.74447 20.8737V35.0463L20.7445 42.7715ZM26.0262 26.7043L47.5 15.6452V36.9409L26.0262 48V26.7043Z" fill="white"/>
</svg>
