<svg width="41" height="41" viewBox="0 0 41 41" fill="none" xmlns="http://www.w3.org/2000/svg">
<path d="M19.1413 30.8277C19.3197 31.0061 19.5316 31.1477 19.7648 31.2443C19.9979 31.3409 20.2479 31.3906 20.5003 31.3906C20.7527 31.3906 21.0026 31.3409 21.2358 31.2443C21.4689 31.1477 21.6808 31.0061 21.8593 30.8277L29.1071 23.5799C29.4675 23.2195 29.67 22.7306 29.67 22.2209C29.67 21.7112 29.4675 21.2224 29.1071 20.862C28.7466 20.5015 28.2578 20.2991 27.7481 20.2991C27.2384 20.2991 26.7495 20.5015 26.3891 20.862L22.4221 24.8289V3.84375C22.4221 3.33404 22.2197 2.8452 21.8592 2.48478C21.4988 2.12436 21.01 1.92188 20.5003 1.92188C19.9905 1.92188 19.5017 2.12436 19.1413 2.48478C18.7809 2.8452 18.5784 3.33404 18.5784 3.84375V24.8289L14.6114 20.862C14.251 20.5015 13.7621 20.2991 13.2524 20.2991C12.7427 20.2991 12.2539 20.5015 11.8935 20.862C11.533 21.2224 11.3306 21.7112 11.3306 22.2209C11.3306 22.7306 11.533 23.2195 11.8935 23.5799L19.1413 30.8277Z" fill="white"/>
<path d="M37.1562 18.5781C36.6465 18.5781 36.1577 18.7806 35.7973 19.141C35.4369 19.5015 35.2344 19.9903 35.2344 20.5V35.2344H5.76562V20.5C5.76562 19.9903 5.56314 19.5015 5.20272 19.141C4.8423 18.7806 4.35346 18.5781 3.84375 18.5781C3.33404 18.5781 2.8452 18.7806 2.48478 19.141C2.12436 19.5015 1.92188 19.9903 1.92188 20.5V35.875C1.92188 36.7245 2.25935 37.5392 2.86005 38.14C3.46075 38.7407 4.27548 39.0781 5.125 39.0781H35.875C36.7245 39.0781 37.5392 38.7407 38.14 38.14C38.7407 37.5392 39.0781 36.7245 39.0781 35.875V20.5C39.0781 19.9903 38.8756 19.5015 38.5152 19.141C38.1548 18.7806 37.666 18.5781 37.1562 18.5781Z" fill="white"/>
</svg>
