<svg width="40" height="40" viewBox="0 0 40 40" fill="none" xmlns="http://www.w3.org/2000/svg">
<ellipse cx="20" cy="19.5" rx="18" ry="17.5" fill="white"/>
<path d="M23.4453 19.5C23.4453 21.35 21.9028 22.8496 20 22.8496C18.0972 22.8496 16.5547 21.35 16.5547 19.5C16.5547 17.65 18.0972 16.1504 20 16.1504C21.9028 16.1504 23.4453 17.65 23.4453 19.5Z" fill="#E7A43F"/>
<path d="M28.0575 13.5734C27.8919 13.1371 27.6277 12.7421 27.2843 12.418C26.9509 12.0842 26.545 11.8273 26.0959 11.6663C25.7317 11.5287 25.1846 11.3651 24.1769 11.3205C23.0867 11.2721 22.7599 11.2617 20.0001 11.2617C17.2401 11.2617 16.9132 11.2719 15.8234 11.3202C14.8157 11.3651 14.2683 11.5287 13.9044 11.6663C13.4553 11.8273 13.0491 12.0842 12.7159 12.418C12.3726 12.7421 12.1084 13.1368 11.9425 13.5734C11.801 13.9275 11.6327 14.4597 11.5868 15.4394C11.5371 16.499 11.5264 16.8167 11.5264 19.5001C11.5264 22.1832 11.5371 22.501 11.5868 23.5608C11.6327 24.5405 11.801 25.0724 11.9425 25.4265C12.1084 25.8631 12.3723 26.2578 12.7156 26.582C13.0491 26.9157 13.455 27.1726 13.9041 27.3336C14.2683 27.4714 14.8157 27.6351 15.8234 27.6797C16.9132 27.7281 17.2398 27.7382 19.9998 27.7382C22.7602 27.7382 23.087 27.7281 24.1766 27.6797C25.1843 27.6351 25.7317 27.4714 26.0959 27.3336C26.9973 26.9956 27.7098 26.3029 28.0575 25.4265C28.1989 25.0724 28.3673 24.5405 28.4135 23.5608C28.4632 22.501 28.4736 22.1832 28.4736 19.5001C28.4736 16.8167 28.4632 16.499 28.4135 15.4394C28.3676 14.4597 28.1992 13.9275 28.0575 13.5734V13.5734ZM20.0001 24.6599C17.0687 24.6599 14.6924 22.3498 14.6924 19.4998C14.6924 16.6498 17.0687 14.3398 20.0001 14.3398C22.9313 14.3398 25.3076 16.6498 25.3076 19.4998C25.3076 22.3498 22.9313 24.6599 20.0001 24.6599ZM25.5175 15.3417C24.8325 15.3417 24.2771 14.8017 24.2771 14.1357C24.2771 13.4698 24.8325 12.9298 25.5175 12.9298C26.2025 12.9298 26.7578 13.4698 26.7578 14.1357C26.7575 14.8017 26.2025 15.3417 25.5175 15.3417Z" fill="#E7A43F"/>
<path d="M20 2C10.0604 2 2 9.83649 2 19.5C2 29.1635 10.0604 37 20 37C29.9396 37 38 29.1635 38 19.5C38 9.83649 29.9396 2 20 2ZM30.2736 23.643C30.2236 24.7127 30.0486 25.443 29.7932 26.0823C29.2563 27.4321 28.1587 28.4991 26.7703 29.0212C26.1131 29.2695 25.3616 29.4393 24.2616 29.4882C23.1594 29.5371 22.8073 29.5488 20.0003 29.5488C17.193 29.5488 16.8412 29.5371 15.7387 29.4882C14.6387 29.4393 13.8872 29.2695 13.2299 29.0212C12.54 28.7688 11.9154 28.3734 11.3991 27.862C10.8734 27.3603 10.4666 26.7528 10.2071 26.0823C9.95163 25.4433 9.77667 24.7127 9.72668 23.6432C9.67587 22.5714 9.66406 22.229 9.66406 19.5C9.66406 16.771 9.67587 16.4286 9.72641 15.357C9.7764 14.2873 9.95108 13.557 10.2065 12.9177C10.4661 12.2472 10.8731 11.6397 11.3991 11.138C11.9152 10.6266 12.54 10.2312 13.2297 9.97882C13.8872 9.73048 14.6384 9.56065 15.7387 9.51179C16.8409 9.46292 17.193 9.45117 20 9.45117C22.807 9.45117 23.1591 9.46292 24.2613 9.51205C25.3616 9.56065 26.1128 9.73048 26.7703 9.97855C27.46 10.2309 28.0848 10.6266 28.6012 11.138C29.1269 11.64 29.5339 12.2472 29.7932 12.9177C30.0489 13.557 30.2236 14.2873 30.2739 15.357C30.3241 16.4286 30.3359 16.771 30.3359 19.5C30.3359 22.229 30.3241 22.5714 30.2736 23.643V23.643Z" fill="#E7A43F"/>
</svg>
