<svg width="40" height="40" viewBox="0 0 40 40" fill="none" xmlns="http://www.w3.org/2000/svg">
<path d="M20.0002 8.29999C15.6993 8.29999 12.2002 11.7461 12.2002 15.9818C12.2002 21.3057 20.0079 30.4 20.0079 30.4C20.0079 30.4 27.8002 21.0439 27.8002 15.9818C27.8002 11.7461 24.3012 8.29999 20.0002 8.29999ZM22.3536 18.2311C21.7047 18.8701 20.8525 19.1896 20.0002 19.1896C19.148 19.1896 18.2956 18.8701 17.6469 18.2311C16.3492 16.9532 16.3492 14.8737 17.6469 13.5957C18.2753 12.9765 19.1112 12.6355 20.0002 12.6355C20.8892 12.6355 21.725 12.9767 22.3536 13.5957C23.6513 14.8737 23.6513 16.9532 22.3536 18.2311Z" fill="#FF4D00"/>
</svg>
