<svg width="20" height="23" viewBox="0 0 20 23" fill="none" xmlns="http://www.w3.org/2000/svg">
<path d="M18.9966 21.3098L17.416 6.11045C17.3828 5.79226 17.1172 5.55065 16.8003 5.55065H13.8294V4.86668C13.8294 2.73467 12.1115 1 10.0001 1C7.8885 1 6.17059 2.73467 6.17059 4.86668V5.55065H3.19966C2.8828 5.55065 2.61719 5.79226 2.58403 6.11045L1.00336 21.3098C0.985114 21.4859 1.04176 21.6616 1.15902 21.7933C1.27643 21.9249 1.44367 22 1.619 22H18.3808C18.5563 22 18.7236 21.9249 18.8408 21.7933C18.9584 21.6616 19.0149 21.4859 18.9966 21.3098ZM7.40853 4.86668C7.40853 3.42393 8.5711 2.25002 10.0001 2.25002C11.4289 2.25002 12.5915 3.42393 12.5915 4.86668V5.55065H7.40853V4.86668Z" fill="white" stroke="white" stroke-width="0.2"/>
</svg>
