<svg width="18" height="20" viewBox="0 0 18 20" fill="none" xmlns="http://www.w3.org/2000/svg">
<path d="M0.100098 6.07986C0.190098 5.51986 0.350098 4.97986 0.660098 4.49986C1.3501 3.41986 2.3301 2.79986 3.6101 2.67986C5.5801 2.48986 7.3501 3.88986 7.7301 5.79986C8.1601 7.97986 6.6601 10.0999 4.4701 10.3999C2.3901 10.6799 0.510098 9.27986 0.130098 7.16986C0.120098 7.11986 0.110098 7.06986 0.100098 7.02986C0.100098 6.70986 0.100098 6.39986 0.100098 6.07986ZM5.7301 6.53986C5.7301 5.54986 4.9301 4.72986 3.9501 4.72986C2.9701 4.72986 2.1601 5.54986 2.1601 6.52986C2.1601 7.52986 2.9601 8.33986 3.9501 8.33986C4.9401 8.33986 5.7301 7.53986 5.7301 6.53986Z" fill="black"/>
<path d="M13.7602 2.56994C13.7702 2.76994 13.6902 2.94994 13.5902 3.12994C12.1002 6.07994 10.6102 9.02994 9.12022 11.9799C8.13022 13.9399 7.14022 15.9099 6.14022 17.8699C5.82022 18.5099 5.14022 18.6899 4.58022 18.2899C4.22022 18.0399 4.06022 17.5299 4.22022 17.1199C4.36022 16.7399 4.57022 16.3999 4.75022 16.0399C6.12022 13.3199 7.49022 10.6099 8.87022 7.88994C9.83022 5.97994 10.8002 4.07994 11.7602 2.16994C11.9202 1.85994 12.1302 1.61994 12.4802 1.52994C13.1402 1.35994 13.7702 1.85994 13.7602 2.56994Z" fill="black"/>
<path d="M17.9 13.4498C17.92 15.5098 16.27 17.3498 14.04 17.3398C11.87 17.3298 10.18 15.6098 10.19 13.4498C10.19 11.2198 11.98 9.56982 14.05 9.56982C16.17 9.56982 17.9 11.2998 17.9 13.4498ZM12.26 13.4598C12.26 14.4498 13.07 15.2698 14.04 15.2698C15.02 15.2698 15.83 14.4498 15.83 13.4598C15.83 12.4598 15.03 11.6498 14.03 11.6498C13.05 11.6498 12.26 12.4498 12.26 13.4598Z" fill="black"/>
</svg>
