<svg width="40" height="40" viewBox="0 0 40 40" fill="none" xmlns="http://www.w3.org/2000/svg">
<path d="M20 11C18.22 11 16.4799 11.5278 14.9999 12.5168C13.5198 13.5057 12.3663 14.9113 11.6851 16.5558C11.0039 18.2004 10.8257 20.01 11.1729 21.7558C11.5202 23.5016 12.3774 25.1053 13.636 26.364C14.8947 27.6226 16.4984 28.4798 18.2442 28.8271C19.99 29.1743 21.7996 28.9961 23.4442 28.3149C25.0887 27.6337 26.4943 26.4802 27.4832 25.0001C28.4722 23.5201 29 21.78 29 20C29 17.6131 28.0518 15.3239 26.364 13.636C24.6761 11.9482 22.387 11 20 11V11Z" fill="#FF4D00"/>
<path d="M20.1727 20.3824C21.659 20.3824 22.8639 19.1775 22.8639 17.6912C22.8639 16.2049 21.659 15 20.1727 15C18.6863 15 17.4814 16.2049 17.4814 17.6912C17.4814 19.1775 18.6863 20.3824 20.1727 20.3824Z" fill="white"/>
<path d="M17.0089 22.4376C16.3568 22.4383 15.727 22.6754 15.2363 23.1049C15.7714 23.9267 16.5031 24.6019 17.3651 25.0693C18.2272 25.5367 19.1923 25.7815 20.1729 25.7815C21.1535 25.7815 22.1186 25.5367 22.9806 25.0693C23.8427 24.6019 24.5744 23.9267 25.1094 23.1049C24.6188 22.6754 23.989 22.4383 23.3369 22.4376H17.0089Z" fill="white"/>
</svg>
