<svg width="41" height="41" viewBox="0 0 41 41" fill="none" xmlns="http://www.w3.org/2000/svg">
<path d="M0.25 0.5H40.25V40.5H0.25V0.5Z" fill="black"/>
<path d="M20.25 8.8C15.9491 8.8 12.45 12.2461 12.45 16.4819C12.45 21.8057 20.2576 30.9 20.2576 30.9C20.2576 30.9 28.05 21.5439 28.05 16.4819C28.05 12.2461 24.551 8.8 20.25 8.8ZM22.6034 18.7311C21.9544 19.3701 21.1023 19.6896 20.25 19.6896C19.3978 19.6896 18.5453 19.3701 17.8967 18.7311C16.5989 17.4532 16.5989 15.3738 17.8967 14.0957C18.525 13.4766 19.3609 13.1356 20.25 13.1356C21.139 13.1356 21.9747 13.4767 22.6034 14.0957C23.9011 15.3738 23.9011 17.4532 22.6034 18.7311Z" fill="white"/>
<path d="M0.25 0.5V-0.5H-0.75V0.5H0.25ZM40.25 0.5H41.25V-0.5H40.25V0.5ZM40.25 40.5V41.5H41.25V40.5H40.25ZM0.25 40.5H-0.75V41.5H0.25V40.5ZM0.25 1.5H40.25V-0.5H0.25V1.5ZM39.25 0.5V40.5H41.25V0.5H39.25ZM40.25 39.5H0.25V41.5H40.25V39.5ZM1.25 40.5V0.5H-0.75V40.5H1.25Z" fill="black"/>
</svg>
