<svg width="26" height="26" viewBox="0 0 26 26" fill="none" xmlns="http://www.w3.org/2000/svg">
<path d="M13 1.29999C8.69906 1.29999 5.19995 4.7461 5.19995 8.98184C5.19995 14.3057 13.0076 23.4 13.0076 23.4C13.0076 23.4 20.8 14.0439 20.8 8.98184C20.8 4.7461 17.301 1.29999 13 1.29999ZM15.3534 11.2311C14.7044 11.8701 13.8523 12.1896 13 12.1896C12.1478 12.1896 11.2953 11.8701 10.6467 11.2311C9.34895 9.95317 9.34895 7.87374 10.6467 6.59568C11.275 5.97654 12.1109 5.63555 13 5.63555C13.889 5.63555 14.7247 5.97668 15.3534 6.59568C16.6511 7.87374 16.6511 9.95317 15.3534 11.2311Z" fill="#FF0000"/>
</svg>
