<svg width="160" height="62" viewBox="0 0 160 62" fill="none" xmlns="http://www.w3.org/2000/svg">
<g clip-path="url(#clip0)">
<path d="M10.689 12.0058C15.7962 12.0058 18.8413 13.796 20.4238 15.2553C22.1502 16.8509 23.9149 19.721 23.9149 24.3765C23.9149 29.6691 21.6418 33.8819 17.489 35.8228C16.1654 36.4552 14.2569 37.0147 10.689 37.0147H0.690544C0.507788 37.0134 0.332875 36.9392 0.203644 36.8081C0.0744129 36.677 0.0012561 36.4995 0 36.3142L0 35.8861C0.0047762 35.6961 0.0774556 35.5144 0.204498 35.3748C0.331541 35.2352 0.504283 35.1472 0.690544 35.1272L1.52016 35.0591C1.87437 35.0337 2.2147 34.9091 2.50322 34.6991C2.69647 34.413 2.79705 34.073 2.79095 33.7262V15.3186C2.80148 14.9621 2.70078 14.6114 2.50322 14.3165C2.22052 14.1141 1.88912 13.9931 1.54413 13.9662L0.714521 13.8933C0.523961 13.8789 0.345424 13.7933 0.213441 13.6532C0.0814586 13.513 0.00540855 13.3281 0 13.1344L0 12.7063C0.0012561 12.5209 0.0744129 12.3435 0.203644 12.2124C0.332875 12.0813 0.507788 12.0071 0.690544 12.0058H10.689ZM7.63914 34.1883C7.6404 34.3737 7.71356 34.5512 7.84279 34.6823C7.97202 34.8133 8.14693 34.8876 8.32969 34.8888H9.11134C9.48539 34.8888 10.1088 34.8888 10.4876 34.8402C10.4876 34.8402 14.4966 34.5532 16.3716 32.2425C18.2467 29.9318 18.4049 26.2688 18.4049 24.4202C18.4049 22.1436 18.1124 18.8649 16.3093 16.739C14.2569 14.3067 11.2789 14.1316 9.77312 14.1316H8.33448C8.15173 14.1329 7.97681 14.2071 7.84758 14.3382C7.71835 14.4693 7.64519 14.6467 7.64394 14.8321L7.63914 34.1883Z" fill="black"/>
<path d="M34.6136 18.4514C34.7964 18.4527 34.9713 18.5269 35.1005 18.658C35.2298 18.7891 35.3029 18.9665 35.3042 19.1519V19.5459C35.3029 19.7309 35.2296 19.9078 35.1002 20.0381C34.9709 20.1684 34.796 20.2416 34.6136 20.2416H33.7505C33.4582 20.2232 33.1658 20.2748 32.8969 20.3924C32.7667 20.654 32.7087 20.9465 32.729 21.2388V34.2273C32.7169 34.5426 32.7742 34.8567 32.8969 35.1467C33.1481 35.3173 33.4491 35.3962 33.7505 35.3704H34.6136C34.796 35.3704 34.9709 35.4436 35.1002 35.5739C35.2296 35.7042 35.3029 35.8811 35.3042 36.0661V36.3142C35.3029 36.4996 35.2298 36.677 35.1005 36.8081C34.9713 36.9392 34.7964 37.0134 34.6136 37.0147H26.073C25.8906 37.0134 25.7162 36.939 25.5878 36.8078C25.4593 36.6765 25.3872 36.4991 25.3872 36.3142V35.9201C25.3872 35.8288 25.4049 35.7383 25.4394 35.6539C25.4739 35.5695 25.5244 35.4928 25.5881 35.4282C25.6517 35.3636 25.7273 35.3124 25.8105 35.2774C25.8937 35.2425 25.9829 35.2245 26.073 35.2245H26.9409C27.2397 35.2482 27.5395 35.1964 27.8137 35.0737C27.9477 34.8134 28.0059 34.5198 27.9815 34.2273V21.2388C27.9986 20.9231 27.941 20.6079 27.8137 20.3194C27.5649 20.1473 27.2649 20.0682 26.9649 20.0956H26.073C25.8915 20.0943 25.7178 20.0206 25.5894 19.8905C25.4611 19.7603 25.3885 19.5841 25.3872 19.4V19.1519C25.3872 18.9669 25.4593 18.7895 25.5878 18.6583C25.7162 18.527 25.8906 18.4527 26.073 18.4514H34.6136Z" fill="black"/>
<path d="M45.7054 18.4514C45.8874 18.4539 46.0611 18.5287 46.1893 18.6597C46.3175 18.7906 46.39 18.9673 46.3912 19.1519V19.4C46.3872 19.5879 46.315 19.7677 46.1885 19.9051C46.062 20.0424 45.89 20.1275 45.7054 20.1443L45.1636 20.188C44.887 20.1874 44.6149 20.2577 44.3723 20.3924C44.3397 20.6665 44.3934 20.944 44.5258 21.1853L48.8033 31.4885C48.952 31.8436 49.1869 31.8387 49.3308 31.4885L53.4789 21.195C53.6018 20.9487 53.6534 20.6721 53.6275 20.3972C53.3832 20.2627 53.1095 20.1925 52.8315 20.1929L52.1841 20.1491C51.9995 20.1324 51.8275 20.0472 51.701 19.9099C51.5745 19.7726 51.5023 19.5928 51.4983 19.4048V19.1568C51.4983 18.9718 51.5704 18.7944 51.6989 18.6631C51.8274 18.5319 52.0018 18.4575 52.1841 18.4562H58.2647C58.447 18.4575 58.6214 18.5319 58.7499 18.6631C58.8784 18.7944 58.9505 18.9718 58.9505 19.1568V19.4048C58.946 19.5963 58.8753 19.7801 58.7509 19.9242C58.6264 20.0682 58.4561 20.1633 58.2695 20.1929L57.579 20.2999C57.373 20.3398 57.1791 20.4278 57.0126 20.557C56.8461 20.6862 56.7117 20.853 56.6199 21.0442L50.2515 36.4844C50.164 36.6695 50.0285 36.8271 49.8596 36.9401C49.6907 37.0532 49.4946 37.1177 49.2924 37.1266H47.0434C46.8416 37.1161 46.6462 37.0511 46.4775 36.9382C46.3089 36.8252 46.1731 36.6686 46.0843 36.4844L39.5721 21.0345C39.4788 20.8449 39.3438 20.6796 39.1775 20.5514C39.0112 20.4231 38.818 20.3354 38.613 20.2951L37.8841 20.188C37.6979 20.1576 37.5281 20.0622 37.4038 19.9183C37.2795 19.7745 37.2085 19.5912 37.2031 19.4V19.1519C37.2031 18.9678 37.2745 18.7911 37.402 18.66C37.5294 18.5289 37.7026 18.4539 37.8841 18.4514H45.7054Z" fill="black"/>
<path d="M67.5484 18.4514C67.7307 18.4527 67.9051 18.527 68.0336 18.6583C68.162 18.7895 68.2341 18.9669 68.2341 19.1519V34.2321C68.2209 34.547 68.2766 34.861 68.3972 35.1515C68.6504 35.3218 68.9528 35.4006 69.2555 35.3753H70.1907C70.3721 35.3766 70.5458 35.4503 70.6742 35.5805C70.8025 35.7106 70.8752 35.8868 70.8764 36.0709V36.319C70.8764 36.504 70.8043 36.6814 70.6758 36.8126C70.5474 36.9439 70.373 37.0182 70.1907 37.0195H61.5589C61.3808 37.0107 61.2129 36.9324 61.0905 36.8009C60.968 36.6695 60.9004 36.495 60.9019 36.3142V35.9201C60.9019 35.7365 60.9735 35.5603 61.101 35.43C61.2286 35.2996 61.4018 35.2258 61.5828 35.2245H62.4508C62.7415 35.2427 63.0323 35.191 63.2996 35.0737C63.4314 34.8126 63.4895 34.5197 63.4674 34.2273V21.2388C63.4821 20.9233 63.4247 20.6086 63.2996 20.3194C63.0486 20.148 62.7474 20.0691 62.446 20.0956H61.578C61.3978 20.0931 61.2259 20.0186 61.0993 19.8885C60.9728 19.7583 60.9019 19.5828 60.9019 19.4V19.1519C60.9019 18.9678 60.9733 18.7911 61.1007 18.66C61.2282 18.5289 61.4014 18.4539 61.5828 18.4514H67.5484Z" fill="black"/>
<path d="M80.6691 18.4514C80.8803 18.4641 81.0866 18.5213 81.2748 18.6193C81.463 18.7173 81.6291 18.8539 81.7625 19.0205L90.1545 30.7442C90.3703 31.0555 90.5525 30.9972 90.5525 30.6129V21.3166C90.574 21.0071 90.5021 20.6983 90.3463 20.4313C90.0751 20.281 89.7728 20.1977 89.4639 20.188L88.6487 20.1443C88.4642 20.1275 88.2922 20.0424 88.1656 19.9051C88.0391 19.7677 87.967 19.5879 87.963 19.4V19.1519C87.963 18.9669 88.0351 18.7895 88.1635 18.6583C88.292 18.527 88.4664 18.4527 88.6487 18.4514H95.3192C95.5019 18.4527 95.6769 18.5269 95.8061 18.658C95.9353 18.7891 96.0085 18.9665 96.0097 19.1519V19.4C96.0067 19.589 95.9342 19.7701 95.8065 19.9077C95.6788 20.0454 95.505 20.1297 95.3192 20.1443L94.619 20.188C94.3028 20.1991 93.993 20.2823 93.7127 20.4313C93.5477 20.6949 93.4704 21.0052 93.4921 21.3166V36.3142C93.4921 36.4991 93.42 36.6765 93.2916 36.8078C93.1631 36.939 92.9887 37.0134 92.8064 37.0147H90.1545C89.9424 37.0021 89.7351 36.9455 89.5454 36.8485C89.3556 36.7514 89.1876 36.6159 89.0515 36.4504L79.7436 23.71C79.5182 23.3987 79.336 23.4619 79.336 23.8462V34.1202C79.3268 34.4541 79.389 34.786 79.5182 35.0931C79.7623 35.2941 80.0726 35.3932 80.3862 35.3704H81.235C81.325 35.3698 81.4143 35.3872 81.4978 35.4215C81.5812 35.4559 81.6572 35.5066 81.7213 35.5707C81.7854 35.6349 81.8364 35.7112 81.8715 35.7954C81.9065 35.8795 81.9249 35.9699 81.9255 36.0612V36.3093C81.9243 36.4947 81.8511 36.6721 81.7219 36.8032C81.5926 36.9343 81.4177 37.0085 81.235 37.0098H74.4494C74.2671 37.0085 74.0927 36.9341 73.9642 36.8029C73.8358 36.6717 73.7637 36.4942 73.7637 36.3093V36.0612C73.7649 35.8771 73.8376 35.7009 73.9659 35.5707C74.0942 35.4405 74.2679 35.3668 74.4494 35.3656H75.2886C75.6076 35.3848 75.9228 35.2863 76.1758 35.0883C76.3173 34.7845 76.3863 34.4512 76.3772 34.1154V19.1519C76.3784 18.9673 76.4509 18.7906 76.5791 18.6597C76.7073 18.5287 76.881 18.4539 77.0629 18.4514H80.6691Z" fill="black"/>
<path d="M107.701 18.1935C107.903 18.2045 108.098 18.2697 108.266 18.3826C108.435 18.4954 108.571 18.6518 108.66 18.8357L115.282 34.4705C115.377 34.659 115.513 34.8234 115.679 34.9514C115.845 35.0794 116.037 35.1678 116.242 35.2099L116.755 35.278C116.941 35.3085 117.111 35.4038 117.235 35.5477C117.359 35.6915 117.43 35.8748 117.436 36.0661V36.3141C117.436 36.4991 117.363 36.6765 117.235 36.8078C117.107 36.939 116.932 37.0134 116.75 37.0146H109.077C108.986 37.0159 108.895 36.9988 108.81 36.9641C108.725 36.9295 108.648 36.8781 108.583 36.8129C108.517 36.7478 108.466 36.6701 108.43 36.5845C108.395 36.4989 108.377 36.407 108.377 36.3141V36.0661C108.381 35.8781 108.453 35.6983 108.58 35.561C108.706 35.4237 108.878 35.3385 109.063 35.3218L109.744 35.2731C110.012 35.284 110.277 35.2146 110.506 35.0737C110.503 34.7989 110.435 34.5289 110.31 34.2856L109.005 31.1723C108.918 30.9865 108.783 30.8284 108.614 30.7152C108.445 30.602 108.249 30.538 108.046 30.5301H103.231C103.029 30.538 102.833 30.602 102.663 30.7152C102.494 30.8284 102.359 30.9865 102.272 31.1723L101.002 34.2759C100.868 34.5187 100.813 34.7975 100.843 35.0737C101.089 35.2095 101.365 35.2782 101.644 35.2731L102.325 35.3218C102.51 35.3385 102.682 35.4237 102.808 35.561C102.935 35.6983 103.007 35.8781 103.011 36.0661V36.3141C103.011 36.4991 102.939 36.6765 102.81 36.8078C102.682 36.939 102.507 37.0134 102.325 37.0146H96.3596C96.1773 37.0134 96.0029 36.939 95.8744 36.8078C95.7459 36.6765 95.6738 36.4991 95.6738 36.3141V36.0661C95.6782 35.8758 95.7498 35.6934 95.8757 35.5523C96.0016 35.4112 96.1734 35.3207 96.3596 35.2974L96.9398 35.2245C97.1454 35.1929 97.3403 35.1107 97.5075 34.9853C97.6746 34.8598 97.809 34.6947 97.8989 34.5045L104.382 18.8357C104.472 18.6518 104.607 18.4954 104.776 18.3826C104.945 18.2697 105.14 18.2045 105.341 18.1935H107.701ZM103.534 28.0152C103.495 28.0859 103.476 28.1662 103.48 28.247C103.483 28.3279 103.509 28.4062 103.553 28.4732C103.598 28.5402 103.66 28.5934 103.733 28.6267C103.806 28.6601 103.886 28.6723 103.965 28.6621H107.701C107.777 28.6745 107.855 28.6635 107.925 28.6308C107.995 28.598 108.054 28.5448 108.094 28.4781C108.134 28.4113 108.153 28.334 108.15 28.2559C108.147 28.1778 108.121 28.1024 108.075 28.0395L105.864 23.5105C105.692 23.17 105.442 23.1797 105.298 23.5349L103.534 28.0152Z" fill="black"/>
<path d="M129.554 18.4514C132.349 18.4514 133.817 19.0108 134.349 19.2346C136.483 20.1686 137.106 21.6961 137.106 23.2235C137.106 26.4634 134.459 27.6017 132.182 27.9568C134.867 28.3314 135.634 30.2675 136.406 32.4274C137.327 34.9618 138.171 35.3461 139.931 35.3461H140.559C140.741 35.3461 140.89 35.6574 140.89 36.0466V36.2461C140.886 36.4371 140.813 36.62 140.686 36.7612C140.559 36.9025 140.387 36.9924 140.2 37.0147C140.2 37.0147 138.209 37.2092 137.73 37.2092C133.615 37.2092 132.512 35.3802 131.52 32.5149C130.748 30.2772 129.832 28.9735 127.113 28.9735C126.931 28.9735 126.782 29.2848 126.782 29.674V34.237C126.756 34.532 126.821 34.8278 126.969 35.0834C127.241 35.2102 127.537 35.2781 127.837 35.2829L128.451 35.3315C128.634 35.3494 128.805 35.435 128.931 35.5722C129.056 35.7094 129.128 35.8886 129.132 36.0758V36.3239C129.132 36.5088 129.06 36.6863 128.931 36.8175C128.803 36.9487 128.628 37.0231 128.446 37.0244H120.366C120.182 37.0244 120.007 36.9506 119.877 36.8192C119.748 36.6878 119.675 36.5097 119.675 36.3239V36.0758C119.677 35.8854 119.749 35.7026 119.876 35.5631C120.004 35.4236 120.179 35.3375 120.366 35.3218L121.013 35.2731C121.308 35.2704 121.6 35.2023 121.867 35.0737C121.998 34.8126 122.056 34.5197 122.034 34.2273V21.2388C122.057 20.9463 121.999 20.6532 121.867 20.3924C121.599 20.2639 121.309 20.1943 121.013 20.188L120.366 20.1443C120.181 20.1275 120.009 20.0424 119.883 19.9051C119.756 19.7677 119.684 19.5879 119.68 19.4V19.1519C119.681 18.9673 119.754 18.7906 119.882 18.6597C120.01 18.5287 120.184 18.4539 120.366 18.4514H129.554ZM126.801 27.1347C127.081 27.168 127.363 27.181 127.645 27.1736C130.589 27.1736 132.162 26.0158 132.162 23.7684C132.162 20.9712 129.592 20.3632 127.904 20.3632H127.492C127.309 20.3632 127.134 20.4363 127.005 20.5666C126.876 20.6969 126.802 20.8739 126.801 21.0588V27.1347Z" fill="black"/>
<path d="M158.322 18.4514C158.504 18.4539 158.677 18.5287 158.805 18.6597C158.934 18.7906 159.006 18.9673 159.007 19.1519V22.3382C159.007 22.5231 158.935 22.7006 158.807 22.8318C158.678 22.963 158.504 23.0374 158.322 23.0387H156.883C156.692 23.0317 156.508 22.9606 156.36 22.8365C156.213 22.7124 156.11 22.5424 156.068 22.3528L155.852 21.2291C155.817 20.9487 155.729 20.6778 155.593 20.4313C155.332 20.3386 155.054 20.3005 154.778 20.3194H150.577C150.487 20.3187 150.397 20.3363 150.313 20.3709C150.229 20.4056 150.153 20.4567 150.089 20.5214C150.025 20.5861 149.974 20.663 149.939 20.7477C149.904 20.8324 149.886 20.9233 149.886 21.015V25.7823C149.89 25.9651 149.965 26.1391 150.094 26.2665C150.223 26.394 150.397 26.4647 150.577 26.4634H152.653C152.936 26.4811 153.219 26.4431 153.488 26.3515C153.63 26.1072 153.712 25.832 153.728 25.5488L153.833 24.7705C153.865 24.5808 153.961 24.4084 154.105 24.2824C154.248 24.1564 154.43 24.0848 154.62 24.0797H155.699C155.881 24.0797 156.056 24.1528 156.185 24.2832C156.314 24.4135 156.388 24.5904 156.389 24.7754V30.0145C156.388 30.1999 156.315 30.3773 156.185 30.5084C156.056 30.6395 155.881 30.7137 155.699 30.715H154.62C154.429 30.7097 154.247 30.6374 154.103 30.5105C153.96 30.3835 153.864 30.2099 153.833 30.0194L153.728 29.2459C153.711 28.9629 153.629 28.6879 153.488 28.4433C153.219 28.3516 152.936 28.3136 152.653 28.3314H150.577C150.487 28.3307 150.397 28.3482 150.313 28.3829C150.229 28.4176 150.153 28.4687 150.089 28.5334C150.025 28.598 149.974 28.675 149.939 28.7597C149.904 28.8444 149.886 28.9352 149.886 29.027V34.451C149.886 34.5428 149.904 34.6336 149.939 34.7184C149.974 34.8031 150.025 34.88 150.089 34.9446C150.153 35.0093 150.229 35.0604 150.313 35.0951C150.397 35.1298 150.487 35.1473 150.577 35.1467H155.775C156.056 35.1702 156.339 35.1199 156.595 35.0007C156.725 34.7375 156.812 34.455 156.854 34.164L157.176 32.5149C157.218 32.3238 157.322 32.1525 157.472 32.0283C157.621 31.904 157.807 31.8339 158 31.829H159.3C159.483 31.829 159.659 31.9028 159.788 32.0342C159.918 32.1656 159.99 32.3437 159.99 32.5295V36.3142C159.99 36.4999 159.918 36.6781 159.788 36.8095C159.659 36.9409 159.483 37.0147 159.3 37.0147H143.475C143.292 37.0134 143.117 36.9392 142.988 36.8081C142.859 36.677 142.786 36.4996 142.784 36.3142V36.0661C142.79 35.8777 142.863 35.6978 142.99 35.5606C143.117 35.4234 143.29 35.3384 143.475 35.3218L144.084 35.2731C144.385 35.2676 144.682 35.1997 144.957 35.0737C145.095 34.8149 145.157 34.5209 145.134 34.2273V21.2388C145.158 20.9468 145.101 20.6539 144.971 20.3924C144.704 20.2632 144.413 20.1936 144.118 20.188L143.475 20.1443C143.29 20.1276 143.117 20.0426 142.99 19.9054C142.863 19.7682 142.79 19.5883 142.784 19.4V19.1519C142.786 18.9665 142.859 18.7891 142.988 18.658C143.117 18.5269 143.292 18.4527 143.475 18.4514H158.322Z" fill="black"/>
<path d="M72.3824 15.6688C76.2476 15.2991 77.9595 16.8217 75.6769 17.5855C75.3472 17.6989 75.0063 17.7756 74.6603 17.8141C74.3725 17.8384 74.2143 18.1303 74.4109 18.466C74.6075 18.8016 74.8904 19.5654 74.5452 19.8816C74.4868 19.9322 74.418 19.9689 74.3437 19.989C74.2695 20.0091 74.1918 20.012 74.1163 19.9975C74.0408 19.983 73.9695 19.9515 73.9076 19.9054C73.8457 19.8592 73.7948 19.7995 73.7587 19.7308C73.6407 19.4726 73.6039 19.1839 73.6532 18.9038C73.7204 18.4611 73.6964 17.96 73.1161 17.7995C72.7055 17.6842 72.2676 17.724 71.8837 17.9114C70.8814 18.4903 71.3466 19.3075 71.6343 19.9156C71.9221 20.5237 72.2673 22.3479 70.7712 22.3479C69.5052 22.3479 69.5099 20.7718 69.86 19.8864C70.1429 19.1956 70.2724 18.6362 70.0518 18.2616C69.8312 17.8871 69.1551 17.8287 68.7475 17.7168C67.9562 17.4882 67.539 16.8315 68.9777 16.2574C68.3542 17.9211 71.5624 17.5417 72.5599 17.3325C72.9819 17.2449 73.9985 16.9531 73.8259 16.4277C73.682 16.0142 72.8044 15.6931 72.3824 15.6688Z" fill="black"/>
<path d="M59.9142 35.3899C60.3171 36.2266 60.0821 37.1557 59.2189 38.1724C58.5213 38.9404 57.7129 39.5965 56.8212 40.1183C55.3123 40.9994 53.6858 41.6547 51.9922 42.0641C51.7476 43.3581 51.5126 44.6472 51.2537 45.9558C51.0023 47.2376 50.6031 48.4851 50.0644 49.6723C49.5173 50.8609 48.6946 51.8974 47.6667 52.6932C47.511 52.8223 47.3362 52.9257 47.1488 52.9997C47.5804 52.9997 48.1558 52.9413 48.8703 52.8829C49.528 52.8574 50.167 52.6542 50.7214 52.2943C51.1272 51.8988 51.5084 51.478 51.8627 51.0344H51.9107L51.9442 51.0636C51.9453 51.1314 51.9251 51.1978 51.8867 51.2533C51.5781 51.8655 51.1151 52.3839 50.5448 52.7556C49.9745 53.1273 49.3173 53.3391 48.6402 53.3694C48.3345 53.3891 48.0277 53.3776 47.7242 53.3354C47.4266 53.3008 47.1268 53.2894 46.8275 53.3013C46.6185 53.3325 46.4118 53.378 46.2089 53.4375C45.955 53.5057 45.6971 53.5577 45.4368 53.5932C44.8661 53.6418 44.5257 53.5494 44.4106 53.3013C44.3434 53.1602 44.5401 53.0678 45.0004 53.0289C45.1874 53.0289 45.48 52.9997 45.8684 52.9997C46.2568 52.9997 46.5446 52.9997 46.7268 52.9608C47.801 52.3543 48.6402 51.1057 49.2444 49.215C49.4266 48.6362 49.7527 47.133 50.2035 44.6958C50.3346 44.0634 50.52 43.2738 50.7597 42.3268C49.8415 42.5304 48.913 42.6831 47.9784 42.7841C47.1871 44.1899 46.3767 45.5812 45.5807 46.9579C47.6763 47.2157 48.9375 47.6195 49.3355 48.1692C48.7888 47.8449 47.4845 47.5497 45.4224 47.2838C43.792 50.008 41.9569 52.0592 39.9172 53.4375C37.5547 55.059 34.5895 56.032 31.0217 56.3563C30.239 56.4288 29.4521 56.445 28.6671 56.4049C29.6262 58.3507 31.4725 59.7404 34.2059 60.5739C36.4421 61.2632 38.7885 61.5076 41.1161 61.2938C43.6097 61.0701 45.5823 60.4652 47.0337 59.4793C48.5203 58.4675 49.0046 57.4216 48.5011 56.3514C48.2926 55.9 47.9594 55.5198 47.542 55.2569C47.4474 55.2115 47.3588 55.1543 47.2783 55.0866C47.2855 55.0823 47.2938 55.0801 47.3022 55.0801C47.3106 55.0801 47.3189 55.0823 47.3262 55.0866C47.6947 55.1212 48.037 55.2948 48.2853 55.5731C48.5963 55.8166 48.8598 56.1168 49.0622 56.4584C49.5833 57.5675 49.0366 58.6394 47.4221 59.6739C45.8077 60.7085 43.7456 61.3263 41.236 61.5273C38.8209 61.7908 36.3783 61.5693 34.0476 60.8755C31.3142 60.0339 29.444 58.5551 28.4322 56.4584C26.557 56.3837 24.7158 55.9271 23.0181 55.1158C21.3313 54.3544 19.9581 53.0216 19.1338 51.3457C18.61 50.3038 18.4738 49.1052 18.7502 47.9697C19.0267 46.9242 19.6064 45.987 20.4142 45.2796C22.2684 43.5737 24.8084 42.5733 28.0341 42.2781C29.9595 42.0895 31.9022 42.2144 33.7887 42.6478C36.2152 43.2251 37.7865 44.2694 38.5026 45.7806C38.6761 46.1679 38.7909 46.5796 38.8431 47.0017C38.9102 47.0017 39.0349 47.0017 39.2171 46.9676L39.6151 46.9384C41.2364 46.7787 42.8683 46.764 44.4921 46.8946C44.8566 46.3498 45.6558 45.0364 46.8898 42.9543C44.8775 43.1126 42.8532 42.9717 40.8811 42.536C38.3012 41.9587 36.6404 40.8869 35.8987 39.3205C35.3967 38.2567 35.5198 37.3584 36.2679 36.6255C37.071 35.9236 38.0859 35.5204 39.1452 35.4823C40.3965 35.3311 41.6644 35.5401 42.8041 36.0855C43.2996 36.2866 43.7228 36.6362 44.0174 37.0876C44.0797 37.2141 44.0893 37.2773 44.0174 37.2871C43.4912 36.5662 42.7178 36.0715 41.8498 35.9007C41.0286 35.6759 40.1741 35.6034 39.3274 35.6866C38.3341 35.7111 37.382 36.094 36.642 36.7666C35.9802 37.4525 35.8843 38.3038 36.3686 39.3156C37.0879 40.8236 38.6848 41.8501 41.1641 42.4095C43.0794 42.8215 45.0428 42.9558 46.9953 42.8084C50.0037 37.3892 53.3301 34.5159 56.9746 34.1883C58.4756 34.0229 59.4635 34.4364 59.9142 35.3899ZM38.2724 45.8147C37.633 44.4461 36.1017 43.5575 33.6784 43.1489C31.9113 42.8686 30.1163 42.8163 28.3362 42.9932C25.7807 43.153 23.3116 43.9918 21.1767 45.4255C18.8557 47.0762 18.2386 49.0415 19.3256 51.3214C20.1268 52.9304 21.4565 54.2053 23.0852 54.9261C24.7348 55.6847 26.5124 56.1156 28.3219 56.1957C28.0178 55.5662 27.8649 54.8727 27.8758 54.1718C27.8866 53.4709 28.0608 52.7825 28.3842 52.163C26.3477 51.7479 25.0769 51.0166 24.5718 49.9691C24.5054 49.8113 24.4509 49.6487 24.4088 49.4826C24.3464 49.2296 24.3464 49.0983 24.4088 49.0983C24.4422 49.0933 24.4761 49.0933 24.5095 49.0983C24.5095 49.1469 24.5526 49.2831 24.6054 49.5069C24.6347 49.6419 24.6765 49.7738 24.7301 49.901C25.1093 50.5444 25.7056 51.0266 26.4085 51.2582C27.1013 51.5435 27.826 51.7411 28.5664 51.8468C29.3369 50.5496 30.7292 49.4648 32.7433 48.5924C34.6051 47.8073 36.5664 47.2914 38.5697 47.06C38.5628 46.6277 38.4612 46.2023 38.2724 45.8147ZM44.3386 47.2741C42.6914 47.1359 41.0353 47.1457 39.3897 47.3033C39.2219 47.3033 39.0445 47.3373 38.8623 47.3714C38.8623 48.7432 38.063 49.8961 36.4645 50.8301C34.9939 51.6747 33.3551 52.1734 31.6691 52.2895C30.6726 52.3867 29.6677 52.3475 28.6815 52.1727C28.3179 52.7645 28.1121 53.4419 28.0843 54.1387C28.0566 54.8354 28.2078 55.5275 28.5233 56.1471C29.3221 56.2019 30.124 56.1905 30.921 56.113C33.8903 55.9096 36.7471 54.8813 39.1787 53.1408C41.2517 51.5348 43.003 49.5419 44.3386 47.2692V47.2741ZM38.541 47.3811C36.6225 47.6106 34.7433 48.1014 32.9543 48.8405C30.9881 49.6577 29.6166 50.6728 28.8398 51.8857C31.2397 52.1026 33.6527 51.6554 35.8219 50.5917C37.5147 49.6869 38.4163 48.6459 38.541 47.3762V47.3811ZM59.6409 35.4191C59.5271 35.1955 59.3692 34.9981 59.177 34.8391C58.9848 34.6801 58.7624 34.5629 58.5236 34.4948C58.0603 34.3403 57.5699 34.2872 57.0849 34.3391C54.8399 34.5724 52.7743 35.6882 51.3304 37.4476C50.0326 39.0576 48.9193 40.812 48.012 42.677C48.9349 42.5698 49.8509 42.4074 50.7549 42.1906C51.1492 40.6557 51.7307 39.1768 52.4861 37.7881C53.5267 35.9493 54.7208 34.9764 56.0683 34.8694C56.6485 34.8207 56.9363 34.8694 56.9219 35.0153L56.8691 35.0688L56.2266 35.0202C55.7054 35.0779 55.2059 35.263 54.7707 35.5595C54.3356 35.856 53.9778 36.2552 53.7281 36.7228C53.2459 37.5929 52.8737 38.5213 52.6204 39.4859C52.3199 40.5366 52.1105 41.3474 51.9922 41.9182C53.5824 41.4597 55.1037 40.7838 56.5143 39.9091C59.1837 38.1124 60.2323 36.6141 59.6601 35.4142L59.6409 35.4191Z" fill="#E7A43F" stroke="#E7A43F" stroke-width="0.3"/>
<path d="M56.5385 50.5917C56.5385 50.6452 56.4522 50.8496 56.198 51.1949C55.8719 51.6736 55.4441 52.0719 54.9462 52.3607C54.4482 52.6494 53.8928 52.8213 53.3208 52.8635C52.5151 52.9413 51.978 52.6932 51.7047 52.1241C51.5875 51.8872 51.5652 51.6135 51.6424 51.3603C51.6779 51.2421 51.7495 51.1383 51.8469 51.064C51.9443 50.9897 52.0624 50.9487 52.1842 50.9469C52.472 50.9469 52.6638 50.9955 52.7405 51.1706C52.8172 51.3457 52.7405 51.5355 52.5439 51.7544C52.4508 51.8227 52.3825 51.9203 52.3496 52.0319C52.3166 52.1436 52.3209 52.2632 52.3617 52.3722C52.4359 52.503 52.5496 52.6062 52.686 52.6666C52.8224 52.7271 52.9743 52.7415 53.1193 52.7078C53.3026 52.6987 53.4781 52.6298 53.6197 52.5115C53.7614 52.3932 53.8617 52.2318 53.9058 52.0511C54.0139 51.659 54.0545 51.2508 54.0257 50.8447C53.9964 50.4853 54.0157 50.1236 54.0832 49.7696C53.3879 50.6209 52.9467 51.0587 52.7597 51.0733C52.7458 51.0785 52.7305 51.0785 52.7165 51.0733C52.7165 51.0004 52.9131 50.7425 53.3303 50.2901C53.6141 50.0166 53.874 49.7188 54.1072 49.3999C54.1546 49.253 54.241 49.1221 54.3569 49.0217C54.4728 48.9213 54.6137 48.8553 54.7642 48.8307C54.9368 48.8307 55.0375 48.8308 55.0567 48.8745C55.0759 48.9183 54.8985 49.1567 54.4908 49.5118C54.4381 49.5604 54.5868 49.9642 54.9368 50.7133C55.0612 50.9679 55.1128 51.2527 55.0855 51.5355C55.0753 51.7926 54.969 52.0361 54.7882 52.2165C55.2423 51.9319 55.6472 51.5736 55.987 51.156C56.2891 50.7669 56.4666 50.5674 56.5193 50.5625C56.5721 50.5577 56.5289 50.5625 56.5385 50.5917Z" fill="#E7A43F" stroke="#E7A43F" stroke-width="0.3"/>
<path d="M61.0554 50.1685C61.0794 50.2269 60.9691 50.4312 60.7197 50.7717C60.3882 51.2524 59.9554 51.6523 59.4529 51.9425C58.9503 52.2328 58.3904 52.4061 57.8137 52.45C57.0081 52.523 56.4758 52.2749 56.1976 51.7009C56.1376 51.5842 56.1015 51.4563 56.0917 51.325C56.0818 51.1937 56.0982 51.0618 56.1401 50.9371C56.1756 50.8202 56.2466 50.7176 56.3431 50.6442C56.4396 50.5708 56.5566 50.5303 56.6772 50.5285C56.9649 50.4993 57.1567 50.5772 57.2335 50.7523C57.3102 50.9274 57.2335 51.122 57.0368 51.336C56.8402 51.5501 56.7635 51.7593 56.8594 51.9538C56.9553 52.1484 57.2287 52.3236 57.6171 52.2846C57.7989 52.2747 57.9728 52.2061 58.1134 52.0889C58.254 51.9716 58.354 51.8118 58.3987 51.6328C58.5089 51.241 58.5495 50.8325 58.5186 50.4264C58.4918 50.0686 58.5111 49.7088 58.5762 49.3561C57.8808 50.2075 57.4397 50.6453 57.2526 50.6599C57.2526 50.6599 57.2287 50.6599 57.2095 50.6599C57.1903 50.6599 57.4109 50.3291 57.8233 49.8767C58.109 49.6033 58.369 49.3037 58.6002 48.9816C58.6498 48.8351 58.7375 48.7049 58.8539 48.6047C58.9704 48.5046 59.1114 48.4381 59.2619 48.4124C59.4298 48.4124 59.5305 48.4124 59.5497 48.4562C59.5688 48.5 59.3962 48.7432 58.9838 49.0935C58.931 49.1518 59.0797 49.5459 59.4298 50.295C59.5511 50.5523 59.6024 50.8378 59.5784 51.122C59.5673 51.3789 59.4612 51.6221 59.2811 51.803C59.7354 51.5167 60.1404 51.1568 60.48 50.7377C60.7821 50.3485 60.9595 50.1539 61.0123 50.1491C61.0279 50.1523 61.0426 50.159 61.0554 50.1685Z" fill="#E7A43F" stroke="#E7A43F" stroke-width="0.3"/>
<path d="M65.9472 50.9371C65.7878 51.1672 65.584 51.362 65.3483 51.51C65.1126 51.658 64.8498 51.756 64.5757 51.7982C64.4235 51.8341 64.2639 51.8166 64.1228 51.7486C63.9817 51.6805 63.8675 51.566 63.7988 51.4236C63.7493 51.3292 63.7234 51.224 63.7234 51.1171C63.7234 51.0102 63.7493 50.905 63.7988 50.8106C63.617 51.1348 63.3642 51.4121 63.0599 51.6213C62.7555 51.8305 62.4079 51.9659 62.0437 52.0171C61.8437 52.0636 61.634 52.041 61.4481 51.9529C61.2622 51.8647 61.1106 51.7161 61.0175 51.5306C60.9365 51.3517 60.8977 51.156 60.9044 50.9593C60.9111 50.7625 60.9629 50.57 61.0558 50.3972C60.9503 50.6063 60.864 50.7085 60.8161 50.7133C60.7928 50.7215 60.7674 50.7215 60.7441 50.7133V50.6793V50.6063C61.0173 50.1071 61.4097 49.6856 61.8855 49.3805C62.3467 49.0063 62.8949 48.7584 63.4775 48.6605C63.9571 48.6167 64.2448 48.7481 64.3887 49.0545C64.4245 49.126 64.4473 49.2035 64.4558 49.2832C64.5235 49.0819 64.6426 48.9024 64.801 48.7631C64.9594 48.6238 65.1514 48.5296 65.3574 48.4902C65.53 48.4902 65.6259 48.4902 65.6451 48.5243C65.5162 48.9447 65.3559 49.3545 65.1655 49.7502C64.8347 50.5334 64.7244 51.0393 64.8347 51.2728L64.921 51.3603C64.9703 51.3678 65.0204 51.3678 65.0696 51.3603C65.3478 51.3312 65.6883 51.0539 66.1007 50.509C66.3087 50.2119 66.5379 49.9307 66.7864 49.6675H66.8104C66.8248 49.7842 66.5466 50.2123 65.9472 50.9371ZM64.1681 49.1324C64.1245 49.0318 64.0486 48.9492 63.9528 48.898C63.8571 48.8468 63.747 48.8299 63.6406 48.8502C63.3001 48.8843 62.8877 49.2734 62.413 50.0226C61.9382 50.7717 61.7608 51.2874 61.8951 51.5647C61.9259 51.6319 61.9781 51.6867 62.0433 51.7202C62.1086 51.7537 62.183 51.7641 62.2547 51.7495C62.6336 51.7155 63.0843 51.3457 63.6022 50.6404C64.1201 49.935 64.3168 49.4242 64.1681 49.1324Z" fill="#E7A43F" stroke="#E7A43F" stroke-width="0.3"/>
<path d="M72.4113 49.1713C72.4976 49.3464 72.1523 49.8086 71.3755 50.5626C70.9188 51.0255 70.4386 51.4639 69.9368 51.876C69.0896 55.1191 67.7853 57.3422 66.0237 58.5454C65.6705 58.8033 65.2607 58.9702 64.8297 59.0318C64.1919 59.0902 63.7795 58.9151 63.5877 58.5016C63.3319 57.9665 63.5797 57.2303 64.331 56.293C65.0731 55.3928 65.9003 54.5684 66.8006 53.8316L68.9298 52.09C69.0641 51.6912 69.2319 51.1171 69.4093 50.3874C69.2201 50.6902 68.9696 50.9486 68.6745 51.1457C68.3793 51.3428 68.0463 51.474 67.6974 51.5306C67.4934 51.5743 67.2809 51.5472 67.0939 51.4537C66.907 51.3602 66.7564 51.2057 66.6663 51.015C66.5779 50.8448 66.5369 50.6534 66.5479 50.4613C66.5589 50.2693 66.6214 50.0839 66.7287 49.9253C66.5752 50.1248 66.4889 50.2269 66.4649 50.2269C66.448 50.2337 66.4291 50.2337 66.4122 50.2269V50.1929V50.115C66.7233 49.6149 67.1317 49.1844 67.6124 48.8498C68.0931 48.5153 68.636 48.2837 69.2079 48.1692C69.4014 48.1264 69.6037 48.1592 69.7744 48.2611C69.9451 48.363 70.0716 48.5265 70.1286 48.7189H70.1526C70.3492 48.2762 70.5698 48.0427 70.8096 48.0233C71.0494 48.0038 71.1884 48.0233 71.222 48.1108C71.2556 48.1984 71.222 48.2811 71.0973 48.5146C70.9726 48.7481 70.6418 49.7891 70.0231 51.6328L70.6849 51.0296C71.0749 50.6799 71.4418 50.3045 71.7831 49.9058C71.9537 49.618 72.1654 49.3574 72.4113 49.1324C72.4113 49.1324 72.4113 49.1616 72.4113 49.1713ZM68.8866 52.4111C66.994 54.0748 65.9678 54.9861 65.808 55.145C64.4205 56.5849 63.9058 57.6778 64.2638 58.4237C64.3295 58.5659 64.4404 58.6816 64.5787 58.7521C64.717 58.8227 64.8746 58.8441 65.0263 58.8129C66.3115 58.6816 67.6158 56.5509 68.8962 52.4111H68.8866ZM69.8457 48.5681C69.8037 48.4703 69.7312 48.3893 69.6394 48.3375C69.5475 48.2856 69.4414 48.2658 69.3374 48.2811C68.9921 48.3151 68.5845 48.7043 68.1002 49.4583C67.6158 50.2123 67.448 50.7377 67.5919 51.0296C67.6231 51.1 67.6774 51.1574 67.7456 51.192C67.8137 51.2265 67.8916 51.2362 67.9659 51.2193C68.3495 51.1852 68.7955 50.8107 69.3038 50.1004C69.8121 49.3902 70.0136 48.8794 69.8601 48.5681H69.8457Z" fill="#E7A43F" stroke="#E7A43F" stroke-width="0.3"/>
<path d="M78.065 48.6459C78.1513 48.8162 77.8061 49.2783 77.0292 50.0275C76.5774 50.4955 76.0969 50.9342 75.5906 51.3409C74.7434 54.584 73.4374 56.8087 71.6727 58.0151C71.3241 58.2783 70.9145 58.4458 70.4834 58.5016C69.8456 58.5599 69.4332 58.3848 69.2366 57.9762C68.9808 57.4411 69.2286 56.7033 69.9799 55.7628C70.7271 54.8674 71.5538 54.0434 72.4495 53.3013C73.1545 52.7322 73.8642 52.1484 74.5739 51.5647C74.7178 51.1609 74.8808 50.5917 75.0535 49.8621C74.8654 50.1654 74.6151 50.424 74.3197 50.6204C74.0243 50.8168 73.6907 50.9464 73.3415 51.0004C73.1415 51.0469 72.9318 51.0243 72.7459 50.9362C72.56 50.848 72.4084 50.6994 72.3153 50.5139C72.2272 50.343 72.1861 50.1512 72.1962 49.9586C72.2063 49.7661 72.2673 49.5798 72.3728 49.4194C72.2242 49.6188 72.1282 49.7113 72.0995 49.7161C72.0854 49.7203 72.0704 49.7203 72.0563 49.7161V49.6821V49.614C72.3659 49.1125 72.7739 48.681 73.2548 48.3463C73.7358 48.0115 74.2794 47.7807 74.8521 47.6681C75.0374 47.6256 75.2316 47.6518 75.3996 47.7419C75.5676 47.8321 75.6983 47.9801 75.768 48.1595C75.9742 47.7119 76.1948 47.4784 76.4346 47.459C76.6743 47.4395 76.8086 47.459 76.847 47.5465C76.8853 47.6341 76.847 47.7168 76.7223 47.9503C76.5976 48.1838 76.2667 49.2248 75.6481 51.0636L76.3099 50.4555C76.6985 50.1062 77.0653 49.7325 77.408 49.3367C77.5809 49.0634 77.7907 48.8161 78.0314 48.6021L78.065 48.6459ZM74.5452 51.8809C72.6494 53.5478 71.6215 54.4607 71.4617 54.6196C70.0838 56.0628 69.5707 57.1557 69.9223 57.8984C69.9887 58.04 70.0997 58.1551 70.2378 58.2256C70.3759 58.2961 70.5332 58.3179 70.6848 58.2875C71.9604 58.1708 73.2472 56.0417 74.5452 51.9003V51.8809ZM75.5042 48.0378C75.4622 47.9401 75.3897 47.8591 75.2979 47.8072C75.206 47.7554 75.0999 47.7355 74.9959 47.7508C74.6554 47.7849 74.2382 48.174 73.7539 48.9281C73.2696 49.6821 73.1065 50.2026 73.2408 50.4993C73.2752 50.5694 73.3314 50.626 73.4008 50.6603C73.4702 50.6947 73.5488 50.7047 73.6244 50.689C74.0033 50.655 74.4492 50.2756 74.9576 49.5653C75.4659 48.8551 75.6529 48.3686 75.509 48.0573L75.5042 48.0378Z" fill="#E7A43F" stroke="#E7A43F" stroke-width="0.3"/>
<path d="M81.2586 48.3686C81.321 48.5 81.0476 48.9086 80.4434 49.6091C80.1097 50.0686 79.6158 50.3818 79.0623 50.4847C78.9115 50.5232 78.7523 50.5097 78.6099 50.4463C78.4675 50.3829 78.35 50.2732 78.2759 50.1345C78.1582 49.7164 78.2046 49.2684 78.4054 48.8843C78.5403 48.4771 78.7413 48.0957 79 47.7557C78.7725 47.9829 78.5564 48.2215 78.3526 48.4708C78.2567 48.6118 78.0984 48.8113 77.8731 49.074C77.8294 49.1228 77.7698 49.1539 77.7052 49.1615L77.686 49.1324C77.686 48.8502 77.9642 48.4708 78.4917 47.9892C78.8494 47.5882 79.3197 47.3081 79.8392 47.1865C79.9215 47.1694 80.0063 47.1694 80.0886 47.1865V47.2206C79.9491 47.6291 79.789 48.0302 79.609 48.4221C79.2733 49.2005 79.1534 49.6821 79.2446 49.8815C79.2771 49.9172 79.3142 49.9483 79.3549 49.9739C79.374 49.9918 79.3969 50.0049 79.4218 50.0125C79.4468 50.0201 79.473 50.0219 79.4987 50.0177C79.7241 50.0177 80.0358 49.7258 80.429 49.1956C80.8223 48.6654 81.1004 48.3783 81.2539 48.3297L81.2586 48.3686ZM80.8031 44.8613C80.8846 45.0169 80.8319 45.192 80.6544 45.3818C80.5077 45.5515 80.3046 45.6606 80.0838 45.6882C79.9815 45.6087 79.9021 45.5029 79.8536 45.3818C79.6618 44.9731 79.8536 44.7396 80.4338 44.691C80.6256 44.6715 80.7503 44.7542 80.8031 44.8613Z" fill="#E7A43F" stroke="#E7A43F" stroke-width="0.3"/>
<path d="M86.1361 49.1324C85.9772 49.363 85.7737 49.5583 85.5379 49.7064C85.302 49.8544 85.0389 49.9521 84.7646 49.9934C84.6125 50.0276 84.4535 50.0093 84.3128 49.9414C84.1721 49.8736 84.0577 49.7601 83.9877 49.6188C83.9382 49.5245 83.9123 49.4193 83.9123 49.3124C83.9123 49.2055 83.9382 49.1002 83.9877 49.0059C83.807 49.3318 83.5547 49.6111 83.2503 49.822C82.9459 50.033 82.5976 50.1698 82.2326 50.222C82.0326 50.2677 81.8233 50.2447 81.6375 50.1567C81.4518 50.0686 81.3001 49.9205 81.2064 49.7356C81.1253 49.5567 81.0866 49.361 81.0933 49.1643C81.0999 48.9675 81.1518 48.775 81.2447 48.6021C81.1344 48.8064 81.0529 48.9135 81.0002 48.9135C80.9889 48.9187 80.9766 48.9214 80.9642 48.9214C80.9518 48.9214 80.9395 48.9187 80.9282 48.9135V48.8794V48.8064C81.1727 48.2939 81.5425 47.8534 82.0024 47.5271C82.4613 47.149 83.0106 46.9007 83.5945 46.8071C84.074 46.7682 84.3618 46.8947 84.5008 47.1963C84.5348 47.2702 84.5574 47.3489 84.568 47.4298C84.6347 47.228 84.7536 47.048 84.9121 46.9086C85.0707 46.7691 85.2631 46.6753 85.4695 46.6368C85.6421 46.6368 85.7381 46.6466 85.7572 46.666C85.6326 47.0895 85.4722 47.5013 85.2777 47.8968C84.9468 48.68 84.8365 49.1859 84.9516 49.4194L85.0331 49.5069C85.0826 49.5118 85.1324 49.5118 85.1818 49.5069C85.4599 49.5069 85.8052 49.2005 86.2128 48.6605C86.4182 48.36 86.6493 48.0783 86.9034 47.8189H86.9273C87.0136 47.9551 86.7403 48.3784 86.1361 49.1324ZM84.357 47.313C84.3135 47.2134 84.2384 47.1315 84.1437 47.0803C84.0489 47.0292 83.94 47.0118 83.8343 47.0309C83.4938 47.0649 83.0766 47.4541 82.6018 48.2032C82.1271 48.9524 81.9497 49.468 82.0887 49.7453C82.1194 49.8116 82.1708 49.8658 82.235 49.8992C82.2993 49.9327 82.3726 49.9435 82.4436 49.9302C82.824 49.8945 83.2748 49.5248 83.7959 48.821C84.3186 48.0962 84.5056 47.5952 84.357 47.2887V47.313Z" fill="#E7A43F" stroke="#E7A43F" stroke-width="0.3"/>
<path d="M93.1899 47.2887C93.2475 47.42 92.9789 47.8335 92.3747 48.5291C92.037 48.9889 91.5401 49.3018 90.984 49.4048C90.8344 49.4409 90.6773 49.4267 90.5364 49.3644C90.3954 49.3021 90.2782 49.1951 90.2024 49.0594C90.0824 48.6399 90.1289 48.1895 90.3318 47.8043C90.4675 47.395 90.6701 47.0118 90.9313 46.6709C90.7826 46.8217 90.562 47.06 90.2791 47.386C90.1784 47.5319 90.0297 47.7314 89.7996 47.994C89.7562 48.0406 89.6989 48.0714 89.6365 48.0816L89.5981 48.0475C89.5981 47.7703 89.8715 47.386 90.399 46.9092C90.7594 46.5183 91.23 46.2499 91.7465 46.1406C91.8324 46.1281 91.9196 46.1281 92.0055 46.1406V46.1795C91.868 46.5873 91.7079 46.9869 91.5259 47.3762C91.195 48.1594 91.0703 48.641 91.1615 48.8356C91.1955 48.873 91.2342 48.9057 91.2765 48.9329C91.2955 48.9495 91.3177 48.962 91.3416 48.9695C91.3655 48.977 91.3907 48.9795 91.4156 48.9767C91.6458 48.9767 91.9527 48.6848 92.3507 48.1546C92.5614 47.8096 92.8407 47.5131 93.1707 47.2838L93.1899 47.2887ZM92.7104 43.7764C92.7871 43.937 92.7391 44.1121 92.5569 44.3018C92.4098 44.4701 92.2066 44.5775 91.9863 44.6034C91.8842 44.5269 91.8059 44.4222 91.7609 44.3018C91.5643 43.8883 91.7609 43.6597 92.3411 43.611C92.4159 43.5866 92.4968 43.5904 92.5691 43.6217C92.6413 43.653 92.7 43.7096 92.7344 43.7813L92.7104 43.7764Z" fill="#E7A43F" stroke="#E7A43F" stroke-width="0.3"/>
<path d="M99.6446 38.6103C99.846 39.0383 99.6734 39.6707 99.1267 40.5074C98.58 41.3442 97.1542 43.1895 94.8492 46.0433C94.6525 46.417 94.5257 46.8244 94.4751 47.2449C94.3534 47.6498 94.3272 48.078 94.3984 48.4951L94.4799 48.5729C94.5354 48.6139 94.6031 48.6345 94.6717 48.6313C95.1177 48.5924 95.6308 48.0816 96.2398 47.1038L96.446 46.9773V47.0114C96.5036 47.1281 96.2302 47.5416 95.626 48.2519C95.2731 48.7163 94.7583 49.0261 94.1874 49.1178C93.775 49.147 93.5016 49.0351 93.377 48.7627C93.2043 48.4075 93.281 47.7897 93.588 46.8168C93.2331 47.3471 93.0125 47.6146 92.9358 47.6243H92.907C92.8782 47.527 92.9981 47.3033 93.2715 46.953C93.4441 46.7293 93.6119 46.5055 93.7846 46.2866C93.8853 46.0142 94.0435 45.5909 94.2641 45.0315C96.0672 40.595 97.5842 38.3249 98.815 38.2211C98.9762 38.1863 99.1441 38.2054 99.2937 38.2756C99.4432 38.3457 99.5663 38.4632 99.6446 38.6103ZM99.1651 38.7221C99.1268 38.6269 99.0598 38.5464 98.9736 38.4922C98.8875 38.438 98.7866 38.4129 98.6855 38.4205C98.1964 38.4627 97.4675 39.554 96.4988 41.6944C95.898 42.956 95.379 44.256 94.9451 45.5861C95.8226 44.438 96.6954 43.29 97.5634 42.1274C98.8581 40.308 99.3952 39.1794 99.1794 38.7221H99.1651Z" fill="#E7A43F" stroke="#E7A43F" stroke-width="0.3"/>
<path d="M106.137 38.0168C106.358 38.4692 106.185 39.1064 105.658 39.914C105.13 40.7215 104.023 42.1225 102.416 44.1024C102.157 44.3943 101.798 44.8418 101.332 45.4401C100.933 46.3935 100.584 47.3678 100.287 48.3589C101.244 47.9825 102.075 47.338 102.685 46.5006C102.747 46.4131 102.795 46.3644 102.824 46.3644C102.853 46.3644 102.886 46.3644 102.896 46.3644C102.906 46.4063 102.907 46.4501 102.898 46.4924C102.889 46.5346 102.87 46.5741 102.843 46.6076C102.61 46.9807 102.314 47.3098 101.97 47.5806C101.411 47.9378 100.871 48.326 100.354 48.7432C100.31 48.9615 100.31 49.1865 100.354 49.4048C100.354 49.6431 100.392 49.8912 100.416 50.1102C100.456 51.2335 100.359 52.3575 100.129 53.457C99.7931 55.038 99.2751 55.8893 98.575 55.9282C98.4434 55.9525 98.3076 55.93 98.1905 55.8644C98.0734 55.7988 97.9822 55.6942 97.9324 55.5682C97.3474 54.3456 98.0747 51.1804 100.114 46.0725H100.09C99.8525 46.4112 99.5792 46.7228 99.2752 47.0017C99.2512 46.9336 99.4046 46.6855 99.7211 46.2525L100.306 45.5228C100.584 44.8321 100.944 43.937 101.39 42.857C101.843 41.8003 102.387 40.7861 103.016 39.8264C103.936 38.367 104.723 37.6276 105.365 37.5644C105.525 37.5441 105.687 37.5774 105.826 37.659C105.966 37.7407 106.075 37.8663 106.137 38.0168ZM100.076 48.9086H100.052C99.7163 49.8815 99.3759 51.015 99.0354 52.2506C98.5494 54.0634 98.372 55.132 98.5031 55.4563C98.523 55.5092 98.5598 55.5537 98.6077 55.5828C98.6555 55.6119 98.7115 55.6239 98.7668 55.6169C99.2847 55.5682 99.7259 54.5953 100.042 52.6981C100.229 51.4428 100.241 50.1671 100.076 48.9086ZM105.667 38.1141C105.634 38.0168 105.567 37.935 105.479 37.8833C105.391 37.8315 105.288 37.8133 105.188 37.8319C104.708 37.8757 103.984 38.9265 103.044 40.989C102.444 42.2819 101.909 43.6052 101.443 44.9537L103.994 41.5485C105.317 39.6934 105.875 38.5486 105.667 38.1141Z" fill="#E7A43F" stroke="#E7A43F" stroke-width="0.3"/>
<path d="M109.235 45.839C109.298 45.9753 109.034 46.3936 108.425 47.0892C108.089 47.5359 107.602 47.8408 107.058 47.9454C106.902 47.9855 106.736 47.9714 106.589 47.9052C106.441 47.8391 106.319 47.7249 106.243 47.5806C106.07 47.2254 106.2 46.6952 106.617 45.9801L106.564 45.9509C105.409 47.4103 104.545 48.1789 103.965 48.2276C103.529 48.2665 103.246 48.1449 103.112 47.8627C102.891 47.4054 103.14 46.6174 103.85 45.5034C103.617 45.728 103.396 45.9651 103.188 46.2136C103.088 46.3596 102.939 46.5639 102.709 46.8217C102.665 46.8682 102.608 46.899 102.546 46.9093L102.507 46.8752C102.653 46.4142 102.924 46.0044 103.289 45.6931C103.632 45.2915 104.098 45.019 104.613 44.9196C104.701 44.8989 104.794 44.9092 104.876 44.9488C104.876 44.978 104.713 45.4353 104.397 46.3206C104.128 47.0601 104.032 47.5076 104.114 47.673C104.141 47.6993 104.172 47.7221 104.205 47.7411C104.228 47.7601 104.255 47.7734 104.284 47.7802C104.313 47.7869 104.344 47.7869 104.373 47.78C104.684 47.78 105.6 46.8071 107.106 44.8953C107.164 44.822 107.237 44.7619 107.32 44.7192C107.402 44.6764 107.493 44.6519 107.586 44.6472C107.859 44.6472 108.008 44.6472 108.065 44.7007C107.954 45.132 107.793 45.5484 107.586 45.9412C107.255 46.7147 107.135 47.1817 107.216 47.3568C107.236 47.4033 107.27 47.4424 107.312 47.4687C107.353 47.4973 107.403 47.5095 107.451 47.5027C107.897 47.459 108.411 46.953 108.986 45.9655L109.202 45.8342L109.235 45.839Z" fill="#E7A43F" stroke="#E7A43F" stroke-width="0.3"/>
<path d="M112.213 41.7576C111.703 42.5928 111.281 43.4797 110.952 44.404C111.053 44.3819 111.156 44.3673 111.259 44.3602L112.074 44.2824C112.271 44.2824 112.381 44.2824 112.415 44.3407C112.448 44.3991 112.252 44.4867 111.815 44.5256L110.885 44.6132C110.405 45.8682 110.271 46.666 110.429 47.0017C110.451 47.0626 110.492 47.1146 110.546 47.1497C110.6 47.1849 110.663 47.2012 110.727 47.1962C110.976 47.1962 111.561 46.6125 112.468 45.5034C112.479 45.5029 112.491 45.5059 112.501 45.5119C112.511 45.518 112.52 45.5268 112.525 45.5374C112.587 45.6639 112.309 46.0774 111.71 46.7779C111.35 47.2606 110.818 47.5817 110.228 47.673C110.074 47.7092 109.913 47.6931 109.769 47.6272C109.625 47.5612 109.507 47.4491 109.432 47.3081C109.259 46.953 109.331 46.3352 109.643 45.4109C109.416 45.7508 109.167 46.0757 108.9 46.3839C108.881 46.3799 108.864 46.3723 108.848 46.3615C108.832 46.3506 108.819 46.3367 108.809 46.3206C108.915 46.0645 109.063 45.8279 109.245 45.6201C109.629 45.1045 109.84 44.8077 109.883 44.7445L109.48 44.7786L109.111 44.8126H108.981C108.965 44.8068 108.951 44.7978 108.938 44.7861C108.926 44.7743 108.916 44.7602 108.909 44.7445C108.876 44.6861 109.044 44.6423 109.389 44.6083C109.573 44.6018 109.756 44.5791 109.936 44.5402C110.65 42.7111 111.288 41.7722 111.854 41.7236C111.974 41.6978 112.1 41.7097 112.213 41.7576Z" fill="#E7A43F" stroke="#E7A43F" stroke-width="0.3"/>
<path d="M118.884 44.9634C118.951 45.1045 118.682 45.518 118.078 46.2136C117.738 46.6614 117.249 46.9676 116.702 47.0746C116.545 47.1109 116.38 47.0945 116.233 47.0278C116.086 46.9611 115.965 46.8478 115.887 46.7049C115.724 46.3498 115.848 45.8196 116.27 45.1045L116.208 45.0753C115.062 46.5347 114.194 47.3033 113.614 47.3568C113.177 47.3908 112.894 47.2692 112.76 46.9871C112.539 46.5298 112.789 45.7417 113.494 44.6277C113.264 44.8547 113.047 45.0933 112.842 45.3428C112.746 45.4839 112.592 45.6882 112.362 45.9461C112.321 45.9953 112.262 46.0266 112.199 46.0336L112.161 46.0044C112.301 45.5395 112.573 45.1267 112.942 44.8175C113.286 44.4146 113.754 44.1419 114.271 44.044C114.358 44.0224 114.449 44.0327 114.53 44.0732C114.53 44.0975 114.367 44.5596 114.05 45.445C113.777 46.1893 113.681 46.632 113.758 46.8022C113.758 46.8022 113.81 46.8314 113.853 46.8655C113.876 46.8837 113.902 46.8971 113.93 46.9046C113.959 46.9121 113.988 46.9137 114.016 46.9092C114.336 46.8801 115.249 45.9185 116.755 44.0245C116.811 43.9495 116.884 43.8882 116.967 43.8453C117.05 43.8023 117.141 43.7788 117.234 43.7764C117.512 43.7473 117.666 43.7764 117.714 43.8251C117.607 44.2576 117.446 44.6745 117.234 45.0656C116.908 45.8342 116.783 46.306 116.87 46.4812C116.889 46.529 116.923 46.5697 116.966 46.5979C117.007 46.6249 117.056 46.6353 117.105 46.6271C117.551 46.5833 118.064 46.0774 118.649 45.085L118.855 44.9585L118.884 44.9634Z" fill="#E7A43F" stroke="#E7A43F" stroke-width="0.3"/>
<path d="M122.965 44.5889C123.046 44.7542 122.768 45.1677 122.135 45.8488C121.774 46.3033 121.263 46.6106 120.697 46.7147C120.54 46.7506 120.376 46.7345 120.23 46.6688C120.083 46.6031 119.961 46.4913 119.881 46.3498C119.718 45.9996 119.881 45.5034 120.337 44.8467C120.793 44.19 121.037 43.8738 121.032 43.8738C121.027 43.8738 120.908 43.7667 120.754 43.7716C120.609 43.7705 120.465 43.7835 120.323 43.8105H119.987C119.887 43.8232 119.785 43.8232 119.685 43.8105C119.523 44.1254 119.339 44.4278 119.133 44.7153C118.983 44.9922 118.79 45.2434 118.563 45.4596C118.545 45.4622 118.527 45.4588 118.511 45.4501C118.496 45.4413 118.483 45.4275 118.476 45.411C118.476 45.411 118.476 45.3331 118.563 45.2407C118.711 45.0559 119.042 44.5548 119.522 43.7473C119.465 43.7291 119.413 43.6989 119.37 43.6586C119.326 43.6183 119.291 43.5689 119.268 43.5138C119.218 43.4374 119.198 43.3446 119.213 43.2541C119.228 43.1637 119.277 43.0826 119.349 43.0273C119.497 42.8917 119.687 42.814 119.886 42.8084C119.965 42.7931 120.046 42.798 120.122 42.8227C120.198 42.8473 120.267 42.8909 120.323 42.9495L120.126 43.1878C120.086 43.2243 120.058 43.2726 120.047 43.3259C120.036 43.3792 120.042 43.4348 120.064 43.4846C120.102 43.5722 120.351 43.6013 120.812 43.5867C121.272 43.5721 121.555 43.6646 121.651 43.8738C121.708 43.9856 121.584 44.3602 121.282 44.9148C120.98 45.4693 120.879 45.8877 120.984 46.1212C121.008 46.1641 121.045 46.1982 121.09 46.2185H121.195C121.454 46.2185 121.804 45.9217 122.25 45.3721C122.696 44.8224 122.912 44.5451 122.903 44.5451C122.916 44.5467 122.928 44.5515 122.939 44.5592C122.95 44.5668 122.959 44.577 122.965 44.5889Z" fill="#E7A43F" stroke="#E7A43F" stroke-width="0.3"/>
<path d="M127.866 44.1656C127.938 44.3018 127.784 44.5353 127.415 44.8613C127.182 45.1086 126.887 45.2869 126.561 45.3769C126.435 45.4016 126.304 45.4016 126.178 45.3769C125.7 45.937 125.046 46.3117 124.327 46.4374C123.684 46.4958 123.257 46.3109 123.051 45.878C122.953 45.6837 122.902 45.4686 122.902 45.2504C122.902 45.0322 122.953 44.8171 123.051 44.6229C122.85 44.9586 122.711 45.1094 122.634 45.1385C122.623 45.1427 122.611 45.1427 122.6 45.1385V45.0996V45.0315C122.89 44.5404 123.283 44.1202 123.751 43.8008C124.244 43.4218 124.823 43.1742 125.434 43.0808L125.597 43.1587C125.545 43.2035 125.489 43.2442 125.43 43.2803C124.992 43.6088 124.634 44.0348 124.384 44.5256C124.001 45.1872 123.905 45.7077 124.068 46.0628C124.097 46.1402 124.151 46.2049 124.222 46.2457C124.293 46.2866 124.376 46.301 124.456 46.2866C124.979 46.2379 125.415 45.8001 125.785 45.0364C125.701 44.8047 125.698 44.5514 125.775 44.3174C125.851 44.0834 126.003 43.8825 126.207 43.7473C126.185 43.5899 126.135 43.438 126.058 43.2997C126.035 43.2669 126.009 43.236 125.981 43.2073C125.952 43.1767 125.925 43.1442 125.9 43.11C125.9 43.0662 125.9 43.037 125.991 43.0273C126.148 43.0352 126.296 43.105 126.403 43.2219C126.53 43.3324 126.637 43.464 126.72 43.6111C126.916 44.0246 126.787 44.584 126.336 45.2748C126.379 45.2818 126.423 45.2818 126.465 45.2748C126.63 45.2506 126.789 45.1924 126.931 45.1037C127.072 45.015 127.195 44.8977 127.29 44.7591C127.45 44.5291 127.652 44.3325 127.885 44.1802C127.885 44.1802 127.866 44.151 127.866 44.1656Z" fill="#E7A43F" stroke="#E7A43F" stroke-width="0.3"/>
<path d="M71.5243 0C72.8239 4.13004 72.1669 4.64082 69.1986 9.24272C66.9351 12.7306 69.7788 15.3332 71.3038 16.1407C70.3447 14.7738 69.7452 12.6917 70.3159 11.3929C71.5627 8.57627 74.1522 7.5012 73.3035 10.634C73.0724 11.4654 72.9341 12.3204 72.891 13.183C73.355 11.7292 73.9075 10.306 74.5455 8.92166C76.1519 5.42888 71.5243 0 71.5243 0Z" fill="#E7A43F" stroke="#E7A43F" stroke-width="0.3"/>
</g>
<defs>
<clipPath id="clip0">
<rect width="160" height="61.6149" fill="white"/>
</clipPath>
</defs>
</svg>
