<svg width="100" height="39" viewBox="0 0 100 39" fill="none" xmlns="http://www.w3.org/2000/svg">
<g clip-path="url(#clip0)">
<path d="M6.68065 7.50363C9.87262 7.50363 11.7758 8.62249 12.7649 9.5346C13.8438 10.5318 14.9468 12.3257 14.9468 15.2353C14.9468 18.5432 13.5262 21.1762 10.9306 22.3893C10.1034 22.7845 8.91054 23.1342 6.68065 23.1342H0.43159C0.317368 23.1334 0.208047 23.087 0.127277 23.0051C0.0465081 22.9231 0.000785061 22.8122 0 22.6964L0 22.4288C0.00298513 22.3101 0.0484098 22.1965 0.127811 22.1093C0.207213 22.022 0.315177 21.967 0.43159 21.9545L0.950097 21.9119C1.17148 21.8961 1.38419 21.8182 1.56451 21.687C1.6853 21.5081 1.74815 21.2956 1.74434 21.0789V9.57412C1.75092 9.35135 1.68799 9.13215 1.56451 8.94781C1.38782 8.82133 1.1807 8.74569 0.965083 8.7289L0.446576 8.68329C0.327475 8.67431 0.21589 8.62085 0.133401 8.53324C0.0509116 8.44563 0.00338034 8.3301 0 8.209L0 7.94144C0.000785061 7.82558 0.0465081 7.71468 0.127277 7.63274C0.208047 7.55081 0.317368 7.50443 0.43159 7.50363H6.68065ZM4.77446 21.3677C4.77525 21.4836 4.82097 21.5945 4.90174 21.6764C4.98251 21.7583 5.09183 21.8047 5.20605 21.8055H5.69459C5.92837 21.8055 6.318 21.8055 6.55477 21.7751C6.55477 21.7751 9.06039 21.5957 10.2323 20.1516C11.4042 18.7074 11.5031 16.418 11.5031 15.2627C11.5031 13.8398 11.3202 11.7906 10.1933 10.4619C8.91053 8.94173 7.0493 8.83227 6.1082 8.83227H5.20905C5.09483 8.83307 4.98551 8.87945 4.90474 8.96139C4.82397 9.04332 4.77825 9.15422 4.77746 9.27009L4.77446 21.3677Z" fill="white"/>
<path d="M21.6332 11.5321C21.7474 11.5329 21.8568 11.5793 21.9375 11.6612C22.0183 11.7432 22.064 11.854 22.0648 11.9699V12.2162C22.064 12.3318 22.0182 12.4424 21.9373 12.5238C21.8565 12.6053 21.7472 12.651 21.6332 12.651H21.0937C20.9111 12.6395 20.7283 12.6718 20.5602 12.7452C20.4789 12.9087 20.4426 13.0915 20.4553 13.2742V21.392C20.4477 21.5891 20.4836 21.7854 20.5602 21.9667C20.7173 22.0733 20.9054 22.1226 21.0937 22.1065H21.6332C21.7472 22.1065 21.8565 22.1522 21.9373 22.2337C22.0182 22.3151 22.064 22.4257 22.0648 22.5413V22.6963C22.064 22.8122 22.0183 22.9231 21.9375 23.005C21.8568 23.087 21.7474 23.1334 21.6332 23.1342H16.2953C16.1813 23.1334 16.0723 23.0869 15.992 23.0049C15.9118 22.9228 15.8667 22.8119 15.8667 22.6963V22.4501C15.8667 22.393 15.8778 22.3364 15.8993 22.2837C15.9209 22.2309 15.9524 22.183 15.9922 22.1426C16.032 22.1023 16.0793 22.0702 16.1313 22.0484C16.1833 22.0265 16.239 22.0153 16.2953 22.0153H16.8378C17.0245 22.0301 17.2119 21.9977 17.3833 21.921C17.467 21.7584 17.5034 21.5749 17.4882 21.392V13.2742C17.4988 13.077 17.4628 12.8799 17.3833 12.6996C17.2277 12.592 17.0402 12.5426 16.8528 12.5597H16.2953C16.1819 12.559 16.0733 12.5129 15.9931 12.4315C15.9129 12.3502 15.8675 12.24 15.8667 12.125V11.9699C15.8667 11.8543 15.9118 11.7434 15.992 11.6614C16.0723 11.5794 16.1813 11.5329 16.2953 11.5321H21.6332Z" fill="white"/>
<path d="M28.5659 11.5321C28.6796 11.5337 28.7882 11.5804 28.8683 11.6623C28.9484 11.7441 28.9937 11.8546 28.9945 11.9699V12.125C28.992 12.2424 28.9469 12.3548 28.8678 12.4406C28.7888 12.5265 28.6813 12.5797 28.5659 12.5902L28.2272 12.6175C28.0544 12.6171 27.8843 12.661 27.7327 12.7452C27.7123 12.9165 27.7459 13.09 27.8286 13.2408L30.5021 19.6803C30.595 19.9022 30.7418 19.8992 30.8318 19.6803L33.4243 13.2469C33.5011 13.0929 33.5333 12.92 33.5172 12.7483C33.3645 12.6642 33.1934 12.6203 33.0197 12.6206L32.6151 12.5932C32.4997 12.5827 32.3922 12.5295 32.3131 12.4437C32.2341 12.3579 32.189 12.2455 32.1865 12.128V11.973C32.1865 11.8574 32.2315 11.7465 32.3118 11.6644C32.3921 11.5824 32.5011 11.5359 32.6151 11.5351H36.4154C36.5294 11.5359 36.6384 11.5824 36.7187 11.6644C36.799 11.7465 36.844 11.8574 36.844 11.973V12.128C36.8412 12.2477 36.7971 12.3626 36.7193 12.4526C36.6415 12.5426 36.535 12.6021 36.4184 12.6206L35.9869 12.6874C35.8582 12.7123 35.737 12.7674 35.6329 12.8481C35.5288 12.9289 35.4448 13.0331 35.3874 13.1526L31.4072 22.8028C31.3525 22.9185 31.2678 23.0169 31.1622 23.0876C31.0567 23.1583 30.9342 23.1985 30.8078 23.2041H29.4021C29.276 23.1976 29.1539 23.1569 29.0484 23.0863C28.943 23.0158 28.8582 22.9178 28.8027 22.8028L24.7325 13.1465C24.6743 13.028 24.5899 12.9247 24.4859 12.8446C24.382 12.7645 24.2613 12.7096 24.1331 12.6844L23.6775 12.6175C23.5612 12.5985 23.455 12.5389 23.3774 12.449C23.2997 12.359 23.2553 12.2445 23.252 12.125V11.9699C23.2519 11.8548 23.2966 11.7444 23.3762 11.6625C23.4559 11.5805 23.5641 11.5337 23.6775 11.5321H28.5659Z" fill="white"/>
<path d="M42.218 11.5321C42.332 11.5329 42.441 11.5794 42.5213 11.6614C42.6016 11.7434 42.6466 11.8543 42.6466 11.9699V21.3951C42.6384 21.5919 42.6732 21.7881 42.7485 21.9697C42.9068 22.0761 43.0958 22.1254 43.285 22.1095H43.8695C43.9829 22.1103 44.0915 22.1564 44.1717 22.2378C44.2519 22.3191 44.2973 22.4293 44.2981 22.5443V22.6994C44.2981 22.815 44.253 22.9259 44.1727 23.0079C44.0924 23.0899 43.9834 23.1364 43.8695 23.1372H38.4746C38.3633 23.1317 38.2584 23.0827 38.1818 23.0006C38.1053 22.9184 38.0631 22.8094 38.064 22.6963V22.4501C38.064 22.3353 38.1087 22.2252 38.1885 22.1437C38.2682 22.0623 38.3764 22.0161 38.4896 22.0153H39.0321C39.2137 22.0267 39.3955 21.9944 39.5626 21.921C39.6449 21.7579 39.6812 21.5748 39.6675 21.392V13.2742C39.6766 13.077 39.6407 12.8804 39.5626 12.6996C39.4057 12.5925 39.2174 12.5432 39.0291 12.5597H38.4866C38.374 12.5582 38.2665 12.5116 38.1874 12.4303C38.1083 12.3489 38.064 12.2392 38.064 12.125V11.9699C38.064 11.8548 38.1086 11.7444 38.1883 11.6625C38.2679 11.5805 38.3762 11.5337 38.4896 11.5321H42.218Z" fill="white"/>
<path d="M50.4179 11.5321C50.5499 11.5401 50.6789 11.5758 50.7965 11.637C50.9142 11.6983 51.0179 11.7837 51.1013 11.8878L56.3463 19.2151C56.4812 19.4097 56.5951 19.3732 56.5951 19.133V13.3229C56.6085 13.1294 56.5636 12.9364 56.4662 12.7695C56.2967 12.6756 56.1078 12.6235 55.9147 12.6175L55.4052 12.5902C55.2899 12.5797 55.1824 12.5265 55.1033 12.4406C55.0242 12.3548 54.9791 12.2424 54.9766 12.125V11.9699C54.9766 11.8543 55.0217 11.7434 55.102 11.6614C55.1822 11.5794 55.2913 11.5329 55.4052 11.5321H59.5742C59.6885 11.5329 59.7978 11.5793 59.8785 11.6612C59.9593 11.7432 60.005 11.854 60.0058 11.9699V12.125C60.0039 12.2431 59.9586 12.3563 59.8788 12.4423C59.799 12.5284 59.6904 12.5811 59.5742 12.5902L59.1367 12.6175C58.939 12.6245 58.7454 12.6764 58.5702 12.7695C58.4671 12.9343 58.4187 13.1282 58.4323 13.3229V22.6963C58.4323 22.8119 58.3873 22.9228 58.307 23.0049C58.2267 23.0869 58.1177 23.1334 58.0037 23.1342H56.3463C56.2137 23.1263 56.0842 23.091 55.9656 23.0303C55.847 22.9696 55.742 22.8849 55.657 22.7815L49.8395 14.8187C49.6986 14.6242 49.5847 14.6637 49.5847 14.9039V21.3251C49.579 21.5338 49.6179 21.7412 49.6986 21.9332C49.8512 22.0588 50.0451 22.1207 50.2411 22.1065H50.7716C50.8279 22.1061 50.8837 22.117 50.9359 22.1384C50.988 22.1599 51.0355 22.1916 51.0756 22.2317C51.1156 22.2718 51.1475 22.3195 51.1694 22.3721C51.1913 22.4247 51.2028 22.4811 51.2032 22.5382V22.6933C51.2024 22.8092 51.1567 22.9201 51.0759 23.002C50.9952 23.0839 50.8858 23.1303 50.7716 23.1311H46.5306C46.4167 23.1303 46.3077 23.0838 46.2274 23.0018C46.1471 22.9198 46.102 22.8089 46.1021 22.6933V22.5382C46.1028 22.4232 46.1482 22.3131 46.2284 22.2317C46.3087 22.1503 46.4172 22.1043 46.5306 22.1035H47.0551C47.2545 22.1155 47.4515 22.0539 47.6096 21.9302C47.698 21.7403 47.7412 21.532 47.7355 21.3221V11.9699C47.7363 11.8546 47.7816 11.7441 47.8617 11.6623C47.9418 11.5804 48.0504 11.5337 48.1641 11.5321H50.4179Z" fill="white"/>
<path d="M67.3133 11.371C67.4393 11.3778 67.5613 11.4186 67.6667 11.4891C67.772 11.5597 67.8569 11.6574 67.9127 11.7723L72.0518 21.544C72.111 21.6619 72.1956 21.7646 72.2994 21.8446C72.4032 21.9247 72.5234 21.9799 72.6512 22.0062L72.9719 22.0487C73.0882 22.0678 73.1944 22.1274 73.2721 22.2173C73.3498 22.3072 73.3941 22.4218 73.3975 22.5413V22.6963C73.3975 22.8119 73.3524 22.9228 73.2721 23.0049C73.1918 23.0869 73.0828 23.1334 72.9689 23.1342H68.1734C68.1163 23.135 68.0595 23.1242 68.0064 23.1026C67.9534 23.081 67.9051 23.0488 67.8644 23.0081C67.8237 22.9674 67.7913 22.9188 67.7693 22.8653C67.7472 22.8118 67.7359 22.7544 67.7359 22.6963V22.5413C67.7383 22.4238 67.7834 22.3114 67.8625 22.2256C67.9416 22.1398 68.0491 22.0866 68.1644 22.0761L68.59 22.0457C68.7575 22.0525 68.9232 22.0091 69.0666 21.9211C69.0645 21.7493 69.0224 21.5806 68.9437 21.4285L68.1285 19.4827C68.0743 19.3666 67.9898 19.2678 67.8841 19.197C67.7784 19.1262 67.6556 19.0862 67.5291 19.0813H64.5199C64.3934 19.0862 64.2706 19.1262 64.1649 19.197C64.0592 19.2678 63.9747 19.3666 63.9205 19.4827L63.1262 21.4224C63.043 21.5742 63.0084 21.7485 63.0273 21.9211C63.1807 22.0059 63.3532 22.0489 63.5279 22.0457L63.9534 22.0761C64.0688 22.0866 64.1763 22.1398 64.2554 22.2256C64.3344 22.3114 64.3795 22.4238 64.382 22.5413V22.6963C64.382 22.8119 64.337 22.9228 64.2567 23.0049C64.1764 23.0869 64.0674 23.1334 63.9534 23.1342H60.225C60.111 23.1334 60.002 23.0869 59.9217 23.0049C59.8414 22.9228 59.7964 22.8119 59.7964 22.6963V22.5413C59.7991 22.4224 59.8439 22.3084 59.9226 22.2202C60.0013 22.132 60.1086 22.0755 60.225 22.0609L60.5876 22.0153C60.7161 21.9956 60.8379 21.9442 60.9424 21.8658C61.0469 21.7874 61.1309 21.6842 61.1871 21.5653L65.2392 11.7723C65.295 11.6574 65.3799 11.5597 65.4853 11.4891C65.5906 11.4186 65.7126 11.3778 65.8387 11.371H67.3133ZM64.7087 17.5095C64.6845 17.5537 64.6728 17.6039 64.675 17.6544C64.6772 17.7049 64.6932 17.7539 64.7211 17.7957C64.7491 17.8376 64.7879 17.8709 64.8333 17.8917C64.8788 17.9125 64.929 17.9202 64.9785 17.9138H67.3133C67.3608 17.9215 67.4096 17.9147 67.4533 17.8942C67.497 17.8737 67.5338 17.8405 67.5588 17.7988C67.5839 17.7571 67.5961 17.7087 67.594 17.6599C67.5919 17.6111 67.5756 17.564 67.547 17.5247L66.1653 14.6941C66.0574 14.4813 65.9016 14.4874 65.8117 14.7093L64.7087 17.5095Z" fill="white"/>
<path d="M80.971 11.5321C82.7183 11.5321 83.6355 11.8817 83.9682 12.0216C85.3019 12.6054 85.6915 13.56 85.6915 14.5147C85.6915 16.5396 84.0371 17.251 82.6134 17.473C84.2919 17.7071 84.7714 18.9172 85.2539 20.2671C85.8294 21.8511 86.3569 22.0913 87.4568 22.0913H87.8495C87.9634 22.0913 88.0563 22.2859 88.0563 22.5291V22.6538C88.0535 22.7732 88.0082 22.8875 87.9289 22.9758C87.8496 23.064 87.7416 23.1203 87.6247 23.1342C87.6247 23.1342 86.3809 23.2558 86.0811 23.2558C83.5096 23.2558 82.8203 22.1126 82.1998 20.3218C81.7173 18.9232 81.1448 18.1084 79.4455 18.1084C79.3316 18.1084 79.2387 18.303 79.2387 18.5462V21.3981C79.2225 21.5825 79.2633 21.7674 79.3555 21.9271C79.5259 22.0064 79.7106 22.0488 79.898 22.0518L80.2817 22.0822C80.3965 22.0933 80.5032 22.1469 80.5817 22.2326C80.6602 22.3184 80.7048 22.4304 80.7073 22.5474V22.7024C80.7073 22.818 80.6622 22.9289 80.5819 23.0109C80.5016 23.0929 80.3926 23.1394 80.2787 23.1402H75.2285C75.114 23.1402 75.0042 23.0941 74.9233 23.012C74.8423 22.9299 74.7969 22.8185 74.7969 22.7024V22.5474C74.798 22.4284 74.8428 22.3141 74.9227 22.2269C75.0025 22.1397 75.1116 22.086 75.2285 22.0761L75.6331 22.0457C75.8177 22.044 75.9998 22.0014 76.1666 21.921C76.249 21.7579 76.2853 21.5748 76.2715 21.392V13.2742C76.2857 13.0914 76.2494 12.9082 76.1666 12.7452C75.9996 12.665 75.8178 12.6214 75.6331 12.6175L75.2285 12.5902C75.1131 12.5797 75.0056 12.5265 74.9265 12.4406C74.8475 12.3548 74.8024 12.2424 74.7999 12.125V11.9699C74.8006 11.8546 74.846 11.7441 74.9261 11.6623C75.0062 11.5804 75.1148 11.5337 75.2285 11.5321H80.971ZM79.2506 16.9592C79.4257 16.98 79.602 16.9881 79.7781 16.9835C81.6184 16.9835 82.6015 16.2599 82.6015 14.8552C82.6015 13.107 80.995 12.727 79.94 12.727H79.6822C79.5683 12.727 79.459 12.7727 79.3781 12.8541C79.2973 12.9356 79.2514 13.0462 79.2506 13.1617V16.9592Z" fill="white"/>
<path d="M98.951 11.5321C99.0647 11.5337 99.1732 11.5804 99.2534 11.6623C99.3335 11.7441 99.3788 11.8546 99.3796 11.9699V13.9614C99.3796 14.0769 99.3345 14.1879 99.2542 14.2699C99.1739 14.3519 99.0649 14.3984 98.951 14.3992H98.0518C97.9322 14.3948 97.8173 14.3503 97.7252 14.2728C97.633 14.1953 97.5687 14.089 97.5423 13.9705L97.4075 13.2682C97.3857 13.0929 97.3308 12.9236 97.2456 12.7695C97.0822 12.7116 96.9088 12.6878 96.7361 12.6996H94.1106C94.0541 12.6992 93.998 12.7102 93.9457 12.7318C93.8933 12.7535 93.8457 12.7855 93.8056 12.8259C93.7655 12.8663 93.7336 12.9143 93.7119 12.9673C93.6902 13.0202 93.679 13.077 93.679 13.1344V16.1139C93.6814 16.2282 93.728 16.3369 93.8087 16.4166C93.8895 16.4962 93.998 16.5404 94.1106 16.5396H95.4084C95.585 16.5507 95.7621 16.5269 95.9299 16.4697C96.0186 16.317 96.07 16.145 96.0797 15.968L96.1457 15.4815C96.1657 15.363 96.2257 15.2552 96.3153 15.1765C96.4049 15.0978 96.5187 15.053 96.6372 15.0498H97.3115C97.4255 15.0498 97.5348 15.0955 97.6157 15.177C97.6965 15.2584 97.7423 15.369 97.7431 15.4846V18.7591C97.7424 18.8749 97.6966 18.9858 97.6159 19.0678C97.5351 19.1497 97.4258 19.1961 97.3115 19.1969H96.6372C96.5182 19.1936 96.4041 19.1484 96.3145 19.069C96.2248 18.9897 96.1651 18.8812 96.1457 18.7621L96.0797 18.2787C96.0694 18.1018 96.0181 17.9299 95.9299 17.777C95.7621 17.7198 95.585 17.696 95.4084 17.7071H94.1106C94.0541 17.7067 93.998 17.7176 93.9457 17.7393C93.8933 17.761 93.8457 17.7929 93.8056 17.8334C93.7655 17.8738 93.7336 17.9218 93.7119 17.9748C93.6902 18.0277 93.679 18.0845 93.679 18.1419V21.5319C93.679 21.5892 93.6902 21.646 93.7119 21.699C93.7336 21.7519 93.7655 21.8 93.8056 21.8404C93.8457 21.8808 93.8933 21.9128 93.9457 21.9344C93.998 21.9561 94.0541 21.9671 94.1106 21.9667H97.3595C97.5352 21.9813 97.7117 21.9499 97.872 21.8754C97.9529 21.7109 98.0075 21.5344 98.0339 21.3525L98.2347 20.3218C98.2613 20.2023 98.3265 20.0953 98.4199 20.0177C98.5132 19.94 98.6295 19.8962 98.7502 19.8931H99.5624C99.6769 19.8931 99.7866 19.9392 99.8676 20.0214C99.9485 20.1035 99.994 20.2148 99.994 20.3309V22.6963C99.994 22.8125 99.9485 22.9238 99.8676 23.0059C99.7866 23.088 99.6769 23.1342 99.5624 23.1342H89.6718C89.5576 23.1334 89.4483 23.087 89.3675 23.005C89.2867 22.9231 89.241 22.8122 89.2402 22.6963V22.5413C89.2435 22.4236 89.2892 22.3111 89.3688 22.2254C89.4483 22.1396 89.5562 22.0865 89.6718 22.0761L90.0525 22.0457C90.2407 22.0422 90.4264 21.9998 90.5979 21.921C90.6846 21.7593 90.7231 21.5755 90.7088 21.392V13.2742C90.7235 13.0917 90.6883 12.9087 90.6069 12.7452C90.4401 12.6645 90.2582 12.621 90.0734 12.6175L89.6718 12.5902C89.5562 12.5798 89.4483 12.5266 89.3688 12.4409C89.2892 12.3551 89.2435 12.2427 89.2402 12.125V11.9699C89.241 11.854 89.2867 11.7432 89.3675 11.6612C89.4483 11.5793 89.5576 11.5329 89.6718 11.5321H98.951Z" fill="white"/>
<path d="M45.2391 9.79303C47.6548 9.56197 48.7248 10.5136 47.2981 10.9909C47.0921 11.0618 46.879 11.1097 46.6627 11.1338C46.4829 11.149 46.384 11.3315 46.5069 11.5412C46.6298 11.751 46.8066 12.2284 46.5908 12.426C46.5543 12.4577 46.5113 12.4806 46.4649 12.4931C46.4185 12.5057 46.3699 12.5075 46.3227 12.4985C46.2756 12.4894 46.231 12.4697 46.1923 12.4409C46.1536 12.412 46.1218 12.3747 46.0993 12.3317C46.0255 12.1704 46.0025 11.9899 46.0333 11.8149C46.0753 11.5382 46.0603 11.225 45.6976 11.1247C45.441 11.0527 45.1673 11.0775 44.9274 11.1946C44.301 11.5564 44.5917 12.0672 44.7715 12.4473C44.9513 12.8273 45.1671 13.9675 44.232 13.9675C43.4408 13.9675 43.4438 12.9824 43.6626 12.429C43.8394 11.9973 43.9203 11.6477 43.7825 11.4136C43.6446 11.1794 43.222 11.143 42.9672 11.073C42.4727 10.9301 42.2119 10.5197 43.1111 10.1609C42.7215 11.2007 44.7266 10.9636 45.35 10.8328C45.6137 10.7781 46.2491 10.5957 46.1412 10.2673C46.0513 10.0089 45.5028 9.80824 45.2391 9.79303Z" fill="white"/>
<path d="M37.4463 22.1187C37.698 22.6416 37.5512 23.2223 37.0117 23.8578C36.5757 24.3378 36.0704 24.7478 35.5131 25.0739C34.57 25.6246 33.5535 26.0342 32.495 26.2901C32.3421 27.0988 32.1953 27.9045 32.0334 28.7224C31.8763 29.5235 31.6268 30.3032 31.2901 31.0452C30.9482 31.7881 30.434 32.4359 29.7916 32.9333C29.6942 33.0139 29.585 33.0786 29.4679 33.1248C29.7376 33.1248 30.0973 33.0883 30.5438 33.0519C30.9549 33.0359 31.3543 32.9089 31.7007 32.684C31.9544 32.4367 32.1926 32.1738 32.4141 31.8965H32.444L32.465 31.9148C32.4657 31.9571 32.4531 31.9986 32.429 32.0333C32.2362 32.416 31.9468 32.7399 31.5904 32.9722C31.234 33.2046 30.8232 33.3369 30.4 33.3559C30.2089 33.3682 30.0172 33.361 29.8275 33.3346C29.6415 33.313 29.4541 33.3059 29.2671 33.3133C29.1364 33.3328 29.0073 33.3612 28.8804 33.3985C28.7217 33.4411 28.5606 33.4736 28.3979 33.4957C28.0412 33.5261 27.8284 33.4684 27.7565 33.3133C27.7145 33.2252 27.8374 33.1674 28.1251 33.1431C28.242 33.1431 28.4249 33.1248 28.6676 33.1248C28.9104 33.1248 29.0902 33.1248 29.2041 33.1005C29.8755 32.7215 30.4 31.9411 30.7776 30.7594C30.8915 30.3976 31.0953 29.4581 31.377 27.9349C31.459 27.5397 31.5749 27.0461 31.7247 26.4543C31.1508 26.5815 30.5705 26.6769 29.9864 26.74C29.4918 27.6187 28.9853 28.4883 28.4878 29.3487C29.7976 29.5098 30.5858 29.7622 30.8346 30.1057C30.4929 29.903 29.6777 29.7186 28.3889 29.5524C27.3699 31.255 26.2229 32.537 24.9482 33.3985C23.4716 34.4119 21.6183 35.02 19.3884 35.2227C18.8992 35.268 18.4075 35.2782 17.9168 35.2531C18.5163 36.4692 19.6702 37.3378 21.3785 37.8587C22.7762 38.2895 24.2427 38.4423 25.6974 38.3086C27.256 38.1688 28.4888 37.7908 29.3959 37.1746C30.325 36.5422 30.6278 35.8885 30.3131 35.2196C30.1828 34.9375 29.9745 34.6999 29.7136 34.5355C29.6545 34.5072 29.5991 34.4714 29.5488 34.4291C29.5533 34.4265 29.5585 34.4251 29.5638 34.4251C29.569 34.4251 29.5742 34.4265 29.5788 34.4291C29.8091 34.4507 30.023 34.5592 30.1782 34.7332C30.3726 34.8854 30.5372 35.073 30.6637 35.2865C30.9894 35.9797 30.6477 36.6496 29.6387 37.2962C28.6297 37.9428 27.3409 38.3289 25.7724 38.4546C24.263 38.6193 22.7363 38.4808 21.2796 38.0472C19.5713 37.5212 18.4024 36.5969 17.77 35.2865C16.598 35.2398 15.4472 34.9544 14.3862 34.4474C13.332 33.9715 12.4737 33.1385 11.9585 32.0911C11.6311 31.4399 11.546 30.6908 11.7187 29.9811C11.8916 29.3276 12.2539 28.7419 12.7587 28.2998C13.9176 27.2336 15.5051 26.6083 17.5212 26.4238C18.7246 26.306 19.9387 26.384 21.1178 26.6549C22.6344 27.0157 23.6164 27.6684 24.064 28.6129C24.1724 28.855 24.2442 29.1122 24.2768 29.376C24.3188 29.376 24.3967 29.376 24.5106 29.3548L24.7593 29.3365C25.7726 29.2367 26.7926 29.2275 27.8074 29.3092C28.0352 28.9686 28.5347 28.1477 29.306 26.8465C28.0483 26.9454 26.7831 26.8573 25.5506 26.585C23.9381 26.2242 22.9001 25.5543 22.4365 24.5753C22.1228 23.9105 22.1998 23.349 22.6673 22.8909C23.1692 22.4523 23.8035 22.2003 24.4656 22.1765C25.2477 22.0819 26.0402 22.2126 26.7524 22.5535C27.0621 22.6791 27.3267 22.8976 27.5107 23.1798C27.5497 23.2588 27.5557 23.2983 27.5107 23.3044C27.1819 22.8539 26.6985 22.5447 26.156 22.4379C25.6427 22.2975 25.1087 22.2522 24.5795 22.3041C23.9587 22.3195 23.3636 22.5588 22.9011 22.9791C22.4875 23.4078 22.4276 23.9399 22.7303 24.5723C23.1798 25.5148 24.1779 26.1563 25.7274 26.5059C26.9245 26.7634 28.1516 26.8474 29.372 26.7552C31.2522 23.3683 33.3312 21.5724 35.609 21.3677C36.5471 21.2643 37.1645 21.5228 37.4463 22.1187ZM23.9201 28.6342C23.5205 27.7788 22.5634 27.2235 21.0489 26.9681C19.9444 26.7929 18.8226 26.7602 17.71 26.8708C16.1128 26.9706 14.5696 27.4949 13.2353 28.391C11.7847 29.4227 11.399 30.651 12.0784 32.0759C12.5791 33.0815 13.4102 33.8783 14.4282 34.3288C15.4591 34.8029 16.5701 35.0723 17.701 35.1223C17.511 34.7289 17.4155 34.2954 17.4222 33.8574C17.429 33.4193 17.5379 32.9891 17.74 32.6019C16.4672 32.3424 15.673 31.8854 15.3573 31.2307C15.3157 31.1321 15.2817 31.0305 15.2554 30.9266C15.2164 30.7685 15.2164 30.6864 15.2554 30.6864C15.2762 30.6833 15.2974 30.6833 15.3183 30.6864C15.3183 30.7168 15.3453 30.802 15.3782 30.9418C15.3966 31.0262 15.4227 31.1087 15.4562 31.1881C15.6932 31.5903 16.0659 31.8916 16.5052 32.0364C16.9382 32.2147 17.3911 32.3382 17.8539 32.4043C18.3354 31.5935 19.2056 30.9155 20.4644 30.3702C21.628 29.8795 22.8539 29.5572 24.106 29.4125C24.1016 29.1423 24.0381 28.8765 23.9201 28.6342ZM27.7115 29.5463C26.682 29.4599 25.6469 29.466 24.6185 29.5645C24.5136 29.5645 24.4027 29.5858 24.2888 29.6071C24.2888 30.4645 23.7893 31.1851 22.7902 31.7688C21.8711 32.2967 20.8468 32.6084 19.7931 32.6809C19.1702 32.7417 18.5422 32.7172 17.9258 32.608C17.6985 32.9778 17.5699 33.4012 17.5526 33.8367C17.5352 34.2721 17.6298 34.7047 17.8269 35.0919C18.3262 35.1262 18.8274 35.119 19.3255 35.0707C21.1813 34.9435 22.9668 34.3008 24.4866 33.213C25.7822 32.2093 26.8768 30.9637 27.7115 29.5433V29.5463ZM24.088 29.6132C22.8889 29.7566 21.7145 30.0634 20.5963 30.5253C19.3675 31.0361 18.5103 31.6705 18.0247 32.4286C19.5247 32.5641 21.0328 32.2846 22.3886 31.6198C23.4466 31.0543 24.01 30.4037 24.088 29.6102V29.6132ZM37.2754 22.1369C37.2043 21.9972 37.1056 21.8738 36.9855 21.7744C36.8654 21.675 36.7263 21.6018 36.5771 21.5593C36.2875 21.4627 35.9811 21.4295 35.678 21.462C34.2748 21.6077 32.9838 22.3051 32.0814 23.4048C31.2703 24.411 30.5745 25.5075 30.0074 26.6732C30.5842 26.6061 31.1567 26.5046 31.7217 26.3691C31.9681 25.4098 32.3316 24.4855 32.8037 23.6176C33.4541 22.4683 34.2004 21.8603 35.0426 21.7934C35.4052 21.763 35.585 21.7934 35.5761 21.8846L35.5431 21.918L35.1415 21.8876C34.8158 21.9237 34.5036 22.0394 34.2316 22.2247C33.9596 22.41 33.736 22.6595 33.58 22.9517C33.2786 23.4956 33.0459 24.0758 32.8876 24.6787C32.6998 25.3354 32.5689 25.8421 32.495 26.1989C33.4889 25.9123 34.4397 25.4899 35.3213 24.9432C36.9897 23.8203 37.6451 22.8838 37.2874 22.1339L37.2754 22.1369Z" fill="#E7A43F" stroke="#E7A43F" stroke-width="0.3"/>
<path d="M35.3364 31.6198C35.3364 31.6533 35.2824 31.781 35.1236 31.9968C34.9198 32.296 34.6524 32.545 34.3412 32.7254C34.03 32.9059 33.6828 33.0133 33.3253 33.0397C32.8218 33.0883 32.4861 32.9333 32.3152 32.5776C32.242 32.4295 32.228 32.2585 32.2763 32.1002C32.2985 32.0263 32.3433 31.9615 32.4041 31.915C32.465 31.8686 32.5388 31.8429 32.615 31.8418C32.7948 31.8418 32.9147 31.8722 32.9626 31.9816C33.0106 32.0911 32.9626 32.2097 32.8398 32.3465C32.7816 32.3892 32.7389 32.4502 32.7183 32.52C32.6977 32.5898 32.7004 32.6645 32.7259 32.7326C32.7723 32.8144 32.8433 32.8789 32.9286 32.9167C33.0138 32.9544 33.1087 32.9634 33.1994 32.9424C33.3139 32.9367 33.4236 32.8936 33.5121 32.8197C33.6007 32.7458 33.6634 32.6449 33.6909 32.532C33.7585 32.2869 33.7839 32.0318 33.7659 31.7779C33.7475 31.5534 33.7596 31.3273 33.8018 31.106C33.3672 31.6381 33.0915 31.9117 32.9746 31.9208C32.9659 31.9241 32.9564 31.9241 32.9476 31.9208C32.9476 31.8752 33.0705 31.7141 33.3313 31.4313C33.5086 31.2604 33.6711 31.0743 33.8168 30.875C33.8465 30.7831 33.9004 30.7013 33.9729 30.6386C34.0453 30.5758 34.1334 30.5345 34.2274 30.5192C34.3353 30.5192 34.3983 30.5192 34.4103 30.5466C34.4222 30.574 34.3114 30.7229 34.0566 30.9449C34.0236 30.9753 34.1165 31.2276 34.3353 31.6959C34.4131 31.8549 34.4453 32.033 34.4282 32.2097C34.4219 32.3704 34.3555 32.5226 34.2424 32.6353C34.5262 32.4574 34.7793 32.2335 34.9917 31.9725C35.1805 31.7293 35.2914 31.6046 35.3244 31.6016C35.3574 31.5986 35.3304 31.6016 35.3364 31.6198Z" fill="#E7A43F" stroke="#E7A43F" stroke-width="0.3"/>
<path d="M38.1598 31.3553C38.1747 31.3918 38.1058 31.5195 37.95 31.7323C37.7427 32.0327 37.4723 32.2827 37.1582 32.4641C36.844 32.6455 36.4941 32.7538 36.1337 32.7813C35.6302 32.8269 35.2975 32.6718 35.1236 32.313C35.0861 32.2401 35.0636 32.1602 35.0574 32.0781C35.0512 31.9961 35.0615 31.9136 35.0877 31.8357C35.1098 31.7626 35.1543 31.6985 35.2146 31.6526C35.2749 31.6068 35.348 31.5814 35.4234 31.5803C35.6032 31.5621 35.7231 31.6107 35.771 31.7202C35.819 31.8296 35.771 31.9512 35.6481 32.085C35.5253 32.2188 35.4773 32.3495 35.5373 32.4711C35.5972 32.5928 35.768 32.7022 36.0108 32.6779C36.1244 32.6717 36.2331 32.6288 36.321 32.5555C36.4089 32.4822 36.4714 32.3824 36.4993 32.2705C36.5682 32.0256 36.5936 31.7703 36.5743 31.5165C36.5575 31.2929 36.5696 31.068 36.6102 30.8476C36.1756 31.3796 35.8999 31.6533 35.783 31.6624C35.783 31.6624 35.768 31.6624 35.756 31.6624C35.7441 31.6624 35.8819 31.4557 36.1397 31.1729C36.3182 31.0021 36.4808 30.8148 36.6252 30.6135C36.6562 30.5219 36.711 30.4406 36.7838 30.378C36.8566 30.3154 36.9447 30.2738 37.0388 30.2578C37.1437 30.2578 37.2067 30.2578 37.2187 30.2851C37.2306 30.3125 37.1227 30.4645 36.865 30.6834C36.832 30.7199 36.9249 30.9662 37.1437 31.4344C37.2195 31.5952 37.2516 31.7736 37.2366 31.9512C37.2297 32.1118 37.1634 32.2638 37.0508 32.3769C37.3348 32.1979 37.5879 31.973 37.8001 31.711C37.9889 31.4678 38.0998 31.3462 38.1328 31.3432C38.1425 31.3452 38.1517 31.3493 38.1598 31.3553Z" fill="#E7A43F" stroke="#E7A43F" stroke-width="0.3"/>
<path d="M41.2168 31.8357C41.1171 31.9795 40.9898 32.1013 40.8425 32.1938C40.6951 32.2863 40.5309 32.3475 40.3596 32.3738C40.2645 32.3963 40.1647 32.3854 40.0765 32.3428C39.9883 32.3003 39.9169 32.2287 39.874 32.1397C39.8431 32.0808 39.8269 32.015 39.8269 31.9482C39.8269 31.8814 39.8431 31.8156 39.874 31.7567C39.7604 31.9592 39.6024 32.1326 39.4122 32.2633C39.222 32.3941 39.0047 32.4787 38.7771 32.5107C38.6521 32.5397 38.521 32.5256 38.4048 32.4705C38.2886 32.4155 38.1939 32.3226 38.1357 32.2066C38.085 32.0948 38.0608 31.9725 38.065 31.8495C38.0692 31.7266 38.1016 31.6063 38.1597 31.4982C38.0937 31.629 38.0398 31.6928 38.0098 31.6958C37.9952 31.7009 37.9794 31.7009 37.9648 31.6958V31.6746V31.629C38.1355 31.3169 38.3808 31.0535 38.6782 30.8628C38.9665 30.6289 39.3091 30.474 39.6732 30.4128C39.9729 30.3854 40.1528 30.4675 40.2427 30.6591C40.2651 30.7037 40.2793 30.7522 40.2846 30.802C40.3269 30.6762 40.4014 30.564 40.5004 30.477C40.5994 30.3899 40.7194 30.331 40.8481 30.3064C40.956 30.3064 41.016 30.3064 41.0279 30.3277C40.9474 30.5904 40.8472 30.8466 40.7282 31.0939C40.5214 31.5833 40.4525 31.8995 40.5214 32.0455L40.5754 32.1002C40.6062 32.1049 40.6375 32.1049 40.6683 32.1002C40.8421 32.082 41.0549 31.9087 41.3127 31.5681C41.4427 31.3825 41.586 31.2067 41.7413 31.0422H41.7563C41.7652 31.1151 41.5914 31.3827 41.2168 31.8357ZM40.1048 30.7077C40.0776 30.6449 40.0301 30.5933 39.9703 30.5612C39.9104 30.5292 39.8416 30.5187 39.7751 30.5314C39.5623 30.5527 39.3046 30.7959 39.0079 31.2641C38.7111 31.7323 38.6002 32.0546 38.6842 32.2279C38.7034 32.2699 38.7361 32.3042 38.7768 32.3251C38.8176 32.3461 38.8641 32.3525 38.909 32.3434C39.1457 32.3222 39.4275 32.0911 39.7512 31.6502C40.0748 31.2094 40.1977 30.8901 40.1048 30.7077Z" fill="#E7A43F" stroke="#E7A43F" stroke-width="0.3"/>
<path d="M45.2568 30.7321C45.3107 30.8415 45.095 31.1303 44.6094 31.6016C44.324 31.8909 44.0239 32.165 43.7103 32.4225C43.1808 34.4494 42.3655 35.8389 41.2646 36.5908C41.0438 36.752 40.7877 36.8564 40.5183 36.8949C40.1197 36.9314 39.8619 36.8219 39.742 36.5635C39.5822 36.229 39.737 35.7689 40.2066 35.1832C40.6704 34.6205 41.1874 34.1053 41.7501 33.6447L43.0809 32.5563C43.1648 32.307 43.2697 31.9482 43.3806 31.4922C43.2623 31.6813 43.1058 31.8429 42.9213 31.9661C42.7368 32.0892 42.5287 32.1712 42.3106 32.2066C42.1831 32.2339 42.0503 32.217 41.9335 32.1585C41.8166 32.1001 41.7225 32.0035 41.6662 31.8844C41.6109 31.778 41.5853 31.6584 41.5922 31.5383C41.5991 31.4183 41.6381 31.3025 41.7052 31.2033C41.6093 31.328 41.5553 31.3918 41.5403 31.3918C41.5297 31.3961 41.518 31.3961 41.5074 31.3918V31.3705V31.3219C41.7018 31.0093 41.957 30.7402 42.2575 30.5311C42.5579 30.322 42.8972 30.1773 43.2547 30.1057C43.3756 30.079 43.5021 30.0995 43.6088 30.1632C43.7154 30.2269 43.7945 30.3291 43.8302 30.4493H43.8451C43.968 30.1726 44.1059 30.0267 44.2558 30.0145C44.4056 30.0024 44.4925 30.0145 44.5135 30.0693C44.5345 30.124 44.5135 30.1757 44.4356 30.3216C44.3577 30.4675 44.1509 31.1182 43.7642 32.2705L44.1778 31.8935C44.4216 31.6749 44.6509 31.4403 44.8642 31.1912C44.9708 31.0113 45.1031 30.8484 45.2568 30.7077C45.2568 30.7077 45.2568 30.726 45.2568 30.7321ZM43.0539 32.7569C41.871 33.7967 41.2296 34.3663 41.1297 34.4656C40.2625 35.3656 39.9409 36.0486 40.1646 36.5148C40.2057 36.6037 40.275 36.676 40.3614 36.7201C40.4479 36.7642 40.5464 36.7776 40.6412 36.7581C41.4444 36.676 42.2597 35.3443 43.0599 32.7569H43.0539ZM43.6533 30.3551C43.6271 30.294 43.5818 30.2433 43.5244 30.2109C43.467 30.1785 43.4006 30.1661 43.3356 30.1757C43.1198 30.197 42.8651 30.4402 42.5624 30.9114C42.2596 31.3827 42.1547 31.7111 42.2447 31.8935C42.2642 31.9375 42.2982 31.9734 42.3407 31.995C42.3833 32.0166 42.432 32.0226 42.4784 32.0121C42.7182 31.9908 42.997 31.7567 43.3146 31.3128C43.6323 30.8689 43.7582 30.5496 43.6623 30.3551H43.6533Z" fill="#E7A43F" stroke="#E7A43F" stroke-width="0.3"/>
<path d="M48.7906 30.4037C48.8445 30.5101 48.6287 30.7989 48.1432 31.2672C47.8608 31.5597 47.5605 31.8339 47.244 32.0881C46.7145 34.115 45.8983 35.5054 44.7954 36.2594C44.5775 36.4239 44.3215 36.5286 44.0521 36.5635C43.6534 36.6 43.3957 36.4905 43.2728 36.2351C43.113 35.9007 43.2678 35.4396 43.7374 34.8517C44.2044 34.2921 44.7211 33.7771 45.2809 33.3133C45.7215 32.9576 46.1651 32.5928 46.6086 32.2279C46.6986 31.9756 46.8005 31.6198 46.9084 31.1638C46.7908 31.3533 46.6344 31.515 46.4498 31.6378C46.2651 31.7605 46.0566 31.8415 45.8384 31.8752C45.7134 31.9043 45.5823 31.8902 45.4661 31.8351C45.3499 31.78 45.2552 31.6871 45.197 31.5712C45.1419 31.4644 45.1162 31.3445 45.1226 31.2242C45.1289 31.1038 45.167 30.9874 45.2329 30.8871C45.14 31.0118 45.0801 31.0695 45.0621 31.0726C45.0533 31.0752 45.0439 31.0752 45.0351 31.0726V31.0513V31.0087C45.2286 30.6953 45.4836 30.4256 45.7842 30.2164C46.0848 30.0072 46.4246 29.8629 46.7825 29.7926C46.8983 29.766 47.0197 29.7824 47.1247 29.8387C47.2297 29.895 47.3114 29.9876 47.3549 30.0997C47.4838 29.8199 47.6217 29.674 47.7715 29.6618C47.9214 29.6497 48.0053 29.6618 48.0293 29.7166C48.0533 29.7713 48.0293 29.823 47.9514 29.9689C47.8734 30.1149 47.6666 30.7655 47.28 31.9148L47.6936 31.5347C47.9365 31.3163 48.1658 31.0828 48.38 30.8354C48.488 30.6646 48.6191 30.5101 48.7696 30.3763L48.7906 30.4037ZM46.5907 32.4255C45.4058 33.4674 44.7634 34.0379 44.6635 34.1373C43.8023 35.0392 43.4816 35.7223 43.7014 36.1865C43.7429 36.275 43.8123 36.3469 43.8986 36.391C43.9849 36.435 44.0832 36.4487 44.1779 36.4297C44.9752 36.3567 45.7794 35.0261 46.5907 32.4377V32.4255ZM47.1901 30.0236C47.1638 29.9626 47.1185 29.9119 47.0611 29.8795C47.0037 29.8471 46.9374 29.8347 46.8724 29.8443C46.6596 29.8655 46.3988 30.1088 46.0961 30.58C45.7934 31.0513 45.6915 31.3766 45.7754 31.5621C45.7969 31.6059 45.8321 31.6413 45.8754 31.6627C45.9188 31.6842 45.9679 31.6905 46.0152 31.6806C46.252 31.6594 46.5307 31.4222 46.8484 30.9783C47.1661 30.5344 47.283 30.2304 47.1931 30.0358L47.1901 30.0236Z" fill="#E7A43F" stroke="#E7A43F" stroke-width="0.3"/>
<path d="M50.7866 30.2304C50.8256 30.3125 50.6547 30.5679 50.2771 31.0057C50.0685 31.2929 49.7598 31.4886 49.4139 31.5529C49.3196 31.577 49.2202 31.5686 49.1311 31.5289C49.0421 31.4893 48.9687 31.4207 48.9224 31.334C48.8488 31.0728 48.8778 30.7927 49.0033 30.5527C49.0876 30.2982 49.2132 30.0598 49.3749 29.8473C49.2327 29.9893 49.0977 30.1385 48.9703 30.2942C48.9104 30.3824 48.8115 30.5071 48.6706 30.6712C48.6433 30.7018 48.606 30.7212 48.5657 30.726L48.5537 30.7077C48.5537 30.5314 48.7275 30.2942 49.0572 29.9932C49.2808 29.7426 49.5748 29.5676 49.8994 29.4916C49.9508 29.4808 50.0039 29.4808 50.0553 29.4916V29.5129C49.9681 29.7682 49.8681 30.0189 49.7556 30.2638C49.5458 30.7503 49.4708 31.0513 49.5278 31.1759C49.5481 31.1983 49.5713 31.2177 49.5967 31.2337C49.6087 31.2448 49.623 31.2531 49.6386 31.2578C49.6542 31.2626 49.6706 31.2637 49.6866 31.2611C49.8275 31.2611 50.0223 31.0786 50.2681 30.7472C50.5138 30.4158 50.6877 30.2365 50.7836 30.2061L50.7866 30.2304ZM50.5019 28.0383C50.5528 28.1356 50.5198 28.245 50.4089 28.3636C50.3173 28.4697 50.1903 28.5379 50.0523 28.5551C49.9884 28.5054 49.9387 28.4393 49.9084 28.3636C49.7885 28.1082 49.9084 27.9623 50.2711 27.9319C50.391 27.9197 50.4689 27.9714 50.5019 28.0383Z" fill="#E7A43F" stroke="#E7A43F" stroke-width="0.3"/>
<path d="M53.835 30.7077C53.7357 30.8519 53.6085 30.9739 53.4611 31.0665C53.3137 31.159 53.1493 31.22 52.9778 31.2459C52.8827 31.2672 52.7834 31.2558 52.6954 31.2134C52.6075 31.171 52.536 31.1 52.4923 31.0118C52.4613 30.9528 52.4451 30.887 52.4451 30.8202C52.4451 30.7534 52.4613 30.6876 52.4923 30.6287C52.3793 30.8324 52.2216 31.0069 52.0314 31.1388C51.8411 31.2706 51.6234 31.3561 51.3953 31.3888C51.2703 31.4173 51.1395 31.4029 51.0234 31.3479C50.9073 31.2929 50.8125 31.2003 50.7539 31.0847C50.7033 30.9729 50.6791 30.8506 50.6832 30.7276C50.6874 30.6047 50.7198 30.4844 50.7779 30.3763C50.709 30.504 50.658 30.5709 50.625 30.5709C50.618 30.5742 50.6103 30.5759 50.6026 30.5759C50.5948 30.5759 50.5871 30.5742 50.5801 30.5709V30.5496V30.504C50.7328 30.1837 50.964 29.9084 51.2514 29.7044C51.5383 29.4681 51.8815 29.3129 52.2465 29.2544C52.5462 29.2301 52.726 29.3091 52.813 29.4977C52.8342 29.5439 52.8483 29.5931 52.8549 29.6436C52.8967 29.5175 52.9709 29.405 53.07 29.3178C53.1691 29.2307 53.2894 29.172 53.4184 29.148C53.5263 29.148 53.5862 29.1541 53.5982 29.1663C53.5203 29.4309 53.4201 29.6883 53.2985 29.9355C53.0917 30.425 53.0228 30.7412 53.0947 30.8871L53.1456 30.9418C53.1765 30.9449 53.2077 30.9449 53.2386 30.9418C53.4124 30.9418 53.6282 30.7503 53.8829 30.4128C54.0113 30.225 54.1557 30.049 54.3145 29.8868H54.3295C54.3835 29.972 54.2126 30.2365 53.835 30.7077ZM52.723 29.5706C52.6959 29.5084 52.649 29.4572 52.5897 29.4252C52.5305 29.3932 52.4624 29.3823 52.3964 29.3943C52.1836 29.4156 51.9228 29.6588 51.6261 30.127C51.3294 30.5952 51.2185 30.9175 51.3054 31.0908C51.3245 31.1323 51.3567 31.1661 51.3968 31.187C51.437 31.2079 51.4828 31.2147 51.5272 31.2063C51.765 31.184 52.0467 30.953 52.3724 30.5131C52.6991 30.0601 52.816 29.747 52.723 29.5554V29.5706Z" fill="#E7A43F" stroke="#E7A43F" stroke-width="0.3"/>
<path d="M58.2434 29.5554C58.2794 29.6375 58.1115 29.8959 57.7339 30.3307C57.5228 30.6181 57.2122 30.8136 56.8647 30.878C56.7712 30.9005 56.673 30.8917 56.5849 30.8528C56.4968 30.8138 56.4236 30.7469 56.3762 30.6621C56.3012 30.3999 56.3302 30.1184 56.4571 29.8777C56.5419 29.6219 56.6685 29.3824 56.8317 29.1693C56.7388 29.2635 56.601 29.4125 56.4241 29.6162C56.3612 29.7074 56.2683 29.8321 56.1244 29.9963C56.0973 30.0254 56.0615 30.0446 56.0225 30.051L55.9985 30.0297C55.9985 29.8564 56.1694 29.6162 56.4991 29.3183C56.7243 29.074 57.0184 28.9062 57.3413 28.8379C57.3949 28.8301 57.4494 28.8301 57.5031 28.8379V28.8622C57.4172 29.1171 57.3171 29.3668 57.2034 29.6101C56.9966 30.0996 56.9187 30.4006 56.9756 30.5223C56.9969 30.5456 57.0211 30.566 57.0475 30.5831C57.0594 30.5934 57.0732 30.6012 57.0882 30.6059C57.1031 30.6106 57.1189 30.6122 57.1345 30.6104C57.2783 30.6104 57.4701 30.428 57.7189 30.0966C57.8506 29.881 58.0251 29.6957 58.2314 29.5524L58.2434 29.5554ZM57.9437 27.3603C57.9916 27.4606 57.9617 27.5701 57.8478 27.6886C57.7558 27.7938 57.6288 27.8609 57.4911 27.8771C57.4273 27.8293 57.3784 27.7639 57.3502 27.6886C57.2274 27.4302 57.3502 27.2873 57.7129 27.2569C57.7596 27.2416 57.8102 27.244 57.8554 27.2635C57.9005 27.2831 57.9372 27.3185 57.9587 27.3633L57.9437 27.3603Z" fill="#E7A43F" stroke="#E7A43F" stroke-width="0.3"/>
<path d="M62.2776 24.1314C62.4034 24.399 62.2955 24.7942 61.9539 25.3171C61.6122 25.8401 60.721 26.9934 59.2804 28.7771C59.1575 29.0106 59.0782 29.2652 59.0466 29.5281C58.9706 29.7811 58.9542 30.0488 58.9987 30.3094L59.0496 30.3581C59.0843 30.3837 59.1266 30.3966 59.1695 30.3946C59.4483 30.3702 59.769 30.051 60.1496 29.4399L60.2785 29.3608V29.3821C60.3144 29.4551 60.1436 29.7135 59.766 30.1574C59.5454 30.4477 59.2237 30.6413 58.8668 30.6986C58.6091 30.7168 58.4382 30.6469 58.3603 30.4767C58.2524 30.2547 58.3003 29.8686 58.4922 29.2605C58.2704 29.5919 58.1325 29.7591 58.0846 29.7652H58.0666C58.0486 29.7044 58.1235 29.5645 58.2944 29.3456C58.4023 29.2058 58.5072 29.0659 58.6151 28.9291C58.678 28.7588 58.7769 28.4943 58.9148 28.1447C60.0417 25.3719 60.9898 23.953 61.7591 23.8882C61.8598 23.8664 61.9648 23.8784 62.0582 23.9222C62.1517 23.9661 62.2286 24.0395 62.2776 24.1314ZM61.9778 24.2013C61.9539 24.1418 61.9121 24.0915 61.8582 24.0576C61.8044 24.0238 61.7413 24.0081 61.6781 24.0128C61.3724 24.0392 60.9169 24.7212 60.3114 26.059C59.9359 26.8475 59.6116 27.66 59.3404 28.4913C59.8888 27.7738 60.4343 27.0562 60.9768 26.3296C61.786 25.1925 62.1217 24.4871 61.9868 24.2013H61.9778Z" fill="#E7A43F" stroke="#E7A43F" stroke-width="0.3"/>
<path d="M66.3358 23.7605C66.4737 24.0432 66.3658 24.4415 66.0361 24.9462C65.7064 25.4509 65.0141 26.3266 64.0101 27.564C63.8482 27.7464 63.6234 28.0261 63.3327 28.4001C63.083 28.9959 62.8649 29.6049 62.6793 30.2243C63.2772 29.9891 63.797 29.5863 64.1779 29.0629C64.2169 29.0082 64.2468 28.9778 64.2648 28.9778C64.2828 28.9778 64.3038 28.9778 64.3098 28.9778C64.3163 29.004 64.3168 29.0313 64.3111 29.0577C64.3053 29.0841 64.2936 29.1088 64.2768 29.1298C64.131 29.3629 63.9464 29.5686 63.7313 29.7379C63.3818 29.9611 63.0446 30.2037 62.7213 30.4645C62.6937 30.6009 62.6937 30.7416 62.7213 30.878C62.7213 31.027 62.7452 31.182 62.7602 31.3188C62.7848 32.0209 62.7244 32.7234 62.5804 33.4106C62.3706 34.3987 62.0469 34.9308 61.6093 34.9551C61.5271 34.9703 61.4422 34.9562 61.369 34.9152C61.2958 34.8742 61.2388 34.8089 61.2077 34.7301C60.8421 33.966 61.2966 31.9877 62.5714 28.7953H62.5564C62.4078 29.007 62.2369 29.2017 62.0469 29.376C62.0319 29.3335 62.1278 29.1784 62.3256 28.9078L62.6913 28.4518C62.8651 28.02 63.0899 27.4606 63.3687 26.7857C63.6517 26.1252 63.9917 25.4913 64.3847 24.8915C64.9601 23.9794 65.4517 23.5173 65.8533 23.4777C65.9531 23.4651 66.0543 23.4859 66.1414 23.5369C66.2285 23.5879 66.2968 23.6665 66.3358 23.7605ZM62.5474 30.5679H62.5324C62.3226 31.1759 62.1099 31.8844 61.8971 32.6566C61.5933 33.7897 61.4824 34.4575 61.5644 34.6602C61.5768 34.6932 61.5998 34.721 61.6297 34.7392C61.6596 34.7574 61.6946 34.7649 61.7292 34.7605C62.0529 34.7301 62.3286 34.1221 62.5265 32.9363C62.6432 32.1518 62.6503 31.3544 62.5474 30.5679ZM66.0421 23.8213C66.021 23.7605 65.9793 23.7094 65.9243 23.677C65.8694 23.6447 65.8049 23.6333 65.7424 23.645C65.4427 23.6723 64.9901 24.329 64.4027 25.6182C64.0273 26.4262 63.6932 27.2532 63.4016 28.0961L64.9961 25.9678C65.8233 24.8084 66.172 24.0929 66.0421 23.8213Z" fill="#E7A43F" stroke="#E7A43F" stroke-width="0.3"/>
<path d="M68.2719 28.6494C68.3109 28.7345 68.146 28.996 67.7654 29.4308C67.5555 29.7099 67.2513 29.9005 66.9112 29.9659C66.8134 29.9909 66.7101 29.9821 66.6178 29.9408C66.5255 29.8995 66.4494 29.828 66.4017 29.7379C66.2938 29.5159 66.3747 29.1845 66.6355 28.7376L66.6025 28.7193C65.8802 29.6314 65.3407 30.1118 64.978 30.1422C64.7053 30.1665 64.5285 30.0905 64.4445 29.9142C64.3067 29.6284 64.4625 29.1359 64.9061 28.4396C64.7605 28.58 64.6225 28.7282 64.4925 28.8835C64.4295 28.9747 64.3366 29.1024 64.1928 29.2636C64.1656 29.2926 64.1298 29.3119 64.0909 29.3183L64.0669 29.297C64.1577 29.0089 64.3271 28.7527 64.5554 28.5582C64.7697 28.3072 65.0611 28.1368 65.3826 28.0748C65.438 28.0618 65.4962 28.0682 65.5475 28.093C65.5475 28.1113 65.4456 28.3971 65.2478 28.9504C65.0799 29.4125 65.02 29.6922 65.0709 29.7956C65.0882 29.812 65.1073 29.8263 65.1279 29.8382C65.1424 29.85 65.1594 29.8584 65.1776 29.8626C65.1957 29.8668 65.2146 29.8668 65.2328 29.8625C65.4276 29.8625 66.0001 29.2544 66.9412 28.0596C66.9775 28.0137 67.023 27.9762 67.0747 27.9495C67.1263 27.9227 67.183 27.9074 67.2409 27.9045C67.4117 27.9045 67.5046 27.9045 67.5406 27.938C67.4713 28.2075 67.3707 28.4678 67.2409 28.7132C67.0341 29.1967 66.9592 29.4885 67.0101 29.598C67.0224 29.6271 67.0434 29.6515 67.07 29.6679C67.0954 29.6858 67.1264 29.6934 67.157 29.6892C67.4357 29.6618 67.7564 29.3456 68.1161 28.7285L68.2509 28.6464L68.2719 28.6494Z" fill="#E7A43F" stroke="#E7A43F" stroke-width="0.3"/>
<path d="M70.1333 26.0985C69.8145 26.6205 69.5504 27.1748 69.3451 27.7525C69.4083 27.7387 69.4724 27.7295 69.5369 27.7251L70.0464 27.6765C70.1693 27.6765 70.2382 27.6765 70.2592 27.713C70.2802 27.7494 70.1573 27.8042 69.8846 27.8285L69.3031 27.8832C69.0034 28.6676 68.9195 29.1662 69.0184 29.376C69.032 29.4141 69.0576 29.4466 69.0911 29.4686C69.1247 29.4905 69.1644 29.5007 69.2042 29.4976C69.3601 29.4976 69.7257 29.1328 70.2922 28.4396C70.2996 28.4393 70.3068 28.4412 70.3132 28.445C70.3196 28.4487 70.3248 28.4542 70.3282 28.4609C70.3671 28.5399 70.1933 28.7984 69.8186 29.2362C69.5935 29.5378 69.2613 29.7385 68.8925 29.7956C68.7964 29.8182 68.6956 29.8082 68.6057 29.767C68.5158 29.7258 68.4418 29.6557 68.395 29.5676C68.2871 29.3456 68.3321 28.9595 68.5269 28.3818C68.3848 28.5942 68.2296 28.7973 68.0623 28.9899C68.0507 28.9874 68.0397 28.9827 68.03 28.9759C68.0202 28.9691 68.0118 28.9605 68.0054 28.9504C68.0721 28.7903 68.1642 28.6424 68.2781 28.5126C68.5179 28.1903 68.6498 28.0048 68.6767 27.9653L68.425 27.9866L68.1942 28.0079H68.1133C68.1033 28.0042 68.0942 27.9986 68.0865 27.9913C68.0787 27.984 68.0726 27.9751 68.0683 27.9653C68.0473 27.9288 68.1522 27.9015 68.368 27.8802C68.4829 27.8761 68.5973 27.8619 68.7097 27.8376C69.1563 26.6944 69.5549 26.1076 69.9086 26.0772C69.9839 26.0611 70.0623 26.0685 70.1333 26.0985Z" fill="#E7A43F" stroke="#E7A43F" stroke-width="0.3"/>
<path d="M74.3021 28.1021C74.3441 28.1903 74.1762 28.4487 73.7986 28.8835C73.5862 29.1633 73.2802 29.3547 72.9384 29.4216C72.8403 29.4443 72.7375 29.4341 72.6456 29.3924C72.5537 29.3507 72.4777 29.2799 72.4289 29.1906C72.327 28.9686 72.4049 28.6372 72.6687 28.1903L72.6297 28.1721C71.9134 29.0842 71.3709 29.5645 71.0082 29.598C70.7355 29.6193 70.5587 29.5433 70.4747 29.3669C70.3369 29.0811 70.4927 28.5886 70.9333 27.8923C70.79 28.0342 70.654 28.1833 70.5257 28.3393C70.4657 28.4274 70.3698 28.5551 70.226 28.7163C70.2002 28.7471 70.1637 28.7666 70.1241 28.771L70.1001 28.7528C70.1876 28.4622 70.3575 28.2042 70.5886 28.0109C70.8035 27.7591 71.0962 27.5887 71.4188 27.5275C71.4732 27.514 71.5306 27.5204 71.5807 27.5457C71.5807 27.5609 71.4788 27.8498 71.281 28.4031C71.1101 28.8683 71.0502 29.145 71.0981 29.2514C71.0981 29.2514 71.1311 29.2696 71.1581 29.2909C71.1723 29.3023 71.1887 29.3107 71.2062 29.3154C71.2238 29.3201 71.2421 29.3211 71.26 29.3183C71.4598 29.3 72.0303 28.6991 72.9714 27.5153C73.0067 27.4684 73.052 27.4301 73.1039 27.4033C73.1557 27.3765 73.2129 27.3618 73.2711 27.3603C73.4449 27.342 73.5408 27.3603 73.5708 27.3907C73.5039 27.661 73.4031 27.9215 73.2711 28.166C73.0673 28.6464 72.9893 28.9413 73.0433 29.0507C73.0556 29.0806 73.0765 29.106 73.1032 29.1237C73.129 29.1405 73.16 29.147 73.1902 29.1419C73.4689 29.1146 73.7896 28.7984 74.1552 28.1781L74.2841 28.0991L74.3021 28.1021Z" fill="#E7A43F" stroke="#E7A43F" stroke-width="0.3"/>
<path d="M76.8527 27.868C76.9037 27.9714 76.7298 28.2298 76.3342 28.6555C76.1082 28.9395 75.7891 29.1316 75.435 29.1967C75.3372 29.2191 75.2349 29.2091 75.1432 29.168C75.0514 29.1269 74.9751 29.0571 74.9255 28.9686C74.8236 28.7497 74.9255 28.4396 75.2103 28.0292C75.495 27.6187 75.6478 27.4211 75.6448 27.4211C75.6418 27.4211 75.5669 27.3542 75.471 27.3572C75.3805 27.3565 75.2902 27.3647 75.2013 27.3816H74.9915C74.9288 27.3895 74.8653 27.3895 74.8026 27.3816C74.7016 27.5784 74.5864 27.7674 74.458 27.9471C74.3639 28.1201 74.2435 28.2771 74.1013 28.4123C74.0903 28.4139 74.079 28.4118 74.0693 28.4063C74.0595 28.4008 74.0518 28.3922 74.0474 28.3819C74.0474 28.3819 74.0474 28.3332 74.1013 28.2754C74.1942 28.1599 74.401 27.8467 74.7007 27.342C74.6655 27.3307 74.6331 27.3118 74.6057 27.2866C74.5782 27.2614 74.5565 27.2306 74.5419 27.1961C74.5106 27.1484 74.4985 27.0903 74.5079 27.0338C74.5174 26.9773 74.5478 26.9266 74.5928 26.8921C74.6851 26.8073 74.8041 26.7588 74.9285 26.7553C74.9776 26.7457 75.0283 26.7488 75.0759 26.7642C75.1236 26.7796 75.1667 26.8068 75.2013 26.8434L75.0784 26.9924C75.0534 27.0152 75.0362 27.0454 75.0292 27.0787C75.0222 27.112 75.0258 27.1467 75.0394 27.1779C75.0634 27.2326 75.2192 27.2508 75.507 27.2417C75.7947 27.2326 75.9715 27.2904 76.0315 27.4211C76.0674 27.491 75.9895 27.7251 75.8007 28.0717C75.6119 28.4183 75.5489 28.6798 75.6149 28.8257C75.63 28.8526 75.653 28.8739 75.6808 28.8866H75.7467C75.9086 28.8866 76.1274 28.7011 76.4061 28.3575C76.6849 28.014 76.8197 27.8407 76.8137 27.8407C76.8219 27.8417 76.8298 27.8447 76.8365 27.8495C76.8433 27.8542 76.8489 27.8606 76.8527 27.868Z" fill="#E7A43F" stroke="#E7A43F" stroke-width="0.3"/>
<path d="M79.9159 27.6035C79.9608 27.6886 79.8649 27.8346 79.6341 28.0383C79.4885 28.1929 79.304 28.3043 79.1006 28.3606C79.0214 28.376 78.9401 28.376 78.8609 28.3606C78.5624 28.7106 78.1536 28.9448 77.704 29.0234C77.3024 29.0598 77.0356 28.9443 76.9067 28.6737C76.8454 28.5523 76.8135 28.4179 76.8135 28.2815C76.8135 28.1451 76.8454 28.0107 76.9067 27.8893C76.7809 28.0991 76.6939 28.1933 76.646 28.2116C76.6392 28.2141 76.6318 28.2141 76.625 28.2116V28.1873V28.1447C76.8061 27.8377 77.0517 27.5751 77.3443 27.3755C77.6524 27.1386 78.0141 26.9839 78.3963 26.9255L78.4982 26.9742C78.4652 27.0022 78.4302 27.0276 78.3933 27.0502C78.1197 27.2555 77.8962 27.5217 77.7399 27.8285C77.5002 28.242 77.4402 28.5673 77.5421 28.7893C77.5602 28.8376 77.5943 28.878 77.6387 28.9036C77.683 28.9291 77.7347 28.9381 77.7849 28.9291C78.1116 28.8987 78.3843 28.6251 78.6151 28.1477C78.5632 28.0029 78.561 27.8446 78.6089 27.6984C78.6567 27.5521 78.7519 27.4266 78.8789 27.342C78.8657 27.2437 78.8342 27.1487 78.7859 27.0623C78.7715 27.0418 78.7554 27.0225 78.738 27.0046C78.7197 26.9854 78.7027 26.9651 78.687 26.9437C78.687 26.9164 78.687 26.8981 78.744 26.8921C78.8422 26.897 78.9347 26.9406 79.0017 27.0137C79.0808 27.0827 79.1477 27.165 79.1996 27.2569C79.3224 27.5153 79.2415 27.865 78.9598 28.2967C78.9866 28.3011 79.0139 28.3011 79.0407 28.2967C79.1438 28.2816 79.2427 28.2452 79.3314 28.1898C79.4201 28.1344 79.4966 28.0611 79.5562 27.9744C79.656 27.8307 79.7822 27.7078 79.9279 27.6126C79.9279 27.6126 79.9159 27.5944 79.9159 27.6035Z" fill="#E7A43F" stroke="#E7A43F" stroke-width="0.3"/>
<path d="M44.7027 0C45.5149 2.58127 45.1043 2.90051 43.2491 5.7767C41.8344 7.95665 43.6118 9.58324 44.5648 10.0879C43.9654 9.2336 43.5908 7.93232 43.9474 7.12054C44.7267 5.36017 46.3452 4.68825 45.8147 6.64625C45.6703 7.16585 45.5838 7.70024 45.5569 8.2394C45.8469 7.33075 46.1922 6.44125 46.5909 5.57604C47.595 3.39305 44.7027 0 44.7027 0Z" fill="#E7A43F" stroke="#E7A43F" stroke-width="0.3"/>
</g>
<defs>
<clipPath id="clip0">
<rect width="100" height="38.5093" fill="white"/>
</clipPath>
</defs>
</svg>
