<svg width="40" height="40" viewBox="0 0 40 40" fill="none" xmlns="http://www.w3.org/2000/svg">
<path d="M0 0H40V40H0V0Z" fill="black"/>
<path d="M19.4727 28.9998V26.1738C19.2105 26.2867 18.927 26.3455 18.6384 26.3455C18.0599 26.3455 17.5203 26.116 17.1189 25.6992C16.7177 25.2825 16.5087 24.7342 16.5305 24.1551C16.5501 23.6354 16.7624 23.1421 17.1282 22.7661C17.4942 22.3899 17.9816 22.1644 18.5007 22.1312C18.8376 22.1095 19.1687 22.167 19.4727 22.2983V20.5272H17.4081C17.0919 20.5272 16.7997 20.3561 16.6455 20.0808C16.4898 19.8028 16.4969 19.4606 16.664 19.1877C16.7776 19.0023 16.8302 18.788 16.8161 18.5679C16.7821 18.0365 16.3379 17.6044 15.805 17.5843C15.5147 17.5735 15.2406 17.6778 15.0323 17.8784C14.8238 18.0792 14.709 18.349 14.709 18.6382C14.709 18.8346 14.7633 19.0261 14.866 19.192C15.0325 19.4608 15.0401 19.7997 14.886 20.0764C14.7311 20.3544 14.4374 20.5272 14.1194 20.5272H11V28.2967C11 28.685 11.3148 28.9998 11.7031 28.9998H19.4727Z" fill="white"/>
<path d="M20.5273 11V13.826C20.7895 13.7131 21.073 13.6543 21.3616 13.6543C21.9401 13.6543 22.4797 13.8838 22.8811 14.3006C23.2823 14.7173 23.4913 15.2656 23.4695 15.8447C23.4499 16.3644 23.2376 16.8577 22.8718 17.2337C22.5058 17.6099 22.0184 17.8354 21.4993 17.8687C21.1624 17.8902 20.8313 17.8328 20.5273 17.7016V19.4727H22.5919C22.9081 19.4727 23.2003 19.6437 23.3545 19.919C23.5102 20.1971 23.5031 20.5392 23.336 20.8121C23.2224 20.9975 23.1698 21.2118 23.1839 21.4319C23.2179 21.9633 23.6621 22.3954 24.195 22.4155C24.4851 22.4264 24.7594 22.322 24.9677 22.1214C25.1762 21.9206 25.291 21.6508 25.291 21.3616C25.291 21.1652 25.2367 20.9737 25.134 20.8078C24.9675 20.539 24.9599 20.2001 25.114 19.9234C25.2689 19.6454 25.5626 19.4727 25.8806 19.4727H29V11.7031C29 11.3148 28.6852 11 28.2969 11L20.5273 11Z" fill="white"/>
<path d="M26.1738 20.5273C26.2867 20.7895 26.3455 21.073 26.3455 21.3616C26.3455 21.9401 26.116 22.4797 25.6991 22.8811C25.3023 23.2633 24.7859 23.471 24.2373 23.471C24.21 23.471 24.1826 23.4705 24.1551 23.4695C23.6354 23.4499 23.1421 23.2376 22.7661 22.8718C22.3899 22.5058 22.1644 22.0184 22.1311 21.4993C22.1096 21.1623 22.167 20.8313 22.2982 20.5273H20.5271V22.5919C20.5271 22.9081 20.3561 23.2003 20.0808 23.3545C19.8027 23.5102 19.4605 23.5031 19.1877 23.336C19.0023 23.2224 18.7877 23.1698 18.5679 23.1839C18.0365 23.2179 17.6044 23.6621 17.5843 24.195C17.5733 24.485 17.6778 24.7594 17.8784 24.9677C18.0792 25.1762 18.349 25.291 18.6382 25.291C18.8346 25.291 19.0261 25.2367 19.192 25.134C19.4608 24.9675 19.7997 24.9599 20.0764 25.114C20.3544 25.2689 20.5271 25.5626 20.5271 25.8806V29H28.2967C28.685 29 28.9998 28.6852 28.9998 28.2969V20.5273H26.1738Z" fill="white"/>
<path d="M13.826 19.4727C13.7131 19.2105 13.6543 18.927 13.6543 18.6384C13.6543 18.0599 13.8838 17.5203 14.3006 17.1189C14.7173 16.7177 15.2655 16.5086 15.8447 16.5305C16.3644 16.5501 16.8577 16.7624 17.2337 17.1282C17.6099 17.4942 17.8354 17.9816 17.8687 18.5007C17.8902 18.8377 17.8328 19.1687 17.7016 19.4727H19.4727V17.4081C19.4727 17.0919 19.6437 16.7997 19.919 16.6455C20.197 16.4897 20.5392 16.4969 20.8121 16.664C20.9975 16.7776 21.2119 16.8301 21.4319 16.8161C21.9633 16.7821 22.3954 16.3379 22.4155 15.805C22.4265 15.515 22.322 15.2406 22.1214 15.0323C21.9206 14.8238 21.6508 14.709 21.3616 14.709C21.1652 14.709 20.9737 14.7633 20.8078 14.866C20.539 15.0325 20.2001 15.0401 19.9234 14.886C19.6454 14.7311 19.4727 14.4374 19.4727 14.1194V11H11.7031C11.3148 11 11 11.3148 11 11.7031V19.4727H13.826Z" fill="white"/>
<path d="M0 0V-1H-1V0H0ZM40 0H41V-1H40V0ZM40 40V41H41V40H40ZM0 40H-1V41H0V40ZM0 1H40V-1H0V1ZM39 0V40H41V0H39ZM40 39H0V41H40V39ZM1 40V0H-1V40H1Z" fill="black"/>
</svg>
