<svg width="40" height="40" viewBox="0 0 40 40" fill="none" xmlns="http://www.w3.org/2000/svg">
<path d="M0 0H40V40H0V0Z" fill="black"/>
<path d="M27.2941 13.8765H26.1176V11.6538C26.1054 11.2975 25.7964 11.0113 25.4118 11H14.2588C13.0113 11 12 11.9366 12 13.092V26.908C12 28.0634 13.0113 29 14.2588 29H27.2941C27.684 29 28 28.7073 28 28.3462V14.5303C28 14.1692 27.684 13.8765 27.2941 13.8765ZM20.1882 20.8281L18.4941 19.5424C18.2625 19.4131 17.9727 19.4131 17.7412 19.5424L16.0471 20.8281V15.184H20.1882V20.8281ZM24.7059 13.8765H14.2588C13.791 13.8765 13.4118 13.5253 13.4118 13.092C13.4118 12.6587 13.791 12.3075 14.2588 12.3075H24.7059V13.8765Z" fill="white"/>
<path d="M0 0V-1H-1V0H0ZM40 0H41V-1H40V0ZM40 40V41H41V40H40ZM0 40H-1V41H0V40ZM0 1H40V-1H0V1ZM39 0V40H41V0H39ZM40 39H0V41H40V39ZM1 40V0H-1V40H1Z" fill="black"/>
</svg>
