<svg width="40" height="40" viewBox="0 0 40 40" fill="none" xmlns="http://www.w3.org/2000/svg">
<path d="M0 0H40V40H0V0Z" fill="black"/>
<g clip-path="url(#clip0)">
<path d="M23.6269 15.47V13.0521C23.6269 12.4957 23.1758 12.0446 22.6194 12.0446H21.0075V-0.17926H18.9925V12.0446H17.2463C16.6899 12.0446 16.2388 12.4957 16.2388 13.0521V15.5707C13.0624 17.0501 11.0228 20.2273 11 23.7312C11 24.2876 11.4511 24.7386 12.0075 24.7386H15.5336C16.015 27.2147 18.4125 28.8316 20.8885 28.3502C22.7159 27.9949 24.1447 26.566 24.5 24.7386H27.9925C28.5489 24.7386 29 24.2876 29 23.7312C29.0009 20.157 26.8945 16.9183 23.6269 15.47ZM20 26.3506C18.9492 26.3554 18.0028 25.7155 17.6157 24.7386H22.3843C21.9971 25.7155 21.0508 26.3554 20 26.3506Z" fill="white"/>
</g>
<path d="M0 0V-1H-1V0H0ZM40 0H41V-1H40V0ZM40 40V41H41V40H40ZM0 40H-1V41H0V40ZM0 1H40V-1H0V1ZM39 0V40H41V0H39ZM40 39H0V41H40V39ZM1 40V0H-1V40H1Z" fill="black"/>
<defs>
<clipPath id="clip0">
<rect width="18" height="19" fill="white" transform="translate(11 10)"/>
</clipPath>
</defs>
</svg>
