<svg width="40" height="40" viewBox="0 0 40 40" fill="none" xmlns="http://www.w3.org/2000/svg">
<path d="M0 0H40V40H0V0Z" fill="black"/>
<path d="M11 18.5789V28.1052L17.474 23.5949L11 18.5789Z" fill="white"/>
<path d="M20 25.552L18.3596 24.281L11.5857 29H28.4143L21.6404 24.281L20 25.552Z" fill="white"/>
<path d="M22.5259 23.5949L28.9999 28.1052V18.5789L22.5259 23.5949Z" fill="white"/>
<path d="M11.4831 17.6016L11.5904 17.6848L20.0001 24.2006L28.4098 17.6848L28.5171 17.6016H28.5202L28.5185 17.6001L28.5202 17.5991H28.5171L28.4098 17.5158L20.0001 11L11.5904 17.5158L11.4831 17.5991H11.48L11.4817 17.6001L11.48 17.6016H11.4831Z" fill="white"/>
<path d="M0 0V-1H-1V0H0ZM40 0H41V-1H40V0ZM40 40V41H41V40H40ZM0 40H-1V41H0V40ZM0 1H40V-1H0V1ZM39 0V40H41V0H39ZM40 39H0V41H40V39ZM1 40V0H-1V40H1Z" fill="black"/>
</svg>
