<svg width="40" height="40" viewBox="0 0 40 40" fill="none" xmlns="http://www.w3.org/2000/svg">
<path d="M0 0H40V40H0V0Z" fill="black"/>
<path d="M20 8.3C15.6991 8.3 12.2 11.7461 12.2 15.9819C12.2 21.3057 20.0077 30.4 20.0077 30.4C20.0077 30.4 27.8 21.0439 27.8 15.9819C27.8 11.7461 24.301 8.3 20 8.3ZM22.3534 18.2311C21.7045 18.8701 20.8523 19.1896 20 19.1896C19.1478 19.1896 18.2954 18.8701 17.6467 18.2311C16.349 16.9532 16.349 14.8738 17.6467 13.5957C18.2751 12.9766 19.111 12.6356 20 12.6356C20.889 12.6356 21.7248 12.9767 22.3534 13.5957C23.6512 14.8738 23.6512 16.9532 22.3534 18.2311Z" fill="white"/>
<path d="M0 0V-1H-1V0H0ZM40 0H41V-1H40V0ZM40 40V41H41V40H40ZM0 40H-1V41H0V40ZM0 1H40V-1H0V1ZM39 0V40H41V0H39ZM40 39H0V41H40V39ZM1 40V0H-1V40H1Z" fill="black"/>
</svg>
