<svg width="40" height="40" viewBox="0 0 40 40" fill="none" xmlns="http://www.w3.org/2000/svg">
<path d="M0 0H40V40H0V0Z" fill="black"/>
<g clip-path="url(#clip0)">
<path fill-rule="evenodd" clip-rule="evenodd" d="M20.9871 11.2418C21.127 11.4042 21.8629 12.2704 22.5643 13.2901C23.5402 14.7092 24.0149 15.779 24.0149 16.561C24.0149 18.2958 22.7654 19.7442 21.1191 20.0532V17.776C21.1191 17.4093 20.8219 17.1118 20.4549 17.1118C20.0882 17.1118 19.7907 17.4094 19.7907 17.776V20.051C18.1506 19.7371 16.9076 18.2914 16.9076 16.561C16.9076 15.779 17.3819 14.7092 18.3578 13.2901C19.0596 12.2704 19.795 11.4043 19.9354 11.2413C20.0669 11.0881 20.2586 11 20.461 11C20.6638 11 20.8555 11.0881 20.9871 11.2418ZM24.1249 20.5431C24.7899 20.3437 25.4907 20.467 26.0476 20.8815C26.6046 21.2958 26.924 21.9317 26.9239 22.626V26.9474C26.9239 28.0792 26.0032 29 24.8713 29H16.0526C14.9208 29 14 28.0793 14 26.9474V22.626C14 21.9318 14.3195 21.2959 14.8764 20.8815C15.4334 20.467 16.1342 20.3438 16.7992 20.5431C17.7798 20.8372 18.7833 21.0108 19.7909 21.0642V20.0511C20.0079 20.0932 20.2324 20.1149 20.4613 20.1149C20.6862 20.1149 20.9059 20.0941 21.1193 20.0533V21.0648C22.1316 21.0123 23.1398 20.8386 24.1249 20.5431Z" fill="white"/>
</g>
<path d="M0 0V-1H-1V0H0ZM40 0H41V-1H40V0ZM40 40V41H41V40H40ZM0 40H-1V41H0V40ZM0 1H40V-1H0V1ZM39 0V40H41V0H39ZM40 39H0V41H40V39ZM1 40V0H-1V40H1Z" fill="black"/>
<defs>
<clipPath id="clip0">
<rect width="18" height="18" fill="white" transform="translate(11 11)"/>
</clipPath>
</defs>
</svg>
