<svg width="55" height="53" viewBox="0 0 55 53" fill="none" xmlns="http://www.w3.org/2000/svg">
<g clip-path="url(#clip0)">
<path d="M32.2743 26.3381C32.2743 29.1215 29.9536 31.3777 27.0908 31.3777C24.2279 31.3777 21.9072 29.1215 21.9072 26.3381C21.9072 23.5548 24.2279 21.2986 27.0908 21.2986C29.9536 21.2986 32.2743 23.5548 32.2743 26.3381Z" fill="white"/>
<path d="M39.2127 17.4218C38.9636 16.7653 38.566 16.1712 38.0495 15.6834C37.5478 15.1812 36.9371 14.7948 36.2615 14.5525C35.7135 14.3456 34.8904 14.0993 33.3742 14.0322C31.7341 13.9595 31.2424 13.9438 27.0903 13.9438C22.9377 13.9438 22.446 13.9591 20.8063 14.0318C19.2901 14.0993 18.4666 14.3456 17.919 14.5525C17.2434 14.7948 16.6323 15.1812 16.131 15.6834C15.6145 16.1712 15.2169 16.7649 14.9674 17.4218C14.7545 17.9545 14.5012 18.7552 14.4322 20.2292C14.3574 21.8234 14.3413 22.3015 14.3413 26.3387C14.3413 30.3754 14.3574 30.8535 14.4322 32.4481C14.5012 33.9221 14.7545 34.7224 14.9674 35.2551C15.2169 35.912 15.6141 36.5057 16.1306 36.9935C16.6323 37.4957 17.243 37.8821 17.9186 38.1244C18.4666 38.3317 19.2901 38.578 20.8063 38.6451C22.446 38.7178 22.9373 38.7331 27.0898 38.7331C31.2428 38.7331 31.7345 38.7178 33.3738 38.6451C34.8899 38.578 35.7135 38.3317 36.2615 38.1244C37.6177 37.6158 38.6896 36.5736 39.2127 35.2551C39.4256 34.7224 39.6789 33.9221 39.7483 32.4481C39.8231 30.8535 39.8388 30.3754 39.8388 26.3387C39.8388 22.3015 39.8231 21.8234 39.7483 20.2292C39.6793 18.7552 39.426 17.9545 39.2127 17.4218ZM27.0903 34.1017C22.6799 34.1017 19.1046 30.6261 19.1046 26.3382C19.1046 22.0504 22.6799 18.5748 27.0903 18.5748C31.5002 18.5748 35.0755 22.0504 35.0755 26.3382C35.0755 30.6261 31.5002 34.1017 27.0903 34.1017ZM35.3912 20.0822C34.3606 20.0822 33.5251 19.2699 33.5251 18.2679C33.5251 17.2659 34.3606 16.4536 35.3912 16.4536C36.4218 16.4536 37.2573 17.2659 37.2573 18.2679C37.2569 19.2699 36.4218 20.0822 35.3912 20.0822Z" fill="white"/>
<path d="M27.0907 0.0090332C12.1363 0.0090332 0.00927734 11.7992 0.00927734 26.3381C0.00927734 40.8771 12.1363 52.6673 27.0907 52.6673C42.045 52.6673 54.172 40.8771 54.172 26.3381C54.172 11.7992 42.045 0.0090332 27.0907 0.0090332ZM42.5475 32.5713C42.4723 34.1807 42.209 35.2795 41.8247 36.2413C41.0169 38.2721 39.3656 39.8775 37.2767 40.663C36.2879 41.0366 35.1573 41.2921 33.5023 41.3656C31.844 41.4391 31.3143 41.4568 27.0911 41.4568C22.8675 41.4568 22.3381 41.4391 20.6794 41.3656C19.0244 41.2921 17.8938 41.0366 16.905 40.663C15.8669 40.2833 14.9273 39.6883 14.1504 38.919C13.3595 38.1641 12.7475 37.2501 12.357 36.2413C11.9727 35.2799 11.7094 34.1807 11.6342 32.5717C11.5578 30.9591 11.54 30.444 11.54 26.3381C11.54 22.2323 11.5578 21.7172 11.6338 20.105C11.709 18.4956 11.9718 17.3968 12.3561 16.435C12.7466 15.4262 13.3591 14.5122 14.1504 13.7573C14.9268 12.988 15.8669 12.393 16.9046 12.0133C17.8938 11.6397 19.024 11.3842 20.6794 11.3107C22.3377 11.2372 22.8675 11.2195 27.0907 11.2195C31.3139 11.2195 31.8436 11.2372 33.5019 11.3111C35.1573 11.3842 36.2875 11.6397 37.2767 12.0129C38.3144 12.3926 39.2545 12.988 40.0313 13.7573C40.8223 14.5126 41.4347 15.4262 41.8247 16.435C42.2095 17.3968 42.4723 18.4956 42.5479 20.105C42.6235 21.7172 42.6413 22.2323 42.6413 26.3381C42.6413 30.444 42.6235 30.9591 42.5475 32.5713Z" fill="white"/>
</g>
<defs>
<clipPath id="clip0">
<rect width="54.1627" height="52.6582" fill="white" transform="translate(0.00927734 0.0090332)"/>
</clipPath>
</defs>
</svg>
