<svg width="40" height="40" viewBox="0 0 40 40" fill="none" xmlns="http://www.w3.org/2000/svg">
<path d="M0 0L40 0V40H0L0 0Z" fill="#F8D49E"/>
<path d="M28.9778 17.5434C28.9421 17.4193 28.8672 17.31 28.7645 17.2318C28.6617 17.1536 28.5365 17.1106 28.4074 17.1093H22.4138L22.363 16.9534L20.6973 11.8238C20.6792 11.7673 20.6612 11.7109 20.6409 11.6573L20.6307 11.6256C20.6121 11.5692 20.5935 11.5127 20.5743 11.4506C20.5743 11.4427 20.5686 11.4354 20.5658 11.4252C20.5182 11.281 20.4205 11.1586 20.2904 11.0803L20.2747 11.0707C20.252 11.0587 20.2286 11.0481 20.2047 11.0391L20.1731 11.0261L20.146 11.0176L20.1184 11.0131C20.0972 11.008 20.0757 11.0042 20.054 11.0018H20.0179H19.992C19.9732 11.0007 19.9543 11.0007 19.9355 11.0018L19.9101 11.0063H19.8972L19.8588 11.0159L19.8441 11.0193L19.8266 11.0266L19.8193 11.0295L19.8402 11.082L19.8114 11.0323C19.7216 11.0661 19.6408 11.12 19.5751 11.19C19.5095 11.26 19.4608 11.3441 19.4328 11.4359C19.4306 11.4411 19.4287 11.4464 19.4271 11.4518L18.6705 13.7727C18.3262 14.8329 17.9817 15.8934 17.6367 16.954L17.5859 17.1098H11.5918C11.4628 17.1113 11.3377 17.1543 11.235 17.2325C11.1324 17.3107 11.0576 17.4199 11.0219 17.544C10.9333 17.8669 11.1308 18.0922 11.3125 18.2214L16.0957 21.698L16.0449 21.8544C15.4807 23.5887 14.9173 25.3231 14.355 27.0574C14.3143 27.1833 14.2731 27.3098 14.2303 27.4408C14.2072 27.5222 14.2038 27.608 14.2204 27.6911C14.237 27.7741 14.2731 27.852 14.3256 27.9184C14.3819 27.9996 14.4559 28.0669 14.542 28.1152C14.6282 28.1635 14.7242 28.1916 14.8227 28.1973C14.9167 28.1971 15.0081 28.1666 15.0834 28.1103L20.0004 24.5361L20.133 24.6326L22.2106 26.1428L22.7315 26.5211L24.5935 27.876L24.822 28.042L24.9191 28.112C24.9944 28.1684 25.0858 28.1989 25.1798 28.199C25.2783 28.1934 25.3742 28.1654 25.4602 28.1172C25.5462 28.069 25.6202 28.0017 25.6763 27.9206C25.729 27.8542 25.765 27.7762 25.7815 27.693C25.798 27.6099 25.7944 27.524 25.7711 27.4425C25.4213 26.3634 25.0711 25.2849 24.7205 24.2069L23.9062 21.6992L28.3639 18.4591L28.6889 18.2226C28.9479 18.0346 29.0484 17.7991 28.9778 17.5434Z" fill="white"/>
<path d="M0 0L0 -1H-1V0L0 0ZM40 0L41 0V-1L40 -1V0ZM40 40V41H41V40H40ZM0 40H-1V41H0L0 40ZM0 1L40 1V-1L0 -1L0 1ZM39 0V40H41V0L39 0ZM40 39H0L0 41H40V39ZM1 40L1 0L-1 0L-1 40H1Z" fill="#F8D49E"/>
</svg>
