<svg width="40" height="40" viewBox="0 0 40 40" fill="none" xmlns="http://www.w3.org/2000/svg">
<circle cx="20" cy="20" r="20" fill="#E7A43F"/>
<path d="M17.2221 20.3902L21.6722 24.8402C21.7752 24.9433 21.9125 25 22.0591 25C22.2056 25 22.343 24.9433 22.4459 24.8402L22.7736 24.5126C22.9868 24.2991 22.9868 23.9521 22.7736 23.739L19.0367 20.0021L22.7777 16.261C22.8807 16.158 22.9375 16.0207 22.9375 15.8743C22.9375 15.7277 22.8807 15.5904 22.7777 15.4873L22.45 15.1598C22.347 15.0567 22.2097 15 22.0632 15C21.9167 15 21.7793 15.0567 21.6764 15.1598L17.2221 19.6139C17.1189 19.7172 17.0623 19.8552 17.0626 20.0018C17.0623 20.1491 17.1189 20.2869 17.2221 20.3902Z" fill="white"/>
</svg>
