<svg width="30" height="30" viewBox="0 0 30 30" fill="none" xmlns="http://www.w3.org/2000/svg">
<path d="M0 0H30V30H0V0Z" fill="#E7A43F"/>
<path d="M15 6C13.22 6 11.4799 6.52784 9.99987 7.51677C8.51983 8.50571 7.36628 9.91131 6.68509 11.5558C6.0039 13.2004 5.82567 15.01 6.17294 16.7558C6.5202 18.5016 7.37737 20.1053 8.63604 21.364C9.89472 22.6226 11.4984 23.4798 13.2442 23.8271C14.99 24.1743 16.7996 23.9961 18.4442 23.3149C20.0887 22.6337 21.4943 21.4802 22.4832 20.0001C23.4722 18.5201 24 16.78 24 15C24 12.6131 23.0518 10.3239 21.364 8.63604C19.6761 6.94821 17.387 6 15 6V6Z" fill="white"/>
<path d="M15.1341 15.4922C16.6204 15.4922 17.8253 14.2873 17.8253 12.801C17.8253 11.3147 16.6204 10.1098 15.1341 10.1098C13.6478 10.1098 12.4429 11.3147 12.4429 12.801C12.4429 14.2873 13.6478 15.4922 15.1341 15.4922Z" fill="#E7A43F"/>
<path d="M11.9698 17.5474C11.3178 17.548 10.6882 17.7851 10.1978 18.2147C10.7328 19.0364 11.4645 19.7115 12.3265 20.1788C13.1885 20.6462 14.1535 20.8909 15.134 20.8909C16.1146 20.8909 17.0796 20.6462 17.9416 20.1788C18.8036 19.7115 19.5353 19.0364 20.0703 18.2147C19.5798 17.7852 18.9503 17.5481 18.2983 17.5474H11.9698Z" fill="#E7A43F"/>
<path d="M0 0V-1H-1V0H0ZM30 0H31V-1H30V0ZM30 30V31H31V30H30ZM0 30H-1V31H0V30ZM0 1H30V-1H0V1ZM29 0V30H31V0H29ZM30 29H0V31H30V29ZM1 30V0H-1V30H1Z" fill="#E7A43F"/>
</svg>
