<svg width="19" height="19" viewBox="0 0 19 19" fill="none" xmlns="http://www.w3.org/2000/svg">
<path d="M9.15332 0.143555C9.34392 -0.0470466 9.65539 -0.0477397 9.84668 0.143555L10.0195 0.316406L9.98828 1.6709V9.01172H17.3281L18.6836 8.98047L18.8564 9.15332C19.0477 9.34461 19.047 9.65608 18.8564 9.84668L18.6836 10.0195L17.3252 9.99219L9.99023 9.99023L9.99219 17.3252L10.0195 18.6836L9.84668 18.8564C9.65608 19.047 9.34461 19.0477 9.15332 18.8564L8.98047 18.6836L9.01172 17.3281V9.98828H1.6709L0.316406 10.0195L0.143555 9.84668C-0.0477397 9.65539 -0.0470466 9.34392 0.143555 9.15332L0.316406 8.98047L1.6748 9.00781L9.00977 9.00977L9.00781 1.6748L8.98047 0.316406L9.15332 0.143555Z" fill="#838383"/>
<path d="M9.15332 0.143555C9.34392 -0.0470466 9.65539 -0.0477397 9.84668 0.143555L10.0195 0.316406L9.98828 1.6709V9.01172H17.3281L18.6836 8.98047L18.8564 9.15332C19.0477 9.34461 19.047 9.65608 18.8564 9.84668L18.6836 10.0195L17.3252 9.99219L9.99023 9.99023L9.99219 17.3252L10.0195 18.6836L9.84668 18.8564C9.65608 19.047 9.34461 19.0477 9.15332 18.8564L8.98047 18.6836L9.01172 17.3281V9.98828H1.6709L0.316406 10.0195L0.143555 9.84668C-0.0477397 9.65539 -0.0470466 9.34392 0.143555 9.15332L0.316406 8.98047L1.6748 9.00781L9.00977 9.00977L9.00781 1.6748L8.98047 0.316406L9.15332 0.143555Z" stroke="#838383"/>
</svg>
