<svg width="40" height="30" viewBox="0 0 40 30" fill="none" xmlns="http://www.w3.org/2000/svg">
<path d="M5.625 22.6583C4.87908 22.6583 4.16371 22.9567 3.63626 23.4879C3.10882 24.019 2.8125 24.7395 2.8125 25.4906C2.8125 26.2418 3.10882 26.9622 3.63626 27.4934C4.16371 28.0245 4.87908 28.3229 5.625 28.3229C6.37092 28.3229 7.08629 28.0245 7.61374 27.4934C8.14118 26.9622 8.4375 26.2418 8.4375 25.4906C8.4375 24.7395 8.14118 24.019 7.61374 23.4879C7.08629 22.9567 6.37092 22.6583 5.625 22.6583Z" fill="#FFA82E"/>
<path d="M30.9375 22.6583C30.1916 22.6583 29.4762 22.9567 28.9488 23.4879C28.4213 24.019 28.125 24.7395 28.125 25.4906C28.125 26.2418 28.4213 26.9622 28.9488 27.4934C29.4762 28.0245 30.1916 28.3229 30.9375 28.3229C31.6834 28.3229 32.3988 28.0245 32.9262 27.4934C33.4537 26.9622 33.75 26.2418 33.75 25.4906C33.75 24.7395 33.4537 24.019 32.9262 23.4879C32.3988 22.9567 31.6834 22.6583 30.9375 22.6583Z" fill="#FFA82E"/>
<path d="M30.9375 19.826C31.9249 19.826 32.8948 20.0878 33.7499 20.5849C34.605 21.0821 35.3151 21.7972 35.8088 22.6583H37.9688C38.3417 22.6583 38.6994 22.5091 38.9631 22.2435C39.2268 21.978 39.375 21.6177 39.375 21.2422V15.1527C39.3744 14.8313 39.2653 14.5197 39.0656 14.269L34.9031 9.02922C34.7716 8.86335 34.6047 8.72939 34.4149 8.63722C34.225 8.54505 34.017 8.49704 33.8063 8.49674H30.9375V19.826Z" fill="#FFA82E"/>
<path d="M0.826875 22.5337C1.33538 21.6953 2.05175 21.0046 2.90559 20.5294C3.75943 20.0543 4.72134 19.811 5.6968 19.8236C6.67225 19.8362 7.62767 20.1041 8.46915 20.6011C9.31063 21.0981 10.0092 21.8071 10.4962 22.6583H26.0662C26.561 21.7981 27.2708 21.0833 28.125 20.5851V1.41595C28.125 1.04036 27.9768 0.68016 27.7131 0.414578C27.4494 0.148998 27.0917 -0.000204802 26.7188 -0.000204802H1.40625C1.03329 -0.000204802 0.675604 0.148998 0.411881 0.414578C0.148158 0.68016 0 1.04036 0 1.41595V21.2422C-0.000220776 21.5147 0.0776808 21.7816 0.224354 22.0107C0.371027 22.2398 0.580238 22.4214 0.826875 22.5337Z" fill="#FFA82E"/>
<path d="M34.8239 25.5936C34.8239 27.6414 33.1755 29.3014 31.142 29.3014C29.1086 29.3014 27.4602 27.6414 27.4602 25.5936C27.4602 23.5459 29.1086 21.8859 31.142 21.8859C33.1755 21.8859 34.8239 23.5459 34.8239 25.5936Z" fill="#FFA82E"/>
<path d="M9.46023 25.5936C9.46023 27.6414 7.81182 29.3014 5.77841 29.3014C3.745 29.3014 2.09659 27.6414 2.09659 25.5936C2.09659 23.5459 3.745 21.8859 5.77841 21.8859C7.81182 21.8859 9.46023 23.5459 9.46023 25.5936Z" fill="#FFA82E"/>
</svg>
