<svg width="40" height="40" viewBox="0 0 40 40" fill="none" xmlns="http://www.w3.org/2000/svg">
<circle cx="20" cy="20" r="20" fill="#FFC34F"/>
<path d="M10.7688 15.4624C10.7688 13.9233 11.1047 12.7827 11.7766 12.0405C12.4563 11.2983 13.3742 10.9272 14.5305 10.9272C15.7258 10.9272 16.6594 11.2983 17.3313 12.0405C18.0109 12.7749 18.3508 13.9155 18.3508 15.4624C18.3508 17.0015 18.0109 18.1421 17.3313 18.8843C16.6594 19.6265 15.7453 19.9976 14.5891 19.9976C13.3938 19.9976 12.4563 19.6304 11.7766 18.896C11.1047 18.1538 10.7688 17.0093 10.7688 15.4624ZM13.3352 15.439C13.3352 16.5562 13.4641 17.3062 13.7219 17.689C13.9172 17.9702 14.1867 18.1108 14.5305 18.1108C14.882 18.1108 15.1555 17.9702 15.3508 17.689C15.6008 17.3062 15.7258 16.5562 15.7258 15.439C15.7258 14.3218 15.6008 13.5757 15.3508 13.2007C15.1555 12.9116 14.882 12.7671 14.5305 12.7671C14.1867 12.7671 13.9172 12.9077 13.7219 13.189C13.4641 13.5718 13.3352 14.3218 13.3352 15.439ZM17.0383 29.0562H14.6008L23.7531 10.9272H26.1203L17.0383 29.0562ZM22.3586 24.5444C22.3586 23.0054 22.6945 21.8647 23.3664 21.1226C24.0461 20.3804 24.9719 20.0093 26.1438 20.0093C27.3234 20.0093 28.2492 20.3804 28.9211 21.1226C29.6008 21.8647 29.9406 23.0054 29.9406 24.5444C29.9406 26.0913 29.6008 27.2358 28.9211 27.978C28.2492 28.7202 27.3352 29.0913 26.1789 29.0913C24.9836 29.0913 24.0461 28.7202 23.3664 27.978C22.6945 27.2358 22.3586 26.0913 22.3586 24.5444ZM24.925 24.5327C24.925 25.6499 25.0539 26.396 25.3117 26.771C25.507 27.0601 25.7766 27.2046 26.1203 27.2046C26.4719 27.2046 26.7414 27.064 26.9289 26.7827C27.1867 26.3999 27.3156 25.6499 27.3156 24.5327C27.3156 23.4155 27.1906 22.6655 26.9406 22.2827C26.7453 22.0015 26.4719 21.8608 26.1203 21.8608C25.7688 21.8608 25.4992 22.0015 25.3117 22.2827C25.0539 22.6655 24.925 23.4155 24.925 24.5327Z" fill="white"/>
</svg>
