<svg width="187" height="30" viewBox="0 0 187 30" fill="none" xmlns="http://www.w3.org/2000/svg">
<rect width="187" height="30" fill="black"/>
<path fill-rule="evenodd" clip-rule="evenodd" d="M49.3155 7.02671C48.1287 7.02832 46.9539 7.26613 45.8598 7.72637C44.7933 8.17887 43.8227 8.83014 42.9998 9.64541C42.1619 10.4577 41.4963 11.4303 41.0427 12.5053C40.5891 13.5803 40.3568 14.7356 40.3598 15.9023C40.348 17.0785 40.5866 18.2437 41.0598 19.3206C41.5089 20.3876 42.1687 21.3531 42.9998 22.1592C43.8182 22.9778 44.7855 23.6325 45.8498 24.0883C47.352 24.7273 49.0018 24.9385 50.6166 24.6986C52.2315 24.4587 53.7485 23.777 54.9998 22.7289C55.0772 22.6691 55.1413 22.5937 55.1878 22.5077C55.2343 22.4216 55.2622 22.3267 55.2698 22.2292C55.2879 22.0276 55.227 21.8269 55.0998 21.6694C55.0349 21.5903 54.9543 21.5254 54.8631 21.479C54.7719 21.4325 54.672 21.4055 54.5698 21.3996C54.4729 21.3894 54.375 21.3992 54.2821 21.4284C54.1892 21.4577 54.1033 21.5057 54.0298 21.5695C53.1373 22.2991 52.0873 22.8111 50.9626 23.065C49.838 23.3189 48.6697 23.3077 47.5502 23.0323C46.4306 22.7569 45.3905 22.2249 44.5122 21.4783C43.6339 20.7318 42.9415 19.7911 42.4898 18.7309C42.1054 17.8375 41.908 16.8749 41.9098 15.9023C41.9042 14.9294 42.1018 13.966 42.4898 13.0737C42.843 12.2039 43.355 11.4074 43.9998 10.7249C44.6908 10.0489 45.5012 9.50667 46.3898 9.12567C47.3128 8.74495 48.3013 8.54803 49.2998 8.54596C50.895 8.53605 52.4475 9.06035 53.7098 10.0352C53.8733 10.1545 54.0774 10.2047 54.2776 10.1747C54.4779 10.1448 54.6583 10.0372 54.7798 9.8753C54.8942 9.71015 54.9414 9.50759 54.9117 9.30889C54.882 9.11019 54.7776 8.93029 54.6198 8.80583C53.0949 7.6358 51.2221 7.0095 49.2998 7.02671H49.3155ZM10.7605 7.38655C10.6598 7.38654 10.5602 7.40651 10.4673 7.44531C10.3744 7.48411 10.2902 7.54096 10.2195 7.61256C10.1488 7.68416 10.093 7.76908 10.0554 7.8624C10.0178 7.95572 9.99913 8.05557 10.0005 8.15616C9.99208 8.26038 10.0056 8.36519 10.0402 8.46387C10.0747 8.56255 10.1295 8.65292 10.2011 8.72916C10.2727 8.80541 10.3594 8.86584 10.4557 8.90659C10.5521 8.94734 10.6559 8.96749 10.7605 8.96576H16.1305V23.7484C16.1291 23.8485 16.1479 23.9479 16.1856 24.0407C16.2233 24.1335 16.2792 24.2177 16.3501 24.2886C16.4209 24.3594 16.5052 24.4153 16.598 24.453C16.6909 24.4907 16.7903 24.5094 16.8905 24.508C17.092 24.508 17.2853 24.428 17.4279 24.2856C17.5704 24.1431 17.6505 23.9499 17.6505 23.7484V8.96576H23.0005C23.1006 8.96711 23.2001 8.94838 23.2929 8.91068C23.3857 8.87298 23.47 8.81708 23.5409 8.74627C23.6117 8.67546 23.6676 8.59119 23.7053 8.49842C23.7431 8.40565 23.7618 8.30627 23.7605 8.20614C23.7688 8.10146 23.7552 7.9962 23.7208 7.897C23.6863 7.7978 23.6317 7.70682 23.5602 7.6298C23.4888 7.55278 23.4022 7.4914 23.3059 7.44954C23.2095 7.40767 23.1055 7.38622 23.0005 7.38655H10.7605ZM27.0803 7.38654C26.8778 7.38917 26.6845 7.47142 26.5423 7.61546C26.4 7.75951 26.3203 7.95377 26.3203 8.15616V23.7284C26.3203 23.8282 26.34 23.927 26.3782 24.0191C26.4164 24.1113 26.4723 24.195 26.5429 24.2656C26.6135 24.3361 26.6973 24.3921 26.7895 24.4302C26.8817 24.4684 26.9805 24.4881 27.0803 24.4881H37.9303C38.0305 24.4894 38.1299 24.4707 38.2227 24.433C38.3156 24.3953 38.3999 24.3394 38.4707 24.2686C38.5416 24.1978 38.5975 24.1135 38.6352 24.0207C38.6729 23.9279 38.6917 23.8286 38.6903 23.7284C38.6916 23.6278 38.673 23.528 38.6354 23.4347C38.5978 23.3414 38.542 23.2564 38.4713 23.1848C38.4006 23.1132 38.3163 23.0564 38.2235 23.0176C38.1306 22.9788 38.031 22.9588 37.9303 22.9588H27.8403V16.6719H36.6103C36.7181 16.6843 36.8273 16.6737 36.9307 16.6409C37.0342 16.6081 37.1295 16.5538 37.2105 16.4816C37.2915 16.4094 37.3563 16.321 37.4006 16.222C37.445 16.123 37.4679 16.0158 37.4679 15.9073C37.4679 15.7989 37.445 15.6916 37.4006 15.5927C37.3563 15.4937 37.2915 15.4052 37.2105 15.333C37.1295 15.2608 37.0342 15.2065 36.9307 15.1737C36.8273 15.1409 36.7181 15.1304 36.6103 15.1427H27.8403V8.96576H37.7003C37.801 8.96708 37.9009 8.94841 37.9942 8.91083C38.0876 8.87325 38.1726 8.81751 38.2442 8.74684C38.3158 8.67617 38.3727 8.59198 38.4115 8.49916C38.4503 8.40634 38.4703 8.30674 38.4703 8.20614C38.4717 8.1047 38.4527 8.00402 38.4144 7.91003C38.3762 7.81605 38.3196 7.73068 38.2478 7.65894C38.176 7.58721 38.0906 7.53057 37.9966 7.49236C37.9025 7.45416 37.8018 7.43517 37.7003 7.43652L27.0803 7.38654ZM59.3198 16.512H69.8498V23.6985C69.8523 23.9001 69.9329 24.0929 70.0746 24.2364C70.2163 24.3799 70.4081 24.4629 70.6098 24.4681C70.7105 24.4681 70.8101 24.4481 70.903 24.4093C70.9958 24.3705 71.0801 24.3137 71.1508 24.2421C71.2215 24.1705 71.2772 24.0856 71.3148 23.9922C71.3524 23.8989 71.3711 23.7991 71.3698 23.6985V8.10621C71.3712 8.00608 71.3524 7.9067 71.3147 7.81393C71.277 7.72116 71.221 7.63689 71.1502 7.56608C71.0794 7.49527 70.995 7.43937 70.9022 7.40167C70.8094 7.36397 70.71 7.34524 70.6098 7.34659C70.51 7.34659 70.4112 7.36624 70.319 7.40441C70.2268 7.44258 70.143 7.49854 70.0724 7.56908C70.0018 7.63961 69.9458 7.72335 69.9077 7.81552C69.8695 7.90768 69.8498 8.00646 69.8498 8.10621V14.9628H59.3198V8.10621C59.3198 7.90475 59.2397 7.71153 59.0972 7.56908C58.9547 7.42662 58.7614 7.34659 58.5598 7.34659C58.3582 7.34659 58.1649 7.42662 58.0224 7.56908C57.8799 7.71153 57.7998 7.90475 57.7998 8.10621V23.6985C57.7998 23.8999 57.8799 24.0932 58.0224 24.2356C58.1649 24.3781 58.3582 24.4581 58.5598 24.4581C58.7614 24.4581 58.9547 24.3781 59.0972 24.2356C59.2397 24.0932 59.3198 23.8999 59.3198 23.6985V16.512ZM87.0798 24.2982L75.4598 10.3051V23.7684C75.4611 23.8699 75.4421 23.9706 75.4039 24.0645C75.3657 24.1585 75.309 24.2439 75.2372 24.3156C75.1655 24.3874 75.08 24.444 74.986 24.4822C74.892 24.5204 74.7912 24.5394 74.6898 24.5381C74.5891 24.5381 74.4895 24.5181 74.3966 24.4793C74.3037 24.4405 74.2195 24.3836 74.1488 24.312C74.0781 24.2404 74.0223 24.1555 73.9847 24.0622C73.9471 23.9689 73.9284 23.869 73.9298 23.7684V8.17617C73.9292 8.02065 73.977 7.86881 74.0665 7.74166C74.1561 7.61451 74.2831 7.51836 74.4298 7.46652C74.5755 7.41304 74.7341 7.40544 74.8843 7.44475C75.0344 7.48406 75.169 7.5684 75.2698 7.68641L86.9098 21.6795V8.21615C86.9313 8.02842 87.0211 7.85516 87.1622 7.72938C87.3033 7.6036 87.4857 7.53409 87.6748 7.53409C87.8638 7.53409 88.0462 7.6036 88.1873 7.72938C88.3284 7.85516 88.4183 8.02842 88.4398 8.21615V23.8084C88.4349 23.9626 88.3849 24.112 88.2961 24.2381C88.2072 24.3642 88.0833 24.4615 87.9398 24.5181C87.791 24.5732 87.6291 24.5816 87.4754 24.5423C87.3218 24.503 87.1837 24.4179 87.0798 24.2982ZM112.33 7.4866C112.23 7.48659 112.13 7.50656 112.037 7.54536C111.944 7.58416 111.86 7.64101 111.789 7.71261C111.719 7.78421 111.663 7.86913 111.625 7.96245C111.588 8.05577 111.569 8.15562 111.57 8.25621V23.8485C111.57 23.9482 111.59 24.047 111.628 24.1392C111.666 24.2313 111.722 24.3151 111.793 24.3856C111.864 24.4561 111.947 24.5121 112.04 24.5503C112.132 24.5884 112.231 24.6081 112.33 24.6081H122.23C122.331 24.6094 122.43 24.5907 122.523 24.553C122.616 24.5153 122.7 24.4594 122.771 24.3886C122.842 24.3178 122.898 24.2335 122.935 24.1407C122.973 24.048 122.992 23.9486 122.99 23.8485C122.992 23.7479 122.973 23.648 122.935 23.5547C122.898 23.4614 122.842 23.3765 122.771 23.3049C122.701 23.2333 122.616 23.1764 122.524 23.1376C122.431 23.0988 122.331 23.0788 122.23 23.0789H113.09V8.25621C113.092 8.15562 113.073 8.05577 113.035 7.96245C112.998 7.86913 112.942 7.78421 112.871 7.71261C112.801 7.64101 112.716 7.58416 112.624 7.54536C112.531 7.50656 112.431 7.48659 112.33 7.4866ZM125.888 7.72097C126.029 7.57798 126.219 7.49416 126.42 7.4866C126.624 7.48919 126.818 7.5711 126.962 7.71488C127.106 7.85865 127.188 8.0529 127.19 8.25621V23.8485C127.169 24.0362 127.079 24.2095 126.938 24.3352C126.797 24.461 126.614 24.5305 126.425 24.5305C126.236 24.5305 126.054 24.461 125.913 24.3352C125.772 24.2095 125.682 24.0362 125.66 23.8485V8.25621C125.665 8.05537 125.746 7.86396 125.888 7.72097ZM138.861 7.23673C136.477 7.23353 134.19 8.17529 132.501 9.85544C131.656 10.6554 130.977 11.613 130.501 12.674C130.048 13.7675 129.814 14.9389 129.811 16.1223C129.804 17.3035 130.038 18.4736 130.501 19.5606C130.954 20.6113 131.606 21.5649 132.421 22.3692C133.234 23.1939 134.203 23.8495 135.271 24.2983C136.399 24.7807 137.615 25.0244 138.842 25.0141C140.069 25.0037 141.281 24.7396 142.401 24.2383C143.501 23.731 144.487 23.0069 145.301 22.1094C145.424 21.9753 145.495 21.8015 145.501 21.6196V16.4122C145.501 16.3116 145.481 16.212 145.442 16.1192C145.403 16.0263 145.346 15.9422 145.275 15.8715C145.203 15.8008 145.118 15.7451 145.025 15.7075C144.931 15.6699 144.831 15.6512 144.731 15.6526C144.631 15.6512 144.531 15.6699 144.438 15.7076C144.345 15.7453 144.261 15.8012 144.19 15.8721C144.119 15.9429 144.064 16.0271 144.026 16.1199C143.988 16.2127 143.969 16.3121 143.971 16.4122V21.2998L143.861 21.3997C142.508 22.743 140.677 23.4945 138.771 23.4887C137.792 23.4897 136.822 23.2957 135.919 22.9182C135.016 22.5407 134.197 21.9871 133.511 21.2898C132.862 20.6178 132.349 19.8271 132.001 18.9609C131.618 18.067 131.42 17.1047 131.42 16.1323C131.42 15.1599 131.618 14.1976 132.001 13.3037C132.37 12.4286 132.907 11.6341 133.581 10.9649C134.267 10.2688 135.091 9.72399 136.001 9.36568C137.148 8.86824 138.404 8.67496 139.648 8.80452C140.892 8.93409 142.081 9.38212 143.101 10.1053C143.183 10.1631 143.275 10.2041 143.373 10.2261C143.471 10.248 143.573 10.2505 143.672 10.2333C143.77 10.2161 143.865 10.1797 143.95 10.126C144.035 10.0723 144.108 10.0024 144.166 9.9204C144.223 9.83837 144.265 9.74576 144.287 9.64787C144.308 9.54998 144.311 9.44872 144.294 9.34987C144.277 9.25103 144.24 9.15653 144.186 9.07178C144.133 8.98703 144.063 8.91368 143.981 8.85593C142.502 7.79945 140.729 7.23315 138.911 7.23673H138.861ZM96.5102 7.93638C97.6154 7.47325 98.8019 7.23539 100 7.23672C101.197 7.24458 102.381 7.4927 103.48 7.96636C104.556 8.40999 105.536 9.05452 106.37 9.86542C107.211 10.6746 107.879 11.6469 108.331 12.7228C108.783 13.7986 109.011 14.9554 109 16.1223C109.006 17.3034 108.771 18.4732 108.31 19.5606C107.854 20.6128 107.202 21.5692 106.39 22.3792C105.574 23.2054 104.602 23.8611 103.53 24.3083C102.432 24.7826 101.247 25.0242 100.05 25.0179H99.9602C98.7591 25.0266 97.5698 24.7813 96.4702 24.2983C95.3977 23.8523 94.4253 23.1964 93.6102 22.3692C92.799 21.5643 92.1505 20.6107 91.7002 19.5606C91.2301 18.4757 90.9916 17.3046 91.0002 16.1223C90.9966 14.9373 91.2348 13.7639 91.7002 12.674C92.1579 11.6176 92.8168 10.6603 93.6402 9.85542C94.4671 9.04042 95.441 8.38927 96.5102 7.93638ZM97.1495 22.9166C98.0525 23.2941 99.0215 23.4886 100 23.4887L100.05 23.5086C101.027 23.5085 101.993 23.315 102.894 22.9393C103.795 22.5636 104.613 22.0131 105.3 21.3197C105.986 20.6422 106.532 19.8362 106.906 18.9478C107.28 18.0595 107.475 17.1061 107.48 16.1423C107.482 15.1665 107.285 14.2007 106.9 13.3037C106.512 12.4296 105.962 11.6362 105.28 10.9649C104.606 10.2845 103.804 9.74437 102.92 9.37566C101.998 8.98503 101.007 8.78372 100.005 8.78372C99.0037 8.78372 98.0124 8.98503 97.0902 9.37566C96.2036 9.74485 95.3983 10.2848 94.7202 10.9649C94.0361 11.6381 93.4863 12.4352 93.1002 13.3137C92.7243 14.2076 92.5306 15.1676 92.5306 16.1373C92.5306 17.107 92.7243 18.067 93.1002 18.9609C93.4814 19.8414 94.0396 20.6341 94.7402 21.2897C95.4276 21.9862 96.2466 22.5392 97.1495 22.9166ZM149.63 16.6121H160.16V23.7985C160.162 24.0001 160.243 24.1929 160.384 24.3364C160.526 24.4799 160.718 24.563 160.92 24.5681C161.122 24.5655 161.315 24.4833 161.458 24.3392C161.6 24.1952 161.68 24.0009 161.68 23.7985V8.20626C161.681 8.10613 161.662 8.00675 161.624 7.91398C161.587 7.82121 161.531 7.73694 161.46 7.66613C161.389 7.59532 161.305 7.53942 161.212 7.50172C161.119 7.46402 161.02 7.44529 160.92 7.44664C160.718 7.44664 160.525 7.52667 160.382 7.66913C160.24 7.81158 160.16 8.0048 160.16 8.20626V15.0828H149.63V8.20626C149.608 8.01854 149.518 7.84528 149.377 7.7195C149.236 7.59372 149.054 7.52421 148.865 7.52421C148.676 7.52421 148.493 7.59372 148.352 7.7195C148.211 7.84528 148.121 8.01854 148.1 8.20626V23.7985C148.102 24.0018 148.184 24.1961 148.328 24.3399C148.472 24.4836 148.666 24.5655 148.87 24.5681C149.072 24.5655 149.265 24.4833 149.408 24.3392C149.55 24.1952 149.63 24.0009 149.63 23.7985V16.6121ZM164.707 7.54543C164.8 7.50663 164.9 7.48665 165 7.48666H177.23C177.332 7.48532 177.433 7.50431 177.527 7.54251C177.621 7.58071 177.706 7.63735 177.778 7.70908C177.85 7.78082 177.906 7.8662 177.944 7.96018C177.983 8.05416 178.002 8.15484 178 8.25628C178 8.35688 177.98 8.45648 177.942 8.5493C177.903 8.64212 177.846 8.72631 177.774 8.79698C177.703 8.86765 177.618 8.92339 177.524 8.96097C177.431 8.99856 177.331 9.01723 177.23 9.0159H171.89V23.8485C171.89 23.9483 171.871 24.0471 171.832 24.1392C171.794 24.2314 171.738 24.3151 171.668 24.3857C171.597 24.4562 171.513 24.5122 171.421 24.5503C171.329 24.5885 171.23 24.6082 171.13 24.6082C171.03 24.6095 170.931 24.5908 170.838 24.5531C170.745 24.5154 170.661 24.4595 170.59 24.3887C170.519 24.3179 170.463 24.2336 170.425 24.1408C170.388 24.048 170.369 23.9487 170.37 23.8485V9.0159H165C164.9 9.01725 164.801 8.99852 164.708 8.96082C164.615 8.92312 164.531 8.86722 164.46 8.79641C164.389 8.7256 164.333 8.64133 164.295 8.54856C164.258 8.45579 164.239 8.35641 164.24 8.25628C164.239 8.15569 164.258 8.05583 164.295 7.96251C164.333 7.8692 164.389 7.78427 164.459 7.71267C164.53 7.64107 164.614 7.58422 164.707 7.54543Z" fill="white"/>
</svg>
