<svg width="1648" height="900" viewBox="0 0 1648 900" fill="none" xmlns="http://www.w3.org/2000/svg">
<path d="M528.567 154.372C499.875 216.096 505.301 254.794 544.842 270.466C604.155 293.974 745.189 303.377 804.141 354.372C863.091 405.366 1042.84 365.944 1073.58 278.422C1104.32 190.9 1159.67 56 867.808 56C673.232 56 560.154 88.79 528.568 154.372H528.567Z" fill="#FFFA72"/>
<path d="M50.7876 276.242C-29.55 449.069 -14.3573 557.423 96.3575 601.305C262.434 667.127 657.329 693.456 822.395 836.242C987.455 979.025 1490.75 868.643 1576.82 623.582C1662.9 378.52 1817.87 0.800049 1000.66 0.800049C455.849 0.800049 139.231 92.612 50.7904 276.242H50.7876Z" fill="#C7E1F3"/>
<path d="M90.6024 266.086C14.5686 429.654 28.9474 532.204 133.731 573.735C290.91 636.031 664.651 660.949 820.873 796.086C977.091 931.22 1453.42 826.752 1534.88 594.818C1616.35 362.885 1763.02 5.40002 989.591 5.40002C473.965 5.40002 174.308 92.2935 90.605 266.086H90.6024Z" fill="#B8CFE6"/>
<path d="M130.417 255.93C58.6871 410.24 72.2521 506.985 171.105 546.165C319.387 604.935 671.972 628.443 819.352 755.93C966.727 883.415 1416.09 784.86 1492.95 566.055C1569.8 347.25 1708.17 10 978.52 10C492.08 10 209.385 91.975 130.42 255.93H130.417Z" fill="#A9BEDA"/>
<path d="M170.233 245.774C102.807 390.826 115.558 481.766 208.479 518.595C347.865 573.839 679.294 595.936 817.832 715.774C956.364 835.61 1378.77 742.968 1451.01 537.292C1523.25 331.615 1653.32 14.6 967.449 14.6C510.195 14.6 244.462 91.6565 170.235 245.774H170.233Z" fill="#9AADCE"/>
<path d="M210.048 235.618C146.925 371.411 158.862 456.547 245.853 491.025C376.341 542.743 686.616 563.429 816.31 675.618C946 787.805 1341.44 701.077 1409.07 508.528C1476.7 315.98 1598.47 19.2 956.378 19.2C528.311 19.2 279.539 91.338 210.05 235.618H210.048Z" fill="#8B9BC1"/>
<path d="M249.862 225.463C191.044 351.997 202.167 431.328 283.226 463.455C404.818 511.647 693.937 530.923 814.789 635.463C935.636 740 1304.12 659.185 1367.14 479.765C1430.16 300.345 1543.62 23.8 945.306 23.8C546.426 23.8 314.616 91.0195 249.864 225.463H249.862Z" fill="#7D8AB5"/>
<path d="M289.677 215.307C235.162 332.582 245.472 406.109 320.6 435.885C433.294 480.551 701.259 498.416 813.268 595.307C925.273 692.195 1266.79 617.294 1325.2 451.002C1383.61 284.71 1488.77 28.4 934.235 28.4C564.541 28.4 349.692 90.701 289.679 215.307H289.677Z" fill="#6E79A9"/>
<path d="M329.492 205.151C279.281 313.168 288.776 380.89 357.973 408.316C461.771 449.455 708.58 465.91 811.746 555.151C914.909 644.391 1229.47 575.402 1283.26 422.238C1337.06 269.075 1433.92 33 923.164 33C582.656 33 384.769 90.3825 329.494 205.151H329.492Z" fill="#5F679C"/>
<path d="M369.308 194.995C323.4 293.754 332.082 355.67 395.348 380.746C490.248 418.358 715.903 433.403 810.226 514.995C904.546 596.586 1192.14 533.51 1241.33 393.475C1290.51 253.44 1379.07 37.6 912.093 37.6C600.772 37.6 419.847 90.064 369.309 194.995H369.308Z" fill="#505690"/>
<path d="M409.122 184.839C367.519 274.339 375.387 330.451 432.721 353.176C518.725 387.262 723.224 400.897 808.705 474.839C894.182 548.781 1154.82 491.619 1199.39 364.712C1243.96 237.805 1324.22 42.2 901.022 42.2C618.887 42.2 454.924 89.7455 409.124 184.839H409.122Z" fill="#414584"/>
<path d="M448.937 174.684C411.638 254.925 418.691 305.232 470.095 325.606C547.201 356.166 730.546 368.39 807.183 434.684C883.818 500.976 1117.49 449.727 1157.45 335.949C1197.42 222.17 1269.37 46.8 889.95 46.8C637.002 46.8 490 89.427 448.938 174.684H448.937Z" fill="#323377"/>
<path d="M488.752 164.528C455.756 235.51 461.996 280.013 507.468 298.036C575.678 325.07 737.867 335.884 805.662 394.528C873.454 453.171 1080.16 407.836 1115.52 307.185C1150.87 206.535 1214.52 51.4 878.879 51.4C655.117 51.4 525.077 89.1085 488.753 164.528H488.752Z" fill="#23226B"/>
</svg>
