<svg width="25" height="25" viewBox="0 0 25 25" fill="none" xmlns="http://www.w3.org/2000/svg">
<path d="M7.65876 16.5512C7.40948 16.7722 7.23738 16.895 7.198 17.0339C7.15765 17.1731 7.31164 17.7478 7.73107 18.3549C8.15024 18.9611 9.46089 19.2663 10.0344 19.2006C10.5487 19.1415 11.1829 19.0047 11.8121 18.6021C12.1929 18.3582 12.6807 18.0381 13.2863 17.559C15.8327 15.5443 16.9354 12.1409 17.0281 11.9111L17.0302 11.9056C17.1297 11.6566 17.7799 10.0304 17.4041 8.6279C17.0255 7.21475 16.0978 6.71999 15.7579 6.50254C15.4181 6.2851 15.0879 6.29696 14.8966 6.3482L14.3486 6.50539C14.1752 6.56119 13.9183 6.54926 13.8344 7.17116C13.7499 7.80982 13.5547 9.37671 13.5206 9.53907C13.4867 9.70241 13.4844 9.88315 13.6313 10.0488C13.7794 10.2151 13.8588 10.3222 14.0492 10.4493C14.2382 10.5788 14.451 10.7433 14.6148 10.8371C14.7961 10.9418 14.9875 11.0572 14.8973 11.3888C14.8073 11.7214 14.4825 12.8158 13.8335 13.8055C12.9994 15.0777 12.155 15.628 11.9067 15.8488C11.6584 16.0696 11.4838 16.0905 11.2655 15.944C11.0472 15.7975 10.3232 15.2979 10.055 15.0622C9.7857 14.8259 9.60739 14.9254 9.37028 15.0915C9.13221 15.2578 7.90708 16.3304 7.65876 16.5512Z" fill="#F1F0F7"/>
<circle cx="12.5" cy="12.5" r="11.5" stroke="#F1F0F7" stroke-width="2"/>
</svg>
