<svg width="62" height="62" viewBox="0 0 62 62" fill="none" xmlns="http://www.w3.org/2000/svg">
<g clip-path="url(#clip0_42_454)">
<path d="M49.5578 42.4575C49.1141 43.2264 48.3074 43.6549 47.4793 43.6562C47.0734 43.6562 46.6613 43.5516 46.2844 43.336L45.2231 42.7209C46.3651 43.3839 46.7583 44.8486 46.0966 45.9931C45.6529 46.7607 44.8475 47.1905 44.0194 47.1905C43.6135 47.1905 43.2013 47.0871 42.8244 46.8691L40.4838 45.5191C41.6182 46.1771 42.0051 47.6266 41.3497 48.7623L41.3308 48.7951C40.6741 49.932 39.2208 50.3215 38.0839 49.666L36.0734 48.5026C37.1675 49.1392 37.5419 50.5433 36.9079 51.6424L36.8121 51.8088C36.1768 52.9092 34.7701 53.2848 33.671 52.6508L11.9345 40.1017C10.4547 39.2471 9.22323 38.0194 8.36108 36.5422L6.8208 33.904L9.86644 26.2693L14.9986 19.7378L21.9715 23.7637L26.4536 21.4016C27.4734 20.8646 28.696 20.881 29.7006 21.4394L31.9139 22.7188L33.2929 23.5154L34.0971 23.9792C34.4273 24.1683 34.7411 24.3826 35.0386 24.6195L40.2619 28.7954C40.9224 29.3223 41.2564 30.1567 41.1455 30.9949C41.1014 31.3214 40.9955 31.6201 40.8443 31.8823C40.209 32.9827 38.7544 33.4528 37.5545 32.7608L48.6805 39.1841C49.0675 39.4072 49.3712 39.7236 49.5717 40.0891C49.9712 40.8013 49.9964 41.6987 49.5578 42.4575V42.4575Z" fill="#FFCEBF"/>
<path d="M49.5578 42.4575C49.1141 43.2263 48.3074 43.6549 47.4793 43.6562C47.0936 43.6562 46.7016 43.5616 46.3411 43.3662C46.3222 43.3562 46.3033 43.3473 46.2844 43.336L45.2231 42.7209C45.2407 42.731 45.2583 42.7423 45.276 42.7537L44.1025 42.0755L44.0836 42.0655L43.0399 41.4604L43.045 41.4655L31.6723 34.9506C31.2198 34.6897 31.0647 34.1111 31.3256 33.6586C31.5866 33.2074 32.1651 33.0523 32.6176 33.3132L46.3615 41.1853C46.9684 41.5352 47.7433 41.3441 48.1178 40.7521C48.4593 40.2123 48.3606 39.5048 47.8841 39.0796C47.3482 38.6011 46.7103 38.0466 46.4998 37.9249L48.6804 39.1841C49.0673 39.4072 49.3711 39.7235 49.5715 40.0891C49.9712 40.8012 49.9964 41.6987 49.5578 42.4575V42.4575Z" fill="#FFB09E"/>
<path d="M46.0966 45.9931C45.6529 46.7607 44.8474 47.1905 44.0193 47.1905C43.6135 47.1905 43.2013 47.0872 42.8244 46.8691L40.6413 45.6087L40.5947 45.5822L30.0006 39.4652C29.5481 39.2043 29.3943 38.6258 29.6552 38.1733C29.9161 37.722 30.4934 37.567 30.9459 37.8279L42.5244 44.5133C43.1282 44.8612 43.8996 44.6583 44.2525 44.057C44.3697 43.8579 44.4265 43.6361 44.4265 43.4155C44.4265 43.0953 44.3067 42.7777 44.0735 42.5357L43.045 41.4656L43.04 41.4605L44.0836 42.0655L44.1025 42.0756L45.276 42.7537C46.3776 43.4293 46.7482 44.8663 46.0966 45.9931V45.9931Z" fill="#FFB09E"/>
<path d="M41.3497 48.7621L41.3308 48.7949C40.6741 49.9318 39.2208 50.3213 38.0839 49.6659L36.0949 48.5151C36.1025 48.5201 36.11 48.5252 36.1163 48.5302L35.9134 48.4117L35.6475 48.2592L33.8904 47.242C33.903 47.2496 33.9156 47.2571 33.9282 47.266L28.57 44.1715C28.1087 43.9056 27.9574 43.3119 28.2385 42.8569C28.5095 42.4157 29.1007 42.2947 29.5494 42.5531L38.0549 47.4588C38.8099 47.8937 39.7717 47.4588 39.9431 46.603C39.9456 46.5929 39.9469 46.5815 39.9494 46.5715C40.0313 46.1656 39.9103 45.7459 39.6254 45.4446C39.2347 45.0312 38.6763 44.4766 38.3007 44.2585L40.5947 45.582L40.4838 45.519C41.6182 46.1769 42.0052 47.6265 41.3497 48.7621V48.7621Z" fill="#FFB09E"/>
<path d="M42.8245 46.8689L40.5947 45.582L40.6414 45.6085L42.8245 46.8689Z" fill="#FFB09E"/>
<path d="M36.9079 51.6422L36.8121 51.8086C36.1768 52.9089 34.7701 53.2846 33.671 52.6506L31.4879 51.3901C32.587 52.0241 33.9937 51.6485 34.629 50.5481L34.7248 50.3817C35.3512 49.2952 34.9932 47.9112 33.9282 47.2659C33.9156 47.2571 33.9029 47.2495 33.8903 47.2419L35.6474 48.2591L35.9134 48.4116L36.1163 48.5301C37.1776 49.1755 37.5331 50.5569 36.9079 51.6422Z" fill="#FFB09E"/>
<path d="M33.2929 23.5153L24.8226 32.2439L24.0119 32.7777C23.6033 33.0468 23.1385 33.2191 22.6531 33.2814C20.7786 33.5222 19.0477 32.2422 18.7288 30.3793C18.509 29.0949 19.0156 27.794 20.0461 26.9964L26.6934 21.9565C26.9527 21.7598 26.7746 21.3476 26.4538 21.4014C27.4735 20.8644 28.6961 20.8808 29.7007 21.4392L31.9141 22.7185L33.2929 23.5153Z" fill="#FFB09E"/>
<path d="M47.0012 19.4392L52.2177 26.2692L55.1797 33.6047L53.6394 36.2433C52.7766 37.721 51.5456 38.9469 50.065 39.8033L49.5716 40.0881C49.5406 40.0318 49.5067 39.9757 49.4697 39.9215C49.2742 39.6283 49.0076 39.3732 48.68 39.184L31.6537 29.3539L30.7411 28.8271L24.4459 32.4616C23.2473 33.1536 21.7916 32.6842 21.1563 31.5838C21.0051 31.3219 20.8989 31.0222 20.855 30.6938C20.7443 29.8567 21.0793 29.023 21.7379 28.4972L26.9631 24.3204C27.253 24.089 27.5599 23.8769 27.883 23.6903L32.2526 21.1675C33.2667 20.5821 34.5098 20.5571 35.5466 21.1025L40.0304 23.4638L47.0012 19.4392Z" fill="#FFCEBF"/>
<path d="M35.5466 21.1027L40.03 23.4635L38.5755 24.3043C38.1217 24.5652 37.5658 24.5765 37.1033 24.332L33.3635 22.3632C32.3286 21.8187 31.0909 21.8426 30.0787 22.4224L32.253 21.167C33.2664 20.5821 34.5105 20.5569 35.5466 21.1027V21.1027Z" fill="#FFB09E"/>
<path d="M55.1794 33.6052L53.6391 36.2433C52.777 37.7206 51.5455 38.947 50.0645 39.8029L49.5716 40.0877C49.5401 40.0323 49.5074 39.9756 49.4696 39.9214C50.2536 39.2294 50.9254 38.4139 51.456 37.5038L52.3157 36.0316C52.7366 35.3106 52.7392 34.4182 52.3207 33.696L44.8185 20.6994L47.0016 19.439L52.2177 26.2692L55.1794 33.6052Z" fill="#FFB09E"/>
<path d="M18.0043 41.5365L16.3474 44.4063C15.8854 45.2065 14.8627 45.4805 14.0626 45.0185L12.8094 44.295C12.7057 44.2352 12.6117 44.1662 12.5265 44.0895C11.9509 43.5738 11.7945 42.7077 12.1972 42.0102L13.8541 39.1404C14.185 38.5673 14.7169 38.1831 15.3092 38.0244C15.5571 37.958 15.8146 37.9305 16.0727 37.9471C16.4335 37.9677 16.7932 38.0705 17.1272 38.2634C18.2734 38.925 18.666 40.3903 18.0043 41.5365V41.5365Z" fill="#FFCEBF"/>
<path d="M18.0048 41.536L16.3473 44.4061C15.886 45.2065 14.8625 45.48 14.0621 45.0187L12.8092 44.2952C12.7058 44.2347 12.6113 44.1666 12.5269 44.0897C13.2604 44.3304 14.0886 44.0317 14.4919 43.3347L16.1481 40.4646C16.617 39.6529 16.5565 38.6786 16.0725 37.9475C16.433 37.9677 16.7935 38.0698 17.1275 38.2626C18.2733 38.9244 18.6665 40.3903 18.0048 41.536V41.536Z" fill="#FFB09E"/>
<path d="M22.1533 43.9318L20.4965 46.8016C20.0345 47.6017 19.0118 47.8758 18.2116 47.4138L16.9596 46.6909C16.8559 46.6311 16.7607 46.5615 16.6755 46.4847C16.1006 45.9679 15.9453 45.1025 16.3474 44.4061L18.0043 41.5363C18.3351 40.9632 18.8671 40.579 19.4593 40.4203C19.7073 40.3539 19.9648 40.3264 20.2223 40.3442C20.5837 40.3636 20.9434 40.4665 21.2774 40.6594C22.4224 41.3203 22.8151 42.7855 22.1533 43.9318V43.9318Z" fill="#FFCEBF"/>
<path d="M22.153 43.9323L20.4968 46.8023C20.0342 47.6014 19.0119 47.8762 18.2115 47.4136L16.9599 46.6914C16.8553 46.6309 16.7608 46.5616 16.675 46.4847C17.4112 46.7254 18.2393 46.4267 18.6414 45.7309L20.2976 42.8609C20.7665 42.0479 20.706 41.0761 20.222 40.3438C20.5837 40.3639 20.943 40.466 21.277 40.6589C22.4227 41.3206 22.8147 42.7853 22.153 43.9323Z" fill="#FFB09E"/>
<path d="M25.9765 46.8944L24.8477 48.8495C24.4072 49.6126 23.4326 49.8737 22.6697 49.4331L21.2811 48.6315C21.2015 48.5855 21.1266 48.5335 21.0596 48.4759C20.4727 47.99 20.303 47.1368 20.6976 46.4534L21.8263 44.4983C22.1572 43.9252 22.6891 43.541 23.2814 43.3823C23.5293 43.3159 23.7868 43.2884 24.0449 43.305C24.4057 43.3256 24.7654 43.4284 25.0994 43.6213C26.2456 44.283 26.6382 45.7483 25.9765 46.8944V46.8944Z" fill="#FFCEBF"/>
<path d="M25.976 46.8942L24.8479 48.8492C24.4067 49.613 23.4324 49.8739 22.6698 49.4328L21.2808 48.6311C21.2014 48.5858 21.127 48.5341 21.059 48.4761C21.7749 48.7421 22.598 48.461 22.9925 47.7778L24.1206 45.8228C24.5895 45.0111 24.529 44.0368 24.045 43.3044C24.4055 43.3259 24.766 43.428 25.1 43.6208C26.2457 44.2826 26.6377 45.7485 25.976 46.8942V46.8942Z" fill="#FFB09E"/>
<path d="M29.4071 50.5343L29.1614 50.96C28.7712 51.6357 27.908 51.8679 27.2324 51.4778L25.5295 50.4946C25.5044 50.4801 25.4788 50.4639 25.4544 50.4484C24.8374 50.0397 24.6367 49.2151 25.0123 48.5645L25.2581 48.1388C25.589 47.5657 26.1209 47.1815 26.7132 47.0227C26.9611 46.9563 27.2186 46.9288 27.4768 46.9454C27.8375 46.966 28.1972 47.0688 28.5313 47.2617C29.6763 47.9229 30.0689 49.3882 29.4071 50.5343V50.5343Z" fill="#FFCEBF"/>
<path d="M29.4069 50.5343L29.1611 50.9604C28.7716 51.636 27.9082 51.8679 27.2326 51.4784L25.5297 50.4953C25.5045 50.4801 25.4793 50.4637 25.4541 50.4486C26.1171 50.7789 26.9301 50.5394 27.3057 49.889L27.5515 49.4629C28.0204 48.6512 27.9599 47.6781 27.4771 46.9458C27.8376 46.966 28.1969 47.0693 28.5309 47.2622C29.6766 47.9227 30.0686 49.3886 29.4069 50.5343V50.5343Z" fill="#FFB09E"/>
<path d="M27.834 17.4157C27.5921 17.4157 27.3501 17.3234 27.1654 17.1389L23.508 13.4814C23.1388 13.1121 23.1388 12.5137 23.508 12.1445C23.8773 11.7754 24.4757 11.7754 24.8449 12.1445L28.5024 15.8019C28.8716 16.1712 28.8716 16.7697 28.5024 17.1389C28.3177 17.3234 28.0759 17.4157 27.834 17.4157Z" fill="#62DBFB"/>
<path d="M31.0002 16.1042C30.4779 16.1042 30.0548 15.6811 30.0548 15.1589V9.98636C30.0548 9.46415 30.4779 9.04102 31.0002 9.04102C31.5224 9.04102 31.9455 9.46415 31.9455 9.98636V15.1588C31.9455 15.681 31.5222 16.1042 31.0002 16.1042V16.1042Z" fill="#62DBFB"/>
<path d="M34.1663 17.4157C33.9244 17.4157 33.6824 17.3234 33.4977 17.1389C33.1285 16.7696 33.1285 16.1711 33.4977 15.8019L37.1552 12.1445C37.5245 11.7754 38.123 11.7754 38.4921 12.1445C38.8613 12.5138 38.8613 13.1122 38.4921 13.4814L34.8347 17.1389C34.6501 17.3234 34.4081 17.4157 34.1663 17.4157V17.4157Z" fill="#62DBFB"/>
<path d="M43.9891 36.4752L34.4865 30.9896C33.2505 30.2761 31.7328 30.2553 30.4777 30.9347L25.7112 33.8825C25.2675 34.122 24.6386 34.2644 23.9554 34.3224C22.2109 34.4686 20.7463 33.3077 19.5135 32.0637L21.3841 31.9099C22.0962 32.7695 23.3731 33.0808 24.4457 32.462L30.7404 28.8268C32.2442 28.0453 34.068 28.2394 35.3713 29.3222L43.9891 36.4752Z" fill="#FFB09E"/>
<path d="M16.0276 17.9559L5.15248 36.7921C4.90934 37.2133 4.37088 37.3576 3.94963 37.1144L0.440402 35.0884C0.0192839 34.8452 -0.125038 34.3068 0.118104 33.8855L10.9932 15.0493C11.2363 14.6282 11.7748 14.4838 12.196 14.727L15.7054 16.753C16.1265 16.9962 16.2708 17.5348 16.0276 17.9559V17.9559Z" fill="#1BAB44"/>
<path d="M16.0272 17.9554L5.15197 36.7916C4.90997 37.2139 4.37049 37.3576 3.9495 37.1143L1.43237 35.661C1.85336 35.9043 2.39158 35.7606 2.63485 35.3383L13.51 16.5021C13.7508 16.0849 13.6121 15.553 13.2 15.3059L15.7058 16.7529C16.1267 16.9962 16.2704 17.5344 16.0272 17.9554V17.9554Z" fill="#25BB4F"/>
<path d="M51.0069 14.7507L61.882 33.5869C62.1251 34.0081 61.9808 34.5466 61.5597 34.7898L58.0503 36.8158C57.6292 37.059 57.0906 36.9147 56.8474 36.4935L45.9724 17.6573C45.7292 17.2362 45.8735 16.6976 46.2947 16.4545L49.804 14.4284C50.2253 14.1853 50.7637 14.3296 51.0069 14.7507Z" fill="#FEDF30"/>
<path d="M61.5599 34.79L59.0491 36.2396C59.465 35.995 59.6062 35.4593 59.3655 35.0409L48.4902 16.2034C48.247 15.7824 47.7075 15.6387 47.2865 15.882L49.8036 14.4287C50.2246 14.1854 50.7641 14.3291 51.0074 14.7501L61.8826 33.5876C62.1246 34.0086 61.9809 34.5468 61.5599 34.79V34.79Z" fill="#FED402"/>
</g>
<defs>
<clipPath id="clip0_42_454">
<rect width="62" height="62" fill="white"/>
</clipPath>
</defs>
</svg>
