<svg width="55" height="55" viewBox="0 0 55 55" fill="none" xmlns="http://www.w3.org/2000/svg">
<g clip-path="url(#clip0_42_354)">
<path d="M25.2944 41.1202L16.4289 38.0542L14.4728 38.2535L10.2454 50.3992C10.1107 50.786 10.4242 51.1817 10.8316 51.1389L16.7574 50.5185C16.9229 50.5012 17.0875 50.5584 17.2065 50.6748L21.4663 54.8405C21.7591 55.1269 22.2505 55.0114 22.3851 54.6245L26.6402 42.3994L25.2944 41.1202Z" fill="#98DB7C"/>
<path d="M26.6401 42.3992L27.5 39.9291L15.3301 35.7905L14.4729 38.2534C17.9287 40.7193 22.113 42.2287 26.6401 42.3992Z" fill="#82D361"/>
<path d="M29.7056 41.1202L38.5711 38.0542L40.5271 38.2535L44.7546 50.3992C44.8892 50.786 44.5759 51.1817 44.1684 51.1389L38.2427 50.5185C38.0772 50.5012 37.9126 50.5584 37.7937 50.6748L33.5339 54.8405C33.241 55.1269 32.7497 55.0114 32.6151 54.6245L28.36 42.3994L29.7056 41.1202Z" fill="#98DB7C"/>
<path d="M28.3597 42.3992L27.4999 39.9291L39.6698 35.7905L40.527 38.2534C37.0712 40.7193 32.8869 42.2287 28.3597 42.3992Z" fill="#82D361"/>
<path d="M27.5 38.6115C7.56033 38.6115 7.54378 19.2917 7.56032 18.9583C8.08444 8.39975 16.8113 0 27.5 0C38.1816 0 46.9039 8.38857 47.4385 18.9372C47.4558 19.2775 47.4385 38.6115 27.5 38.6115Z" fill="#E0E0E0"/>
<path d="M27.5 37.9166C16.8113 37.9166 8.08476 29.5169 7.56054 18.9583C7.54399 19.2916 7.5354 19.6271 7.5354 19.9645C7.5354 30.9906 16.4739 39.929 27.5 39.929C38.5261 39.929 47.4645 30.9906 47.4645 19.9645C47.4645 19.627 47.4559 19.2916 47.4394 18.9583C46.9152 29.5169 38.1887 37.9166 27.5 37.9166Z" fill="#CECECE"/>
<path d="M27.5 34.4428C11.7721 34.4428 11.7828 19.2911 11.8038 18.9583C12.3228 10.741 19.1518 4.23682 27.5 4.23682C35.8482 4.23682 42.6772 10.741 43.1961 18.9583C43.2172 19.2911 43.1961 34.4428 27.5 34.4428Z" fill="#FFD029"/>
<path d="M27.4999 33.6798C19.1519 33.6798 12.324 27.1754 11.8051 18.9583C11.784 19.291 11.7721 19.6264 11.7721 19.9645C11.7721 28.6507 18.8137 35.6923 27.4999 35.6923C36.1862 35.6923 43.2278 28.6507 43.2278 19.9645C43.2278 19.6263 43.2159 19.291 43.1948 18.9583C42.6759 27.1754 35.848 33.6798 27.4999 33.6798Z" fill="#EABD20"/>
</g>
<defs>
<clipPath id="clip0_42_354">
<rect width="55" height="55" fill="white"/>
</clipPath>
</defs>
</svg>
