<svg width="57" height="57" viewBox="0 0 57 57" fill="none" xmlns="http://www.w3.org/2000/svg">
<g clip-path="url(#clip0_42_386)">
<path d="M42.2882 44.796C42.3338 43.3896 41.1962 42.2215 39.7968 42.2215H39.7915V42.2207H39.9998C41.3584 42.2194 42.4586 41.117 42.4578 39.7584C42.4569 38.3999 41.3545 37.3066 39.9959 37.3075C38.8631 37.3075 30.9644 37.3075 29.7607 37.3075C29.4754 37.3075 29.2732 37.0287 29.3619 36.7578L30.2591 34.0194C31.0227 31.6889 30.887 30.102 30.887 27.3723C30.887 25.7667 29.5854 24.4656 27.9799 24.4656C26.5213 24.4656 25.2884 25.5458 25.0975 26.9918C24.8866 28.5917 24.744 31.4366 22.0995 33.9833L20.2326 35.7802C19.1928 36.7817 17.8055 37.3409 16.3622 37.3409H13.9099V53.4774C14.577 53.477 15.9173 53.477 15.9182 53.477C19.482 53.4748 19.1563 57.0038 23.5885 56.9999H38.673C40.0299 56.9999 41.1297 55.8997 41.1297 54.5429C41.1297 53.1856 40.0299 52.0858 38.673 52.0858H39.1057C40.4408 52.0858 41.5811 51.0474 41.6254 49.7127C41.6719 48.3176 40.5547 47.1717 39.1701 47.1717H39.7676C41.104 47.1717 42.2451 46.132 42.2882 44.796Z" fill="#FFCDBF"/>
<path d="M38.6731 54.1323H23.5886C19.1563 54.1367 19.482 50.6072 15.9182 50.6094C15.9174 50.6094 14.5771 50.6098 13.9104 50.6102V53.4774C14.5771 53.4769 15.9174 53.4769 15.9182 53.4769C19.482 53.4748 19.1563 57.0038 23.5886 56.9999H38.6731C40.0299 56.9999 41.1297 55.8996 41.1297 54.5428C41.1297 54.0071 40.9566 53.5126 40.6653 53.109C40.2195 53.7279 39.4941 54.1323 38.6731 54.1323Z" fill="#FFBEAB"/>
<path d="M13.2124 35.8911H3.90652C3.20463 35.8911 2.63538 36.4604 2.63538 37.1623V53.9719C2.63538 54.6743 3.20419 55.2435 3.90652 55.2435H13.2124C13.9143 55.2435 14.4836 54.6743 14.4836 53.9719V37.1623C14.4836 36.4604 13.9143 35.8911 13.2124 35.8911Z" fill="#98DB7C"/>
<path d="M6.07611 53.9724V37.1623C6.07611 36.4604 6.64536 35.8911 7.34769 35.8911H3.90652C3.20463 35.8911 2.63538 36.4604 2.63538 37.1623V53.9719C2.63538 54.6743 3.20419 55.2435 3.90652 55.2435H7.34725C6.64536 55.2435 6.07611 54.6743 6.07611 53.9724Z" fill="#79BE5C"/>
<path d="M16.0404 13.3103C16.3874 12.9785 16.1961 12.4014 15.7164 12.3327L12.0108 11.8056C11.8204 11.7782 11.656 11.6612 11.5707 11.4921L9.91344 8.2031C9.69904 7.77735 9.07935 7.77735 8.86452 8.2031L7.20764 11.4921C7.12241 11.6612 6.95759 11.7786 6.76711 11.8056L3.06197 12.3327C2.58231 12.4009 2.39053 12.9785 2.73799 13.3103L5.419 15.8704C5.55685 16.0017 5.61948 16.1913 5.5873 16.3774L4.95412 19.9921C4.87236 20.4601 5.37377 20.8171 5.80299 20.5962L9.11718 18.8893C9.28722 18.8019 9.49117 18.8019 9.66121 18.8893L12.9754 20.5962C13.4046 20.8171 13.906 20.4601 13.8243 19.9921L13.1911 16.3774C13.1585 16.1913 13.2215 16.0017 13.3594 15.8704L16.0404 13.3103Z" fill="#FECA57"/>
<path d="M9.63331 15.7157C9.66593 15.53 9.6033 15.3404 9.46545 15.2086L6.784 12.6485C6.51829 12.395 6.56918 11.9975 6.82271 11.7944C6.80444 11.7988 6.78618 11.8027 6.76704 11.8053L3.0619 12.3328C2.58223 12.4011 2.39089 12.9786 2.73792 13.31L5.41893 15.8701C5.55678 16.0019 5.61984 16.1915 5.58723 16.3771L4.95448 19.9923C4.87229 20.4602 5.3737 20.8172 5.80292 20.5963L9.07406 18.9116L9.63331 15.7157Z" fill="#F4B537"/>
<path d="M7.10846 11.6712L10.8136 11.1437C10.998 11.1176 11.1576 11.0063 11.245 10.8458L9.91384 8.2031C9.69901 7.77735 9.07931 7.77735 8.86492 8.2031L7.20761 11.4921C7.16934 11.5677 7.11455 11.6325 7.04932 11.6838C7.06845 11.6791 7.08802 11.6743 7.10846 11.6712Z" fill="#F4B537"/>
<path d="M54.2037 13.3103C54.5507 12.9785 54.3589 12.4014 53.8793 12.3327L50.1741 11.8056C49.9837 11.7782 49.8188 11.6612 49.7336 11.4921L48.0767 8.2031C47.8623 7.77735 47.2422 7.77735 47.0278 8.2031L45.3705 11.4921C45.2853 11.6612 45.1209 11.7786 44.9304 11.8056L41.2253 12.3327C40.7452 12.4009 40.5538 12.9785 40.9009 13.3103L43.5819 15.8704C43.7197 16.0017 43.7828 16.1913 43.7502 16.3774L43.1174 19.9921C43.0352 20.4601 43.5371 20.8171 43.9659 20.5962L47.28 18.8893C47.4505 18.8019 47.654 18.8019 47.8245 18.8893L51.1383 20.5962C51.5675 20.8171 52.0689 20.4601 51.9871 19.9921L51.354 16.3774C51.3213 16.1913 51.3844 16.0017 51.5223 15.8704L54.2037 13.3103Z" fill="#FECA57"/>
<path d="M47.7967 15.7157C47.8293 15.53 47.7663 15.3404 47.6284 15.2086L44.9474 12.6485C44.6817 12.395 44.7326 11.9975 44.9857 11.7944C44.9674 11.7988 44.9491 11.8027 44.9304 11.8053L41.2253 12.3328C40.7456 12.4011 40.5539 12.9786 40.9009 13.31L43.5823 15.8701C43.7202 16.0019 43.7828 16.1915 43.7502 16.3771L43.1174 19.9923C43.0357 20.4602 43.5371 20.8172 43.9663 20.5963L47.2375 18.9116L47.7967 15.7157Z" fill="#F4B537"/>
<path d="M45.2714 11.6712L48.9766 11.1437C49.1614 11.1176 49.321 11.0063 49.408 10.8458L48.0768 8.2031C47.8624 7.77735 47.2423 7.77735 47.0279 8.2031L45.371 11.4921C45.3327 11.5677 45.2779 11.6325 45.2123 11.6838C45.2318 11.6791 45.251 11.6743 45.2714 11.6712Z" fill="#F4B537"/>
<path d="M39.2254 8.77416C39.7868 8.23795 39.4767 7.30428 38.7014 7.19382L32.7101 6.34103C32.4022 6.29711 32.1356 6.10793 31.9982 5.8344L29.3189 0.516306C28.9719 -0.172102 27.9695 -0.172102 27.6229 0.516306L24.9436 5.8344C24.8058 6.10793 24.5396 6.29711 24.2313 6.34103L18.2405 7.19382C17.4646 7.30428 17.155 8.23795 17.716 8.77416L22.0513 12.9133C22.2744 13.1264 22.3761 13.433 22.3235 13.7335L21.2998 19.5782C21.1676 20.3349 21.9786 20.912 22.6723 20.5549L28.0308 17.7952C28.3065 17.6534 28.6353 17.6534 28.911 17.7952L34.2695 20.5549C34.9632 20.912 35.7742 20.3349 35.6416 19.5782L34.6183 13.7335C34.5657 13.433 34.6675 13.1264 34.8901 12.9133L39.2254 8.77416Z" fill="#FECA57"/>
<path d="M28.2777 5.67958C28.5856 5.63566 28.8518 5.44606 28.9896 5.17295L30.3273 2.51804L29.3188 0.516306C28.9718 -0.172102 27.9694 -0.172102 27.6228 0.516306L24.9435 5.8344C24.8661 5.98704 24.7483 6.11272 24.6061 6.2023L28.2777 5.67958Z" fill="#F4B537"/>
<path d="M25.3463 18.9165L26.3696 13.0713C26.4222 12.7708 26.3204 12.4642 26.0978 12.2516L21.7625 8.11199C21.3059 7.67625 21.4259 6.9774 21.9034 6.67212L18.2405 7.19353C17.4646 7.30399 17.155 8.23767 17.716 8.77387L22.0513 12.913C22.2744 13.1261 22.3761 13.4327 22.3235 13.7332L21.2998 19.5779C21.1676 20.3346 21.9782 20.9117 22.6723 20.5547L25.3385 19.1813C25.3285 19.0965 25.3302 19.0078 25.3463 18.9165Z" fill="#F4B537"/>
<path d="M34.7366 46.0247C34.7366 46.6583 35.2502 47.1719 35.8833 47.1719H39.7676C41.0766 47.1719 42.1951 46.1739 42.2817 44.8779H35.8838C35.2502 44.8779 34.7366 45.3915 34.7366 46.0247Z" fill="#FFBEAB"/>
<path d="M34.7366 41.0735C34.7366 41.7071 35.2502 42.2207 35.8833 42.2207H39.9994C41.3015 42.2194 42.3634 41.2066 42.4495 39.9268H35.8833C35.2502 39.9268 34.7366 40.4403 34.7366 41.0735Z" fill="#FFBEAB"/>
<path d="M41.6189 49.792H35.8833C35.2502 49.792 34.7366 50.3056 34.7366 50.9388C34.7366 51.5724 35.2502 52.086 35.8833 52.086H39.1058C40.4143 52.086 41.5324 51.0879 41.6189 49.792Z" fill="#FFBEAB"/>
</g>
<defs>
<clipPath id="clip0_42_386">
<rect width="57" height="57" fill="white"/>
</clipPath>
</defs>
</svg>
