<svg width="53" height="53" viewBox="0 0 53 53" fill="none" xmlns="http://www.w3.org/2000/svg">
<g clip-path="url(#clip0_42_413)">
<path d="M10.9726 36.7844H4.76171C3.90419 36.7844 3.20898 37.4796 3.20898 38.3371V49.7238C3.20898 50.5813 3.90419 51.2765 4.76171 51.2765H10.9726C11.8301 51.2765 12.5253 50.5813 12.5253 49.7238V38.3371C12.5253 37.4796 11.8301 36.7844 10.9726 36.7844Z" fill="#FFE27B"/>
<path d="M23.3944 33.0579H17.1835C16.3259 33.0579 15.6307 33.7531 15.6307 34.6106V49.7237C15.6307 50.5813 16.3259 51.2765 17.1835 51.2765H23.3944C24.2519 51.2765 24.9471 50.5813 24.9471 49.7237V34.6106C24.9471 33.7531 24.2519 33.0579 23.3944 33.0579Z" fill="#FFE27B"/>
<path d="M35.8161 27.3645H29.6052C28.7477 27.3645 28.0525 28.0597 28.0525 28.9172V49.7237C28.0525 50.5812 28.7477 51.2764 29.6052 51.2764H35.8161C36.6736 51.2764 37.3688 50.5812 37.3688 49.7237V28.9172C37.3688 28.0597 36.6736 27.3645 35.8161 27.3645Z" fill="#FFD029"/>
<path d="M48.2379 17.0129H42.027C41.1694 17.0129 40.4742 17.7081 40.4742 18.5657V49.7236C40.4742 50.5811 41.1694 51.2763 42.027 51.2763H48.2379C49.0954 51.2763 49.7906 50.5811 49.7906 49.7236V18.5657C49.7906 17.7081 49.0954 17.0129 48.2379 17.0129Z" fill="#FFD029"/>
<path d="M52.9467 9.95184L50.4041 0.462638C50.2974 0.0648304 50.0372 -0.274284 49.6806 -0.480175C49.324 -0.686169 48.8998 -0.74186 48.5024 -0.635344L39.0132 1.90729C38.1848 2.12923 37.6933 2.98063 37.9152 3.80896C38.1372 4.63729 38.9889 5.12898 39.8169 4.90684L45.9299 3.26882C42.3769 9.44317 36.5047 15.5244 29.4102 20.2983C20.526 26.2769 10.6325 29.5695 1.55272 29.5695C0.695205 29.5695 0 30.2648 0 31.1223C0 31.9798 0.695205 32.675 1.55272 32.675C11.2436 32.675 21.7527 29.1946 31.1441 22.8749C38.4994 17.9254 44.6306 11.6024 48.4391 5.12784L49.947 10.7556C50.1329 11.4494 50.7602 11.9069 51.4458 11.9069C51.5788 11.9069 51.7141 11.8896 51.8487 11.8536C52.677 11.6316 53.1686 10.7802 52.9467 9.95184Z" fill="#79BE5C"/>
<path d="M52.9467 9.95184L50.404 0.462638C50.2974 0.0648304 50.0372 -0.274284 49.6806 -0.480175C49.3239 -0.686169 48.8997 -0.74186 48.5023 -0.635344L39.0131 1.90729C38.1847 2.12923 37.6932 2.98063 37.9152 3.80896C38.1372 4.63729 38.9888 5.12898 39.8168 4.90684L45.9299 3.26882C42.3769 9.44317 36.5047 15.5244 29.4102 20.2984C28.4512 20.9437 27.4798 21.5557 26.4996 22.1377V25.7186C28.0715 24.8466 29.6226 23.8986 31.1439 22.8748C38.4993 17.9253 44.6305 11.6023 48.439 5.12774L49.9469 10.7555C50.1328 11.4493 50.7601 11.9068 51.4457 11.9068C51.5787 11.9068 51.714 11.8895 51.8486 11.8535C52.677 11.6316 53.1686 10.7802 52.9467 9.95184Z" fill="#98DB7C"/>
<path d="M51.4469 52.3115H1.55272C0.695206 52.3115 0 51.6163 0 50.7588C0 49.9013 0.695206 49.2061 1.55272 49.2061H51.4469C52.3044 49.2061 52.9996 49.9013 52.9996 50.7588C52.9996 51.6163 52.3044 52.3115 51.4469 52.3115Z" fill="#C0C0C0"/>
<path d="M51.4469 49.2061H26.4999V52.3115H51.4469C52.3045 52.3115 52.9997 51.6163 52.9997 50.7588C52.9997 49.9013 52.3045 49.2061 51.4469 49.2061Z" fill="#9E9E9E"/>
</g>
<defs>
<clipPath id="clip0_42_413">
<rect width="53" height="53" fill="white"/>
</clipPath>
</defs>
</svg>
