<svg width="331" height="331" viewBox="0 0 331 331" fill="none" xmlns="http://www.w3.org/2000/svg">
<path d="M165.5 -1.97357e-06C143.766 -2.23274e-06 122.245 4.28078 102.166 12.5979C82.0865 20.9151 63.8419 33.1057 48.4738 48.4738C33.1057 63.8419 20.9151 82.0865 12.5979 102.166C4.28078 122.245 1.28273e-06 143.766 1.97357e-06 165.5L51.1064 165.5C51.1064 150.478 54.0653 135.602 59.8141 121.723C65.5629 107.845 73.9891 95.234 84.6115 84.6115C95.234 73.9891 107.845 65.5629 121.723 59.8141C135.602 54.0653 150.478 51.1064 165.5 51.1064L165.5 -1.97357e-06Z" fill="url(#paint0_linear_307_280)"/>
<path d="M-1.60491e-05 165.5C-1.28641e-05 201.932 12.0215 237.346 34.2 266.25C56.3785 295.154 87.4746 315.931 122.665 325.361L135.893 275.996C111.569 269.478 90.0753 255.117 74.7455 235.138C59.4157 215.16 51.1064 190.682 51.1064 165.5L-1.60491e-05 165.5Z" fill="#25BB4F"/>
<defs>
<linearGradient id="paint0_linear_307_280" x1="331" y1="165.5" x2="1.97357e-06" y2="165.5" gradientUnits="userSpaceOnUse">
<stop stop-color="#009B4B"/>
<stop offset="1" stop-color="#00D567"/>
</linearGradient>
</defs>
</svg>
