<svg width="510" height="510" viewBox="0 0 510 510" fill="none" xmlns="http://www.w3.org/2000/svg">
<circle cx="254.963" cy="254.962" r="181.767" fill="white"/>
<mask id="path-2-inside-1_38_104" fill="white">
<path d="M114.621 292.824C95.8557 297.887 84.4518 317.434 93.0533 334.864C101.424 351.826 112.441 367.433 125.754 381.074C147.3 403.149 174.142 419.335 203.72 428.09C233.298 436.844 264.626 437.875 294.715 431.083C324.805 424.292 352.652 409.905 375.602 389.294C398.552 368.683 415.839 342.537 425.814 313.347C435.789 284.158 438.119 252.9 432.582 222.555C427.046 192.209 413.827 163.788 394.186 140.003C382.05 125.305 367.712 112.68 351.744 102.541C335.336 92.1223 314.68 101.367 307.637 119.483C300.594 137.598 310.123 157.639 325.11 170.015C330.483 174.452 335.442 179.404 339.912 184.818C351.896 199.331 359.962 216.673 363.34 235.188C366.718 253.704 365.297 272.777 359.21 290.587C353.124 308.397 342.576 324.351 328.573 336.927C314.57 349.503 297.578 358.281 279.218 362.425C260.859 366.569 241.744 365.94 223.696 360.599C205.649 355.257 189.271 345.38 176.124 331.911C171.221 326.887 166.827 321.426 162.992 315.609C152.292 299.383 133.387 287.762 114.621 292.824Z"/>
</mask>
<path d="M114.621 292.824C95.8557 297.887 84.4518 317.434 93.0533 334.864C101.424 351.826 112.441 367.433 125.754 381.074C147.3 403.149 174.142 419.335 203.72 428.09C233.298 436.844 264.626 437.875 294.715 431.083C324.805 424.292 352.652 409.905 375.602 389.294C398.552 368.683 415.839 342.537 425.814 313.347C435.789 284.158 438.119 252.9 432.582 222.555C427.046 192.209 413.827 163.788 394.186 140.003C382.05 125.305 367.712 112.68 351.744 102.541C335.336 92.1223 314.68 101.367 307.637 119.483C300.594 137.598 310.123 157.639 325.11 170.015C330.483 174.452 335.442 179.404 339.912 184.818C351.896 199.331 359.962 216.673 363.34 235.188C366.718 253.704 365.297 272.777 359.21 290.587C353.124 308.397 342.576 324.351 328.573 336.927C314.57 349.503 297.578 358.281 279.218 362.425C260.859 366.569 241.744 365.94 223.696 360.599C205.649 355.257 189.271 345.38 176.124 331.911C171.221 326.887 166.827 321.426 162.992 315.609C152.292 299.383 133.387 287.762 114.621 292.824Z" stroke="#FEE400" stroke-width="119.058" mask="url(#path-2-inside-1_38_104)"/>
<path d="M363.176 157.911C377.646 144.934 379.016 122.345 363.482 110.663C351.698 101.8 338.837 94.3881 325.171 88.6201C300.657 78.273 274.158 73.4723 247.571 74.5615C220.985 75.6507 194.968 82.6028 171.382 94.9205C158.233 101.787 146.022 110.226 135.002 120.023C120.476 132.937 123.689 155.338 139.172 167.088C154.654 178.838 176.543 175.182 192.56 164.173C196.211 161.663 200.018 159.371 203.964 157.31C218.356 149.794 234.23 145.552 250.453 144.888C266.675 144.223 282.843 147.152 297.801 153.466C301.902 155.197 305.884 157.17 309.728 159.373C326.593 169.035 348.707 170.888 363.176 157.911Z" fill="#008741"/>
<mask id="path-4-inside-2_38_104" fill="white">
<path d="M254.456 109.604C254.389 90.1676 238.43 74.1211 219.375 77.9522C197.729 82.3043 176.964 90.6104 158.158 102.555C129.397 120.823 106.393 146.856 91.8023 177.647C77.212 208.437 71.6318 242.727 75.7065 276.554C78.3708 298.673 85.0918 320.004 95.4314 339.513C104.533 356.686 127.058 358.875 142.143 346.62C157.229 334.364 158.866 312.233 151.968 294.062C148.813 285.751 146.66 277.049 145.587 268.137C143.1 247.497 146.505 226.574 155.408 207.787C164.31 189 178.347 173.115 195.896 161.969C203.473 157.156 211.571 153.311 220.001 150.49C238.433 144.322 254.524 129.04 254.456 109.604Z"/>
</mask>
<path d="M254.456 109.604C254.389 90.1676 238.43 74.1211 219.375 77.9522C197.729 82.3043 176.964 90.6104 158.158 102.555C129.397 120.823 106.393 146.856 91.8023 177.647C77.212 208.437 71.6318 242.727 75.7065 276.554C78.3708 298.673 85.0918 320.004 95.4314 339.513C104.533 356.686 127.058 358.875 142.143 346.62C157.229 334.364 158.866 312.233 151.968 294.062C148.813 285.751 146.66 277.049 145.587 268.137C143.1 247.497 146.505 226.574 155.408 207.787C164.31 189 178.347 173.115 195.896 161.969C203.473 157.156 211.571 153.311 220.001 150.49C238.433 144.322 254.524 129.04 254.456 109.604Z" stroke="#2DD65D" stroke-width="119.058" mask="url(#path-4-inside-2_38_104)"/>
</svg>
