<svg width="22" height="18" viewBox="0 0 22 18" fill="none" xmlns="http://www.w3.org/2000/svg">
<path d="M5.80078 6.42857C7.58061 6.42857 9.02344 4.98949 9.02344 3.21429C9.02344 1.43908 7.58061 0 5.80078 0C4.02096 0 2.57812 1.43908 2.57812 3.21429C2.57812 4.98949 4.02096 6.42857 5.80078 6.42857Z" fill="black"/>
<path d="M16.1992 6.42857C17.979 6.42857 19.4219 4.98949 19.4219 3.21429C19.4219 1.43908 17.979 0 16.1992 0C14.4194 0 12.9766 1.43908 12.9766 3.21429C12.9766 4.98949 14.4194 6.42857 16.1992 6.42857Z" fill="black"/>
<path d="M17.4883 6.42859H11.6445V10.9286H9.02344C8.31149 10.9286 7.73438 11.5042 7.73438 12.2143C7.73438 12.9243 8.31149 13.5 9.02344 13.5H11.6445V18H15.5547V15.4286C15.5547 14.7185 16.1318 14.1429 16.8438 14.1429C17.5557 14.1429 18.1328 14.7185 18.1328 15.4286V18H22V10.9286C22 8.44755 19.9758 6.42859 17.4883 6.42859Z" fill="black"/>
<path d="M9.02344 14.7857C7.60156 14.7857 6.44531 13.6325 6.44531 12.2143C6.44531 10.7961 7.60156 9.64287 9.02344 9.64287H10.3555V6.42859H4.51172C2.02421 6.42859 0 8.44755 0 10.9286V18H3.86719V15.4286C3.86719 14.7185 4.4443 14.1429 5.15625 14.1429C5.8682 14.1429 6.44531 14.7185 6.44531 15.4286V18H10.3555V14.7857H9.02344Z" fill="black"/>
</svg>