<svg width="66" height="66" viewBox="0 0 66 66" fill="none" xmlns="http://www.w3.org/2000/svg">
<circle cx="33" cy="33" r="33" fill="#7B7A8B"/>
<path d="M53.3826 58.9546C47.7709 63.3677 40.6928 66 32.9999 66C25.307 66 18.2289 63.3677 12.6172 58.9546C13.249 56.696 14.0447 55.057 15.2832 53.7416C15.8587 53.1303 16.4954 52.5806 17.1832 52.101C19.0476 50.8012 21.3093 50.2781 24.6341 50.0677C25.8138 49.993 26.4037 49.9556 26.9966 50.1811C27.5895 50.4066 28.037 50.857 28.9321 51.7579L31.6226 54.4657C32.4849 55.3335 33.8829 55.3335 34.7452 54.4657L37.417 51.7767C38.3186 50.8692 38.7695 50.4155 39.3698 50.1902C39.9702 49.965 40.5596 50.0076 41.7384 50.0929C44.8609 50.3188 47.0226 50.8504 48.8165 52.101C49.5043 52.5806 50.141 53.1303 50.7165 53.7416C51.955 55.057 52.7508 56.696 53.3826 58.9546Z" fill="white"/>
<path d="M47.5359 28.6296C47.5359 38.9316 41.0279 48.4444 32.9999 48.4444C24.9719 48.4444 18.4639 38.9316 18.4639 28.6296C18.4639 20.5499 24.9719 14 32.9999 14C41.0279 14 47.5359 20.5499 47.5359 28.6296Z" fill="white"/>
<path fill-rule="evenodd" clip-rule="evenodd" d="M33 63C49.5685 63 63 49.5685 63 33C63 16.4315 49.5685 3 33 3C16.4315 3 3 16.4315 3 33C3 49.5685 16.4315 63 33 63ZM33 66C51.2254 66 66 51.2254 66 33C66 14.7746 51.2254 0 33 0C14.7746 0 0 14.7746 0 33C0 51.2254 14.7746 66 33 66Z" fill="#7B7A8B"/>
</svg>
