<svg width="18" height="18" viewBox="0 0 18 18" fill="none" xmlns="http://www.w3.org/2000/svg">
<path d="M8.05199 2.48992C8.3923 2.16326 8.8057 2 9.29175 2C9.77802 2 10.1911 2.16335 10.5313 2.48992C10.8715 2.81674 11.0416 3.21339 11.0416 3.67999C11.0416 4.14665 10.8715 4.54337 10.5313 4.86994C10.1911 5.19663 9.77802 5.35989 9.29175 5.35989C8.80561 5.35989 8.3923 5.19654 8.05199 4.86994C7.7117 4.54322 7.54164 4.14665 7.54164 3.67999C7.54164 3.21336 7.71176 2.81661 8.05199 2.48992Z" fill="#AAA9B9"/>
<path d="M4.07362 4.27064C4.38659 3.97027 4.76482 3.82004 5.20848 3.82004C5.65205 3.82004 6.03033 3.97027 6.3432 4.27064C6.6561 4.57101 6.81261 4.93414 6.81261 5.35995C6.81261 5.78581 6.6561 6.14889 6.3432 6.44938C6.03033 6.74975 5.65205 6.90004 5.20848 6.90004C4.76493 6.90004 4.38668 6.74984 4.07362 6.44938C3.76063 6.14889 3.60424 5.78591 3.60424 5.35995C3.60424 4.93414 3.76063 4.57101 4.07362 4.27064Z" fill="#AAA9B9"/>
<path d="M13.3751 6.06007C13.5755 6.06007 13.7474 5.99143 13.89 5.8544C14.0328 5.71726 14.1044 5.55241 14.1044 5.35995C14.1044 5.1674 14.0328 5.00267 13.89 4.86562C13.7473 4.72848 13.5755 4.65995 13.3751 4.65995C13.1745 4.65995 13.0028 4.7286 12.86 4.86562C12.7173 5.0027 12.6459 5.1674 12.6459 5.35995C12.6459 5.5525 12.7173 5.71726 12.86 5.8544C13.0028 5.99155 13.1745 6.06007 13.3751 6.06007Z" fill="#AAA9B9"/>
<path d="M4.48837 8.291C4.77399 8.56541 4.91672 8.89489 4.91672 9.27988C4.91672 9.6648 4.77399 9.99441 4.48837 10.2685C4.20278 10.5427 3.85939 10.6798 3.45835 10.6798C3.05728 10.6798 2.71396 10.5427 2.42833 10.2685C2.14273 9.99422 2 9.6648 2 9.27988C2 8.89477 2.14278 8.5652 2.42833 8.291C2.71396 8.01687 3.05728 7.87978 3.45835 7.87978C3.85939 7.87978 4.20278 8.01683 4.48837 8.291Z" fill="#AAA9B9"/>
<path d="M4.27859 12.3072C4.53384 12.0622 4.84373 11.9397 5.20841 11.9397C5.56695 11.9397 5.87525 12.0624 6.13358 12.3072C6.39183 12.5526 6.52089 12.8498 6.52089 13.1999C6.52089 13.55 6.39178 13.8477 6.13358 14.0926C5.87527 14.3376 5.56695 14.4601 5.20841 14.4601C4.84382 14.4601 4.53395 14.3376 4.27859 14.0926C4.02338 13.8474 3.8958 13.55 3.8958 13.1999C3.8958 12.8498 4.02346 12.5524 4.27859 12.3072Z" fill="#AAA9B9"/>
<path d="M15.7449 8.68481C15.5748 8.52146 15.3682 8.43988 15.1252 8.43988C14.882 8.43988 14.6755 8.52146 14.5054 8.68481C14.3354 8.84816 14.2504 9.04653 14.2504 9.28C14.2504 9.51322 14.3354 9.71187 14.5054 9.87485C14.6755 10.0383 14.882 10.1198 15.1252 10.1198C15.3682 10.1198 15.5749 10.0383 15.7449 9.87485C15.9151 9.71169 16 9.51322 16 9.28C16 9.04666 15.9153 8.84825 15.7449 8.68481Z" fill="#AAA9B9"/>
<path d="M12.6548 12.5086C12.8554 12.316 13.0955 12.2198 13.3751 12.2198C13.6546 12.2198 13.8946 12.316 14.0952 12.5086C14.2958 12.7012 14.396 12.9314 14.396 13.1999C14.396 13.4683 14.2958 13.6988 14.0952 13.8913C13.8946 14.0837 13.6546 14.1799 13.3751 14.1799C13.0955 14.1799 12.8554 14.0838 12.6548 13.8913C12.4545 13.6987 12.3542 13.4682 12.3542 13.1999C12.3542 12.9314 12.4545 12.7009 12.6548 12.5086Z" fill="#AAA9B9"/>
<path d="M9.29175 13.7597C8.9697 13.7597 8.6947 13.8692 8.4667 14.088C8.23891 14.3068 8.12493 14.5707 8.12493 14.8799C8.12493 15.1891 8.23878 15.4529 8.4667 15.6717C8.6947 15.8905 8.96957 16 9.29175 16C9.61384 16 9.88871 15.8905 10.1166 15.6717C10.3445 15.4529 10.4585 15.1891 10.4585 14.8799C10.4585 14.5707 10.3445 14.3068 10.1166 14.088C9.88871 13.8692 9.61384 13.7597 9.29175 13.7597Z" fill="#AAA9B9"/>
</svg>
