<svg width="25" height="25" fill="none" xmlns="http://www.w3.org/2000/svg"><circle cx="12.5" cy="12.5" r="12.5" fill="#C6B55C"/><circle cx="12.5" cy="12.5" r="11.539" fill="#C6B55C"/><circle cx="12.5" cy="12.5" r="9.615" fill="#fff"/><path d="M14.306 9.243c-.93.9-2.452 2.626-3.097 3.376-.13-.125-.62-.45-1.55-.75-1.16-.375-1.16.375-.774.75.388.376 1.936 2.626 2.324 3.376.31.6.645 0 .774-.375.516-1.125 1.781-3.676 2.71-4.876 1.162-1.5 2.71-2.626 2.71-3.001-.386-.75-1.935.375-3.097 1.5z" fill="#DAC55A"/></svg>