<svg width="1920" height="785" fill="none" xmlns="http://www.w3.org/2000/svg"><path d="M669.881 201.416c-193.824 25.559-363.927 7.086-455.459-29.135C141.193 143.352 67.52 99.843 0 43.025V785h1920V108.751c-188.69-73.683-372.51-80.174-573.51-47.943-201.07 32.326-454.422 111.24-676.609 140.608z" fill="#0B0D19"/><path opacity=".64" d="M669.881 201.416c-193.824 25.559-363.927 7.086-455.459-29.135C141.193 143.352 67.52 99.843 0 43.025V785h1920V108.751c-188.69-73.683-372.51-80.174-573.51-47.943-201.07 32.326-454.422 111.24-676.609 140.608z" fill="url(#paint0_linear)"/><g filter="url(#filter0_d)"><path d="M0 42.86c67.52 56.777 141.193 100.254 214.422 129.163 91.532 36.195 261.635 54.655 455.459 29.114C892.068 171.79 1145.42 92.933 1346.49 60.63c201-32.208 384.82-25.722 573.51 47.908" stroke="#8356CC" stroke-width="4" stroke-linecap="square" stroke-linejoin="round"/></g><defs><linearGradient id="paint0_linear" x1="1000.37" y1="123.151" x2="1002.32" y2="719.261" gradientUnits="userSpaceOnUse"><stop stop-color="#AB78FF" stop-opacity=".08"/><stop offset=".067" stop-color="#AB78FF" stop-opacity=".079"/><stop offset=".133" stop-color="#AB78FF" stop-opacity=".077"/><stop offset=".2" stop-color="#AB78FF" stop-opacity=".073"/><stop offset=".267" stop-color="#AB78FF" stop-opacity=".068"/><stop offset=".333" stop-color="#AB78FF" stop-opacity=".061"/><stop offset=".4" stop-color="#AB78FF" stop-opacity=".053"/><stop offset=".467" stop-color="#AB78FF" stop-opacity=".045"/><stop offset=".533" stop-color="#AB78FF" stop-opacity=".035"/><stop offset=".6" stop-color="#AB78FF" stop-opacity=".027"/><stop offset=".667" stop-color="#AB78FF" stop-opacity=".019"/><stop offset=".733" stop-color="#AB78FF" stop-opacity=".012"/><stop offset=".8" stop-color="#AB78FF" stop-opacity=".01"/><stop offset=".867" stop-color="#AB78FF" stop-opacity=".01"/><stop offset=".933" stop-color="#AB78FF" stop-opacity=".01"/><stop offset="1" stop-color="#AB78FF" stop-opacity="0"/></linearGradient><filter id="filter0_d" x="-42.818" y=".042" width="2005.41" height="254.958" filterUnits="userSpaceOnUse" color-interpolation-filters="sRGB"><feFlood flood-opacity="0" result="BackgroundImageFix"/><feColorMatrix in="SourceAlpha" values="0 0 0 0 0 0 0 0 0 0 0 0 0 0 0 0 0 0 127 0"/><feOffset/><feGaussianBlur stdDeviation="20"/><feColorMatrix values="0 0 0 0 0.678431 0 0 0 0 0.478431 0 0 0 0 1 0 0 0 0.5 0"/><feBlend in2="BackgroundImageFix" result="effect1_dropShadow"/><feBlend in="SourceGraphic" in2="effect1_dropShadow" result="shape"/></filter></defs></svg>