<svg width="1920" height="915" fill="none" xmlns="http://www.w3.org/2000/svg"><path opacity=".64" d="M771.843 391.242c-173.98 22.938-326.667 6.36-408.828-26.148C225.785 310.888 86.815 199.651 0 41.746V915h1920V318.702c-178.56-76.068-351.17-84.06-540.82-53.654-180.48 29.012-407.899 99.836-607.337 126.194z" fill="url(#paint0_linear)"/><g filter="url(#filter0_d)"><path d="M1920 318.702c-178.56-76.068-351.17-84.06-540.82-53.654-180.48 29.012-407.899 99.836-607.337 126.194-173.98 22.938-326.667 6.36-408.828-26.148C225.785 310.888 86.815 199.651 0 41.746" stroke="#8356CC" stroke-width="4"/></g><defs><linearGradient id="paint0_linear" x1="1068.5" y1="321" x2="1070.24" y2="856" gradientUnits="userSpaceOnUse"><stop stop-color="#AB78FF" stop-opacity=".08"/><stop offset=".067" stop-color="#AB78FF" stop-opacity=".079"/><stop offset=".133" stop-color="#AB78FF" stop-opacity=".077"/><stop offset=".2" stop-color="#AB78FF" stop-opacity=".073"/><stop offset=".267" stop-color="#AB78FF" stop-opacity=".068"/><stop offset=".333" stop-color="#AB78FF" stop-opacity=".061"/><stop offset=".4" stop-color="#AB78FF" stop-opacity=".053"/><stop offset=".467" stop-color="#AB78FF" stop-opacity=".045"/><stop offset=".533" stop-color="#AB78FF" stop-opacity=".035"/><stop offset=".6" stop-color="#AB78FF" stop-opacity=".027"/><stop offset=".667" stop-color="#AB78FF" stop-opacity=".019"/><stop offset=".733" stop-color="#AB78FF" stop-opacity=".012"/><stop offset=".8" stop-color="#AB78FF" stop-opacity=".01"/><stop offset=".867" stop-color="#AB78FF" stop-opacity=".01"/><stop offset=".933" stop-color="#AB78FF" stop-opacity=".01"/><stop offset="1" stop-color="#AB78FF" stop-opacity="0"/></linearGradient><filter id="filter0_d" x="-41.753" y=".783" width="2002.54" height="443.114" filterUnits="userSpaceOnUse" color-interpolation-filters="sRGB"><feFlood flood-opacity="0" result="BackgroundImageFix"/><feColorMatrix in="SourceAlpha" values="0 0 0 0 0 0 0 0 0 0 0 0 0 0 0 0 0 0 127 0"/><feOffset/><feGaussianBlur stdDeviation="20"/><feColorMatrix values="0 0 0 0 0.678431 0 0 0 0 0.478431 0 0 0 0 1 0 0 0 0.5 0"/><feBlend in2="BackgroundImageFix" result="effect1_dropShadow"/><feBlend in="SourceGraphic" in2="effect1_dropShadow" result="shape"/></filter></defs></svg>