<svg width="19" height="19" viewBox="0 0 19 19" fill="none" xmlns="http://www.w3.org/2000/svg">
<path d="M9.29289 5.20711C9.68342 4.81658 10.3166 4.81658 10.7071 5.20711L13 7.5C13.2761 7.77614 13.2761 8.22386 13 8.5C12.7239 8.77614 12.2761 8.77614 12 8.5L10 6.5L8 8.5C7.72386 8.77614 7.27614 8.77614 7 8.5C6.72386 8.22386 6.72386 7.77614 7 7.5L9.29289 5.20711Z" fill="#5851DB"/>
<path d="M9.29289 14.7929C9.68342 15.1834 10.3166 15.1834 10.7071 14.7929L13 12.5C13.2761 12.2239 13.2761 11.7761 13 11.5C12.7239 11.2239 12.2761 11.2239 12 11.5L10 13.5L8 11.5C7.72386 11.2239 7.27614 11.2239 7 11.5C6.72386 11.7761 6.72386 12.2239 7 12.5L9.29289 14.7929Z" fill="#5851DB"/>
</svg>
