<svg width="18" height="18" viewBox="0 0 18 18" fill="none" xmlns="http://www.w3.org/2000/svg">
<path d="M9 8.1L7.35 6.45C7.10147 6.20147 6.69853 6.20147 6.45 6.45C6.20147 6.69853 6.20147 7.10147 6.45 7.35L8.1 9L6.45 10.65C6.20147 10.8985 6.20147 11.3015 6.45 11.55C6.69853 11.7985 7.10147 11.7985 7.35 11.55L9 9.9L10.65 11.55C10.8985 11.7985 11.3015 11.7985 11.55 11.55C11.7985 11.3015 11.7985 10.8985 11.55 10.65L9.9 9L11.55 7.35C11.7985 7.10147 11.7985 6.69853 11.55 6.45C11.3015 6.20147 10.8985 6.20147 10.65 6.45L9 8.1Z" fill="#52515E"/>
</svg>
