<svg class="i-dashboard" width="18" height="18" viewBox="0 0 18 18" fill="none" xmlns="http://www.w3.org/2000/svg">
<path d="M9.75 8.75H14.25V7.75H9.75V8.75ZM14.5 9V14.25H15.5V9H14.5ZM14.25 14.5H9.75V15.5H14.25V14.5ZM9.5 14.25V9H8.5V14.25H9.5ZM3.75 3.5H6V2.5H3.75V3.5ZM6.25 3.75V14.25H7.25V3.75H6.25ZM6 14.5H3.75V15.5H6V14.5ZM3.5 14.25V3.75H2.5V14.25H3.5ZM3.75 14.5C3.61193 14.5 3.5 14.3881 3.5 14.25H2.5C2.5 14.9404 3.05964 15.5 3.75 15.5V14.5ZM6.25 14.25C6.25 14.3881 6.13807 14.5 6 14.5V15.5C6.69036 15.5 7.25 14.9404 7.25 14.25H6.25ZM6 3.5C6.13807 3.5 6.25 3.61193 6.25 3.75H7.25C7.25 3.05964 6.69036 2.5 6 2.5V3.5ZM3.75 2.5C3.05964 2.5 2.5 3.05964 2.5 3.75H3.5C3.5 3.61193 3.61193 3.5 3.75 3.5V2.5ZM9.75 3.5H14.25V2.5H9.75V3.5ZM14.5 3.75V5.25H15.5V3.75H14.5ZM14.25 5.5H9.75V6.5H14.25V5.5ZM9.5 5.25V3.75H8.5V5.25H9.5ZM9.75 5.5C9.61193 5.5 9.5 5.38807 9.5 5.25H8.5C8.5 5.94036 9.05964 6.5 9.75 6.5V5.5ZM14.5 5.25C14.5 5.38807 14.3881 5.5 14.25 5.5V6.5C14.9404 6.5 15.5 5.94036 15.5 5.25H14.5ZM14.25 3.5C14.3881 3.5 14.5 3.61193 14.5 3.75H15.5C15.5 3.05964 14.9404 2.5 14.25 2.5V3.5ZM9.75 2.5C9.05964 2.5 8.5 3.05964 8.5 3.75H9.5C9.5 3.61193 9.61193 3.5 9.75 3.5V2.5ZM9.75 14.5C9.61193 14.5 9.5 14.3881 9.5 14.25H8.5C8.5 14.9404 9.05964 15.5 9.75 15.5V14.5ZM14.5 14.25C14.5 14.3881 14.3881 14.5 14.25 14.5V15.5C14.9404 15.5 15.5 14.9404 15.5 14.25H14.5ZM14.25 8.75C14.3881 8.75 14.5 8.86193 14.5 9H15.5C15.5 8.30964 14.9404 7.75 14.25 7.75V8.75ZM9.75 7.75C9.05964 7.75 8.5 8.30964 8.5 9H9.5C9.5 8.86193 9.61193 8.75 9.75 8.75V7.75Z" fill="#A1A8B4"/>
</svg>
