<svg width="36" height="36" viewBox="0 0 36 36" fill="none" xmlns="http://www.w3.org/2000/svg">
<path d="M34.3636 17.9999C34.3636 26.1676 28.3794 32.9374 20.5568 34.1647V22.73H24.3697L25.0952 17.9999H20.5568V14.9304C20.5568 13.636 21.1909 12.3749 23.2236 12.3749H25.2869V8.34788C25.2869 8.34788 23.4141 8.02828 21.6236 8.02828C17.8862 8.02828 15.4432 10.2936 15.4432 14.3948V17.9999H11.2883V22.73H15.4432V34.1647C7.62059 32.9374 1.63635 26.1676 1.63635 17.9999C1.63635 8.96279 8.96291 1.63623 18 1.63623C27.0371 1.63623 34.3636 8.96279 34.3636 17.9999Z" fill="#1877F2"/>
<path d="M24.3696 22.73L25.0951 17.9999H20.5568V14.9304C20.5568 13.6363 21.1908 12.3749 23.2235 12.3749H25.2869V8.34792C25.2869 8.34792 23.4143 8.02832 21.6239 8.02832C17.8861 8.02832 15.4432 10.2937 15.4432 14.3948V17.9999H11.2883V22.73H15.4432V34.1647C16.2763 34.2954 17.1301 34.3635 18 34.3635C18.8698 34.3635 19.7237 34.2954 20.5568 34.1647V22.73H24.3696Z" fill="white"/>
</svg>
