<svg width="14" height="14" viewBox="0 0 14 14" fill="none" xmlns="http://www.w3.org/2000/svg">
<path d="M4.66688 4.66688C4.23733 4.66688 3.88911 4.31866 3.88911 3.88911C3.88911 3.45955 4.23733 3.11133 4.66688 3.11133C5.09644 3.11133 5.44466 3.45955 5.44466 3.88911C5.44466 4.31866 5.09644 4.66688 4.66688 4.66688Z" fill="#5851DB"/>
<path d="M4.66688 10.8891C4.23733 10.8891 3.88911 10.5409 3.88911 10.1113L3.88911 8.55577C3.88911 8.12622 4.23733 7.77799 4.66688 7.77799C5.09644 7.77799 5.44466 8.12622 5.44466 8.55577L5.44466 10.1113C5.44466 10.5409 5.09644 10.8891 4.66688 10.8891Z" fill="#5851DB"/>
<path d="M8.55577 7.77799C8.55577 8.20755 8.904 8.55577 9.33355 8.55577C9.76311 8.55577 10.1113 8.20755 10.1113 7.77799V3.88911C10.1113 3.45955 9.7631 3.11133 9.33355 3.11133C8.904 3.11133 8.55577 3.45955 8.55577 3.88911L8.55577 7.77799Z" fill="#5851DB"/>
<path d="M3.11133 6.22244C3.11133 5.79288 3.45955 5.44466 3.88911 5.44466H5.44466C5.87422 5.44466 6.22244 5.79288 6.22244 6.22244C6.22244 6.65199 5.87422 7.00022 5.44466 7.00022H3.88911C3.45955 7.00022 3.11133 6.65199 3.11133 6.22244Z" fill="#5851DB"/>
<path d="M8.55577 9.33355C8.12622 9.33355 7.77799 9.68177 7.77799 10.1113C7.77799 10.5409 8.12622 10.8891 8.55577 10.8891H10.1113C10.5409 10.8891 10.8891 10.5409 10.8891 10.1113C10.8891 9.68177 10.5409 9.33355 10.1113 9.33355H8.55577Z" fill="#5851DB"/>
</svg>
