<svg width="18" height="18" viewBox="0 0 18 18" fill="none" xmlns="http://www.w3.org/2000/svg">
<path d="M15.7576 10.5342L14.4362 9.52793C14.4529 9.37275 14.4673 9.19135 14.4673 8.99943C14.4673 8.8075 14.4535 8.6261 14.4362 8.47093L15.7589 7.4641C16.0045 7.2751 16.0716 6.93968 15.9152 6.66028L14.541 4.345C14.3942 4.08368 14.0726 3.9495 13.7461 4.06675L12.1868 4.67632C11.8879 4.46632 11.5746 4.289 11.2505 4.14725L11.0133 2.53668C10.9743 2.231 10.7012 2 10.3783 2H7.62277C7.29988 2 7.02734 2.231 6.98898 2.532L6.75117 4.14843C6.43727 4.2861 6.12879 4.4611 5.81668 4.6775L4.2532 4.06618C3.96024 3.95593 3.60981 4.07957 3.46424 4.33975L2.08828 6.65793C1.92595 6.9251 1.99303 7.27218 2.24403 7.46585L3.5655 8.4721C3.54452 8.66868 3.53436 8.8396 3.53436 9.00003C3.53436 9.16045 3.54455 9.33135 3.5655 9.52853L2.24283 10.5354C1.99721 10.7249 1.93072 11.0604 2.08707 11.3392L3.46126 13.6544C3.60804 13.9152 3.92671 14.0505 4.25617 13.9327L5.81547 13.3231C6.11379 13.5325 6.42708 13.7099 6.75117 13.8522L6.98839 15.4622C7.02731 15.769 7.29988 16 7.62336 16H10.3789C10.7018 16 10.975 15.769 11.0133 15.468L11.2511 13.8522C11.565 13.7139 11.8729 13.5395 12.1856 13.3225L13.7491 13.9338C13.8246 13.9624 13.903 13.977 13.9839 13.977C14.2163 13.977 14.4302 13.8533 14.538 13.6608L15.9182 11.3333C16.0716 11.0603 16.0044 10.7249 15.7576 10.5342ZM9.00053 11.3333C7.67907 11.3333 6.6044 10.2868 6.6044 9C6.6044 7.71318 7.67907 6.66668 9.00053 6.66668C10.322 6.66668 11.3967 7.71318 11.3967 9C11.3967 10.2868 10.322 11.3333 9.00053 11.3333Z" fill="#2B2B30"/>
</svg>
