<svg width="36" height="36" viewBox="0 0 36 36" fill="none" xmlns="http://www.w3.org/2000/svg">
<path d="M9.30681 17.9998C9.30681 16.3784 9.75355 14.8594 10.5297 13.5588V8.04199H5.01282C2.82323 10.8857 1.63635 14.3514 1.63635 17.9998C1.63635 21.6483 2.82323 25.114 5.01282 27.9577H10.5297V22.4408C9.75355 21.1403 9.30681 19.6213 9.30681 17.9998Z" fill="#FBBD00"/>
<path d="M18 26.6931L14.1647 30.5283L18 34.3635C21.6485 34.3635 25.1141 33.1766 27.9578 30.987V25.4761H22.4468C21.1349 26.255 19.6095 26.6931 18 26.6931Z" fill="#0F9D58"/>
<path d="M10.5297 22.4409L5.01282 27.9578C5.44633 28.5208 5.91838 29.0599 6.42917 29.5708C9.51985 32.6614 13.6291 34.3636 18 34.3636V26.6931C14.828 26.6931 12.0479 24.9851 10.5297 22.4409Z" fill="#31AA52"/>
<path d="M34.3636 18.0001C34.3636 17.0045 34.2735 16.0071 34.0957 15.0357L33.9518 14.2495H18V21.92H25.7633C25.0094 23.4196 23.8503 24.6431 22.4468 25.4764L27.9578 30.9873C28.5208 30.5538 29.06 30.0818 29.5708 29.571C32.6615 26.4802 34.3636 22.371 34.3636 18.0001Z" fill="#3C79E6"/>
<path d="M24.147 11.8528L24.8249 12.5308L30.2488 7.10699L29.5708 6.42905C26.4802 3.33837 22.3709 1.63623 18 1.63623L14.1647 5.47146L18 9.30668C20.3219 9.30668 22.505 10.2109 24.147 11.8528Z" fill="#CF2D48"/>
<path d="M18 9.30668V1.63623C13.6291 1.63623 9.51985 3.33837 6.42911 6.42899C5.91832 6.93977 5.44626 7.47894 5.01276 8.04202L10.5296 13.5589C12.0479 11.0146 14.828 9.30668 18 9.30668Z" fill="#EB4132"/>
</svg>
