<svg width="10" height="11" fill="none" xmlns="http://www.w3.org/2000/svg"><path fill-rule="evenodd" clip-rule="evenodd" d="M3.191.122c-.045.066-.23.443-.411.835-.277.6-.324.731-.296.819.024.072.107.143.265.226.127.067.447.228.71.358.264.13.537.246.607.258.09.015.15 0 .203-.05a.28.28 0 00.076-.178.368.368 0 00-.029-.15c-.016-.026-.236-.156-.49-.29l-.461-.242.327-.105c.18-.057.474-.14.653-.185.18-.044.535-.11.789-.147.373-.054.605-.061 1.212-.037.412.016.862.032 1 .035.238.005.25 0 .301-.11.04-.086.043-.141.013-.21a.316.316 0 00-.167-.134A3.319 3.319 0 007.039.73a9.451 9.451 0 00-.924-.041c-.33 0-.745.018-.924.042a12.346 12.346 0 00-1.593.342c-.17.052-.316.089-.323.081-.007-.007.051-.156.129-.33a8.14 8.14 0 00.193-.467C3.643.22 3.64.197 3.57.103A.231.231 0 003.384 0c-.079 0-.134.035-.193.122zM.537 2.936c-.074.034-.184.11-.245.17-.06.06-.152.2-.202.311-.064.144-.09.273-.09.445 0 .155.028.307.077.42.055.128.565.693 1.908 2.11l1.832 1.935-.796-.217c-.437-.12-.88-.229-.982-.244a.534.534 0 00-.354.051 1.106 1.106 0 00-.278.196c-.061.064-.143.19-.182.279a.865.865 0 00-.071.258c0 .053.019.167.043.253a1.1 1.1 0 00.178.32c.073.09.236.218.362.285.126.067.5.236.832.376.332.14.785.32 1.007.4a11.842 11.842 0 001.558.45c.17.034.52.082.78.106.26.024.554.07.654.101.1.032.237.059.306.059.09 0 .141-.027.187-.1a.273.273 0 00.038-.202c-.014-.063-.078-.13-.167-.177a1.75 1.75 0 00-.336-.122 8.744 8.744 0 00-.741-.106 9.364 9.364 0 01-.827-.124 13.419 13.419 0 01-.78-.223c-.277-.087-.64-.211-.808-.276a31.182 31.182 0 01-.71-.287 14.24 14.24 0 01-.72-.328c-.25-.125-.323-.182-.343-.264a.407.407 0 01.036-.238c.034-.074.096-.146.138-.16.045-.015.559.105 1.223.286.631.171 1.253.339 1.382.372.13.034.263.05.296.037a.38.38 0 00.127-.131c.06-.095.06-.118.012-.2-.03-.05-1.005-1.105-2.167-2.341C1.552 5.179.569 4.116.53 4.055a.459.459 0 01-.07-.187c0-.04.028-.138.064-.217a.592.592 0 01.182-.218.55.55 0 01.25-.076c.123 0 .245.118 1.675 1.617 1.468 1.54 1.55 1.618 1.684 1.618.102 0 .157-.025.2-.09a.379.379 0 00.06-.173c0-.047-.079-.164-.177-.264a6.614 6.614 0 01-.366-.415c-.14-.174-.188-.268-.187-.364 0-.071.033-.182.072-.245a.787.787 0 01.183-.192.434.434 0 01.206-.075.41.41 0 01.178.05c.045.027.303.273.573.546.271.273.534.507.584.52.066.017.12-.003.187-.068.051-.051.094-.135.094-.186 0-.06-.119-.225-.346-.479-.19-.213-.357-.432-.37-.487a.509.509 0 010-.198.713.713 0 01.12-.22.599.599 0 01.226-.166.316.316 0 01.226-.005c.054.022.334.277.62.568.43.434.543.528.636.528a.2.2 0 00.174-.09.383.383 0 00.06-.177c0-.047-.067-.166-.148-.263a2.015 2.015 0 01-.192-.266.482.482 0 01-.045-.182c0-.052.034-.152.075-.223a.553.553 0 01.158-.175.27.27 0 01.174-.022c.05.013.151.079.224.146.073.067.249.306.391.531.143.225.342.575.442.777.1.203.266.605.368.894.102.29.278.715.391.947.113.231.275.527.359.657.123.192.172.236.258.236a.378.378 0 00.19-.063.218.218 0 00.086-.173c0-.06-.057-.2-.126-.31a8.07 8.07 0 01-.234-.404 6.422 6.422 0 01-.223-.485 21.501 21.501 0 01-.264-.696 9.777 9.777 0 00-.345-.817 10.95 10.95 0 00-.469-.835 5.118 5.118 0 00-.412-.58 1.325 1.325 0 00-.294-.226 1.243 1.243 0 00-.403-.094c-.213-.013-.269-.001-.383.08a1.39 1.39 0 00-.255.264c-.068.093-.13.193-.14.222-.014.041-.034.038-.091-.013a1.233 1.233 0 00-.57-.263 1.093 1.093 0 00-.355.023 1.216 1.216 0 00-.34.158.898.898 0 00-.27.355c-.1.209-.128.24-.193.214a1.222 1.222 0 00-.307-.034.867.867 0 00-.423.092 1.15 1.15 0 00-.318.244c-.068.082-.125.171-.125.198a.26.26 0 01-.035.107c-.027.045-.242-.157-.932-.876-.494-.514-.941-.97-.994-1.012a.939.939 0 00-.227-.125 1.34 1.34 0 00-.365-.045c-.13 0-.296.03-.37.063z" fill="#3D3D3D"/></svg>