<svg width="18" height="18" viewBox="0 0 18 18" fill="none" xmlns="http://www.w3.org/2000/svg">
<path fill-rule="evenodd" clip-rule="evenodd" d="M15.7212 8.06604L14.25 6.69287V3.1666C14.25 2.8446 13.9887 2.58326 13.6667 2.58326H11.9167C11.5947 2.58326 11.3333 2.8446 11.3333 3.1666V3.9646L9.39842 2.15684C9.17383 1.94801 8.82617 1.94743 8.60217 2.15684L2.26425 8.08004C2.09392 8.25038 2 8.47379 2 8.7083C2 9.19071 2.39258 9.5833 2.875 9.5833H3.75V14.5417C3.75 15.3455 4.4045 16 5.20833 16H6C6.55229 16 7 15.5523 7 15V12.5C7 11.5 8.0335 10.5 9 10.5C9.9665 10.5 11 11.5 11 12.5V15C11 15.5523 11.4477 16 12 16H12.7917C13.5955 16 14.25 15.3455 14.25 14.5417V9.5833H15.125C15.6074 9.5833 16 9.19071 16 8.7083C16 8.47379 15.9061 8.25038 15.7212 8.06604ZM9 8C9.55228 8 10 7.55228 10 7C10 6.44772 9.55228 6 9 6C8.44772 6 8 6.44772 8 7C8 7.55228 8.44772 8 9 8Z" fill="#2B2B30"/>
</svg>
