<svg width="18" height="18" viewBox="0 0 18 18" fill="none" xmlns="http://www.w3.org/2000/svg">
<path d="M12 6.5C12 6.86371 11.9445 7.21446 11.8416 7.54425C11.2257 7.61607 10.6149 7.74536 10.0173 7.93213L9 8.25002V9.96456C8.8367 9.98791 8.66976 10 8.5 10C6.567 10 5 8.433 5 6.5C5 4.567 6.567 3 8.5 3C10.433 3 12 4.567 12 6.5Z" fill="#2B2B30"/>
<path d="M9 11.5593V11.0134C8.83827 11.0046 8.67165 11 8.5 11C4.1 11 3 14 3 15C3 16 4.1 16 4.1 16H11.1258C9.81005 14.9403 9 13.3221 9 11.5593Z" fill="#2B2B30"/>
<path d="M16 9C14.0527 8.35089 11.9473 8.35089 10 9V11.8377C10 13.7262 11.2084 15.4028 13 16C14.7916 15.4028 16 13.7262 16 11.8377V9Z" fill="#2B2B30"/>
</svg>
