<svg width="13" height="13" viewBox="0 0 13 13" fill="none" xmlns="http://www.w3.org/2000/svg">
<path fill-rule="evenodd" clip-rule="evenodd" d="M6.50001 11.5554C9.29212 11.5554 11.5556 9.292 11.5556 6.49989C11.5556 3.70779 9.29212 1.44434 6.50001 1.44434C3.70791 1.44434 1.44446 3.70779 1.44446 6.49989C1.44446 9.292 3.70791 11.5554 6.50001 11.5554ZM5.77779 4.33322C5.77779 3.93435 6.10114 3.611 6.50001 3.611C6.89889 3.611 7.22224 3.93435 7.22224 4.33322C7.22224 4.7321 6.89889 5.05545 6.50001 5.05545C6.10114 5.05545 5.77779 4.7321 5.77779 4.33322ZM5.77779 6.49989C5.77779 6.10102 6.10114 5.77767 6.50001 5.77767C6.89889 5.77767 7.22224 6.10102 7.22224 6.49989V8.66656C7.22224 9.06543 6.89889 9.38878 6.50001 9.38878C6.10114 9.38878 5.77779 9.06543 5.77779 8.66656V6.49989Z" fill="#CFCFDA"/>
</svg>
