<svg width="18" height="18" viewBox="0 0 18 18" fill="none" xmlns="http://www.w3.org/2000/svg">
<path fill-rule="evenodd" clip-rule="evenodd" d="M5 14H12C14.2091 14 16 12.2091 16 10V7C16 4.79086 14.2091 3 12 3H6C3.79086 3 2 4.79086 2 7V17L5 14ZM6 7C6 6.44772 6.52233 6 7.16667 6H11.8333C12.4777 6 13 6.44772 13 7C13 7.55228 12.4777 8 11.8333 8H7.16667C6.52233 8 6 7.55228 6 7ZM7.25 9C6.55964 9 6 9.44772 6 10C6 10.5523 6.55964 11 7.25 11H9.75C10.4404 11 11 10.5523 11 10C11 9.44772 10.4404 9 9.75 9H7.25Z" fill="#2B2B30"/>
</svg>
