<svg width="36" height="36" viewBox="0 0 36 36" fill="none" xmlns="http://www.w3.org/2000/svg">
<path fill-rule="evenodd" clip-rule="evenodd" d="M18 6L8 10V20C8 25.2721 12.6325 27.4558 16.4701 29.2649C17 29.5147 17.5147 29.7574 18 30C18.4853 29.7574 19 29.5147 19.5299 29.2649C23.3675 27.4558 28 25.2721 28 20V10L18 6ZM14 16L16 18L14 20C13.4477 20.5523 13.4477 21.4477 14 22C14.5523 22.5523 15.4477 22.5523 16 22L18 20L20 22C20.5523 22.5523 21.4477 22.5523 22 22C22.5523 21.4477 22.5523 20.5523 22 20L20 18L22 16C22.5523 15.4477 22.5523 14.5523 22 14C21.4477 13.4477 20.5523 13.4477 20 14L18 16L16 14C15.4477 13.4477 14.5523 13.4477 14 14C13.4477 14.5523 13.4477 15.4477 14 16Z" fill="#3B3E43"/>
</svg>
