<svg width="18" height="19" viewBox="0 0 18 19" fill="none" xmlns="http://www.w3.org/2000/svg">
<path fill-rule="evenodd" clip-rule="evenodd" d="M4 3.5C4 2.94772 4.44772 2.5 5 2.5H9.83333V5.875C9.83333 6.42728 10.281 6.875 10.8333 6.875H14V15.5C14 16.0523 13.5523 16.5 13 16.5H5C4.44772 16.5 4 16.0523 4 15.5V3.5ZM10.6667 2.5L14 6H11.6667C11.1144 6 10.6667 5.55228 10.6667 5V2.5ZM10.4163 11.0623C10.1591 10.8498 9.91471 10.6313 9.75195 10.4604C9.54036 10.2383 9.35182 10.0229 9.18799 9.81787C9.44354 8.98873 9.55557 8.56121 9.55557 8.33332C9.55557 7.36519 9.22245 7.16665 8.72224 7.16665C8.34219 7.16665 7.88891 7.374 7.88891 8.36124C7.88891 8.79647 8.11596 9.32484 8.56599 9.93892C8.47478 10.2312 8.37036 10.5606 8.25459 10.9258L8.18107 11.1577C8.11107 11.3779 8.03513 11.5818 7.95482 11.7704C7.88945 11.8009 7.82596 11.8319 7.76466 11.8641C7.55002 11.9768 7.34588 12.0784 7.15598 12.173L7.13966 12.1811C6.2526 12.622 5.66667 12.9137 5.66667 13.4896C5.66667 13.9078 6.09935 14.1666 6.5 14.1666C7.01648 14.1666 7.79638 13.4423 8.36604 12.2221C8.9574 11.9772 9.69255 11.7957 10.2728 11.6821C10.7377 12.0575 11.2512 12.4166 11.5 12.4166C12.1887 12.4166 12.3333 11.9985 12.3333 11.6479C12.3333 10.9583 11.583 10.9583 11.2222 10.9583C11.1102 10.9583 10.8096 10.9931 10.4163 11.0623ZM6.5 13.5833C6.3413 13.5833 6.23388 13.5047 6.22221 13.4896C6.22221 13.2828 6.8095 12.9906 7.37755 12.7081L7.42859 12.6828L7.48742 12.6536C7.07021 13.2888 6.6576 13.5833 6.5 13.5833ZM8.44445 8.36124C8.44445 7.75 8.62513 7.75 8.72224 7.75C8.91865 7.75 9.00003 7.75 9.00003 8.33332C9.00003 8.45637 8.9219 8.76399 8.77893 9.24423C8.56081 8.8916 8.44445 8.5894 8.44445 8.36124ZM8.6574 11.4961C8.67477 11.4454 8.69159 11.3941 8.70786 11.3423L8.76794 11.1531L8.76825 11.1521C8.84751 10.9025 8.92021 10.6736 8.98646 10.4633C9.10174 10.5966 9.22599 10.733 9.35919 10.8729C9.41128 10.9276 9.54039 11.0506 9.7124 11.2047C9.37 11.283 9.0057 11.3802 8.6574 11.4961ZM11.7778 11.6479C11.7778 11.7789 11.7778 11.8333 11.5201 11.835C11.4444 11.818 11.2694 11.7097 11.0535 11.5553C11.1319 11.5462 11.1897 11.5417 11.2222 11.5417C11.6327 11.5417 11.749 11.5838 11.7778 11.6479Z" fill="white"/>
</svg>
