<svg width="36" height="36" fill="none" xmlns="http://www.w3.org/2000/svg"><circle class="icon-background" cx="18" cy="18" r="18" fill="#E0E0E0"/><path class="icon-body" fill-rule="evenodd" clip-rule="evenodd" d="M13.462 9.814c-.348-.774-.714-.79-1.046-.803-.27-.012-.58-.011-.89-.011-.31 0-.814.116-1.24.582-.426.465-1.627 1.589-1.627 3.876s1.666 4.496 1.898 4.807c.232.31 3.216 5.152 7.94 7.016 3.926 1.548 4.725 1.24 5.578 1.163.852-.078 2.75-1.125 3.137-2.21s.387-2.015.271-2.21c-.116-.194-.426-.31-.891-.542-.465-.233-2.75-1.357-3.176-1.512-.426-.155-.736-.232-1.046.233-.31.465-1.2 1.511-1.471 1.821-.271.31-.543.35-1.008.117-.464-.233-1.961-.723-3.737-2.307-1.382-1.232-2.315-2.753-2.586-3.218-.271-.465-.029-.717.204-.949.209-.208.465-.542.697-.814.232-.271.31-.465.465-.775.155-.31.077-.582-.039-.814-.116-.232-1.02-2.531-1.433-3.45z" fill="#828282"/></svg>