<svg width="102" height="130" fill="none" xmlns="http://www.w3.org/2000/svg"><g filter="url(#filter0_ddddd)"><path d="M45.56 60.896l1.55-1.55a1.178 1.178 0 011.67 0l1.67 1.67a1.178 1.178 0 010 1.67l-1.22 1.22c.285.63.682 1.203 1.172 1.691.488.49 1.06.89 1.69 1.177l1.22-1.22a1.177 1.177 0 011.671 0l1.67 1.667a1.179 1.179 0 010 1.672l-1.548 1.548a1.914 1.914 0 01-1.658.533c-1.963-.324-3.91-1.368-5.482-2.938-1.57-1.568-2.612-3.514-2.94-5.483-.1-.601.1-1.22.534-1.657z" stroke="#F6F0FF" stroke-linecap="round" stroke-linejoin="round"/></g><defs><filter id="filter0_ddddd" x=".5" y=".5" width="101" height="129" filterUnits="userSpaceOnUse" color-interpolation-filters="sRGB"><feFlood flood-opacity="0" result="BackgroundImageFix"/><feColorMatrix in="SourceAlpha" values="0 0 0 0 0 0 0 0 0 0 0 0 0 0 0 0 0 0 127 0"/><feOffset dx="6" dy="6"/><feGaussianBlur stdDeviation="15"/><feColorMatrix values="0 0 0 0 0 0 0 0 0 0.00784314 0 0 0 0 0.0470588 0 0 0 0.3 0"/><feBlend in2="BackgroundImageFix" result="effect1_dropShadow"/><feColorMatrix in="SourceAlpha" values="0 0 0 0 0 0 0 0 0 0 0 0 0 0 0 0 0 0 127 0"/><feOffset dx="-6" dy="-6"/><feGaussianBlur stdDeviation="15"/><feColorMatrix values="0 0 0 0 0.137255 0 0 0 0 0.129412 0 0 0 0 0.227451 0 0 0 0.15 0"/><feBlend in2="effect1_dropShadow" result="effect2_dropShadow"/><feColorMatrix in="SourceAlpha" values="0 0 0 0 0 0 0 0 0 0 0 0 0 0 0 0 0 0 127 0"/><feOffset dx="14" dy="28"/><feGaussianBlur stdDeviation="15"/><feColorMatrix values="0 0 0 0 0.0156863 0 0 0 0 0.0196078 0 0 0 0 0.054902 0 0 0 0.3 0"/><feBlend in2="effect2_dropShadow" result="effect3_dropShadow"/><feColorMatrix in="SourceAlpha" values="0 0 0 0 0 0 0 0 0 0 0 0 0 0 0 0 0 0 127 0"/><feOffset dx="-14" dy="-28"/><feGaussianBlur stdDeviation="15"/><feColorMatrix values="0 0 0 0 0.137255 0 0 0 0 0.129412 0 0 0 0 0.227451 0 0 0 0.15 0"/><feBlend in2="effect3_dropShadow" result="effect4_dropShadow"/><feColorMatrix in="SourceAlpha" values="0 0 0 0 0 0 0 0 0 0 0 0 0 0 0 0 0 0 127 0"/><feOffset/><feGaussianBlur stdDeviation="8"/><feColorMatrix values="0 0 0 0 1 0 0 0 0 1 0 0 0 0 1 0 0 0 0.48 0"/><feBlend in2="effect4_dropShadow" result="effect5_dropShadow"/><feBlend in="SourceGraphic" in2="effect5_dropShadow" result="shape"/></filter></defs></svg>