<svg width="36" height="36" viewBox="0 0 36 36" fill="none" xmlns="http://www.w3.org/2000/svg">
<path fill-rule="evenodd" clip-rule="evenodd" d="M18 6L8 10V20C8 25.2721 12.6325 27.4558 16.4701 29.2649C17 29.5147 17.5147 29.7574 18 30C18.4853 29.7574 19 29.5147 19.5299 29.2649C23.3675 27.4558 28 25.2721 28 20V10L18 6ZM13 19L16.2929 22.2929C16.6834 22.6834 17.3166 22.6834 17.7071 22.2929L23 17C23.5523 16.4477 23.5523 15.5523 23 15C22.4477 14.4477 21.5523 14.4477 21 15L17 19L15 17C14.4477 16.4477 13.5523 16.4477 13 17C12.4477 17.5523 12.4477 18.4477 13 19Z" fill="#45A3EF"/>
</svg>
