<svg width="240" height="254" fill="none" xmlns="http://www.w3.org/2000/svg"><g filter="url(#filter0_dd)"><circle cx="120" cy="127" r="60" fill="#0B0D19"/></g><g filter="url(#filter1_dd)"><circle cx="120" cy="127" r="51" stroke="#0B0D19" stroke-opacity=".01" stroke-width="6"/></g><g filter="url(#filter2_iif)"><circle cx="120" cy="127" r="54" stroke="#0B0D19" stroke-width="12"/></g><g filter="url(#filter3_d)"><path d="M162.668 93.903a54 54 0 00-34.221-20.238" stroke="#AB78FF" stroke-width="6" stroke-linecap="round"/></g><g filter="url(#filter4_d)"><path d="M170.363 146.038a54.005 54.005 0 00.416-39.756" stroke="#AB78FF" stroke-width="6" stroke-linecap="round"/></g><g filter="url(#filter5_d)"><path d="M128.695 180.134a54.002 54.002 0 0034.637-19.517" stroke="#AB78FF" stroke-width="6" stroke-linecap="round"/></g><g filter="url(#filter6_d)"><path d="M78.332 161.097a53.995 53.995 0 0034.221 20.238" stroke="#AB78FF" stroke-width="6" stroke-linecap="round"/></g><g filter="url(#filter7_d)"><path d="M69.637 107.962a54.002 54.002 0 00-.416 39.756" stroke="#AB78FF" stroke-width="6" stroke-linecap="round"/></g><g filter="url(#filter8_d)"><path d="M111.305 73.865a54 54 0 00-34.637 19.518" stroke="#AB78FF" stroke-width="6" stroke-linecap="round"/></g><path d="M120.36 122.443c2.036 0 3.89.411 5.561 1.231 1.672.82 2.993 1.99 3.966 3.51.972 1.489 1.458 3.221 1.458 5.196 0 2.127-.531 3.996-1.595 5.606-1.064 1.611-2.522 2.857-4.376 3.738-1.823.851-3.859 1.276-6.107 1.276-4.467 0-7.962-1.367-10.484-4.102-2.522-2.735-3.783-6.64-3.783-11.714 0-3.616.684-6.716 2.051-9.299 1.368-2.583 3.267-4.542 5.698-5.879 2.461-1.337 5.302-2.006 8.523-2.006 1.702 0 3.327.198 4.877.593 1.58.364 2.917.896 4.011 1.595l-2.735 5.424c-1.58-1.064-3.57-1.595-5.971-1.595-2.704 0-4.846.79-6.426 2.37s-2.431 3.874-2.553 6.882c1.884-1.884 4.513-2.826 7.885-2.826zm-1.504 15.042c1.58 0 2.857-.426 3.829-1.276 1.003-.851 1.504-2.006 1.504-3.465 0-1.458-.501-2.613-1.504-3.464-.972-.881-2.279-1.321-3.92-1.321-1.61 0-2.932.455-3.965 1.367-1.033.881-1.55 2.021-1.55 3.418 0 1.398.501 2.538 1.504 3.419 1.003.881 2.37 1.322 4.102 1.322z" fill="#AB78FF"/><defs><filter id="filter0_dd" x="0" y="0" width="240" height="254" filterUnits="userSpaceOnUse" color-interpolation-filters="sRGB"><feFlood flood-opacity="0" result="BackgroundImageFix"/><feColorMatrix in="SourceAlpha" values="0 0 0 0 0 0 0 0 0 0 0 0 0 0 0 0 0 0 127 0"/><feOffset dx="20" dy="27"/><feGaussianBlur stdDeviation="20"/><feColorMatrix values="0 0 0 0 0.0156863 0 0 0 0 0.0196078 0 0 0 0 0.054902 0 0 0 0.17 0"/><feBlend in2="BackgroundImageFix" result="effect1_dropShadow"/><feColorMatrix in="SourceAlpha" values="0 0 0 0 0 0 0 0 0 0 0 0 0 0 0 0 0 0 127 0"/><feOffset dx="-20" dy="-27"/><feGaussianBlur stdDeviation="20"/><feColorMatrix values="0 0 0 0 0.137255 0 0 0 0 0.129412 0 0 0 0 0.227451 0 0 0 0.35 0"/><feBlend in2="effect1_dropShadow" result="effect2_dropShadow"/><feBlend in="SourceGraphic" in2="effect2_dropShadow" result="shape"/></filter><filter id="filter1_dd" x="10" y="24" width="200" height="188" filterUnits="userSpaceOnUse" color-interpolation-filters="sRGB"><feFlood flood-opacity="0" result="BackgroundImageFix"/><feColorMatrix in="SourceAlpha" values="0 0 0 0 0 0 0 0 0 0 0 0 0 0 0 0 0 0 127 0"/><feOffset dx="-16" dy="-9"/><feGaussianBlur stdDeviation="20"/><feColorMatrix values="0 0 0 0 0.209896 0 0 0 0 0.150694 0 0 0 0 0.258333 0 0 0 0.8 0"/><feBlend in2="BackgroundImageFix" result="effect1_dropShadow"/><feColorMatrix in="SourceAlpha" values="0 0 0 0 0 0 0 0 0 0 0 0 0 0 0 0 0 0 127 0"/><feOffset dx="16" dy="8"/><feGaussianBlur stdDeviation="10"/><feColorMatrix values="0 0 0 0 0.0156863 0 0 0 0 0.0196078 0 0 0 0 0.054902 0 0 0 1 0"/><feBlend in2="effect1_dropShadow" result="effect2_dropShadow"/><feBlend in="SourceGraphic" in2="effect2_dropShadow" result="shape"/></filter><filter id="filter2_iif" x="57" y="64" width="127" height="127" filterUnits="userSpaceOnUse" color-interpolation-filters="sRGB"><feFlood flood-opacity="0" result="BackgroundImageFix"/><feBlend in="SourceGraphic" in2="BackgroundImageFix" result="shape"/><feColorMatrix in="SourceAlpha" values="0 0 0 0 0 0 0 0 0 0 0 0 0 0 0 0 0 0 127 0" result="hardAlpha"/><feOffset dx="4" dy="4"/><feGaussianBlur stdDeviation="2.5"/><feComposite in2="hardAlpha" operator="arithmetic" k2="-1" k3="1"/><feColorMatrix values="0 0 0 0 0 0 0 0 0 0.00654762 0 0 0 0 0.0458333 0 0 0 0.47 0"/><feBlend in2="shape" result="effect1_innerShadow"/><feColorMatrix in="SourceAlpha" values="0 0 0 0 0 0 0 0 0 0 0 0 0 0 0 0 0 0 127 0" result="hardAlpha"/><feOffset dx="-3" dy="-3"/><feGaussianBlur stdDeviation="2.5"/><feComposite in2="hardAlpha" operator="arithmetic" k2="-1" k3="1"/><feColorMatrix values="0 0 0 0 0.204554 0 0 0 0 0.155069 0 0 0 0 0.241667 0 0 0 0.1 0"/><feBlend in2="effect1_innerShadow" result="effect2_innerShadow"/><feGaussianBlur stdDeviation=".5" result="effect3_foregroundBlur"/></filter><filter id="filter3_d" x="105.447" y="50.664" width="80.222" height="66.239" filterUnits="userSpaceOnUse" color-interpolation-filters="sRGB"><feFlood flood-opacity="0" result="BackgroundImageFix"/><feColorMatrix in="SourceAlpha" values="0 0 0 0 0 0 0 0 0 0 0 0 0 0 0 0 0 0 127 0"/><feOffset/><feGaussianBlur stdDeviation="10"/><feColorMatrix values="0 0 0 0 0.670588 0 0 0 0 0.470588 0 0 0 0 1 0 0 0 1 0"/><feBlend in2="BackgroundImageFix" result="effect1_dropShadow"/><feBlend in="SourceGraphic" in2="effect1_dropShadow" result="shape"/></filter><filter id="filter4_d" x="147.362" y="83.281" width="50.004" height="85.757" filterUnits="userSpaceOnUse" color-interpolation-filters="sRGB"><feFlood flood-opacity="0" result="BackgroundImageFix"/><feColorMatrix in="SourceAlpha" values="0 0 0 0 0 0 0 0 0 0 0 0 0 0 0 0 0 0 127 0"/><feOffset/><feGaussianBlur stdDeviation="10"/><feColorMatrix values="0 0 0 0 0.670588 0 0 0 0 0.470588 0 0 0 0 1 0 0 0 1 0"/><feBlend in2="BackgroundImageFix" result="effect1_dropShadow"/><feBlend in="SourceGraphic" in2="effect1_dropShadow" result="shape"/></filter><filter id="filter5_d" x="105.694" y="137.617" width="80.638" height="65.517" filterUnits="userSpaceOnUse" color-interpolation-filters="sRGB"><feFlood flood-opacity="0" result="BackgroundImageFix"/><feColorMatrix in="SourceAlpha" values="0 0 0 0 0 0 0 0 0 0 0 0 0 0 0 0 0 0 127 0"/><feOffset/><feGaussianBlur stdDeviation="10"/><feColorMatrix values="0 0 0 0 0.670588 0 0 0 0 0.470588 0 0 0 0 1 0 0 0 1 0"/><feBlend in2="BackgroundImageFix" result="effect1_dropShadow"/><feBlend in="SourceGraphic" in2="effect1_dropShadow" result="shape"/></filter><filter id="filter6_d" x="55.331" y="138.097" width="80.222" height="66.239" filterUnits="userSpaceOnUse" color-interpolation-filters="sRGB"><feFlood flood-opacity="0" result="BackgroundImageFix"/><feColorMatrix in="SourceAlpha" values="0 0 0 0 0 0 0 0 0 0 0 0 0 0 0 0 0 0 127 0"/><feOffset/><feGaussianBlur stdDeviation="10"/><feColorMatrix values="0 0 0 0 0.670588 0 0 0 0 0.470588 0 0 0 0 1 0 0 0 1 0"/><feBlend in2="BackgroundImageFix" result="effect1_dropShadow"/><feBlend in="SourceGraphic" in2="effect1_dropShadow" result="shape"/></filter><filter id="filter7_d" x="42.634" y="84.962" width="50.004" height="85.757" filterUnits="userSpaceOnUse" color-interpolation-filters="sRGB"><feFlood flood-opacity="0" result="BackgroundImageFix"/><feColorMatrix in="SourceAlpha" values="0 0 0 0 0 0 0 0 0 0 0 0 0 0 0 0 0 0 127 0"/><feOffset/><feGaussianBlur stdDeviation="10"/><feColorMatrix values="0 0 0 0 0.670588 0 0 0 0 0.470588 0 0 0 0 1 0 0 0 1 0"/><feBlend in2="BackgroundImageFix" result="effect1_dropShadow"/><feBlend in="SourceGraphic" in2="effect1_dropShadow" result="shape"/></filter><filter id="filter8_d" x="53.668" y="50.865" width="80.638" height="65.517" filterUnits="userSpaceOnUse" color-interpolation-filters="sRGB"><feFlood flood-opacity="0" result="BackgroundImageFix"/><feColorMatrix in="SourceAlpha" values="0 0 0 0 0 0 0 0 0 0 0 0 0 0 0 0 0 0 127 0"/><feOffset/><feGaussianBlur stdDeviation="10"/><feColorMatrix values="0 0 0 0 0.670588 0 0 0 0 0.470588 0 0 0 0 1 0 0 0 1 0"/><feBlend in2="BackgroundImageFix" result="effect1_dropShadow"/><feBlend in="SourceGraphic" in2="effect1_dropShadow" result="shape"/></filter></defs></svg>