<svg width="240" height="254" fill="none" xmlns="http://www.w3.org/2000/svg"><g filter="url(#filter0_dd)"><circle cx="120" cy="127" r="60" fill="#0B0D19"/></g><g filter="url(#filter1_dd)"><circle cx="120" cy="127" r="51" stroke="#0B0D19" stroke-opacity=".01" stroke-width="6"/></g><g filter="url(#filter2_iif)"><circle cx="120" cy="127" r="54" stroke="#0B0D19" stroke-width="12"/></g><g filter="url(#filter3_d)"><path d="M162.668 93.903a54 54 0 00-34.221-20.238" stroke="#AB78FF" stroke-width="6" stroke-linecap="round"/></g><g filter="url(#filter4_d)"><path d="M170.363 146.038a54.005 54.005 0 00.416-39.756" stroke="#AB78FF" stroke-width="6" stroke-linecap="round"/></g><path d="M132.865 135.882V142h-24.39v-4.867l12.449-11.818c1.321-1.267 2.213-2.349 2.674-3.245.461-.927.691-1.838.691-2.734 0-1.298-.445-2.287-1.337-2.967-.86-.71-2.136-1.066-3.826-1.066-1.414 0-2.69.278-3.827.835-1.137.525-2.09 1.328-2.859 2.41l-5.44-3.523c1.26-1.885 2.997-3.352 5.21-4.403 2.213-1.081 4.749-1.622 7.607-1.622 2.398 0 4.488.402 6.27 1.205 1.814.773 3.212 1.885 4.196 3.337 1.014 1.421 1.521 3.105 1.521 5.052 0 1.761-.368 3.414-1.106 4.959-.738 1.545-2.167 3.307-4.288 5.284l-7.423 7.045h13.878z" fill="#AB78FF"/><defs><filter id="filter0_dd" x="0" y="0" width="240" height="254" filterUnits="userSpaceOnUse" color-interpolation-filters="sRGB"><feFlood flood-opacity="0" result="BackgroundImageFix"/><feColorMatrix in="SourceAlpha" values="0 0 0 0 0 0 0 0 0 0 0 0 0 0 0 0 0 0 127 0"/><feOffset dx="20" dy="27"/><feGaussianBlur stdDeviation="20"/><feColorMatrix values="0 0 0 0 0.0156863 0 0 0 0 0.0196078 0 0 0 0 0.054902 0 0 0 0.17 0"/><feBlend in2="BackgroundImageFix" result="effect1_dropShadow"/><feColorMatrix in="SourceAlpha" values="0 0 0 0 0 0 0 0 0 0 0 0 0 0 0 0 0 0 127 0"/><feOffset dx="-20" dy="-27"/><feGaussianBlur stdDeviation="20"/><feColorMatrix values="0 0 0 0 0.137255 0 0 0 0 0.129412 0 0 0 0 0.227451 0 0 0 0.35 0"/><feBlend in2="effect1_dropShadow" result="effect2_dropShadow"/><feBlend in="SourceGraphic" in2="effect2_dropShadow" result="shape"/></filter><filter id="filter1_dd" x="10" y="24" width="200" height="188" filterUnits="userSpaceOnUse" color-interpolation-filters="sRGB"><feFlood flood-opacity="0" result="BackgroundImageFix"/><feColorMatrix in="SourceAlpha" values="0 0 0 0 0 0 0 0 0 0 0 0 0 0 0 0 0 0 127 0"/><feOffset dx="-16" dy="-9"/><feGaussianBlur stdDeviation="20"/><feColorMatrix values="0 0 0 0 0.209896 0 0 0 0 0.150694 0 0 0 0 0.258333 0 0 0 0.8 0"/><feBlend in2="BackgroundImageFix" result="effect1_dropShadow"/><feColorMatrix in="SourceAlpha" values="0 0 0 0 0 0 0 0 0 0 0 0 0 0 0 0 0 0 127 0"/><feOffset dx="16" dy="8"/><feGaussianBlur stdDeviation="10"/><feColorMatrix values="0 0 0 0 0.0156863 0 0 0 0 0.0196078 0 0 0 0 0.054902 0 0 0 1 0"/><feBlend in2="effect1_dropShadow" result="effect2_dropShadow"/><feBlend in="SourceGraphic" in2="effect2_dropShadow" result="shape"/></filter><filter id="filter2_iif" x="57" y="64" width="127" height="127" filterUnits="userSpaceOnUse" color-interpolation-filters="sRGB"><feFlood flood-opacity="0" result="BackgroundImageFix"/><feBlend in="SourceGraphic" in2="BackgroundImageFix" result="shape"/><feColorMatrix in="SourceAlpha" values="0 0 0 0 0 0 0 0 0 0 0 0 0 0 0 0 0 0 127 0" result="hardAlpha"/><feOffset dx="4" dy="4"/><feGaussianBlur stdDeviation="2.5"/><feComposite in2="hardAlpha" operator="arithmetic" k2="-1" k3="1"/><feColorMatrix values="0 0 0 0 0 0 0 0 0 0.00654762 0 0 0 0 0.0458333 0 0 0 0.47 0"/><feBlend in2="shape" result="effect1_innerShadow"/><feColorMatrix in="SourceAlpha" values="0 0 0 0 0 0 0 0 0 0 0 0 0 0 0 0 0 0 127 0" result="hardAlpha"/><feOffset dx="-3" dy="-3"/><feGaussianBlur stdDeviation="2.5"/><feComposite in2="hardAlpha" operator="arithmetic" k2="-1" k3="1"/><feColorMatrix values="0 0 0 0 0.204554 0 0 0 0 0.155069 0 0 0 0 0.241667 0 0 0 0.1 0"/><feBlend in2="effect1_innerShadow" result="effect2_innerShadow"/><feGaussianBlur stdDeviation=".5" result="effect3_foregroundBlur"/></filter><filter id="filter3_d" x="105.447" y="50.664" width="80.222" height="66.239" filterUnits="userSpaceOnUse" color-interpolation-filters="sRGB"><feFlood flood-opacity="0" result="BackgroundImageFix"/><feColorMatrix in="SourceAlpha" values="0 0 0 0 0 0 0 0 0 0 0 0 0 0 0 0 0 0 127 0"/><feOffset/><feGaussianBlur stdDeviation="10"/><feColorMatrix values="0 0 0 0 0.670588 0 0 0 0 0.470588 0 0 0 0 1 0 0 0 1 0"/><feBlend in2="BackgroundImageFix" result="effect1_dropShadow"/><feBlend in="SourceGraphic" in2="effect1_dropShadow" result="shape"/></filter><filter id="filter4_d" x="147.362" y="83.281" width="50.004" height="85.757" filterUnits="userSpaceOnUse" color-interpolation-filters="sRGB"><feFlood flood-opacity="0" result="BackgroundImageFix"/><feColorMatrix in="SourceAlpha" values="0 0 0 0 0 0 0 0 0 0 0 0 0 0 0 0 0 0 127 0"/><feOffset/><feGaussianBlur stdDeviation="10"/><feColorMatrix values="0 0 0 0 0.670588 0 0 0 0 0.470588 0 0 0 0 1 0 0 0 1 0"/><feBlend in2="BackgroundImageFix" result="effect1_dropShadow"/><feBlend in="SourceGraphic" in2="effect1_dropShadow" result="shape"/></filter></defs></svg>