<svg width="16" height="16" viewBox="0 0 16 16" fill="none" xmlns="http://www.w3.org/2000/svg">
<path d="M14.0069 9.36377L12.8322 8.46932C12.8471 8.33139 12.8599 8.17014 12.8599 7.99954C12.8599 7.82894 12.8476 7.6677 12.8322 7.52977L14.0079 6.63481C14.2262 6.46681 14.2859 6.16865 14.1469 5.9203L12.9254 3.86228C12.7949 3.62999 12.509 3.51072 12.2188 3.61494L10.8328 4.15679C10.5671 3.97012 10.2886 3.8125 10.0005 3.6865L9.78964 2.25488C9.75503 1.98317 9.51222 1.77783 9.22523 1.77783H6.77585C6.48884 1.77783 6.24658 1.98317 6.21248 2.25072L6.0011 3.68754C5.72207 3.80992 5.44786 3.96548 5.17044 4.15783L3.78067 3.61443C3.52027 3.51643 3.20877 3.62634 3.07938 3.85761L1.8563 5.91821C1.71201 6.1557 1.77164 6.46421 1.99475 6.63637L3.16938 7.53081C3.15074 7.70554 3.1417 7.85748 3.1417 8.00008C3.1417 8.14268 3.15076 8.29459 3.16938 8.46986L1.99368 9.36481C1.77535 9.53332 1.71625 9.83148 1.85523 10.0793L3.07673 12.1373C3.2072 12.3691 3.49047 12.4894 3.78332 12.3847L5.16936 11.8428C5.43453 12.029 5.71301 12.1866 6.0011 12.3131L6.21196 13.7442C6.24655 14.0169 6.48884 14.2223 6.77637 14.2223H9.22575C9.51277 14.2223 9.75557 14.0169 9.78964 13.7494L10.001 12.3131C10.2801 12.1902 10.5537 12.0352 10.8317 11.8423L12.2215 12.3857C12.2885 12.4111 12.3583 12.4241 12.4302 12.4241C12.6368 12.4241 12.8269 12.3141 12.9227 12.143L14.1495 10.0741C14.2859 9.83145 14.2262 9.53332 14.0069 9.36377ZM8.00053 10.0741C6.82589 10.0741 5.87063 9.1439 5.87063 8.00005C5.87063 6.85621 6.82589 5.92599 8.00053 5.92599C9.17516 5.92599 10.1304 6.85621 10.1304 8.00005C10.1304 9.1439 9.17516 10.0741 8.00053 10.0741Z" fill="#CFCFDA"/>
</svg>
