<svg width="18" height="18" viewBox="0 0 18 18" fill="none" xmlns="http://www.w3.org/2000/svg">
<path fill-rule="evenodd" clip-rule="evenodd" d="M11.6175 12.5317C10.7315 13.1424 9.6575 13.5 8.5 13.5C5.46243 13.5 3 11.0376 3 8C3 4.96243 5.46243 2.5 8.5 2.5C11.5376 2.5 14 4.96243 14 8C14 9.1575 13.6424 10.2315 13.0317 11.1175L15.7071 13.7929C16.0976 14.1834 16.0976 14.8166 15.7071 15.2071C15.3166 15.5976 14.6834 15.5976 14.2929 15.2071L11.6175 12.5317ZM12 8C12 9.933 10.433 11.5 8.5 11.5C6.567 11.5 5 9.933 5 8C5 6.067 6.567 4.5 8.5 4.5C10.433 4.5 12 6.067 12 8Z" fill="#52515E"/>
</svg>
