<svg width="25" height="24" viewBox="0 0 25 24" fill="none" xmlns="http://www.w3.org/2000/svg">
<path fill-rule="evenodd" clip-rule="evenodd" d="M12.2207 0C5.5937 0 0.220703 5.373 0.220703 12C0.220703 18.627 5.5937 24 12.2207 24C18.8477 24 24.2207 18.627 24.2207 12C24.2207 5.373 18.8477 0 12.2207 0ZM12.2207 2C17.7347 2 22.2207 6.486 22.2207 12C22.2207 17.514 17.7347 22 12.2207 22C6.7067 22 2.2207 17.514 2.2207 12C2.2207 6.486 6.7067 2 12.2207 2ZM14.9127 16.889C15.0737 17.004 15.2807 17.032 15.4657 16.962C15.6507 16.892 15.7877 16.734 15.8277 16.542C16.2627 14.5 17.3167 9.331 17.7117 7.474C17.7417 7.334 17.6927 7.189 17.5827 7.095C17.4727 7.002 17.3197 6.975 17.1837 7.025C15.0877 7.801 8.6307 10.223 5.9917 11.2C5.8237 11.262 5.7147 11.423 5.7207 11.6C5.7267 11.777 5.8457 11.93 6.0167 11.981C7.2007 12.335 8.7547 12.828 8.7547 12.828C8.7547 12.828 9.4797 15.021 9.8587 16.136C9.9057 16.275 10.0157 16.386 10.1597 16.423C10.3047 16.461 10.4577 16.422 10.5657 16.32C11.1737 15.746 12.1137 14.859 12.1137 14.859C12.1137 14.859 13.8997 16.168 14.9127 16.889ZM9.4077 12.551L10.2477 15.32L10.4337 13.566C10.4337 13.566 13.6767 10.641 15.5257 8.973C15.5807 8.925 15.5877 8.843 15.5427 8.785C15.4977 8.728 15.4167 8.714 15.3547 8.753C13.2117 10.121 9.4077 12.551 9.4077 12.551Z" fill="#562FFF"/>
</svg>
