<svg width="36" height="36" fill="none" xmlns="http://www.w3.org/2000/svg"><path d="M18 36c9.941 0 18-8.059 18-18S27.941 0 18 0 0 8.059 0 18s8.059 18 18 18z" fill="#E0E0E0"/><path class="icon-body" d="M7.226 16.404l11.914-5.046c1.175-.526 5.164-2.208 5.164-2.208s1.84-.736 1.687 1.051c-.051.736-.46 3.312-.87 6.097l-1.277 8.253s-.103 1.209-.972 1.419c-.87.21-2.3-.736-2.556-.946-.205-.158-3.835-2.523-5.165-3.68-.358-.315-.767-.946.052-1.682 1.84-1.734 4.039-3.89 5.368-5.256.614-.63 1.227-2.102-1.33-.315l-7.209 4.993s-.818.526-2.352.053c-1.534-.473-3.323-1.104-3.323-1.104s-1.227-.789.87-1.63z" fill="#828282"/></svg>