<svg width="18" height="18" viewBox="0 0 18 18" fill="none" xmlns="http://www.w3.org/2000/svg">
<path d="M4 4C3.44772 4 3 4.44772 3 5C3 5.55228 3.44772 6 4 6C4.55228 6 5 5.55228 5 5C5 4.44772 4.55228 4 4 4Z" fill="#CFCFDA"/>
<path d="M7 4C6.44772 4 6 4.44772 6 5C6 5.55228 6.44772 6 7 6H14C14.5523 6 15 5.55228 15 5C15 4.44772 14.5523 4 14 4H7Z" fill="#CFCFDA"/>
<path d="M6 9C6 8.44772 6.44772 8 7 8H14C14.5523 8 15 8.44772 15 9C15 9.55228 14.5523 10 14 10H7C6.44772 10 6 9.55228 6 9Z" fill="#CFCFDA"/>
<path d="M4 8C3.44772 8 3 8.44772 3 9C3 9.55228 3.44772 10 4 10C4.55228 10 5 9.55228 5 9C5 8.44772 4.55228 8 4 8Z" fill="#CFCFDA"/>
<path d="M6 13C6 12.4477 6.44772 12 7 12H14C14.5523 12 15 12.4477 15 13C15 13.5523 14.5523 14 14 14H7C6.44772 14 6 13.5523 6 13Z" fill="#CFCFDA"/>
<path d="M4 12C3.44772 12 3 12.4477 3 13C3 13.5523 3.44772 14 4 14C4.55228 14 5 13.5523 5 13C5 12.4477 4.55228 12 4 12Z" fill="#CFCFDA"/>
</svg>
