<svg width="24" height="24" fill="none" xmlns="http://www.w3.org/2000/svg"><path d="M16.504 2.25H7.5A5.25 5.25 0 002.25 7.5v9.004a5.246 5.246 0 005.246 5.246h9.008a5.246 5.246 0 005.246-5.245V7.496a5.246 5.246 0 00-5.246-5.246z" stroke="#AB78FF" stroke-width="1.5" stroke-linecap="round" stroke-linejoin="round"/><path d="M18.679 8.542c.098-.313 0-.542-.462-.542h-1.533c-.39 0-.568.198-.666.416 0 0-.779 1.828-1.882 3.013-.357.345-.52.453-.714.453-.097 0-.238-.108-.238-.421V8.54c0-.374-.112-.541-.437-.541h-2.408c-.243 0-.39.173-.39.339 0 .355.552.437.609 1.437v2.17c0 .475-.089.562-.284.562-.52 0-1.783-1.835-2.532-3.935C7.596 8.164 7.448 8 7.057 8H5.525C5.087 8 5 8.199 5 8.417c0 .39.52 2.327 2.418 4.887C8.684 15.052 10.466 16 12.09 16c.973 0 1.093-.21 1.093-.573v-1.322c0-.42.093-.505.401-.505.227 0 .617.11 1.526.952 1.038.999 1.21 1.447 1.793 1.447h1.532c.437 0 .655-.21.53-.626-.138-.413-.634-1.014-1.292-1.726-.358-.406-.892-.843-1.055-1.062-.227-.281-.161-.405 0-.656 0 .001 1.867-2.528 2.061-3.387z" fill="#AB78FF"/></svg>