<svg width="36" height="36" fill="none" xmlns="http://www.w3.org/2000/svg"><path d="M.15 17.838c0 3.143.824 6.213 2.393 8.918L0 36l9.502-2.48a17.984 17.984 0 008.566 2.17h.008c9.878 0 17.92-8.002 17.924-17.838a17.683 17.683 0 00-5.245-12.62C27.37 1.86 22.87.002 18.075 0 8.195 0 .155 8.002.15 17.838" fill="#E0E0E0"/><path class="icon-body" fill-rule="evenodd" clip-rule="evenodd" d="M13.462 10.171c-.348-.774-.714-.79-1.046-.803-.27-.011-.58-.01-.89-.01-.31 0-.814.116-1.24.58-.426.466-1.627 1.59-1.627 3.877s1.666 4.497 1.898 4.807c.232.31 3.216 5.153 7.94 7.016 3.926 1.548 4.725 1.24 5.578 1.163.852-.077 2.75-1.124 3.137-2.21.387-1.085.387-2.015.271-2.21-.116-.193-.426-.31-.891-.542-.465-.232-2.75-1.357-3.176-1.512-.426-.155-.736-.232-1.046.233-.31.465-1.2 1.512-1.471 1.822-.271.31-.543.349-1.008.117-.464-.234-1.961-.724-3.737-2.307-1.382-1.232-2.315-2.754-2.586-3.219-.271-.465-.029-.717.204-.948.209-.208.465-.543.697-.814.232-.272.31-.465.465-.775.155-.31.077-.582-.039-.815-.116-.232-1.02-2.53-1.433-3.45z" fill="#828282"/></svg>