<svg width="108" height="135" fill="none" xmlns="http://www.w3.org/2000/svg"><g filter="url(#filter0_ddddd)"><path d="M45 66.64c0-1.047 0-1.571.237-2.013.236-.442.672-.733 1.544-1.314l5-3.334c1.076-.717 1.613-1.075 2.219-1.075.606 0 1.143.358 2.219 1.075l5 3.334c.872.58 1.308.871 1.544 1.314.237.442.237.966.237 2.014V72.5c0 1.886 0 2.828-.586 3.414-.586.586-1.528.586-3.414.586v0c-.943 0-1.414 0-1.707-.293C57 75.914 57 75.443 57 74.5v-2c0-.943 0-1.414-.293-1.707-.293-.293-.764-.293-1.707-.293h-2c-.943 0-1.414 0-1.707.293C51 71.086 51 71.557 51 72.5v2c0 .943 0 1.414-.293 1.707-.293.293-.764.293-1.707.293v0c-1.886 0-2.828 0-3.414-.586C45 75.328 45 74.386 45 72.5v-5.86z" stroke="#AB78FF" stroke-linecap="round" stroke-linejoin="round"/></g><defs><filter id="filter0_ddddd" x=".5" y=".404" width="107" height="134.596" filterUnits="userSpaceOnUse" color-interpolation-filters="sRGB"><feFlood flood-opacity="0" result="BackgroundImageFix"/><feColorMatrix in="SourceAlpha" values="0 0 0 0 0 0 0 0 0 0 0 0 0 0 0 0 0 0 127 0"/><feOffset dx="6" dy="6"/><feGaussianBlur stdDeviation="15"/><feColorMatrix values="0 0 0 0 0 0 0 0 0 0.00784314 0 0 0 0 0.0470588 0 0 0 0.3 0"/><feBlend in2="BackgroundImageFix" result="effect1_dropShadow"/><feColorMatrix in="SourceAlpha" values="0 0 0 0 0 0 0 0 0 0 0 0 0 0 0 0 0 0 127 0"/><feOffset dx="-6" dy="-6"/><feGaussianBlur stdDeviation="15"/><feColorMatrix values="0 0 0 0 0.137255 0 0 0 0 0.129412 0 0 0 0 0.227451 0 0 0 0.15 0"/><feBlend in2="effect1_dropShadow" result="effect2_dropShadow"/><feColorMatrix in="SourceAlpha" values="0 0 0 0 0 0 0 0 0 0 0 0 0 0 0 0 0 0 127 0"/><feOffset dx="14" dy="28"/><feGaussianBlur stdDeviation="15"/><feColorMatrix values="0 0 0 0 0.0156863 0 0 0 0 0.0196078 0 0 0 0 0.054902 0 0 0 0.3 0"/><feBlend in2="effect2_dropShadow" result="effect3_dropShadow"/><feColorMatrix in="SourceAlpha" values="0 0 0 0 0 0 0 0 0 0 0 0 0 0 0 0 0 0 127 0"/><feOffset dx="-14" dy="-28"/><feGaussianBlur stdDeviation="15"/><feColorMatrix values="0 0 0 0 0.137255 0 0 0 0 0.129412 0 0 0 0 0.227451 0 0 0 0.15 0"/><feBlend in2="effect3_dropShadow" result="effect4_dropShadow"/><feColorMatrix in="SourceAlpha" values="0 0 0 0 0 0 0 0 0 0 0 0 0 0 0 0 0 0 127 0"/><feOffset/><feGaussianBlur stdDeviation="8"/><feColorMatrix values="0 0 0 0 1 0 0 0 0 1 0 0 0 0 1 0 0 0 0.48 0"/><feBlend in2="effect4_dropShadow" result="effect5_dropShadow"/><feBlend in="SourceGraphic" in2="effect5_dropShadow" result="shape"/></filter></defs></svg>