<svg width="18" height="18" fill="none" xmlns="http://www.w3.org/2000/svg"><path d="M12.378 1.5H5.625A4.125 4.125 0 001.5 5.625v6.753A4.122 4.122 0 005.622 16.5h6.756a4.122 4.122 0 004.122-4.121V5.622A4.122 4.122 0 0012.378 1.5z" stroke="#AB78FF" stroke-width="1.5" stroke-linecap="round" stroke-linejoin="round"/><path d="M8.034 7h1.01v4.5h-.001c-1.04 0-2.183-.563-2.994-1.6C4.832 8.38 4.5 7.232 4.5 7m8.5 4.5s-.367-.69-1.113-1.45a2.607 2.607 0 00-1.834-.8 2.61 2.61 0 001.834-.8C12.633 7.69 13 7 13 7m-2.947 2.251h-1.01" stroke="#AB78FF" stroke-width="1.5" stroke-linecap="round" stroke-linejoin="round"/></svg>