<svg width="122" height="150" fill="none" xmlns="http://www.w3.org/2000/svg"><g filter="url(#filter0_ddddd)"><path d="M45.658 66.17l14.315-6.894c.506-.216.571-.267 1.012-.275.442-.008.537.039 1.047.23l11.466 4.31c1.695.636 2.542.954 3.022 1.64.48.685.48 1.576.48 3.358v13.105c0 .725 0 1.087-.17 1.39-.171.303-.484.495-1.11.88l-13.762 7.004m-5.383-29.746l11.466 4.309c1.695.637 2.542.955 3.022 1.64.48.685.48 1.576.48 3.359v11.327a.149.149 0 01-.243.113l-1.503-1.22a.15.15 0 00-.222.038l-1.628 2.658c-.078.127-.276.073-.276-.076V73.283c0-1.779 0-2.668-.48-3.353-.478-.684-1.323-1.004-3.013-1.642l-12.746-4.916M45 69.272v12.03c0 1.78 0 2.67.479 3.354.478.684 1.324 1.004 3.014 1.642l10.513 3.972c1.68.635 2.52.952 3.112.554.59-.399.59-1.283.59-3.052v-5.808c0-1.778 0-8.89-.478-9.575-.478-.684-1.324-1.004-3.014-1.642l-10.514-3.972c-1.68-.635-2.52-.952-3.111-.554-.591.4-.591 1.283-.591 3.052z" stroke="#F6F0FF" stroke-linecap="round" stroke-linejoin="round"/></g><defs><filter id="filter0_ddddd" x=".5" y=".5" width="121" height="149" filterUnits="userSpaceOnUse" color-interpolation-filters="sRGB"><feFlood flood-opacity="0" result="BackgroundImageFix"/><feColorMatrix in="SourceAlpha" values="0 0 0 0 0 0 0 0 0 0 0 0 0 0 0 0 0 0 127 0"/><feOffset dx="6" dy="6"/><feGaussianBlur stdDeviation="15"/><feColorMatrix values="0 0 0 0 0 0 0 0 0 0.00784314 0 0 0 0 0.0470588 0 0 0 0.3 0"/><feBlend in2="BackgroundImageFix" result="effect1_dropShadow"/><feColorMatrix in="SourceAlpha" values="0 0 0 0 0 0 0 0 0 0 0 0 0 0 0 0 0 0 127 0"/><feOffset dx="-6" dy="-6"/><feGaussianBlur stdDeviation="15"/><feColorMatrix values="0 0 0 0 0.137255 0 0 0 0 0.129412 0 0 0 0 0.227451 0 0 0 0.15 0"/><feBlend in2="effect1_dropShadow" result="effect2_dropShadow"/><feColorMatrix in="SourceAlpha" values="0 0 0 0 0 0 0 0 0 0 0 0 0 0 0 0 0 0 127 0"/><feOffset dx="14" dy="28"/><feGaussianBlur stdDeviation="15"/><feColorMatrix values="0 0 0 0 0.0156863 0 0 0 0 0.0196078 0 0 0 0 0.054902 0 0 0 0.3 0"/><feBlend in2="effect2_dropShadow" result="effect3_dropShadow"/><feColorMatrix in="SourceAlpha" values="0 0 0 0 0 0 0 0 0 0 0 0 0 0 0 0 0 0 127 0"/><feOffset dx="-14" dy="-28"/><feGaussianBlur stdDeviation="15"/><feColorMatrix values="0 0 0 0 0.137255 0 0 0 0 0.129412 0 0 0 0 0.227451 0 0 0 0.15 0"/><feBlend in2="effect3_dropShadow" result="effect4_dropShadow"/><feColorMatrix in="SourceAlpha" values="0 0 0 0 0 0 0 0 0 0 0 0 0 0 0 0 0 0 127 0"/><feOffset/><feGaussianBlur stdDeviation="8"/><feColorMatrix values="0 0 0 0 1 0 0 0 0 1 0 0 0 0 1 0 0 0 0.48 0"/><feBlend in2="effect4_dropShadow" result="effect5_dropShadow"/><feBlend in="SourceGraphic" in2="effect5_dropShadow" result="shape"/></filter></defs></svg>