<svg width="32" height="36" fill="none" xmlns="http://www.w3.org/2000/svg"><path d="M8.95 14.873H5.092a.645.645 0 00-.64.65v3.925c0 .36.287.651.64.651H8.95c.353 0 .639-.29.639-.65v-3.925a.646.646 0 00-.64-.651zm-.64 3.925H5.731v-2.623h2.58v2.623zm9.638-3.925h-3.86a.645.645 0 00-.639.65v3.925c0 .36.286.651.64.651h3.859c.353 0 .639-.29.639-.65v-3.925a.645.645 0 00-.64-.651zm-.64 3.925h-2.58v-2.623h2.58v2.623zM8.95 23.817H5.092a.645.645 0 00-.64.65v3.928c0 .36.287.651.64.651H8.95a.645.645 0 00.639-.65v-3.928a.646.646 0 00-.64-.651zm-.64 3.927H5.731V25.12h2.58v2.625zm9.638-3.927h-3.86a.645.645 0 00-.639.65v3.928c0 .36.286.651.64.651h3.859a.645.645 0 00.639-.65v-3.928a.645.645 0 00-.64-.651zm-.64 3.927h-2.58V25.12h2.58v2.625zm9.356-3.927h-3.856a.645.645 0 00-.64.65v3.928c0 .36.287.651.64.651h3.856c.353 0 .64-.291.64-.65v-3.928a.646.646 0 00-.64-.651zm-.64 3.927h-2.576V25.12h2.577v2.625z" fill="#fff"/><path d="M31.36 3.186h-3.883v-.754C27.477 1.09 26.405 0 25.089 0c-1.317 0-2.388 1.09-2.388 2.432v.754h-4.319v-.754C18.383 1.09 17.313 0 15.995 0s-2.39 1.09-2.39 2.432v.754H9.288v-.754C9.288 1.09 8.218 0 6.901 0c-1.318 0-2.39 1.09-2.39 2.432v.754H.64a.645.645 0 00-.64.651v31.277c0 .36.286.65.64.65h30.72c.354 0 .64-.29.64-.65V3.837c0-.36-.287-.65-.64-.65zm-7.38-.754c0-.624.497-1.13 1.109-1.13a1.12 1.12 0 011.109 1.13v3.33a1.12 1.12 0 01-1.109 1.13 1.12 1.12 0 01-1.11-1.13v-3.33zm-7.985-1.13a1.12 1.12 0 011.109 1.13v3.33a1.12 1.12 0 01-1.11 1.13 1.122 1.122 0 01-1.11-1.13V3.908c.002-.024.007-.047.007-.071 0-.025-.005-.048-.007-.072V2.431c0-.623.498-1.13 1.11-1.13zM5.79 2.431c0-.624.498-1.13 1.11-1.13a1.12 1.12 0 011.11 1.13v3.33a1.12 1.12 0 01-1.11 1.13 1.122 1.122 0 01-1.11-1.13v-3.33zm24.93 32.03H1.279V4.488H4.51v1.274c0 1.34 1.072 2.432 2.39 2.432 1.316 0 2.387-1.091 2.387-2.432V4.488h4.317v1.274c0 1.34 1.072 2.432 2.39 2.432 1.316 0 2.387-1.091 2.387-2.432V4.488H22.7v1.274c0 1.34 1.072 2.432 2.389 2.432 1.316 0 2.387-1.091 2.387-2.432V4.488h3.244v29.974z" fill="#fff"/><path d="M27.372 12.992l-3.262 4.093-1.361-1.323a.632.632 0 00-.904.022.66.66 0 00.02.92l1.863 1.81a.633.633 0 00.938-.06l3.699-4.642a.66.66 0 00-.094-.915.631.631 0 00-.899.095z" fill="#fff"/></svg>