<svg width="15" height="12" fill="none" xmlns="http://www.w3.org/2000/svg"><path fill-rule="evenodd" clip-rule="evenodd" d="M1.267.045a2.082 2.082 0 00-.393.157 2.15 2.15 0 00-.383.285C.39.585.261.742.208.835a1.909 1.909 0 00-.153.369C.007 1.38 0 1.982 0 5.998c0 4.023.007 4.618.056 4.795.03.11.105.284.166.385.06.1.19.257.285.347.096.091.262.213.37.27.106.059.291.13.41.159.192.046.928.05 6.315.043l6.098-.01.208-.078c.114-.044.3-.146.415-.228.115-.08.277-.234.36-.34.083-.106.188-.28.234-.387l.083-.195V1.237l-.082-.192a2.236 2.236 0 00-.23-.387 1.915 1.915 0 00-.361-.343 2.388 2.388 0 00-.42-.228L13.7.008 7.581.002c-5.274-.006-6.146 0-6.314.043zm12.258 1.11a.62.62 0 01.237.195l.083.126v9.044l-.08.12a.608.608 0 01-.148.16c-.063.036-.163-.095-1.216-1.598-.631-.9-1.218-1.711-1.305-1.802a1.958 1.958 0 00-.332-.272 2.368 2.368 0 00-.388-.178c-.16-.055-.298-.073-.556-.073-.259 0-.396.018-.557.073-.118.04-.293.12-.39.179a.689.689 0 01-.187.094 99.87 99.87 0 01-.517-.73c-.323-.457-.58-.782-.709-.898a1.984 1.984 0 00-.429-.28 2.32 2.32 0 00-.482-.139 1.438 1.438 0 00-.517.002 2.175 2.175 0 00-.511.16c-.138.066-.328.19-.423.279-.113.104-.772 1.035-1.904 2.689-1.7 2.484-1.733 2.529-1.811 2.48a.582.582 0 01-.154-.194c-.073-.143-.074-.179-.074-4.597V1.542l.081-.153a.477.477 0 01.243-.229l.16-.077h5.866c5.859 0 5.866 0 6.02.071zm-3.66 1.092a2.154 2.154 0 00-.45.213c-.13.083-.3.236-.395.355a2.107 2.107 0 00-.252.408c-.07.167-.084.26-.084.59 0 .33.013.425.083.59.045.107.153.284.24.392.085.109.248.261.36.34.112.079.296.178.41.22.17.064.274.077.62.077s.45-.013.62-.077c.114-.042.298-.141.41-.22a2 2 0 00.36-.34c.087-.108.194-.285.24-.393.068-.164.082-.26.082-.588 0-.33-.014-.425-.084-.591a2.06 2.06 0 00-.253-.41 2.033 2.033 0 00-.394-.354 2.118 2.118 0 00-.462-.214 1.827 1.827 0 00-.532-.068 1.938 1.938 0 00-.519.07zm.835 1.121a.609.609 0 01.203.225c.058.114.072.185.055.283a.776.776 0 01-.092.238.554.554 0 01-.188.165.773.773 0 01-.284.06.637.637 0 01-.287-.068.623.623 0 01-.194-.183.56.56 0 010-.55.615.615 0 01.232-.196.505.505 0 01.296-.063c.074.009.19.049.26.089zm-4.126 2.98c.087.055.584.728 1.705 2.307.87 1.227 1.575 2.236 1.567 2.244-.008.008-1.593.01-3.523.005l-3.508-.008 1.544-2.25c1.282-1.868 1.565-2.26 1.67-2.312a.732.732 0 01.274-.063c.094 0 .193.028.271.078zm3.56 1.72c.05.035.537.69 1.081 1.454l.99 1.39h-.934l-.946-1.354C9.6 8.522 9.385 8.19 9.412 8.15a.532.532 0 01.455-.162.65.65 0 01.266.08z" fill="#828282"/></svg>