<svg width="129" height="158" fill="none" xmlns="http://www.w3.org/2000/svg"><g filter="url(#filter0_ddddd)"><path d="M51.885 60.85l3.235-1.402c.677-.293 1.015-.44 1.374-.448.36-.008.704.124 1.393.387l15.407 5.876c2.277.868 3.416 1.302 4.061 2.237.645.934.645 2.15.645 4.58v9.387c0 .988 0 1.483-.23 1.895-.229.413-.65.675-1.49 1.2l-2.493 1.553m-11.804-3.538V97.54c0 .192.047.381.14.558.091.177.226.338.396.474.17.135.372.243.594.316a2.24 2.24 0 001.4 0c.223-.073.425-.18.595-.316.17-.136.304-.297.396-.474.093-.177.14-.367.14-.558V83.945M82 76l2-2m-2 7l2 2M47 66l-2-2m2 7l-2 2m6-7.92v7.921c0 2.427 0 3.64.643 4.573.643.934 1.78 1.37 4.05 2.24l14.128 5.417c2.258.866 3.387 1.299 4.181.755.794-.544.794-1.75.794-4.161v-7.921c0-2.426 0-3.64-.643-4.573-.643-.934-1.779-1.37-4.05-2.24l-14.128-5.417c-2.258-.866-3.387-1.298-4.18-.755C51 61.463 51 62.67 51 65.081z" stroke="#F6F0FF" stroke-linecap="round" stroke-linejoin="round"/></g><defs><filter id="filter0_ddddd" x=".5" y=".5" width="128" height="157" filterUnits="userSpaceOnUse" color-interpolation-filters="sRGB"><feFlood flood-opacity="0" result="BackgroundImageFix"/><feColorMatrix in="SourceAlpha" values="0 0 0 0 0 0 0 0 0 0 0 0 0 0 0 0 0 0 127 0"/><feOffset dx="6" dy="6"/><feGaussianBlur stdDeviation="15"/><feColorMatrix values="0 0 0 0 0 0 0 0 0 0.00784314 0 0 0 0 0.0470588 0 0 0 0.3 0"/><feBlend in2="BackgroundImageFix" result="effect1_dropShadow"/><feColorMatrix in="SourceAlpha" values="0 0 0 0 0 0 0 0 0 0 0 0 0 0 0 0 0 0 127 0"/><feOffset dx="-6" dy="-6"/><feGaussianBlur stdDeviation="15"/><feColorMatrix values="0 0 0 0 0.137255 0 0 0 0 0.129412 0 0 0 0 0.227451 0 0 0 0.15 0"/><feBlend in2="effect1_dropShadow" result="effect2_dropShadow"/><feColorMatrix in="SourceAlpha" values="0 0 0 0 0 0 0 0 0 0 0 0 0 0 0 0 0 0 127 0"/><feOffset dx="14" dy="28"/><feGaussianBlur stdDeviation="15"/><feColorMatrix values="0 0 0 0 0.0156863 0 0 0 0 0.0196078 0 0 0 0 0.054902 0 0 0 0.3 0"/><feBlend in2="effect2_dropShadow" result="effect3_dropShadow"/><feColorMatrix in="SourceAlpha" values="0 0 0 0 0 0 0 0 0 0 0 0 0 0 0 0 0 0 127 0"/><feOffset dx="-14" dy="-28"/><feGaussianBlur stdDeviation="15"/><feColorMatrix values="0 0 0 0 0.137255 0 0 0 0 0.129412 0 0 0 0 0.227451 0 0 0 0.15 0"/><feBlend in2="effect3_dropShadow" result="effect4_dropShadow"/><feColorMatrix in="SourceAlpha" values="0 0 0 0 0 0 0 0 0 0 0 0 0 0 0 0 0 0 127 0"/><feOffset/><feGaussianBlur stdDeviation="8"/><feColorMatrix values="0 0 0 0 1 0 0 0 0 1 0 0 0 0 1 0 0 0 0.48 0"/><feBlend in2="effect4_dropShadow" result="effect5_dropShadow"/><feBlend in="SourceGraphic" in2="effect5_dropShadow" result="shape"/></filter></defs></svg>