<svg width="134" height="146" fill="none" xmlns="http://www.w3.org/2000/svg"><g filter="url(#filter0_ddddd)"><path d="M45.788 67.47l17.121-8.143c.606-.256.683-.317 1.21-.326.529-.01.643.046 1.253.273l13.714 5.089c2.027.752 3.04 1.128 3.615 1.938M65.283 82.526l16.46-8.274c.75-.454 1.123-.681 1.328-1.039.204-.357.204-.785.204-1.641v-1.306c0-2.105 0-3.157-.574-3.966m0 0l-17.092 8.514m0 0c.572.809.572 2.122.572 4.223v-.227c0 2.09 0 3.133-.707 3.604-.707.471-1.712.096-3.721-.653L49.178 77.07c-2.022-.754-3.033-1.131-3.605-1.94C45 74.322 45 74.452 45 72.35v-1.216c0-2.089 0-3.133.707-3.604.707-.471 1.712-.096 3.721.654l12.576 4.691c2.021.754 3.032 1.132 3.605 1.94zm19.245 2.232L67.761 85.56l3.654 1.363c.314.117.662.098.962-.05L89 78.592l-4.145-1.546M71.537 84.89l-1.037-.387m4.31-1.174l-1.037-.386m4.31-1.175l-1.037-.387m4.31-1.174l-1.037-.386m4.31-1.175l-1.037-.386" stroke="#F6F0FF" stroke-linecap="round" stroke-linejoin="round"/></g><defs><filter id="filter0_ddddd" x=".5" y=".5" width="133" height="145" filterUnits="userSpaceOnUse" color-interpolation-filters="sRGB"><feFlood flood-opacity="0" result="BackgroundImageFix"/><feColorMatrix in="SourceAlpha" values="0 0 0 0 0 0 0 0 0 0 0 0 0 0 0 0 0 0 127 0"/><feOffset dx="6" dy="6"/><feGaussianBlur stdDeviation="15"/><feColorMatrix values="0 0 0 0 0 0 0 0 0 0.00784314 0 0 0 0 0.0470588 0 0 0 0.3 0"/><feBlend in2="BackgroundImageFix" result="effect1_dropShadow"/><feColorMatrix in="SourceAlpha" values="0 0 0 0 0 0 0 0 0 0 0 0 0 0 0 0 0 0 127 0"/><feOffset dx="-6" dy="-6"/><feGaussianBlur stdDeviation="15"/><feColorMatrix values="0 0 0 0 0.137255 0 0 0 0 0.129412 0 0 0 0 0.227451 0 0 0 0.15 0"/><feBlend in2="effect1_dropShadow" result="effect2_dropShadow"/><feColorMatrix in="SourceAlpha" values="0 0 0 0 0 0 0 0 0 0 0 0 0 0 0 0 0 0 127 0"/><feOffset dx="14" dy="28"/><feGaussianBlur stdDeviation="15"/><feColorMatrix values="0 0 0 0 0.0156863 0 0 0 0 0.0196078 0 0 0 0 0.054902 0 0 0 0.3 0"/><feBlend in2="effect2_dropShadow" result="effect3_dropShadow"/><feColorMatrix in="SourceAlpha" values="0 0 0 0 0 0 0 0 0 0 0 0 0 0 0 0 0 0 127 0"/><feOffset dx="-14" dy="-28"/><feGaussianBlur stdDeviation="15"/><feColorMatrix values="0 0 0 0 0.137255 0 0 0 0 0.129412 0 0 0 0 0.227451 0 0 0 0.15 0"/><feBlend in2="effect3_dropShadow" result="effect4_dropShadow"/><feColorMatrix in="SourceAlpha" values="0 0 0 0 0 0 0 0 0 0 0 0 0 0 0 0 0 0 127 0"/><feOffset/><feGaussianBlur stdDeviation="8"/><feColorMatrix values="0 0 0 0 1 0 0 0 0 1 0 0 0 0 1 0 0 0 0.48 0"/><feBlend in2="effect4_dropShadow" result="effect5_dropShadow"/><feBlend in="SourceGraphic" in2="effect5_dropShadow" result="shape"/></filter></defs></svg>