<svg width="106" height="137" fill="none" xmlns="http://www.w3.org/2000/svg"><g filter="url(#filter0_ddddd)"><path d="M57 60.5c1.886 0 2.828 0 3.414.586.586.586.586 1.528.586 3.414v10c0 1.886 0 2.828-.586 3.414-.586.586-1.528.586-3.414.586h-8c-1.886 0-2.828 0-3.414-.586C45 77.328 45 76.386 45 74.5v-10c0-1.886 0-2.828.586-3.414.586-.586 1.528-.586 3.414-.586m8 0c0 .943 0 1.414-.293 1.707-.293.293-.764.293-1.707.293h-4c-.943 0-1.414 0-1.707-.293C49 61.914 49 61.443 49 60.5m8 0c0-.943 0-1.414-.293-1.707-.293-.293-.764-.293-1.707-.293h-4c-.943 0-1.414 0-1.707.293C49 59.086 49 59.557 49 60.5m8 6h-8m8 4h-8" stroke="#AB78FF" stroke-linecap="round" stroke-linejoin="round"/></g><defs><filter id="filter0_ddddd" x=".5" y="0" width="105" height="137" filterUnits="userSpaceOnUse" color-interpolation-filters="sRGB"><feFlood flood-opacity="0" result="BackgroundImageFix"/><feColorMatrix in="SourceAlpha" values="0 0 0 0 0 0 0 0 0 0 0 0 0 0 0 0 0 0 127 0"/><feOffset dx="6" dy="6"/><feGaussianBlur stdDeviation="15"/><feColorMatrix values="0 0 0 0 0 0 0 0 0 0.00784314 0 0 0 0 0.0470588 0 0 0 0.3 0"/><feBlend in2="BackgroundImageFix" result="effect1_dropShadow"/><feColorMatrix in="SourceAlpha" values="0 0 0 0 0 0 0 0 0 0 0 0 0 0 0 0 0 0 127 0"/><feOffset dx="-6" dy="-6"/><feGaussianBlur stdDeviation="15"/><feColorMatrix values="0 0 0 0 0.137255 0 0 0 0 0.129412 0 0 0 0 0.227451 0 0 0 0.15 0"/><feBlend in2="effect1_dropShadow" result="effect2_dropShadow"/><feColorMatrix in="SourceAlpha" values="0 0 0 0 0 0 0 0 0 0 0 0 0 0 0 0 0 0 127 0"/><feOffset dx="14" dy="28"/><feGaussianBlur stdDeviation="15"/><feColorMatrix values="0 0 0 0 0.0156863 0 0 0 0 0.0196078 0 0 0 0 0.054902 0 0 0 0.3 0"/><feBlend in2="effect2_dropShadow" result="effect3_dropShadow"/><feColorMatrix in="SourceAlpha" values="0 0 0 0 0 0 0 0 0 0 0 0 0 0 0 0 0 0 127 0"/><feOffset dx="-14" dy="-28"/><feGaussianBlur stdDeviation="15"/><feColorMatrix values="0 0 0 0 0.137255 0 0 0 0 0.129412 0 0 0 0 0.227451 0 0 0 0.15 0"/><feBlend in2="effect3_dropShadow" result="effect4_dropShadow"/><feColorMatrix in="SourceAlpha" values="0 0 0 0 0 0 0 0 0 0 0 0 0 0 0 0 0 0 127 0"/><feOffset/><feGaussianBlur stdDeviation="8"/><feColorMatrix values="0 0 0 0 1 0 0 0 0 1 0 0 0 0 1 0 0 0 0.48 0"/><feBlend in2="effect4_dropShadow" result="effect5_dropShadow"/><feBlend in="SourceGraphic" in2="effect5_dropShadow" result="shape"/></filter></defs></svg>