<svg width="15" height="12" fill="none" xmlns="http://www.w3.org/2000/svg"><path fill-rule="evenodd" clip-rule="evenodd" d="M5.351.056c-.092.03-.228.089-.302.133a1.88 1.88 0 00-.298.243c-.105.105-.2.24-.263.374-.08.168-.117.314-.187.74-.048.29-.088.538-.088.55 0 .01-.526.024-1.167.03-1.13.01-1.174.012-1.373.079a3.578 3.578 0 00-.396.165 3 3 0 00-.374.234 2.57 2.57 0 00-.317.29 3.326 3.326 0 00-.263.359c-.07.113-.172.332-.226.486L0 4.019v6.096l.097.28c.054.154.155.373.226.486.07.113.19.275.263.358a2.412 2.412 0 00.692.526c.106.053.29.128.411.166l.219.069h11.184l.22-.069c.121-.038.32-.12.44-.184a2.88 2.88 0 00.403-.263c.1-.081.25-.23.331-.332.081-.1.2-.282.262-.404.063-.121.145-.32.183-.441l.069-.221V4.048l-.069-.22a3.303 3.303 0 00-.183-.442 2.888 2.888 0 00-.262-.405c-.081-.1-.23-.25-.33-.331a2.87 2.87 0 00-.404-.263 3.538 3.538 0 00-.425-.183c-.198-.066-.246-.068-1.367-.078l-1.162-.01-.094-.55C10.63 1.12 10.592.973 10.51.8a1.401 1.401 0 00-.247-.36c-.08-.08-.21-.187-.288-.237a1.641 1.641 0 00-.328-.147C9.47 0 9.368-.001 7.49 0 5.666.002 5.506.006 5.35.056zm4.025 1.202c.082.076.092.113.177.64.071.436.11.6.178.74.053.108.15.239.249.332.089.085.238.19.33.233l.17.08 1.218.016c1.06.014 1.235.023 1.35.067.073.028.185.086.25.128.064.042.167.13.227.196.061.065.144.186.184.268.04.082.086.224.103.315.02.11.027 1.1.022 2.901l-.008 2.735-.066.162c-.036.089-.112.22-.167.289-.056.07-.158.173-.228.228a1.43 1.43 0 01-.288.168l-.161.066-5.311.008c-3.535.005-5.366-.002-5.475-.023a1.478 1.478 0 01-.317-.105 1.37 1.37 0 01-.298-.218 1.336 1.336 0 01-.22-.3 1.513 1.513 0 01-.106-.316c-.018-.1-.03-1.139-.03-2.801 0-1.662.012-2.701.03-2.801.017-.088.062-.225.102-.306.04-.081.122-.203.183-.27s.164-.156.229-.198a1.76 1.76 0 01.249-.126c.115-.044.29-.053 1.351-.067l1.219-.017.196-.097a1.48 1.48 0 00.329-.229c.072-.072.171-.214.22-.315.07-.144.108-.303.18-.743.085-.527.095-.564.177-.64l.086-.081h3.58l.086.08zM7.045 3.417a4.107 4.107 0 00-.467.102 4.44 4.44 0 00-.47.166 4.14 4.14 0 00-.399.208 4.854 4.854 0 00-.343.233 4.167 4.167 0 00-.735.794c-.08.12-.188.301-.24.403a4.08 4.08 0 00-.178.442 4.31 4.31 0 00-.131.518c-.025.144-.046.41-.046.593 0 .182.02.448.046.592.025.144.086.38.135.527.05.145.123.331.164.412.04.081.146.26.236.398a4.059 4.059 0 00.939.951 3.821 3.821 0 001.035.476c.153.04.42.089.594.106.221.022.406.023.616.001a4.86 4.86 0 00.588-.104c.158-.04.412-.132.565-.205.153-.073.374-.196.49-.274a4.067 4.067 0 00.938-.952c.09-.137.2-.32.242-.405.042-.085.116-.27.163-.412.047-.142.106-.375.131-.52.025-.143.046-.41.046-.591 0-.183-.02-.45-.046-.593a4.315 4.315 0 00-.13-.518 4.086 4.086 0 00-.18-.442 4.732 4.732 0 00-.24-.406 4.286 4.286 0 00-.429-.504 3.99 3.99 0 00-.515-.436 4.496 4.496 0 00-.44-.25 4.255 4.255 0 00-.398-.16 4.697 4.697 0 00-.397-.108 4.188 4.188 0 00-.572-.057c-.201-.007-.459 0-.572.015zm5.225.582a.64.64 0 00-.168.112.727.727 0 00-.095.166.6.6 0 00-.044.19c0 .045.025.137.056.205a.515.515 0 00.175.202.42.42 0 00.261.08.6.6 0 00.228-.046.636.636 0 00.149-.113.775.775 0 00.095-.134.566.566 0 00.033-.201.673.673 0 00-.049-.24.516.516 0 00-.155-.174.655.655 0 00-.237-.087.413.413 0 00-.249.04zm-4.224.653c.127.032.338.111.467.176.129.065.31.178.403.25.092.074.24.221.329.33.089.107.215.3.28.426.066.126.147.333.181.459.045.167.063.321.064.568a2.14 2.14 0 01-.05.545 2.7 2.7 0 01-.473.936 2.47 2.47 0 01-.362.345 2.97 2.97 0 01-.372.23 3.357 3.357 0 01-.382.152 2.19 2.19 0 01-.515.08 2.02 2.02 0 01-.558-.034 2.637 2.637 0 01-.493-.165 3.04 3.04 0 01-.393-.221 3.413 3.413 0 01-.249-.2 2.47 2.47 0 01-.236-.27 2.755 2.755 0 01-.243-.412 3.13 3.13 0 01-.163-.441 2.094 2.094 0 01-.051-.545c.001-.247.019-.401.064-.568a2.77 2.77 0 01.18-.46c.066-.126.192-.318.281-.426.089-.108.237-.256.33-.33.092-.073.273-.186.402-.25.13-.064.334-.142.455-.174.15-.039.324-.057.546-.058.232-.001.392.015.558.057z" fill="#828282"/></svg>