<svg width="116" height="116" fill="none" xmlns="http://www.w3.org/2000/svg"><circle cx="58" cy="58" r="54" fill="#fff" stroke="#C6B55C" stroke-width="8"/><path d="M75.448 40c-1.484 0-2.879.6-3.928 1.69L50.96 63.075l-5.479-5.69c-1.049-1.09-2.444-1.69-3.927-1.69-1.484 0-2.88.6-3.928 1.69A5.843 5.843 0 0036 61.462c0 1.541.578 2.99 1.627 4.079l9.408 9.77C48.084 76.4 49.479 77 50.962 77c1.484 0 2.879-.6 3.93-1.69l24.484-25.463c2.165-2.25 2.165-5.909 0-8.158A5.418 5.418 0 0075.448 40z" fill="#C6B55C"/></svg>