<svg width="77" height="96" fill="none" xmlns="http://www.w3.org/2000/svg"><g filter="url(#filter0_d)"><path d="M24.21 36.01v-3.057c0-8.53 5.788-18.46 13.26-18.46h1.962c7.452 0 13.26 9.911 13.26 18.441v3.058h7.98v-7.504a25.17 25.17 0 00-6.024-15.984C50.535 7.651 45.183 5 39.58 5h-2.267c-5.59 0-10.95 2.67-15.067 7.504a25.165 25.165 0 00-6.024 15.984v7.504h7.987v.019z" fill="#F68F33"/><path d="M54.653 12.51a21.322 21.322 0 00-1.08-1.188c.203.455.327.941.366 1.439a4.329 4.329 0 01-.348 1.936 4.3 4.3 0 01-1.168 1.578 3 3 0 01-3.18.3c-.74-.36-1.45-.778-2.123-1.25a14.464 14.464 0 00-2.522-1.251 15.556 15.556 0 00-5.39-1.032c-3.36-.09-6.663.893-9.434 2.808a18.735 18.735 0 00-5.745 7.135c-.907 1.945-1.242 4.22-2.702 5.89a2.47 2.47 0 01-2.366 1.007 2.972 2.972 0 01-1.332-.655 3.002 3.002 0 01-.854-1.22 6.552 6.552 0 01-.422-1.877 22.188 22.188 0 00-.125 2.333v7.504h7.981v-3.014c0-8.53 5.788-18.46 13.26-18.46h1.962c7.453 0 13.26 9.911 13.26 18.441v3.058h7.98v-7.504a25.17 25.17 0 00-6.018-15.978z" fill="#F68F33" opacity=".5"/><path d="M60.678 33.316h-7.98v2.695h7.98v-2.695zm-36.475 0h-7.98v2.695h7.98v-2.695z" fill="#F68F33" opacity=".5"/><path d="M66.82 36.955a2.945 2.945 0 00-.863-1.2 4.33 4.33 0 00-1.863-.757H12.602a3.422 3.422 0 00-1.863.8A2.29 2.29 0 0010 37.255v11.413c0 42.573 57 43.642 57 0V37.505a3.781 3.781 0 00-.18-.55z" fill="#F68F33"/><path d="M65.639 37.6a2.731 2.731 0 00-.826-1.108 4.263 4.263 0 00-1.764-.7H13.557a3.348 3.348 0 00-1.782.744c-.398.34-.655.817-.72 1.338v10.569c0 39.396 54.752 40.39 54.752 0V38.112a3.4 3.4 0 00-.168-.513z" fill="#FBB035"/><path d="M63.312 38.3a2.348 2.348 0 00-.777-.945 4.107 4.107 0 00-1.62-.625h-45.58a3.223 3.223 0 00-1.64.625c-.36.28-.6.69-.664 1.145v8.998c0 33.6 50.436 34.444 50.436 0v-8.767a2.67 2.67 0 00-.155-.431z" fill="#FFD074"/><path d="M45.201 49.437c0-3.533-3.012-6.397-6.72-6.397-3.707 0-6.725 2.864-6.725 6.397a6.44 6.44 0 001.202 3.647 6.37 6.37 0 003.058 2.3l-4.844 14.608h14.023l-4.397-14.564a6.38 6.38 0 003.153-2.287 6.452 6.452 0 001.25-3.704z" fill="#AD561F"/><path d="M33.587 49.437a6.552 6.552 0 011.718-4.27 6.468 6.468 0 014.09-2.065 7.184 7.184 0 00-.914-.062c-3.726 0-6.72 2.864-6.72 6.397a6.44 6.44 0 001.203 3.647 6.37 6.37 0 003.058 2.3l-4.844 14.608h1.832l4.844-14.608a6.37 6.37 0 01-3.062-2.298 6.44 6.44 0 01-1.205-3.65z" fill="#AD561F"/><path d="M45.2 49.437a6.552 6.552 0 00-1.718-4.27 6.468 6.468 0 00-4.09-2.065 6.47 6.47 0 00-4.089 2.065 6.553 6.553 0 00-1.717 4.27 6.439 6.439 0 001.202 3.648 6.37 6.37 0 003.058 2.299l-4.844 14.608h12.191l-4.397-14.564a6.38 6.38 0 003.153-2.287 6.452 6.452 0 001.25-3.704z" fill="#5E2A00"/><path d="M17.197 25.48S20.612 5.113 41.66 5.87c0 0-18.694 1.381-24.463 19.61zM14.77 39.194a4.355 4.355 0 00.1 3.208c.77 1.5 9.284-.72 9.08-2.758-.205-2.039-7.9-3.552-9.18-.45zm-.211 7.247a6.786 6.786 0 00.05 2.865c.378 1.338 4.614-.626 4.514-2.458-.099-1.832-3.925-3.177-4.564-.407z" fill="#F68F33"/></g><defs><filter id="filter0_d" x="0" y="0" width="77" height="96" filterUnits="userSpaceOnUse" color-interpolation-filters="sRGB"><feFlood flood-opacity="0" result="BackgroundImageFix"/><feColorMatrix in="SourceAlpha" values="0 0 0 0 0 0 0 0 0 0 0 0 0 0 0 0 0 0 127 0" result="hardAlpha"/><feOffset dy="5"/><feGaussianBlur stdDeviation="5"/><feComposite in2="hardAlpha" operator="out"/><feColorMatrix values="0 0 0 0 0 0 0 0 0 0 0 0 0 0 0 0 0 0 0.15 0"/><feBlend in2="BackgroundImageFix" result="effect1_dropShadow"/><feBlend in="SourceGraphic" in2="effect1_dropShadow" result="shape"/></filter></defs></svg>