<svg width="212" height="36" viewBox="0 0 212 36" fill="none" xmlns="http://www.w3.org/2000/svg">
<path d="M53.5572 13.7017H56.2495V19.8062C55.4615 20.4335 54.5422 20.9148 53.4915 21.2503C52.4409 21.5858 51.361 21.7536 50.252 21.7536C48.6906 21.7536 47.2825 21.4181 46.0275 20.7471C44.7726 20.0615 43.7876 19.1207 43.0725 17.9246C42.3575 16.7285 42 15.3792 42 13.8768C42 12.3744 42.3575 11.0251 43.0725 9.82899C43.7876 8.63289 44.7726 7.69934 46.0275 7.02836C47.2971 6.34279 48.7198 6 50.2958 6C51.5799 6 52.7473 6.21151 53.798 6.63452C54.8486 7.05753 55.7315 7.67746 56.4465 8.49431L54.6516 10.2447C53.4842 9.07778 52.0761 8.49431 50.4271 8.49431C49.3473 8.49431 48.3842 8.72041 47.5378 9.17259C46.7061 9.62478 46.0494 10.2593 45.5678 11.0761C45.1009 11.893 44.8674 12.8265 44.8674 13.8768C44.8674 14.8978 45.1009 15.8168 45.5678 16.6337C46.0494 17.4505 46.7061 18.0923 47.5378 18.5591C48.3842 19.0259 49.34 19.2593 50.4052 19.2593C51.6018 19.2593 52.6525 18.9967 53.5572 18.4716V13.7017Z" fill="black"/>
<path d="M72.7517 6.2188V21.5348H69.9062V14.9708H61.9825V21.5348H59.137V6.2188H61.9825V12.5421H69.9062V6.2188H72.7517Z" fill="black"/>
<path d="M83.1494 21.7536C81.588 21.7536 80.1798 21.4181 78.9249 20.7471C77.6699 20.0615 76.6849 19.1207 75.9699 17.9246C75.2549 16.7139 74.8974 15.3646 74.8974 13.8768C74.8974 12.3889 75.2549 11.047 75.9699 9.85087C76.6849 8.64018 77.6699 7.69934 78.9249 7.02836C80.1798 6.34279 81.588 6 83.1494 6C84.7108 6 85.7727 6.34279 87.0276 7.02836C88.2826 7.69934 89.2676 8.63289 89.9826 9.82899C90.6976 11.0251 91.0551 12.3744 91.0551 13.8768C91.0551 15.3792 90.6976 16.7285 89.9826 17.9246C89.2676 19.1207 88.2826 20.0615 87.0276 20.7471C85.7727 21.4181 84.7108 21.7536 83.1494 21.7536ZM83.1494 19.2593C84.1708 19.2593 84.7439 19.0332 85.5611 18.581C86.3783 18.1142 87.0203 17.4724 87.4873 16.6555C87.9543 15.8241 88.1877 14.8978 88.1877 13.8768C88.1877 12.8557 87.9543 11.9368 87.4873 11.1199C87.0203 10.2885 86.3783 9.64666 85.5611 9.19447C84.7439 8.7277 84.1708 8.49431 83.1494 8.49431C82.1279 8.49431 81.2086 8.7277 80.3914 9.19447C79.5742 9.64666 78.9322 10.2885 78.4652 11.1199C77.9982 11.9368 77.7648 12.8557 77.7648 13.8768C77.7648 14.8978 77.9982 15.8241 78.4652 16.6555C78.9322 17.4724 79.5742 18.1142 80.3914 18.581C81.2086 19.0332 82.1279 19.2593 83.1494 19.2593Z" fill="black"/>
<path d="M98.6481 21.7536C97.4661 21.7536 96.3206 21.5858 95.2115 21.2503C94.1171 20.9148 93.2489 20.4699 92.6068 19.9156L93.5918 17.7058C94.2193 18.2017 94.9854 18.6101 95.8901 18.9311C96.8094 19.2374 97.7287 19.3905 98.6481 19.3905C99.7863 19.3905 100.633 19.2082 101.187 18.8435C101.756 18.4789 102.041 17.9975 102.041 17.3995C102.041 16.9619 101.88 16.6045 101.559 16.3273C101.253 16.0356 100.859 15.8095 100.377 15.6491C99.8957 15.4886 99.2391 15.3063 98.4073 15.1021C97.2399 14.8249 96.2914 14.5478 95.5618 14.2706C94.8467 13.9935 94.2266 13.5632 93.7012 12.9797C93.1905 12.3817 92.9351 11.5794 92.9351 10.5729C92.9351 9.72689 93.1613 8.96109 93.6137 8.27552C94.0806 7.57536 94.7738 7.02106 95.6931 6.61264C96.627 6.20421 97.7652 6 99.1077 6C100.042 6 100.961 6.11669 101.866 6.35008C102.77 6.58347 103.551 6.91896 104.208 7.35656L103.31 9.56643C102.639 9.17259 101.939 8.87357 101.209 8.66935C100.479 8.46514 99.7717 8.36303 99.0858 8.36303C97.9622 8.36303 97.1231 8.55266 96.5686 8.93191C96.0287 9.31117 95.7588 9.8144 95.7588 10.4416C95.7588 10.8792 95.912 11.2366 96.2184 11.5137C96.5395 11.7909 96.9407 12.0097 97.4223 12.1701C97.9038 12.3306 98.5605 12.5129 99.3923 12.7171C100.53 12.9797 101.464 13.2569 102.194 13.5486C102.924 13.8257 103.544 14.256 104.055 14.8395C104.58 15.423 104.843 16.2106 104.843 17.2025C104.843 18.0486 104.609 18.8144 104.142 19.4999C103.69 20.1855 102.997 20.7325 102.063 21.1409C101.129 21.5494 99.9906 21.7536 98.6481 21.7536Z" fill="black"/>
<path d="M110.559 8.62559H105.48V6.2188H118.482V8.62559H113.404V21.5348H110.559V8.62559Z" fill="black"/>
<path d="M134.232 6.2188V21.5348H131.387V14.9708H123.463V21.5348H120.618V6.2188H123.463V12.5421H131.387V6.2188H134.232Z" fill="black"/>
<path d="M144.061 21.7536C141.945 21.7536 140.296 21.1628 139.114 19.9813C137.932 18.7852 137.341 17.0785 137.341 14.8614V6.2188H140.187V14.752C140.187 17.7568 141.485 19.2593 144.083 19.2593C146.666 19.2593 147.957 17.7568 147.957 14.752V6.2188H150.759V14.8614C150.759 17.0785 150.168 18.7852 148.986 19.9813C147.819 21.1628 146.177 21.7536 144.061 21.7536Z" fill="black"/>
<path d="M167.493 6.2188V21.5348H165.151L156.702 11.1637V21.5348H153.878V6.2188H156.221L164.67 16.5899V6.2188H167.493Z" fill="black"/>
<path d="M174.707 8.62559H169.629V6.2188H182.631V8.62559H177.553V21.5348H174.707V8.62559Z" fill="black"/>
<path d="M196.258 19.1499V21.5348H184.766V6.2188H195.951V8.60371H187.612V12.5859H195.01V14.927H187.612V19.1499H196.258Z" fill="black"/>
<path d="M208.936 21.5348L205.806 17.0494C205.674 17.064 205.477 17.0713 205.215 17.0713H201.756V21.5348H198.911V6.2188H205.215C206.542 6.2188 207.695 6.4376 208.673 6.8752C209.665 7.3128 210.424 7.94002 210.949 8.75687C211.475 9.57373 211.737 10.5437 211.737 11.6669C211.737 12.8193 211.453 13.8111 210.884 14.6426C210.329 15.474 209.527 16.094 208.476 16.5024L212 21.5348H208.936ZM208.87 11.6669C208.87 10.6896 208.549 9.93839 207.907 9.41327C207.265 8.88815 206.324 8.62559 205.083 8.62559H201.756V14.7301H205.083C206.324 14.7301 207.265 14.4675 207.907 13.9424C208.549 13.4027 208.87 12.6442 208.87 11.6669Z" fill="black"/>
<path d="M44.9299 30.7555C44.3757 30.7555 43.8753 30.6359 43.4286 30.3966C42.9874 30.1573 42.6376 29.827 42.3794 29.4057C42.1265 28.9844 42 28.511 42 27.9857C42 27.4603 42.1265 26.987 42.3794 26.5656C42.6376 26.1443 42.9874 25.814 43.4286 25.5747C43.8753 25.3355 44.3757 25.2158 44.9299 25.2158C45.3389 25.2158 45.7156 25.2808 46.0599 25.4109C46.4043 25.5357 46.6976 25.723 46.9397 25.9727L46.6814 26.2301C46.2294 25.7984 45.651 25.5825 44.9461 25.5825C44.4725 25.5825 44.0421 25.6866 43.6546 25.8946C43.2672 26.1027 42.9632 26.3914 42.7426 26.7607C42.522 27.1248 42.4116 27.5331 42.4116 27.9857C42.4116 28.4382 42.522 28.8491 42.7426 29.2185C42.9632 29.5826 43.2672 29.8687 43.6546 30.0767C44.0421 30.2848 44.4725 30.3888 44.9461 30.3888C45.6456 30.3888 46.2241 30.1704 46.6814 29.7334L46.9397 29.9909C46.6976 30.2406 46.4016 30.4304 46.0519 30.5605C45.7075 30.6905 45.3335 30.7555 44.9299 30.7555Z" fill="black"/>
<path d="M48.8835 25.2548H49.2951V30.3576H52.5479V30.7165H48.8835V25.2548Z" fill="black"/>
<path d="M58.0685 30.3576V30.7165H54.17V25.2548H57.9474V25.6137H54.5816V27.7672H57.5922V28.1183H54.5816V30.3576H58.0685Z" fill="black"/>
<path d="M63.6292 29.1794H60.3522L59.6339 30.7165H59.1899L61.789 25.2548H62.2006L64.7996 30.7165H64.3557L63.6292 29.1794ZM63.4759 28.8439L61.9907 25.6918L60.5137 28.8439H63.4759Z" fill="black"/>
<path d="M70.991 25.2548V30.7165H70.652L66.8019 25.9727V30.7165H66.3903V25.2548H66.7374L70.5794 29.9987V25.2548H70.991Z" fill="black"/>
<path d="M78.3787 30.7555C77.663 30.7555 77.1061 30.5553 76.7079 30.1547C76.3151 29.7542 76.1187 29.169 76.1187 28.3992V25.2548H76.5304V28.3836C76.5304 29.0546 76.6891 29.5566 77.0066 29.8895C77.324 30.2224 77.7841 30.3888 78.3868 30.3888C78.9841 30.3888 79.4415 30.2224 79.7589 29.8895C80.0764 29.5566 80.2351 29.0546 80.2351 28.3836V25.2548H80.6468V28.3992C80.6468 29.169 80.4477 29.7542 80.0495 30.1547C79.6513 30.5553 79.0944 30.7555 78.3787 30.7555Z" fill="black"/>
<path d="M85.1585 25.2548C85.8688 25.2548 86.4257 25.4187 86.8293 25.7464C87.2328 26.0689 87.4346 26.5188 87.4346 27.0962C87.4346 27.6684 87.2328 28.1183 86.8293 28.446C86.4257 28.7685 85.8688 28.9298 85.1585 28.9298H83.5442V30.7165H83.1325V25.2548H85.1585ZM85.1585 28.5709C85.7611 28.5709 86.2212 28.4434 86.5387 28.1885C86.8562 27.9337 87.0149 27.5695 87.0149 27.0962C87.0149 26.6229 86.8562 26.2587 86.5387 26.0039C86.2212 25.7438 85.7611 25.6137 85.1585 25.6137H83.5442V28.5709H85.1585Z" fill="black"/>
<path d="M95.6003 29.1794H92.3233L91.605 30.7165H91.161L93.76 25.2548H94.1717L96.7707 30.7165H96.3268L95.6003 29.1794ZM95.447 28.8439L93.9618 25.6918L92.4847 28.8439H95.447Z" fill="black"/>
<path d="M102.962 25.2548V30.7165H102.623L98.773 25.9727V30.7165H98.3614V25.2548H98.7085L102.55 29.9987V25.2548H102.962Z" fill="black"/>
<path d="M105.5 25.2548H107.736C108.323 25.2548 108.842 25.3719 109.294 25.6059C109.751 25.84 110.106 26.1651 110.359 26.5812C110.612 26.9922 110.739 27.4603 110.739 27.9857C110.739 28.511 110.612 28.9818 110.359 29.3979C110.106 29.8088 109.751 30.1313 109.294 30.3654C108.842 30.5995 108.323 30.7165 107.736 30.7165H105.5V25.2548ZM107.704 30.3576C108.226 30.3576 108.686 30.2588 109.084 30.0611C109.482 29.8583 109.789 29.5774 110.004 29.2185C110.219 28.8595 110.327 28.4486 110.327 27.9857C110.327 27.5227 110.219 27.1118 110.004 26.7529C109.789 26.394 109.482 26.1157 109.084 25.918C108.686 25.7152 108.226 25.6137 107.704 25.6137H105.912V30.3576H107.704Z" fill="black"/>
<path d="M117.398 25.2548C118.108 25.2548 118.665 25.4187 119.068 25.7464C119.472 26.0689 119.674 26.5188 119.674 27.0962C119.674 27.6684 119.472 28.1183 119.068 28.446C118.665 28.7685 118.108 28.9298 117.398 28.9298H115.783V30.7165H115.372V25.2548H117.398ZM117.398 28.5709C118 28.5709 118.46 28.4434 118.778 28.1885C119.095 27.9337 119.254 27.5695 119.254 27.0962C119.254 26.6229 119.095 26.2587 118.778 26.0039C118.46 25.7438 118 25.6137 117.398 25.6137H115.783V28.5709H117.398Z" fill="black"/>
<path d="M125.55 30.7165L124.202 28.8908C124.003 28.9168 123.82 28.9298 123.654 28.9298H122.039V30.7165H121.628V25.2548H123.654C124.364 25.2548 124.921 25.4187 125.324 25.7464C125.728 26.0689 125.93 26.5188 125.93 27.0962C125.93 27.5279 125.814 27.892 125.583 28.1885C125.357 28.4798 125.031 28.6853 124.606 28.8049L126.018 30.7165H125.55ZM123.654 28.5787C124.256 28.5787 124.716 28.4512 125.034 28.1963C125.351 27.9363 125.51 27.5695 125.51 27.0962C125.51 26.6229 125.351 26.2587 125.034 26.0039C124.716 25.7438 124.256 25.6137 123.654 25.6137H122.039V28.5787H123.654Z" fill="black"/>
<path d="M130.399 30.7555C129.845 30.7555 129.344 30.6359 128.898 30.3966C128.451 30.1521 128.099 29.8192 127.84 29.3979C127.588 28.9766 127.461 28.5058 127.461 27.9857C127.461 27.4655 127.588 26.9948 127.84 26.5734C128.099 26.1521 128.451 25.8218 128.898 25.5825C129.344 25.3381 129.845 25.2158 130.399 25.2158C130.953 25.2158 131.454 25.3355 131.9 25.5747C132.347 25.814 132.697 26.1443 132.95 26.5656C133.208 26.987 133.337 27.4603 133.337 27.9857C133.337 28.511 133.208 28.9844 132.95 29.4057C132.697 29.827 132.347 30.1573 131.9 30.3966C131.454 30.6359 130.953 30.7555 130.399 30.7555ZM130.399 30.3888C130.873 30.3888 131.3 30.2848 131.682 30.0767C132.064 29.8687 132.366 29.5826 132.586 29.2185C132.807 28.8491 132.917 28.4382 132.917 27.9857C132.917 27.5331 132.807 27.1248 132.586 26.7607C132.366 26.3914 132.064 26.1027 131.682 25.8946C131.3 25.6866 130.873 25.5825 130.399 25.5825C129.926 25.5825 129.495 25.6866 129.108 25.8946C128.726 26.1027 128.424 26.3914 128.204 26.7607C127.983 27.1248 127.873 27.5331 127.873 27.9857C127.873 28.4382 127.983 28.8491 128.204 29.2185C128.424 29.5826 128.726 29.8687 129.108 30.0767C129.495 30.2848 129.926 30.3888 130.399 30.3888Z" fill="black"/>
<path d="M136.333 25.6137H134.299V25.2548H138.778V25.6137H136.744V30.7165H136.333V25.6137Z" fill="black"/>
<path d="M144.263 30.3576V30.7165H140.364V25.2548H144.141V25.6137H140.776V27.7672H143.786V28.1183H140.776V30.3576H144.263Z" fill="black"/>
<path d="M148.686 30.7555C148.132 30.7555 147.631 30.6359 147.185 30.3966C146.743 30.1573 146.394 29.827 146.135 29.4057C145.883 28.9844 145.756 28.511 145.756 27.9857C145.756 27.4603 145.883 26.987 146.135 26.5656C146.394 26.1443 146.743 25.814 147.185 25.5747C147.631 25.3355 148.132 25.2158 148.686 25.2158C149.095 25.2158 149.472 25.2808 149.816 25.4109C150.16 25.5357 150.454 25.723 150.696 25.9727L150.438 26.2301C149.986 25.7984 149.407 25.5825 148.702 25.5825C148.229 25.5825 147.798 25.6866 147.411 25.8946C147.023 26.1027 146.719 26.3914 146.499 26.7607C146.278 27.1248 146.168 27.5331 146.168 27.9857C146.168 28.4382 146.278 28.8491 146.499 29.2185C146.719 29.5826 147.023 29.8687 147.411 30.0767C147.798 30.2848 148.229 30.3888 148.702 30.3888C149.402 30.3888 149.98 30.1704 150.438 29.7334L150.696 29.9909C150.454 30.2406 150.158 30.4304 149.808 30.5605C149.464 30.6905 149.09 30.7555 148.686 30.7555Z" fill="black"/>
<path d="M153.65 25.6137H151.616V25.2548H156.096V25.6137H154.062V30.7165H153.65V25.6137Z" fill="black"/>
<path d="M160.32 25.2548H160.731V30.7165H160.32V25.2548Z" fill="black"/>
<path d="M167.866 25.2548V30.7165H167.527L163.677 25.9727V30.7165H163.265V25.2548H163.612L167.454 29.9987V25.2548H167.866Z" fill="black"/>
<path d="M171.889 30.7555C171.475 30.7555 171.079 30.6879 170.703 30.5527C170.331 30.4122 170.041 30.2328 169.831 30.0143L170.017 29.7178C170.216 29.9207 170.482 30.0871 170.816 30.2172C171.155 30.342 171.51 30.4044 171.881 30.4044C172.419 30.4044 172.825 30.3056 173.1 30.1079C173.374 29.9103 173.511 29.6528 173.511 29.3355C173.511 29.091 173.439 28.896 173.294 28.7503C173.148 28.6047 172.968 28.4928 172.753 28.4148C172.538 28.3368 172.247 28.2562 171.881 28.1729C171.467 28.0741 171.133 27.9779 170.88 27.8842C170.633 27.7906 170.42 27.6476 170.243 27.4551C170.07 27.2575 169.984 26.9948 169.984 26.6671C169.984 26.4018 170.057 26.1599 170.202 25.9414C170.347 25.7178 170.568 25.5409 170.864 25.4109C171.165 25.2808 171.539 25.2158 171.986 25.2158C172.298 25.2158 172.605 25.26 172.906 25.3485C173.207 25.4369 173.468 25.5565 173.689 25.7074L173.536 26.0273C173.31 25.8764 173.059 25.762 172.785 25.684C172.516 25.6059 172.25 25.5669 171.986 25.5669C171.464 25.5669 171.069 25.6684 170.799 25.8712C170.53 26.0741 170.396 26.3368 170.396 26.6593C170.396 26.9037 170.469 27.0988 170.614 27.2444C170.759 27.3901 170.939 27.5019 171.155 27.58C171.37 27.658 171.663 27.7412 172.034 27.8296C172.449 27.9285 172.78 28.0247 173.027 28.1183C173.275 28.2119 173.485 28.355 173.657 28.5475C173.834 28.7347 173.923 28.9896 173.923 29.3121C173.923 29.5774 173.848 29.8192 173.697 30.0377C173.552 30.2562 173.326 30.4304 173.019 30.5605C172.712 30.6905 172.336 30.7555 171.889 30.7555Z" fill="black"/>
<path d="M176.89 25.6137H174.856V25.2548H179.336V25.6137H177.302V30.7165H176.89V25.6137Z" fill="black"/>
<path d="M184.133 29.1794H180.856L180.138 30.7165H179.694L182.293 25.2548H182.704L185.303 30.7165H184.859L184.133 29.1794ZM183.98 28.8439L182.494 25.6918L181.017 28.8439H183.98Z" fill="black"/>
<path d="M190.851 28.0091H191.246V30.0533C190.999 30.2822 190.698 30.4564 190.342 30.5761C189.993 30.6957 189.621 30.7555 189.229 30.7555C188.669 30.7555 188.163 30.6359 187.711 30.3966C187.264 30.1573 186.912 29.827 186.654 29.4057C186.401 28.9844 186.274 28.511 186.274 27.9857C186.274 27.4603 186.401 26.987 186.654 26.5656C186.912 26.1443 187.264 25.814 187.711 25.5747C188.163 25.3355 188.672 25.2158 189.237 25.2158C189.651 25.2158 190.03 25.2808 190.375 25.4109C190.724 25.5357 191.023 25.7204 191.271 25.9649L191.012 26.2301C190.776 26.0013 190.509 25.8374 190.213 25.7386C189.923 25.6345 189.6 25.5825 189.245 25.5825C188.76 25.5825 188.322 25.6866 187.929 25.8946C187.542 26.1027 187.238 26.3914 187.017 26.7607C186.796 27.1248 186.686 27.5331 186.686 27.9857C186.686 28.433 186.796 28.8413 187.017 29.2107C187.243 29.5748 187.55 29.8635 187.937 30.0767C188.325 30.2848 188.76 30.3888 189.245 30.3888C189.89 30.3888 190.426 30.2224 190.851 29.8895V28.0091Z" fill="black"/>
<path d="M197.546 30.7165L196.198 28.8908C195.999 28.9168 195.816 28.9298 195.649 28.9298H194.035V30.7165H193.623V25.2548H195.649C196.359 25.2548 196.916 25.4187 197.32 25.7464C197.723 26.0689 197.925 26.5188 197.925 27.0962C197.925 27.5279 197.809 27.892 197.578 28.1885C197.352 28.4798 197.026 28.6853 196.601 28.8049L198.014 30.7165H197.546ZM195.649 28.5787C196.252 28.5787 196.712 28.4512 197.029 28.1963C197.347 27.9363 197.505 27.5695 197.505 27.0962C197.505 26.6229 197.347 26.2587 197.029 26.0039C196.712 25.7438 196.252 25.6137 195.649 25.6137H194.035V28.5787H195.649Z" fill="black"/>
<path d="M203.492 29.1794H200.215L199.497 30.7165H199.053L201.652 25.2548H202.063L204.662 30.7165H204.219L203.492 29.1794ZM203.339 28.8439L201.854 25.6918L200.377 28.8439H203.339Z" fill="black"/>
<path d="M211.596 30.7165L211.588 26.0429L209.223 29.9909H209.022L206.657 26.0585V30.7165H206.253V25.2548H206.6L209.127 29.4759L211.653 25.2548H211.992L212 30.7165H211.596Z" fill="black"/>
<path d="M0 4.4673C0 4.4673 6.46389 0 16.1414 0V8.05247L16.1135 8.01303L13.0505 9.98182V3.02727C6.61111 4.09091 3.09091 6.18964 3.09091 6.18964V19.8237C3.94949 25.4455 6.18182 27.4909 13.0505 31.0909V17.3455L9.27273 19.8L7.55556 17.2636L16.1414 11.7986V36C7.56536 32.1225 0 27.6816 0 20.0896V4.4673Z" fill="url(#paint0_radial_602_14285)"/>
<path d="M17.8586 0C18.9297 0 19.9615 0.0547281 20.9495 0.152069V13.5H30.9091V6.21818C30.9091 6.21818 30.1564 5.76333 28.7105 5.16912V1.91262C32.0585 3.12548 34 4.4673 34 4.4673V20.0896C34 24.0682 31.9224 27.1813 28.7105 29.8016V25.5996C29.8921 24.0748 30.5317 22.2947 30.9091 19.8237V16.4455H20.9495L20.9662 31.0909V34.5383C19.9538 35.0373 18.9138 35.5229 17.8586 36V0Z" fill="url(#paint1_radial_602_14285)"/>
<defs>
<radialGradient id="paint0_radial_602_14285" cx="0" cy="0" r="1" gradientUnits="userSpaceOnUse" gradientTransform="rotate(46.6366) scale(49.5177 49.4369)">
<stop stop-color="#FCB045"/>
<stop offset="0.412582" stop-color="#FD1D1D"/>
<stop offset="0.905083" stop-color="#833AB4"/>
</radialGradient>
<radialGradient id="paint1_radial_602_14285" cx="0" cy="0" r="1" gradientUnits="userSpaceOnUse" gradientTransform="rotate(46.6366) scale(49.5177 49.4369)">
<stop stop-color="#FCB045"/>
<stop offset="0.412582" stop-color="#FD1D1D"/>
<stop offset="0.905083" stop-color="#833AB4"/>
</radialGradient>
</defs>
</svg>
