<svg xmlns="http://www.w3.org/2000/svg" width="80" height="80" fill="none"><path fill="#6F36BC" d="M11.87 45.83h5.37V49H7.76V32.15h4.1v13.68zm15.3 3.34c-1.6 0-3.04-.37-4.37-1.1a8.4 8.4 0 1-3.14-3.07 NaNc-.84 NaN-1.23 NaN-1.23 NaN 0 NaN.4 NaN 1.16 NaNa8.4 8.4 0 13.14-3.07 NaN NaNcNaN NaN NaN NaN NaN NaN NaN NaN NaN NaN NaN NaNa8 8 0 13.12 3.07 NaN NaNcNaN NaN NaN NaN NaN NaN NaN NaN NaN NaN NaN NaNa8.22 8.22 0 1-3.12 NaN NaNcNaN NaN NaN NaN NaN NaNzm0-3.75c1.34 0 2.4-.44 3.2-1.34.83-.9 1.24-2.08 1.24-3.55 0-1.5-.4-2.67-1.22-3.55-.8-.9-1.87-1.35-3.2-1.35-1.37 0-2.46.44-3.28 1.32-.8.88-1.2 2.07-1.2 3.58 0 1.5.4 2.68 1.2 3.57.82.88 1.9 1.32 3.27 1.32zm22.08-7.94a2.98 2.98 0 0-1.32-1.27 NaNc-.6 NaN-1.27 NaN-2.04 NaN-1.33 NaN-2.4 NaN-3.2 NaN-.8 NaN-1.2 NaN-1.2 NaN 0 NaN.42 NaN 1.25 NaN.84 NaN 2 NaN 3.47 NaN 1 NaN 1.86 NaN 2.55 NaN.7 NaN 1.2 NaN 1.53 NaNh-5.2vNaNh8.92vNaNc-.3 NaN-.82 NaN-1.56 NaN-.7 NaN-1.63 NaN-2.75 NaN-1.12 NaN-2.38 NaN-3.8 NaN-1.65 NaN-3.14 NaN-4.45 NaNa7.97 7.97 0 1-3.05-3.05 NaNc-.72 NaN-1.08 NaN-1.08 NaN 0 NaN.36 NaN 1.08 NaNa7.76 7.76 0 13.05-3.05 NaN NaNcNaN NaN NaN NaN NaN NaN NaN NaN NaN NaN NaN NaN NaN NaN NaN NaN NaN NaNhNaNzm15.06 11.7c-1.57 0-3.02-.38-4.35-1.12a8.4 8.4 0 1-3.14-3.08 NaNc-.84 NaN-1.22 NaN-1.22 NaN 0 NaN.38 NaN 1.15 NaNa8.4 8.4 0 13.14-3.07 NaN NaNcNaN NaN NaN NaN NaN NaN NaN NaN NaN NaN NaN NaNa8 8 0 13.12 3.07 NaN NaNcNaN NaN NaN NaN NaN NaN NaN NaN NaN NaN NaN NaNa8.22 8.22 0 1-3.12 NaN NaNcNaN NaN NaN NaN NaN NaNzm.02-3.76c1.34 0 2.4-.44 3.2-1.34.83-.9 1.23-2.08 1.23-3.55 0-1.5-.4-2.67-1.22-3.55-.8-.9-1.87-1.35-3.22-1.35-1.34 0-2.43.44-3.25 1.32-.8.88-1.2 2.07-1.2 3.58 0 1.5.4 2.68 1.2 3.57.82.88 1.9 1.32 3.26 1.32z"/><circle cx="40" cy="40" r="38" stroke="#6F36BC" stroke-width="4"/></svg>