<svg xmlns="http://www.w3.org/2000/svg" width="48" height="48" fill="none"><path fill="#6F36BC" d="M10.33 27.42h2.7V29H8.27v-8.42h2.05v6.84zm7.65 1.66a4.43 4.43 0 01-2.18-.55A4.2 4.2 0 0114.23 27a4.39 4.39 0 01-.58-2.24c0-.82.2-1.56.58-2.22a4.2 4.2 0 011.57-1.53 4.43 4.43 0 012.18-.55c.8 0 1.52.18 2.18.55a4 4 0 011.56 1.53c.38.66.57 1.4.57 2.22 0 .83-.2 1.57-.57 2.24a4.1 4.1 0 01-1.56 1.53 4.36 4.36 0 01-2.18.55zm0-1.87c.68 0 1.21-.22 1.61-.67.41-.45.61-1.04.61-1.78s-.2-1.33-.6-1.77c-.4-.45-.94-.67-1.62-.67-.68 0-1.22.22-1.63.66-.4.44-.6 1.03-.6 1.78s.2 1.34.6 1.8c.41.43.95.65 1.63.65zm11.04-3.97a1.5 1.5 0 00-.66-.64 2.06 2.06 0 00-1-.22c-.65 0-1.19.22-1.59.66-.4.43-.6 1-.6 1.74 0 .77.21 1.38.63 1.82.42.43 1 .65 1.74.65.5 0 .92-.13 1.27-.39.35-.25.6-.62.77-1.1h-2.6v-1.51h4.46v1.9a3.98 3.98 0 01-.78 1.43c-.36.44-.82.8-1.38 1.07-.56.27-1.2.41-1.9.41-.83 0-1.58-.18-2.23-.54A3.98 3.98 0 0123.62 27a4.5 4.5 0 01-.54-2.22c0-.84.18-1.58.54-2.22a3.88 3.88 0 011.53-1.53 4.42 4.42 0 012.22-.55c1 0 1.85.24 2.54.73.7.49 1.16 1.17 1.38 2.03h-2.27zm7.54 5.84a4.43 4.43 0 01-2.19-.55A4.2 4.2 0 0132.8 27a4.38 4.38 0 01-.57-2.24c0-.82.19-1.56.57-2.22a4.2 4.2 0 011.57-1.53 4.43 4.43 0 012.19-.55c.79 0 1.51.18 2.17.55a4 4 0 011.56 1.53c.38.66.58 1.4.58 2.22 0 .83-.2 1.57-.58 2.24a4.1 4.1 0 01-1.56 1.53 4.36 4.36 0 01-2.17.55zm0-1.87c.67 0 1.2-.22 1.6-.67.41-.45.62-1.04.62-1.78s-.2-1.33-.61-1.77c-.4-.45-.94-.67-1.61-.67-.68 0-1.23.22-1.63.66-.4.44-.6 1.03-.6 1.78s.2 1.34.6 1.8c.4.43.95.65 1.63.65z"/><circle cx="24" cy="24" r="22" stroke="#6F36BC" stroke-width="4"/></svg>