<svg width="32" height="42" viewBox="0 0 32 42" fill="none" xmlns="http://www.w3.org/2000/svg">
<path d="M10.8251 11.8C12.5064 11.8 13.9711 12.0773 15.2191 12.632C16.4671 13.1867 17.4291 13.984 18.1051 15.024C18.7811 16.064 19.1191 17.2773 19.1191 18.664C19.1191 20.0507 18.7811 21.264 18.1051 22.304C17.4291 23.344 16.4671 24.1413 15.2191 24.696C13.9711 25.2507 12.5064 25.528 10.8251 25.528H8.19906V30H2.06305V11.8H10.8251ZM10.4351 20.796C11.2671 20.796 11.8911 20.614 12.3071 20.25C12.7231 19.8687 12.9311 19.34 12.9311 18.664C12.9311 17.988 12.7231 17.468 12.3071 17.104C11.8911 16.7227 11.2671 16.532 10.4351 16.532H8.19906V20.796H10.4351Z" fill="#562FFF"/>
<rect x="19.5" y="25.5" width="6" height="6" rx="3" stroke="#562FFF" stroke-width="3"/>
</svg>
