<svg width="240" height="254" fill="none" xmlns="http://www.w3.org/2000/svg"><g filter="url(#filter0_dd)"><circle cx="120" cy="127" r="60" fill="#0B0D19"/></g><g filter="url(#filter1_dd)"><circle cx="120" cy="127" r="51" stroke="#0B0D19" stroke-opacity=".01" stroke-width="6"/></g><g filter="url(#filter2_iif)"><circle cx="120" cy="127" r="54" stroke="#0B0D19" stroke-width="12"/></g><g filter="url(#filter3_d)"><path d="M162.702 93.936a54.004 54.004 0 00-34.221-20.238" stroke="transparent" stroke-width="6" stroke-linecap="round"/></g><g filter="url(#filter4_d)"><path d="M170.396 146.071a53.995 53.995 0 00.416-39.756" stroke="transparent" stroke-width="6" stroke-linecap="round"/></g><g filter="url(#filter5_d)"><path d="M128.728 180.168a54.006 54.006 0 0034.637-19.517" stroke="transparent" stroke-width="6" stroke-linecap="round"/></g><g filter="url(#filter6_d)"><path d="M78.365 161.13a53.995 53.995 0 0034.221 20.238" stroke="transparent" stroke-width="6" stroke-linecap="round"/></g><g filter="url(#filter7_d)"><path d="M69.67 107.996a53.999 53.999 0 00-.416 39.755" stroke="transparent" stroke-width="6" stroke-linecap="round"/></g><g filter="url(#filter8_d)"><path d="M111.339 73.899a54 54 0 00-34.638 19.517" stroke="transparent" stroke-width="6" stroke-linecap="round"/></g><path d="M126 111v33h-9.119v-26.871H109V111h17z" fill="transparent"/><path d="M133 135.882V142h-24.517v-4.867l12.513-11.818c1.329-1.267 2.225-2.349 2.688-3.245.464-.927.696-1.838.696-2.734 0-1.298-.448-2.287-1.344-2.967-.865-.71-2.148-1.066-3.847-1.066-1.421 0-2.704.278-3.847.835-1.143.525-2.101 1.328-2.873 2.41L107 115.025c1.267-1.885 3.012-3.352 5.237-4.403 2.225-1.081 4.774-1.622 7.647-1.622 2.41 0 4.511.402 6.303 1.205 1.823.773 3.229 1.885 4.218 3.337 1.019 1.421 1.529 3.105 1.529 5.052a11.32 11.32 0 01-1.112 4.959c-.742 1.545-2.179 3.307-4.31 5.284l-7.462 7.045H133z" fill="transparent"/><path d="M123.131 123.209c2.863.464 5.057 1.53 6.582 3.198 1.525 1.638 2.287 3.677 2.287 6.118a9.758 9.758 0 01-1.494 5.238c-.996 1.575-2.52 2.842-4.574 3.8-2.023.958-4.512 1.437-7.469 1.437-2.303 0-4.574-.294-6.815-.881-2.209-.618-4.092-1.483-5.648-2.595l2.941-5.747c1.245.927 2.676 1.653 4.294 2.178 1.65.494 3.33.742 5.041.742 1.899 0 3.392-.356 4.482-1.066 1.089-.742 1.633-1.777 1.633-3.106 0-2.657-2.038-3.986-6.115-3.986h-3.454v-4.959l6.722-7.555h-13.91V110h22.872v4.867l-7.375 8.342z" fill="transparent"/><path d="M134 136.07h-5.445V143h-7.547v-6.93H103v-5.139L118.763 110h8.12l-14.616 19.847h8.98v-6.176h7.308v6.176H134v6.223z" fill="transparent"/><path d="M118.534 123.19c4.597 0 7.983.911 10.158 2.734 2.205 1.823 3.308 4.264 3.308 7.323 0 1.978-.497 3.785-1.491 5.423-.994 1.607-2.516 2.904-4.566 3.893-2.019.958-4.52 1.437-7.502 1.437-2.299 0-4.566-.294-6.803-.881-2.206-.618-4.085-1.483-5.638-2.595l2.982-5.747c1.243.927 2.672 1.653 4.287 2.178a16.95 16.95 0 004.985.742c1.895 0 3.386-.371 4.474-1.113 1.087-.741 1.63-1.776 1.63-3.105 0-1.391-.574-2.441-1.724-3.152-1.118-.71-3.075-1.066-5.871-1.066h-8.34L110.1 111h19.896v6.025h-13.605l-.513 6.165h2.656z" fill="transparent"/><path d="M120.742 122.443c2.087 0 3.986.411 5.699 1.231 1.713.82 3.068 1.99 4.064 3.51.997 1.489 1.495 3.221 1.495 5.196 0 2.127-.545 3.996-1.635 5.606-1.09 1.611-2.585 2.857-4.484 3.738-1.869.851-3.955 1.276-6.26 1.276-4.578 0-8.159-1.367-10.744-4.102-2.585-2.735-3.877-6.64-3.877-11.714 0-3.616.701-6.716 2.102-9.299 1.401-2.583 3.348-4.542 5.839-5.879 2.523-1.337 5.434-2.006 8.735-2.006 1.744 0 3.411.198 4.999.593 1.619.364 2.989.896 4.11 1.595l-2.802 5.424c-1.62-1.064-3.659-1.595-6.12-1.595-2.771 0-4.967.79-6.586 2.37-1.62 1.58-2.492 3.874-2.616 6.882 1.931-1.884 4.624-2.826 8.081-2.826zm-1.541 15.042c1.619 0 2.927-.426 3.924-1.276 1.027-.851 1.541-2.006 1.541-3.465 0-1.458-.514-2.613-1.541-3.464-.997-.881-2.336-1.321-4.018-1.321-1.65 0-3.005.455-4.064 1.367-1.059.881-1.588 2.021-1.588 3.418 0 1.398.514 2.538 1.542 3.419 1.027.881 2.429 1.322 4.204 1.322z" fill="transparent"/><defs><filter id="filter0_dd" x="0" y="0" width="240" height="254" filterUnits="userSpaceOnUse" color-interpolation-filters="sRGB"><feFlood flood-opacity="0" result="BackgroundImageFix"/><feColorMatrix in="SourceAlpha" values="0 0 0 0 0 0 0 0 0 0 0 0 0 0 0 0 0 0 127 0"/><feOffset dx="20" dy="27"/><feGaussianBlur stdDeviation="20"/><feColorMatrix values="0 0 0 0 0.0156863 0 0 0 0 0.0196078 0 0 0 0 0.054902 0 0 0 0.17 0"/><feBlend in2="BackgroundImageFix" result="effect1_dropShadow"/><feColorMatrix in="SourceAlpha" values="0 0 0 0 0 0 0 0 0 0 0 0 0 0 0 0 0 0 127 0"/><feOffset dx="-20" dy="-27"/><feGaussianBlur stdDeviation="20"/><feColorMatrix values="0 0 0 0 0.137255 0 0 0 0 0.129412 0 0 0 0 0.227451 0 0 0 0.35 0"/><feBlend in2="effect1_dropShadow" result="effect2_dropShadow"/><feBlend in="SourceGraphic" in2="effect2_dropShadow" result="shape"/></filter><filter id="filter1_dd" x="10" y="24" width="200" height="188" filterUnits="userSpaceOnUse" color-interpolation-filters="sRGB"><feFlood flood-opacity="0" result="BackgroundImageFix"/><feColorMatrix in="SourceAlpha" values="0 0 0 0 0 0 0 0 0 0 0 0 0 0 0 0 0 0 127 0"/><feOffset dx="-16" dy="-9"/><feGaussianBlur stdDeviation="20"/><feColorMatrix values="0 0 0 0 0.209896 0 0 0 0 0.150694 0 0 0 0 0.258333 0 0 0 0.8 0"/><feBlend in2="BackgroundImageFix" result="effect1_dropShadow"/><feColorMatrix in="SourceAlpha" values="0 0 0 0 0 0 0 0 0 0 0 0 0 0 0 0 0 0 127 0"/><feOffset dx="16" dy="8"/><feGaussianBlur stdDeviation="10"/><feColorMatrix values="0 0 0 0 0.0156863 0 0 0 0 0.0196078 0 0 0 0 0.054902 0 0 0 1 0"/><feBlend in2="effect1_dropShadow" result="effect2_dropShadow"/><feBlend in="SourceGraphic" in2="effect2_dropShadow" result="shape"/></filter><filter id="filter2_iif" x="57" y="64" width="127" height="127" filterUnits="userSpaceOnUse" color-interpolation-filters="sRGB"><feFlood flood-opacity="0" result="BackgroundImageFix"/><feBlend in="SourceGraphic" in2="BackgroundImageFix" result="shape"/><feColorMatrix in="SourceAlpha" values="0 0 0 0 0 0 0 0 0 0 0 0 0 0 0 0 0 0 127 0" result="hardAlpha"/><feOffset dx="4" dy="4"/><feGaussianBlur stdDeviation="2.5"/><feComposite in2="hardAlpha" operator="arithmetic" k2="-1" k3="1"/><feColorMatrix values="0 0 0 0 0 0 0 0 0 0.00654762 0 0 0 0 0.0458333 0 0 0 0.47 0"/><feBlend in2="shape" result="effect1_innerShadow"/><feColorMatrix in="SourceAlpha" values="0 0 0 0 0 0 0 0 0 0 0 0 0 0 0 0 0 0 127 0" result="hardAlpha"/><feOffset dx="-3" dy="-3"/><feGaussianBlur stdDeviation="2.5"/><feComposite in2="hardAlpha" operator="arithmetic" k2="-1" k3="1"/><feColorMatrix values="0 0 0 0 0.204554 0 0 0 0 0.155069 0 0 0 0 0.241667 0 0 0 0.1 0"/><feBlend in2="effect1_innerShadow" result="effect2_innerShadow"/><feGaussianBlur stdDeviation=".5" result="effect3_foregroundBlur"/></filter><filter id="filter3_d" x="105.48" y="50.698" width="80.222" height="66.239" filterUnits="userSpaceOnUse" color-interpolation-filters="sRGB"><feFlood flood-opacity="0" result="BackgroundImageFix"/><feColorMatrix in="SourceAlpha" values="0 0 0 0 0 0 0 0 0 0 0 0 0 0 0 0 0 0 127 0"/><feOffset/><feGaussianBlur stdDeviation="10"/><feColorMatrix values="0 0 0 0 0.670588 0 0 0 0 0.470588 0 0 0 0 1 0 0 0 1 0"/><feBlend in2="BackgroundImageFix" result="effect1_dropShadow"/><feBlend in="SourceGraphic" in2="effect1_dropShadow" result="shape"/></filter><filter id="filter4_d" x="147.395" y="83.315" width="50.004" height="85.757" filterUnits="userSpaceOnUse" color-interpolation-filters="sRGB"><feFlood flood-opacity="0" result="BackgroundImageFix"/><feColorMatrix in="SourceAlpha" values="0 0 0 0 0 0 0 0 0 0 0 0 0 0 0 0 0 0 127 0"/><feOffset/><feGaussianBlur stdDeviation="10"/><feColorMatrix values="0 0 0 0 0.670588 0 0 0 0 0.470588 0 0 0 0 1 0 0 0 1 0"/><feBlend in2="BackgroundImageFix" result="effect1_dropShadow"/><feBlend in="SourceGraphic" in2="effect1_dropShadow" result="shape"/></filter><filter id="filter5_d" x="105.727" y="137.65" width="80.638" height="65.517" filterUnits="userSpaceOnUse" color-interpolation-filters="sRGB"><feFlood flood-opacity="0" result="BackgroundImageFix"/><feColorMatrix in="SourceAlpha" values="0 0 0 0 0 0 0 0 0 0 0 0 0 0 0 0 0 0 127 0"/><feOffset/><feGaussianBlur stdDeviation="10"/><feColorMatrix values="0 0 0 0 0.670588 0 0 0 0 0.470588 0 0 0 0 1 0 0 0 1 0"/><feBlend in2="BackgroundImageFix" result="effect1_dropShadow"/><feBlend in="SourceGraphic" in2="effect1_dropShadow" result="shape"/></filter><filter id="filter6_d" x="55.365" y="138.13" width="80.222" height="66.239" filterUnits="userSpaceOnUse" color-interpolation-filters="sRGB"><feFlood flood-opacity="0" result="BackgroundImageFix"/><feColorMatrix in="SourceAlpha" values="0 0 0 0 0 0 0 0 0 0 0 0 0 0 0 0 0 0 127 0"/><feOffset/><feGaussianBlur stdDeviation="10"/><feColorMatrix values="0 0 0 0 0.670588 0 0 0 0 0.470588 0 0 0 0 1 0 0 0 1 0"/><feBlend in2="BackgroundImageFix" result="effect1_dropShadow"/><feBlend in="SourceGraphic" in2="effect1_dropShadow" result="shape"/></filter><filter id="filter7_d" x="42.667" y="84.995" width="50.004" height="85.757" filterUnits="userSpaceOnUse" color-interpolation-filters="sRGB"><feFlood flood-opacity="0" result="BackgroundImageFix"/><feColorMatrix in="SourceAlpha" values="0 0 0 0 0 0 0 0 0 0 0 0 0 0 0 0 0 0 127 0"/><feOffset/><feGaussianBlur stdDeviation="10"/><feColorMatrix values="0 0 0 0 0.670588 0 0 0 0 0.470588 0 0 0 0 1 0 0 0 1 0"/><feBlend in2="BackgroundImageFix" result="effect1_dropShadow"/><feBlend in="SourceGraphic" in2="effect1_dropShadow" result="shape"/></filter><filter id="filter8_d" x="53.701" y="50.898" width="80.638" height="65.517" filterUnits="userSpaceOnUse" color-interpolation-filters="sRGB"><feFlood flood-opacity="0" result="BackgroundImageFix"/><feColorMatrix in="SourceAlpha" values="0 0 0 0 0 0 0 0 0 0 0 0 0 0 0 0 0 0 127 0"/><feOffset/><feGaussianBlur stdDeviation="10"/><feColorMatrix values="0 0 0 0 0.670588 0 0 0 0 0.470588 0 0 0 0 1 0 0 0 1 0"/><feBlend in2="BackgroundImageFix" result="effect1_dropShadow"/><feBlend in="SourceGraphic" in2="effect1_dropShadow" result="shape"/></filter></defs></svg>