<svg width="307" height="303" fill="none" xmlns="http://www.w3.org/2000/svg"><path opacity=".4" d="M93 47v121.5m0 0l157.5 64M93 168.5l-91.5 44" stroke="#241838" stroke-width="2" stroke-linecap="round" stroke-linejoin="round"/><g filter="url(#filter0_f)"><path fill-rule="evenodd" clip-rule="evenodd" d="M92.933 256.456c-2.56-1.478-6.71-1.478-9.27 0l-1.159.669c-3.2 1.847-3.2 4.843 0 6.69 3.2 1.847 8.388 1.847 11.588 0l1.16-.669c2.559-1.478 2.559-3.874 0-5.352l-2.319-1.338zm10.447-12.869l-.275.157-7.725 4.46c-3.91 2.258-3.91 5.919 0 8.177 3.911 2.258 10.252 2.258 14.163 0l7.726-4.46c.142-.082.213-.123.272-.159 1.441-.861 2.315-1.919 2.624-3.021.112-.05.219-.106.322-.165l16.739-9.664c1.422-.821 1.422-2.152 0-2.973-1.423-.822-3.728-.822-5.151 0l-14.18 8.187a8.578 8.578 0 00-.354-.223c-.059-.036-.13-.077-.272-.159l-.275-.157a10.12 10.12 0 00-.386-.205l14.18-8.187c1.422-.821 1.422-2.152 0-2.973-1.422-.821-3.728-.821-5.15 0l-16.739 9.664a2.939 2.939 0 00-.286.186c-1.908.178-3.742.683-5.233 1.515z" fill="#0A0D1D"/></g><path fill-rule="evenodd" clip-rule="evenodd" d="M131.324 190.592a5.353 5.353 0 01-5.352-5.353v-1.338a6.69 6.69 0 0113.381 0v1.338a5.353 5.353 0 01-5.352 5.353h-2.677zm-6.837 18.9c-.002-.069-.002-.152-.002-.316v-8.921a8.177 8.177 0 018.177-8.177 8.177 8.177 0 018.178 8.177v8.921c0 .164 0 .247-.002.316a7.965 7.965 0 01-1.506 4.536c.014.115.021.233.021.352v19.327a2.974 2.974 0 11-5.947 0v-16.374c-.142.01-.284.016-.427.019l-.317.001-.316-.001a8.6 8.6 0 01-.427-.019v16.374a2.974 2.974 0 11-5.947 0V214.38c0-.119.007-.237.021-.352a7.965 7.965 0 01-1.506-4.536z" fill="#33334C"/><path fill-rule="evenodd" clip-rule="evenodd" d="M129.838 192.08a5.352 5.352 0 01-5.352-5.352v-1.338a6.69 6.69 0 1113.38 0v1.338a5.352 5.352 0 01-5.352 5.352h-2.676zM123 210.98l-.001-.316v-8.92a8.177 8.177 0 0116.354 0v8.92l-.001.316a7.977 7.977 0 01-1.506 4.536c.013.115.02.233.02.352v19.327a2.973 2.973 0 11-5.947 0v-16.374c-.141.01-.284.017-.427.019l-.316.001-.316-.001a7.573 7.573 0 01-.428-.019v16.374a2.973 2.973 0 11-5.946 0v-19.327c0-.119.007-.237.02-.352A7.962 7.962 0 01123 210.98z" fill="#1D1D2D"/><g filter="url(#filter1_f)"><path fill-rule="evenodd" clip-rule="evenodd" d="M68.51 261.245c-2.56-1.478-6.71-1.478-9.27 0l-1.159.669c-3.2 1.847-3.2 4.843 0 6.69 3.2 1.848 8.388 1.848 11.588 0l1.16-.669c2.56-1.478 2.56-3.874 0-5.352l-2.318-1.338zm10.447-12.869l-.274.157-7.726 4.46c-3.91 2.258-3.91 5.919 0 8.177 3.911 2.258 10.252 2.258 14.163 0l7.726-4.46c.142-.082.213-.123.272-.159 1.44-.86 2.315-1.919 2.624-3.021.112-.05.22-.106.322-.165l16.739-9.664c1.422-.821 1.422-2.152 0-2.973-1.422-.821-3.728-.821-5.151 0l-14.18 8.187a8.433 8.433 0 00-.353-.223 21.727 21.727 0 00-.548-.316 9.56 9.56 0 00-.386-.205l14.18-8.187c1.422-.821 1.422-2.152 0-2.973-1.422-.821-3.728-.821-5.15 0l-16.739 9.664a2.963 2.963 0 00-.286.186c-1.908.178-3.742.683-5.233 1.515z" fill="#0A0D1D"/></g><path fill-rule="evenodd" clip-rule="evenodd" d="M106.902 195.381a5.353 5.353 0 01-5.353-5.353v-1.338a6.69 6.69 0 0113.381 0v1.338a5.353 5.353 0 01-5.352 5.353h-2.676zm-6.838 18.9c-.002-.069-.002-.152-.002-.316v-8.92a8.178 8.178 0 0116.355 0v8.92c0 .164 0 .247-.002.316a7.965 7.965 0 01-1.506 4.536c.014.115.021.233.021.352v19.327a2.974 2.974 0 11-5.947 0v-16.374a8.6 8.6 0 01-.427.019l-.316.001-.317-.001a8.654 8.654 0 01-.427-.019v16.374a2.974 2.974 0 11-5.947 0v-19.327c0-.119.007-.237.021-.352a7.965 7.965 0 01-1.506-4.536z" fill="#33334C"/><path fill-rule="evenodd" clip-rule="evenodd" d="M105.415 196.869a5.352 5.352 0 01-5.352-5.352v-1.338a6.69 6.69 0 1113.38 0v1.338a5.352 5.352 0 01-5.352 5.352h-2.676zm-6.838 18.9l-.001-.316v-8.92a8.177 8.177 0 0116.354 0v8.92l-.001.316a7.97 7.97 0 01-1.506 4.536c.013.115.02.233.02.352v19.328a2.973 2.973 0 11-5.947 0V223.61c-.141.01-.283.017-.427.019l-.316.001-.316-.001a7.496 7.496 0 01-.427-.019v16.375a2.974 2.974 0 01-5.947 0v-19.328c0-.119.007-.237.02-.352a7.969 7.969 0 01-1.506-4.536z" fill="#1D1D2D"/><g filter="url(#filter2_f)"><path fill-rule="evenodd" clip-rule="evenodd" d="M100.511 290.245c-2.56-1.478-6.71-1.478-9.27 0l-1.16.669c-3.2 1.847-3.2 4.843 0 6.69 3.2 1.848 8.388 1.848 11.588 0l1.159-.669c2.56-1.478 2.56-3.874 0-5.352l-2.317-1.338zm10.446-12.869l-.274.157-7.726 4.46c-3.91 2.258-3.91 5.919 0 8.177 3.911 2.258 10.252 2.258 14.163 0l7.726-4.46.273-.159c1.44-.86 2.314-1.919 2.623-3.021.112-.05.219-.106.322-.165l16.739-9.664c1.422-.821 1.422-2.152 0-2.973-1.422-.821-3.728-.821-5.151 0l-14.18 8.187a9.262 9.262 0 00-.353-.223l-.273-.159-.275-.157a9.419 9.419 0 00-.386-.205l14.18-8.187c1.422-.821 1.422-2.152 0-2.973-1.422-.821-3.728-.821-5.15 0l-16.738 9.664a2.84 2.84 0 00-.287.186c-1.908.178-3.741.683-5.233 1.515z" fill="#0A0D1D"/></g><path fill-rule="evenodd" clip-rule="evenodd" d="M138.902 224.381a5.353 5.353 0 01-5.353-5.353v-1.338a6.69 6.69 0 0113.381 0v1.338a5.353 5.353 0 01-5.352 5.353h-2.676zm-6.838 18.9c-.002-.069-.002-.152-.002-.316v-8.92a8.178 8.178 0 0116.355 0v8.92c0 .164 0 .247-.002.316a7.965 7.965 0 01-1.506 4.536c.014.115.021.233.021.352v19.327a2.974 2.974 0 11-5.947 0v-16.374a8.6 8.6 0 01-.427.019l-.316.001-.317-.001a8.654 8.654 0 01-.427-.019v16.374a2.974 2.974 0 11-5.947 0v-19.327c0-.119.007-.237.021-.352a7.965 7.965 0 01-1.506-4.536z" fill="#33334C"/><path fill-rule="evenodd" clip-rule="evenodd" d="M137.415 225.869a5.352 5.352 0 01-5.352-5.352v-1.338a6.69 6.69 0 1113.38 0v1.338a5.352 5.352 0 01-5.352 5.352h-2.676zm-6.838 18.9l-.001-.316v-8.92a8.177 8.177 0 0116.354 0v8.92l-.001.316a7.97 7.97 0 01-1.506 4.536c.013.115.02.233.02.352v19.328a2.973 2.973 0 11-5.947 0V252.61c-.141.01-.283.017-.427.019l-.316.001-.316-.001a7.496 7.496 0 01-.427-.019v16.375a2.974 2.974 0 01-5.947 0v-19.328c0-.119.007-.237.02-.352a7.97 7.97 0 01-1.506-4.536z" fill="#1D1D2D"/><path d="M128.484 79.21a2.06 2.06 0 011.346.046l94.708 36.448c2.481.955 3.722 1.432 4.425 2.455.702 1.023.702 2.353.702 5.011v69.927c0 .935 0 1.403-.194 1.811-.194.407-.557.702-1.282 1.293l-1.712 1.391c-.432.351-.648.527-.909.57-.262.044-.523-.053-1.045-.245l-21.618-7.982c-2.617-.966-3.925-1.449-5.158-2.092-1.234-.642-2.38-1.436-4.672-3.026l-56.643-39.272c-6.745-4.676-10.117-7.014-11.942-10.5-1.825-3.486-1.825-7.59-1.825-15.797v-32.16a8.243 8.243 0 015.819-7.878z" fill="#241838"/><path d="M122.665 85.324c0-2.643 0-3.965.868-4.56.867-.596 2.101-.122 4.568.827l93.436 35.937c2.482.954 3.723 1.431 4.425 2.455.703 1.023.703 2.352.703 5.011v68.682c0 2.643 0 3.965-.868 4.561-.867.596-2.101.121-4.568-.828l-93.436-35.937c-2.482-.954-3.722-1.431-4.425-2.455-.703-1.023-.703-2.352-.703-5.011V85.324z" fill="#F6F0FF"/><g filter="url(#filter4_f)"><path d="M175.315 295.142a12.248 12.248 0 01-4.986 1.627l-4.708.47a4.38 4.38 0 01-2.704-8.107L175 281.82h.033c.092.571.376 1.131.842 1.661.578.656 1.425 1.253 2.493 1.755 1.068.502 2.336.901 3.731 1.173 1.395.271 2.891.411 4.401.411 1.51 0 3.006-.14 4.401-.411 1.395-.272 2.663-.671 3.731-1.173s1.915-1.099 2.493-1.755c.466-.53.75-1.09.842-1.661H198l-22.685 13.322z" fill="#0A0D1D"/></g><path fill-rule="evenodd" clip-rule="evenodd" d="M198 262.82h-23v19h.033c.092.571.376 1.131.842 1.661.578.656 1.425 1.253 2.493 1.755 1.068.502 2.336.901 3.731 1.173 1.395.271 2.891.411 4.401.411 1.51 0 3.006-.14 4.401-.411 1.395-.272 2.663-.671 3.731-1.173s1.915-1.099 2.493-1.755c.466-.53.75-1.09.842-1.661H198v-19z" fill="#202037"/><ellipse cx="186.5" cy="262.409" rx="11.5" ry="5.409" fill="#2B2B47"/><ellipse cx="186.5" cy="262.5" rx="8.5" ry="3.5" fill="#202037"/><path d="M183.393 264c2.243-6.8-11.214-17-7.85-34-1.122 10.2 11.214 31.733 13.457 34h-5.607z" fill="url(#paint0_linear)"/><path d="M183.182 264c-4.635-5.588-8.708-7.824-8.126-19 1.745 8.941 11.617 16.765 13.944 19h-5.818z" fill="url(#paint1_linear)"/><g filter="url(#filter7_d)"><path d="M189.978 264c4.762-5.714 5.436-4.571 4.838-16-1.793 9.143-8.425 13.714-10.816 16h5.978z" fill="url(#paint2_linear)"/></g><g filter="url(#filter8_d)"><path d="M189.8 264c-2.32-6.96 5.799-11.6 2.32-29 1.16 10.44-5.8 26.68-8.12 29h5.8z" fill="url(#paint3_linear)"/></g><g filter="url(#filter9_d)"><path d="M190 264c-2.4-6.811 1.8-9.649-3-21 0 10.784-.6 18.73-3 21h6z" fill="url(#paint4_linear)"/></g><g filter="url(#filter10_d)"><path d="M190 264c-2.494-6.909-4.987-6.333-6.857-19-3.741 10.939 3.117 16.697.623 19H190z" fill="url(#paint5_linear)"/></g><g filter="url(#filter11_d)"><path d="M190 264c-2.403-6.764-3.605-18.6-3.605-31-3.604 10.145 1.202 28.745-1.201 31H190z" fill="url(#paint6_linear)"/></g><ellipse cx="186.5" cy="262.5" rx="8.5" ry="3.5" fill="#202037"/><defs><filter id="filter1_f" x="51.681" y="232.395" width="66.188" height="41.595" filterUnits="userSpaceOnUse" color-interpolation-filters="sRGB"><feFlood flood-opacity="0" result="BackgroundImageFix"/><feBlend in="SourceGraphic" in2="BackgroundImageFix" result="shape"/><feGaussianBlur stdDeviation="2" result="effect1_foregroundBlur"/></filter><filter id="filter9_d" x="180" y="239" width="14" height="29" filterUnits="userSpaceOnUse" color-interpolation-filters="sRGB"><feFlood flood-opacity="0" result="BackgroundImageFix"/><feColorMatrix in="SourceAlpha" values="0 0 0 0 0 0 0 0 0 0 0 0 0 0 0 0 0 0 127 0"/><feOffset/><feGaussianBlur stdDeviation="2"/><feColorMatrix values="0 0 0 0 0.0509804 0 0 0 0 0.0627451 0 0 0 0 0.121569 0 0 0 0.2 0"/><feBlend in2="BackgroundImageFix" result="effect1_dropShadow"/><feBlend in="SourceGraphic" in2="effect1_dropShadow" result="shape"/></filter><filter id="filter2_f" x="83.681" y="261.395" width="66.188" height="41.595" filterUnits="userSpaceOnUse" color-interpolation-filters="sRGB"><feFlood flood-opacity="0" result="BackgroundImageFix"/><feBlend in="SourceGraphic" in2="BackgroundImageFix" result="shape"/><feGaussianBlur stdDeviation="2" result="effect1_foregroundBlur"/></filter><filter id="filter3_d" x="42.665" y=".5" width="264" height="278" filterUnits="userSpaceOnUse" color-interpolation-filters="sRGB"><feFlood flood-opacity="0" result="BackgroundImageFix"/><feColorMatrix in="SourceAlpha" values="0 0 0 0 0 0 0 0 0 0 0 0 0 0 0 0 0 0 127 0"/><feOffset/><feGaussianBlur stdDeviation="40"/><feColorMatrix values="0 0 0 0 1 0 0 0 0 1 0 0 0 0 1 0 0 0 0.5 0"/><feBlend in2="BackgroundImageFix" result="effect1_dropShadow"/><feBlend in="SourceGraphic" in2="effect1_dropShadow" result="shape"/></filter><filter id="filter4_f" x="156.803" y="277.82" width="45.197" height="23.441" filterUnits="userSpaceOnUse" color-interpolation-filters="sRGB"><feFlood flood-opacity="0" result="BackgroundImageFix"/><feBlend in="SourceGraphic" in2="BackgroundImageFix" result="shape"/><feGaussianBlur stdDeviation="2" result="effect1_foregroundBlur"/></filter><filter id="filter5_d" x="171" y="226" width="22" height="42" filterUnits="userSpaceOnUse" color-interpolation-filters="sRGB"><feFlood flood-opacity="0" result="BackgroundImageFix"/><feColorMatrix in="SourceAlpha" values="0 0 0 0 0 0 0 0 0 0 0 0 0 0 0 0 0 0 127 0"/><feOffset/><feGaussianBlur stdDeviation="2"/><feColorMatrix values="0 0 0 0 0.0509804 0 0 0 0 0.0627451 0 0 0 0 0.121569 0 0 0 0.2 0"/><feBlend in2="BackgroundImageFix" result="effect1_dropShadow"/><feBlend in="SourceGraphic" in2="effect1_dropShadow" result="shape"/></filter><filter id="filter6_d" x="171" y="241" width="22" height="27" filterUnits="userSpaceOnUse" color-interpolation-filters="sRGB"><feFlood flood-opacity="0" result="BackgroundImageFix"/><feColorMatrix in="SourceAlpha" values="0 0 0 0 0 0 0 0 0 0 0 0 0 0 0 0 0 0 127 0"/><feOffset/><feGaussianBlur stdDeviation="2"/><feColorMatrix values="0 0 0 0 0.0509804 0 0 0 0 0.0627451 0 0 0 0 0.121569 0 0 0 0.2 0"/><feBlend in2="BackgroundImageFix" result="effect1_dropShadow"/><feBlend in="SourceGraphic" in2="effect1_dropShadow" result="shape"/></filter><filter id="filter7_d" x="180" y="244" width="19" height="24" filterUnits="userSpaceOnUse" color-interpolation-filters="sRGB"><feFlood flood-opacity="0" result="BackgroundImageFix"/><feColorMatrix in="SourceAlpha" values="0 0 0 0 0 0 0 0 0 0 0 0 0 0 0 0 0 0 127 0"/><feOffset/><feGaussianBlur stdDeviation="2"/><feColorMatrix values="0 0 0 0 0.0509804 0 0 0 0 0.0627451 0 0 0 0 0.121569 0 0 0 0.2 0"/><feBlend in2="BackgroundImageFix" result="effect1_dropShadow"/><feBlend in="SourceGraphic" in2="effect1_dropShadow" result="shape"/></filter><filter id="filter8_d" x="180" y="231" width="17" height="37" filterUnits="userSpaceOnUse" color-interpolation-filters="sRGB"><feFlood flood-opacity="0" result="BackgroundImageFix"/><feColorMatrix in="SourceAlpha" values="0 0 0 0 0 0 0 0 0 0 0 0 0 0 0 0 0 0 127 0"/><feOffset/><feGaussianBlur stdDeviation="2"/><feColorMatrix values="0 0 0 0 0.0509804 0 0 0 0 0.0627451 0 0 0 0 0.121569 0 0 0 0.2 0"/><feBlend in2="BackgroundImageFix" result="effect1_dropShadow"/><feBlend in="SourceGraphic" in2="effect1_dropShadow" result="shape"/></filter><filter id="filter0_f" x="76.104" y="227.605" width="66.188" height="41.595" filterUnits="userSpaceOnUse" color-interpolation-filters="sRGB"><feFlood flood-opacity="0" result="BackgroundImageFix"/><feBlend in="SourceGraphic" in2="BackgroundImageFix" result="shape"/><feGaussianBlur stdDeviation="2" result="effect1_foregroundBlur"/></filter><filter id="filter10_d" x="178" y="241" width="16" height="27" filterUnits="userSpaceOnUse" color-interpolation-filters="sRGB"><feFlood flood-opacity="0" result="BackgroundImageFix"/><feColorMatrix in="SourceAlpha" values="0 0 0 0 0 0 0 0 0 0 0 0 0 0 0 0 0 0 127 0"/><feOffset/><feGaussianBlur stdDeviation="2"/><feColorMatrix values="0 0 0 0 0.0509804 0 0 0 0 0.0627451 0 0 0 0 0.121569 0 0 0 0.2 0"/><feBlend in2="BackgroundImageFix" result="effect1_dropShadow"/><feBlend in="SourceGraphic" in2="effect1_dropShadow" result="shape"/></filter><filter id="filter11_d" x="181" y="229" width="13" height="39" filterUnits="userSpaceOnUse" color-interpolation-filters="sRGB"><feFlood flood-opacity="0" result="BackgroundImageFix"/><feColorMatrix in="SourceAlpha" values="0 0 0 0 0 0 0 0 0 0 0 0 0 0 0 0 0 0 127 0"/><feOffset/><feGaussianBlur stdDeviation="2"/><feColorMatrix values="0 0 0 0 0.0509804 0 0 0 0 0.0627451 0 0 0 0 0.121569 0 0 0 0.2 0"/><feBlend in2="BackgroundImageFix" result="effect1_dropShadow"/><feBlend in="SourceGraphic" in2="effect1_dropShadow" result="shape"/></filter><linearGradient id="paint0_linear" x1="182" y1="230" x2="182" y2="264" gradientUnits="userSpaceOnUse"><stop stop-color="#45455B"/><stop offset="1" stop-color="#202037"/></linearGradient><linearGradient id="paint1_linear" x1="175" y1="245" x2="176.911" y2="259.532" gradientUnits="userSpaceOnUse"><stop stop-color="#413753"/><stop offset="1" stop-color="#202037"/></linearGradient><linearGradient id="paint2_linear" x1="195.642" y1="248" x2="190.437" y2="259.347" gradientUnits="userSpaceOnUse"><stop stop-color="#45455B"/><stop offset="1" stop-color="#202037"/></linearGradient><linearGradient id="paint3_linear" x1="193" y1="235" x2="189.188" y2="259.572" gradientUnits="userSpaceOnUse"><stop stop-color="#413753"/><stop offset="1" stop-color="#202037"/></linearGradient><linearGradient id="paint4_linear" x1="190" y1="243" x2="187.014" y2="260.719" gradientUnits="userSpaceOnUse"><stop stop-color="#413753"/><stop offset="1" stop-color="#202037"/></linearGradient><linearGradient id="paint5_linear" x1="190" y1="245" x2="188.139" y2="261.274" gradientUnits="userSpaceOnUse"><stop stop-color="#413753"/><stop offset="1" stop-color="#202037"/></linearGradient><linearGradient id="paint6_linear" x1="187.5" y1="233" x2="187.142" y2="259.502" gradientUnits="userSpaceOnUse"><stop stop-color="#45455B"/><stop offset="1" stop-color="#202037"/></linearGradient></defs></svg>