<svg width="310" height="326" fill="none" xmlns="http://www.w3.org/2000/svg"><path fill-rule="evenodd" clip-rule="evenodd" d="M194 172h-16v62.591h16V172zm-.609 64.661c.402-.656.609-1.36.609-2.07h-16c0 .71.207 1.414.609 2.07.402.656.991 1.252 1.734 1.755.743.502 1.625.9 2.596 1.172.97.272 2.01.412 3.061.412 1.051 0 2.091-.14 3.061-.412.971-.272 1.853-.67 2.596-1.172.743-.503 1.332-1.099 1.734-1.755z" fill="#241838"/><path d="M145.892 74.811c1.292-.402 1.938-.603 2.602-.584.664.018 1.298.254 2.566.726l90.732 33.784c2.519.938 3.778 1.407 4.493 2.437.715 1.029.715 2.373.715 5.061v70.353c0 1.175 0 1.762-.287 2.239-.288.476-.807.75-1.846 1.299l-15.072 7.955c-.392.206-.587.309-.801.323-.214.014-.421-.064-.835-.219l-22.035-8.264c-2.559-.959-3.838-1.439-5.045-2.071-1.208-.632-2.33-1.411-4.576-2.968l-56.736-39.337c-6.745-4.676-10.117-7.014-11.942-10.5-1.825-3.486-1.825-7.59-1.825-15.797V83.945c0-1.42 0-2.13.389-2.658.39-.53 1.067-.74 2.423-1.162l17.08-5.314z" fill="#241838"/><g filter="url(#filter0_d)"><path d="M126 85.324c0-2.643 0-3.965.868-4.56.867-.596 2.101-.122 4.568.827l93.436 35.937c2.482.954 3.722 1.431 4.425 2.455.703 1.023.703 2.352.703 5.011v68.682c0 2.643 0 3.965-.868 4.561-.867.596-2.101.121-4.568-.828l-93.436-35.937c-2.482-.954-3.722-1.431-4.425-2.455-.703-1.023-.703-2.352-.703-5.011V85.324z" fill="#F6F0FF"/></g><path fill-rule="evenodd" clip-rule="evenodd" d="M52.808 185.43H39.972v15.243h.018c.052.458.21.908.47 1.333.323.526.796 1.005 1.392 1.408a7.204 7.204 0 002.082.941c.779.218 1.614.33 2.457.33.842 0 1.677-.112 2.456-.33a7.204 7.204 0 002.082-.941c.596-.403 1.069-.882 1.391-1.408.26-.425.42-.875.47-1.333h.018V185.43z" fill="#202037"/><g filter="url(#filter1_d)"><path fill-rule="evenodd" clip-rule="evenodd" d="M46.477 135.164c-1.737 0-2.893 2.013-5.204 6.039l-17.96 31.289c-1.819 3.169-2.917 5.082-2.86 6.484h-.003c0 2.107.674 4.194 1.981 6.141 1.308 1.946 3.225 3.715 5.641 5.205 2.417 1.49 5.286 2.672 8.443 3.479 3.157.806 6.541 1.221 9.958 1.221 3.418 0 6.802-.415 9.959-1.221 3.157-.807 6.026-1.989 8.442-3.479 2.417-1.49 4.334-3.259 5.642-5.205 1.288-1.919 1.96-3.973 1.98-6.049.11-1.411-.996-3.337-2.855-6.576l-17.96-31.289c-2.311-4.026-3.467-6.039-5.204-6.039z" fill="#33334C"/></g><g filter="url(#filter2_d)"><path fill-rule="evenodd" clip-rule="evenodd" d="M46.47 123.027c-1.73 0-2.884 1.997-5.193 5.99l-15.423 26.674c-1.802 3.117-2.902 5.019-2.892 6.418 0 1.907.608 3.796 1.788 5.558 1.18 1.762 2.911 3.363 5.093 4.712 2.18 1.348 4.77 2.418 7.62 3.148 2.85.73 5.905 1.105 8.99 1.105s6.14-.375 8.99-1.105c2.85-.73 5.44-1.8 7.62-3.148 2.182-1.349 3.913-2.95 5.093-4.712 1.087-1.622 1.688-3.351 1.777-5.103.296-1.44-.84-3.405-2.845-6.873l-15.423-26.674c-2.309-3.993-3.463-5.99-5.194-5.99z" fill="#515170"/></g><g filter="url(#filter3_d)"><path fill-rule="evenodd" clip-rule="evenodd" d="M44.758 118.023l-12.591 21.162c-1.89 3.177-3.034 5.1-3.006 6.515.011 1.395.459 2.776 1.318 4.066.87 1.307 2.146 2.494 3.754 3.494 1.609 1 3.518 1.793 5.62 2.335a26.74 26.74 0 006.628.82c2.274 0 4.526-.279 6.628-.82 2.101-.542 4.01-1.335 5.619-2.335 1.608-1 2.884-2.187 3.755-3.494.87-1.307 1.318-2.707 1.318-4.122h-.007c-.003-1.41-1.141-3.323-3.007-6.459l-12.591-21.162c-.767-1.289-1.15-1.933-1.72-1.933-.568 0-.951.644-1.718 1.933z" fill="#68688E"/></g><path fill-rule="evenodd" clip-rule="evenodd" d="M88.897 205.75h-16v19h.023c.064.57.262 1.131.586 1.661.403.656.992 1.252 1.735 1.755.743.502 1.624.9 2.595 1.172.97.272 2.01.412 3.061.412 1.051 0 2.091-.14 3.062-.412.97-.272 1.852-.67 2.595-1.172.743-.503 1.332-1.099 1.734-1.755.325-.53.523-1.091.587-1.661h.022v-19z" fill="#202037"/><g filter="url(#filter4_d)"><path fill-rule="evenodd" clip-rule="evenodd" d="M81.006 142.352c-1.737 0-2.893 2.013-5.204 6.039l-24.94 43.447c-1.876 3.27-2.985 5.202-2.851 6.616.08 2.495.929 4.96 2.506 7.267 1.658 2.427 4.089 4.631 7.153 6.489 3.064 1.857 6.702 3.33 10.706 4.335s8.295 1.523 12.629 1.523c4.333 0 8.624-.518 12.628-1.523s7.642-2.478 10.706-4.335c3.065-1.858 5.495-4.062 7.154-6.489 1.571-2.299 2.42-4.754 2.505-7.24.15-1.417-.961-3.352-2.849-6.643l-24.94-43.447c-2.31-4.026-3.466-6.039-5.203-6.039z" fill="#33334C"/></g><g filter="url(#filter5_d)"><path fill-rule="evenodd" clip-rule="evenodd" d="M80.999 127.23c-1.73 0-2.885 1.997-5.194 5.99L54.018 170.9c-1.888 3.265-3.005 5.198-2.882 6.614.023 2.341.795 4.657 2.273 6.82 1.501 2.197 3.702 4.192 6.475 5.873 2.774 1.681 6.067 3.015 9.69 3.924 3.624.91 7.509 1.378 11.431 1.378 3.923 0 7.807-.468 11.43-1.378 3.625-.909 6.917-2.243 9.691-3.924 2.774-1.681 4.974-3.676 6.475-5.873 1.501-2.196 2.274-4.55 2.274-6.927h-.006c.06-1.407-1.049-3.324-2.89-6.507l-21.786-37.68c-2.309-3.993-3.463-5.99-5.194-5.99z" fill="#515170"/></g><g filter="url(#filter6_d)"><path fill-rule="evenodd" clip-rule="evenodd" d="M81.005 119.09c-.568 0-.952.644-1.718 1.933L61.84 150.346c-2.046 3.439-3.218 5.408-2.976 6.855.08 1.629.647 3.237 1.677 4.744 1.113 1.629 2.745 3.109 4.802 4.356 2.056 1.246 4.498 2.235 7.186 2.91 2.687.674 5.567 1.022 8.476 1.022 2.91 0 5.79-.348 8.477-1.022 2.687-.675 5.129-1.664 7.186-2.91 2.057-1.247 3.688-2.727 4.801-4.356 1.03-1.506 1.597-3.113 1.677-4.74.245-1.448-.927-3.417-2.975-6.859l-17.447-29.323c-.767-1.289-1.15-1.933-1.719-1.933z" fill="#68688E"/></g><path fill-rule="evenodd" clip-rule="evenodd" d="M122.374 309.832h-6.4v14h.013c.026.228.105.452.235.665.16.262.396.501.693.702.297.2.65.36 1.038.469.388.108.804.164 1.224.164.42 0 .836-.056 1.225-.164.388-.109.74-.269 1.037-.469.298-.201.533-.44.694-.702.13-.213.209-.437.234-.665h.007v-.082c.002-.027.002-.054.002-.081h-.002v-13.837zM60.3 285.637h-6.4v13.999h.012c.026.229.105.453.235.665.16.263.396.501.693.702.297.201.65.361 1.038.469a4.55 4.55 0 001.224.165c.42 0 .837-.056 1.225-.165a3.57 3.57 0 001.038-.469c.297-.201.532-.439.693-.702a1.61 1.61 0 00.235-.665h.007v-.081l.002-.082H60.3v-13.836zm84.698 12.195h-6.4v14h.013c.025.228.104.452.234.665.161.262.397.501.694.702.297.2.649.36 1.037.469.389.108.805.164 1.225.164.42 0 .836-.056 1.224-.164a3.611 3.611 0 001.038-.469c.297-.201.533-.44.693-.702.13-.213.209-.437.235-.665h.007v-.082a2.19 2.19 0 00.002-.081h-.002v-13.837z" fill="#202037"/><path d="M70.203 274.013c4.343-2.064 6.514-3.096 8.852-3.232 2.338-.136 4.615.637 9.167 2.183l59.087 20.063V296c0 1.136 0 1.704-.272 2.17-.272.467-.766.747-1.754 1.308l-15.286 8.678c-4.912 2.789-7.369 4.184-10.088 4.374-2.719.189-5.345-.851-10.597-2.931l-55.069-21.807c-1.223-.485-1.835-.727-2.181-1.236-.346-.509-.346-1.167-.346-2.483v-1.274l18.487-8.786z" fill="#1B1B31"/><path d="M69.183 271.395c4.827-2.735 7.24-4.103 9.913-4.307 2.672-.203 5.265.783 10.45 2.755l52.501 19.965c3.442 1.309 5.164 1.963 5.26 3.229.097 1.266-1.505 2.174-4.709 3.99l-12.781 7.242c-4.827 2.735-7.24 4.103-9.913 4.307-2.672.203-5.265-.783-10.45-2.755l-52.501-19.965c-3.443-1.309-5.164-1.963-5.26-3.229-.096-1.266 1.505-2.174 4.71-3.99l12.78-7.242z" fill="#202037"/><g filter="url(#filter7_i)"><path d="M65.96 273.242l69.859 27.619-2.786 1.559-69.553-27.799 2.48-1.379z" fill="#1B1B31"/></g><g filter="url(#filter8_i)"><path d="M58.96 277.242l69.859 27.619-2.786 1.559-69.553-27.799 2.48-1.379z" fill="#1B1B31"/></g><g filter="url(#filter9_i)"><path d="M72.96 269.242l69.859 27.619-2.786 1.559-69.553-27.799 2.48-1.379z" fill="#1B1B31"/></g><defs><filter id="filter0_d" x="46" y=".5" width="264" height="278" filterUnits="userSpaceOnUse" color-interpolation-filters="sRGB"><feFlood flood-opacity="0" result="BackgroundImageFix"/><feColorMatrix in="SourceAlpha" values="0 0 0 0 0 0 0 0 0 0 0 0 0 0 0 0 0 0 127 0"/><feOffset/><feGaussianBlur stdDeviation="40"/><feColorMatrix values="0 0 0 0 1 0 0 0 0 1 0 0 0 0 1 0 0 0 0.5 0"/><feBlend in2="BackgroundImageFix" result="effect1_dropShadow"/><feBlend in="SourceGraphic" in2="effect1_dropShadow" result="shape"/></filter><filter id="filter1_d" x=".45" y="123.164" width="92.053" height="99.858" filterUnits="userSpaceOnUse" color-interpolation-filters="sRGB"><feFlood flood-opacity="0" result="BackgroundImageFix"/><feColorMatrix in="SourceAlpha" values="0 0 0 0 0 0 0 0 0 0 0 0 0 0 0 0 0 0 127 0"/><feOffset dy="8"/><feGaussianBlur stdDeviation="10"/><feColorMatrix values="0 0 0 0 0.0509804 0 0 0 0 0.0627451 0 0 0 0 0.121569 0 0 0 0.4 0"/><feBlend in2="BackgroundImageFix" result="effect1_dropShadow"/><feBlend in="SourceGraphic" in2="effect1_dropShadow" result="shape"/></filter><filter id="filter2_d" x="2.962" y="111.027" width="87.017" height="93.605" filterUnits="userSpaceOnUse" color-interpolation-filters="sRGB"><feFlood flood-opacity="0" result="BackgroundImageFix"/><feColorMatrix in="SourceAlpha" values="0 0 0 0 0 0 0 0 0 0 0 0 0 0 0 0 0 0 127 0"/><feOffset dy="8"/><feGaussianBlur stdDeviation="10"/><feColorMatrix values="0 0 0 0 0.0509804 0 0 0 0 0.0627451 0 0 0 0 0.121569 0 0 0 0.4 0"/><feBlend in2="BackgroundImageFix" result="effect1_dropShadow"/><feBlend in="SourceGraphic" in2="effect1_dropShadow" result="shape"/></filter><filter id="filter3_d" x="9.16" y="104.09" width="74.641" height="80.325" filterUnits="userSpaceOnUse" color-interpolation-filters="sRGB"><feFlood flood-opacity="0" result="BackgroundImageFix"/><feColorMatrix in="SourceAlpha" values="0 0 0 0 0 0 0 0 0 0 0 0 0 0 0 0 0 0 127 0"/><feOffset dy="8"/><feGaussianBlur stdDeviation="10"/><feColorMatrix values="0 0 0 0 0.0509804 0 0 0 0 0.0627451 0 0 0 0 0.121569 0 0 0 0.4 0"/><feBlend in2="BackgroundImageFix" result="effect1_dropShadow"/><feBlend in="SourceGraphic" in2="effect1_dropShadow" result="shape"/></filter><filter id="filter4_d" x="28" y="130.352" width="106.011" height="115.716" filterUnits="userSpaceOnUse" color-interpolation-filters="sRGB"><feFlood flood-opacity="0" result="BackgroundImageFix"/><feColorMatrix in="SourceAlpha" values="0 0 0 0 0 0 0 0 0 0 0 0 0 0 0 0 0 0 127 0"/><feOffset dy="8"/><feGaussianBlur stdDeviation="10"/><feColorMatrix values="0 0 0 0 0.0509804 0 0 0 0 0.0627451 0 0 0 0 0.121569 0 0 0 0.4 0"/><feBlend in2="BackgroundImageFix" result="effect1_dropShadow"/><feBlend in="SourceGraphic" in2="effect1_dropShadow" result="shape"/></filter><filter id="filter5_d" x="31.127" y="115.23" width="99.748" height="108.279" filterUnits="userSpaceOnUse" color-interpolation-filters="sRGB"><feFlood flood-opacity="0" result="BackgroundImageFix"/><feColorMatrix in="SourceAlpha" values="0 0 0 0 0 0 0 0 0 0 0 0 0 0 0 0 0 0 127 0"/><feOffset dy="8"/><feGaussianBlur stdDeviation="10"/><feColorMatrix values="0 0 0 0 0.0509804 0 0 0 0 0.0627451 0 0 0 0 0.121569 0 0 0 0.4 0"/><feBlend in2="BackgroundImageFix" result="effect1_dropShadow"/><feBlend in="SourceGraphic" in2="effect1_dropShadow" result="shape"/></filter><filter id="filter6_d" x="38.833" y="107.09" width="84.345" height="91.143" filterUnits="userSpaceOnUse" color-interpolation-filters="sRGB"><feFlood flood-opacity="0" result="BackgroundImageFix"/><feColorMatrix in="SourceAlpha" values="0 0 0 0 0 0 0 0 0 0 0 0 0 0 0 0 0 0 127 0"/><feOffset dy="8"/><feGaussianBlur stdDeviation="10"/><feColorMatrix values="0 0 0 0 0.0509804 0 0 0 0 0.0627451 0 0 0 0 0.121569 0 0 0 0.4 0"/><feBlend in2="BackgroundImageFix" result="effect1_dropShadow"/><feBlend in="SourceGraphic" in2="effect1_dropShadow" result="shape"/></filter><filter id="filter7_i" x="63.48" y="273.242" width="72.34" height="31.178" filterUnits="userSpaceOnUse" color-interpolation-filters="sRGB"><feFlood flood-opacity="0" result="BackgroundImageFix"/><feBlend in="SourceGraphic" in2="BackgroundImageFix" result="shape"/><feColorMatrix in="SourceAlpha" values="0 0 0 0 0 0 0 0 0 0 0 0 0 0 0 0 0 0 127 0" result="hardAlpha"/><feOffset dy="2"/><feGaussianBlur stdDeviation="1"/><feComposite in2="hardAlpha" operator="arithmetic" k2="-1" k3="1"/><feColorMatrix values="0 0 0 0 1 0 0 0 0 1 0 0 0 0 1 0 0 0 0.08 0"/><feBlend in2="shape" result="effect1_innerShadow"/></filter><filter id="filter8_i" x="56.48" y="277.242" width="72.34" height="31.178" filterUnits="userSpaceOnUse" color-interpolation-filters="sRGB"><feFlood flood-opacity="0" result="BackgroundImageFix"/><feBlend in="SourceGraphic" in2="BackgroundImageFix" result="shape"/><feColorMatrix in="SourceAlpha" values="0 0 0 0 0 0 0 0 0 0 0 0 0 0 0 0 0 0 127 0" result="hardAlpha"/><feOffset dy="2"/><feGaussianBlur stdDeviation="1"/><feComposite in2="hardAlpha" operator="arithmetic" k2="-1" k3="1"/><feColorMatrix values="0 0 0 0 1 0 0 0 0 1 0 0 0 0 1 0 0 0 0.08 0"/><feBlend in2="shape" result="effect1_innerShadow"/></filter><filter id="filter9_i" x="70.48" y="269.242" width="72.34" height="31.178" filterUnits="userSpaceOnUse" color-interpolation-filters="sRGB"><feFlood flood-opacity="0" result="BackgroundImageFix"/><feBlend in="SourceGraphic" in2="BackgroundImageFix" result="shape"/><feColorMatrix in="SourceAlpha" values="0 0 0 0 0 0 0 0 0 0 0 0 0 0 0 0 0 0 127 0" result="hardAlpha"/><feOffset dy="2"/><feGaussianBlur stdDeviation="1"/><feComposite in2="hardAlpha" operator="arithmetic" k2="-1" k3="1"/><feColorMatrix values="0 0 0 0 1 0 0 0 0 1 0 0 0 0 1 0 0 0 0.08 0"/><feBlend in2="shape" result="effect1_innerShadow"/></filter></defs></svg>