<svg xmlns="http://www.w3.org/2000/svg" style="margin:auto;background:0 0;animation-play-state:running;animation-delay:0s" width="100" height="100" preserveAspectRatio="xMidYMid" display="block"><rect x="48.5" y="30" rx="1.5" ry="2" width="3" height="10" fill="#3d3d3d" style="animation-play-state:running;animation-delay:0s"><animate attributeName="opacity" values="1;0" keyTimes="0;1" dur="2s" begin="-1.8666666666666667s" repeatCount="indefinite"/></rect><rect x="48.5" y="30" rx="1.5" ry="2" width="3" height="10" fill="#3d3d3d" style="animation-play-state:running;animation-delay:0s" transform="rotate(24 50 50)"><animate attributeName="opacity" values="1;0" keyTimes="0;1" dur="2s" begin="-1.7333333333333334s" repeatCount="indefinite"/></rect><rect x="48.5" y="30" rx="1.5" ry="2" width="3" height="10" fill="#3d3d3d" style="animation-play-state:running;animation-delay:0s" transform="rotate(48 50 50)"><animate attributeName="opacity" values="1;0" keyTimes="0;1" dur="2s" begin="-1.6s" repeatCount="indefinite"/></rect><rect x="48.5" y="30" rx="1.5" ry="2" width="3" height="10" fill="#3d3d3d" style="animation-play-state:running;animation-delay:0s" transform="rotate(72 50 50)"><animate attributeName="opacity" values="1;0" keyTimes="0;1" dur="2s" begin="-1.4666666666666666s" repeatCount="indefinite"/></rect><rect x="48.5" y="30" rx="1.5" ry="2" width="3" height="10" fill="#3d3d3d" style="animation-play-state:running;animation-delay:0s" transform="rotate(96 50 50)"><animate attributeName="opacity" values="1;0" keyTimes="0;1" dur="2s" begin="-1.3333333333333333s" repeatCount="indefinite"/></rect><rect x="48.5" y="30" rx="1.5" ry="2" width="3" height="10" fill="#3d3d3d" style="animation-play-state:running;animation-delay:0s" transform="rotate(120 50 50)"><animate attributeName="opacity" values="1;0" keyTimes="0;1" dur="2s" begin="-1.2s" repeatCount="indefinite"/></rect><rect x="48.5" y="30" rx="1.5" ry="2" width="3" height="10" fill="#3d3d3d" style="animation-play-state:running;animation-delay:0s" transform="rotate(144 50 50)"><animate attributeName="opacity" values="1;0" keyTimes="0;1" dur="2s" begin="-1.0666666666666667s" repeatCount="indefinite"/></rect><rect x="48.5" y="30" rx="1.5" ry="2" width="3" height="10" fill="#3d3d3d" style="animation-play-state:running;animation-delay:0s" transform="rotate(168 50 50)"><animate attributeName="opacity" values="1;0" keyTimes="0;1" dur="2s" begin="-0.9333333333333333s" repeatCount="indefinite"/></rect><rect x="48.5" y="30" rx="1.5" ry="2" width="3" height="10" fill="#3d3d3d" style="animation-play-state:running;animation-delay:0s" transform="rotate(192 50 50)"><animate attributeName="opacity" values="1;0" keyTimes="0;1" dur="2s" begin="-0.8s" repeatCount="indefinite"/></rect><rect x="48.5" y="30" rx="1.5" ry="2" width="3" height="10" fill="#3d3d3d" style="animation-play-state:running;animation-delay:0s" transform="rotate(216 50 50)"><animate attributeName="opacity" values="1;0" keyTimes="0;1" dur="2s" begin="-0.6666666666666666s" repeatCount="indefinite"/></rect><rect x="48.5" y="30" rx="1.5" ry="2" width="3" height="10" fill="#3d3d3d" style="animation-play-state:running;animation-delay:0s" transform="rotate(240 50 50)"><animate attributeName="opacity" values="1;0" keyTimes="0;1" dur="2s" begin="-0.5333333333333333s" repeatCount="indefinite"/></rect><rect x="48.5" y="30" rx="1.5" ry="2" width="3" height="10" fill="#3d3d3d" style="animation-play-state:running;animation-delay:0s" transform="rotate(264 50 50)"><animate attributeName="opacity" values="1;0" keyTimes="0;1" dur="2s" begin="-0.4s" repeatCount="indefinite"/></rect><rect x="48.5" y="30" rx="1.5" ry="2" width="3" height="10" fill="#3d3d3d" style="animation-play-state:running;animation-delay:0s" transform="rotate(288 50 50)"><animate attributeName="opacity" values="1;0" keyTimes="0;1" dur="2s" begin="-0.26666666666666666s" repeatCount="indefinite"/></rect><rect x="48.5" y="30" rx="1.5" ry="2" width="3" height="10" fill="#3d3d3d" style="animation-play-state:running;animation-delay:0s" transform="rotate(312 50 50)"><animate attributeName="opacity" values="1;0" keyTimes="0;1" dur="2s" begin="-0.13333333333333333s" repeatCount="indefinite"/></rect><rect x="48.5" y="30" rx="1.5" ry="2" width="3" height="10" fill="#3d3d3d" style="animation-play-state:running;animation-delay:0s" transform="rotate(336 50 50)"><animate attributeName="opacity" values="1;0" keyTimes="0;1" dur="2s" begin="0s" repeatCount="indefinite"/></rect></svg>